<?xml version="1.0" encoding="UTF-8" standalone="no"?>
<!DOCTYPE svg PUBLIC "-//W3C//DTD SVG 1.1//EN"
 "http://www.w3.org/Graphics/SVG/1.1/DTD/svg11.dtd">
<!-- Generated by graphviz version 2.26.3 (20100126.1600)
 -->
<!-- Title: controllers_diagram Pages: 1 -->
<svg width="1652pt" height="1430pt"
 viewBox="0.00 0.00 1652.00 1430.41" xmlns="http://www.w3.org/2000/svg" xmlns:xlink="http://www.w3.org/1999/xlink">
<g id="graph1" class="graph" transform="scale(1 1) rotate(0) translate(4 1426.41)">
<title>controllers_diagram</title>
<polygon fill="white" stroke="white" points="-4,5 -4,-1426.41 1649,-1426.41 1649,5 -4,5"/>
<!-- _diagram_info -->
<g id="node1" class="node"><title>_diagram_info</title>
<text text-anchor="start" x="1401" y="-513.3" font-family="Times Roman,serif" font-size="13.00">Controllers diagram</text>
<text text-anchor="start" x="1401" y="-496.3" font-family="Times Roman,serif" font-size="13.00">Date: Jan 03 2013 &#45; 20:36</text>
<text text-anchor="start" x="1401" y="-479.3" font-family="Times Roman,serif" font-size="13.00">Migration version: 20121229185224</text>
<text text-anchor="start" x="1401" y="-462.3" font-family="Times Roman,serif" font-size="13.00">Generated by RailRoady 1.1.0</text>
<text text-anchor="start" x="1401" y="-445.3" font-family="Times Roman,serif" font-size="13.00">http://railroady.prestonlee.com</text>
</g>
<!-- RegistrationsController -->
<g id="node2" class="node"><title>RegistrationsController</title>
<polyline fill="none" stroke="black" points="1405,-1132.5 1557,-1132.5 "/>
<path fill="none" stroke="black" d="M1557,-1132.5C1563,-1132.5 1569,-1138.5 1569,-1144.5"/>
<polyline fill="none" stroke="black" points="1569,-1144.5 1569,-1276.5 "/>
<path fill="none" stroke="black" d="M1569,-1276.5C1569,-1282.5 1563,-1288.5 1557,-1288.5"/>
<polyline fill="none" stroke="black" points="1557,-1288.5 1405,-1288.5 "/>
<path fill="none" stroke="black" d="M1405,-1288.5C1399,-1288.5 1393,-1282.5 1393,-1276.5"/>
<polyline fill="none" stroke="black" points="1393,-1276.5 1393,-1144.5 "/>
<path fill="none" stroke="black" d="M1393,-1144.5C1393,-1138.5 1399,-1132.5 1405,-1132.5"/>
<text text-anchor="middle" x="1481" y="-1271.9" font-family="Times Roman,serif" font-size="14.00">RegistrationsController</text>
<polyline fill="none" stroke="black" points="1393,-1262.5 1569,-1262.5 "/>
<text text-anchor="start" x="1401" y="-1245.9" font-family="Times Roman,serif" font-size="14.00">new</text>
<text text-anchor="start" x="1401" y="-1227.9" font-family="Times Roman,serif" font-size="14.00">update_card</text>
<text text-anchor="start" x="1401" y="-1209.9" font-family="Times Roman,serif" font-size="14.00">update_plan</text>
<polyline fill="none" stroke="black" points="1393,-1200.5 1569,-1200.5 "/>
<polyline fill="none" stroke="black" points="1393,-1176.5 1569,-1176.5 "/>
<text text-anchor="start" x="1401" y="-1159.9" font-family="Times Roman,serif" font-size="14.00">_layout</text>
<text text-anchor="start" x="1401" y="-1141.9" font-family="Times Roman,serif" font-size="14.00">build_resource</text>
</g>
<!-- ReviewersController -->
<g id="node3" class="node"><title>ReviewersController</title>
<polyline fill="none" stroke="black" points="44.8872,-391.047 267.887,-391.047 "/>
<path fill="none" stroke="black" d="M267.887,-391.047C273.887,-391.047 279.887,-397.047 279.887,-403.047"/>
<polyline fill="none" stroke="black" points="279.887,-403.047 279.887,-661.047 "/>
<path fill="none" stroke="black" d="M279.887,-661.047C279.887,-667.047 273.887,-673.047 267.887,-673.047"/>
<polyline fill="none" stroke="black" points="267.887,-673.047 44.8872,-673.047 "/>
<path fill="none" stroke="black" d="M44.8872,-673.047C38.8872,-673.047 32.8872,-667.047 32.8872,-661.047"/>
<polyline fill="none" stroke="black" points="32.8872,-661.047 32.8872,-403.047 "/>
<path fill="none" stroke="black" d="M32.8872,-403.047C32.8872,-397.047 38.8872,-391.047 44.8872,-391.047"/>
<text text-anchor="middle" x="156.387" y="-656.447" font-family="Times Roman,serif" font-size="14.00">ReviewersController</text>
<polyline fill="none" stroke="black" points="32.8872,-647.047 279.887,-647.047 "/>
<text text-anchor="start" x="40.8872" y="-630.447" font-family="Times Roman,serif" font-size="14.00">_callback_before_153</text>
<text text-anchor="start" x="40.8872" y="-612.447" font-family="Times Roman,serif" font-size="14.00">_one_time_conditions_valid_152?</text>
<text text-anchor="start" x="40.8872" y="-594.447" font-family="Times Roman,serif" font-size="14.00">_one_time_conditions_valid_154?</text>
<text text-anchor="start" x="40.8872" y="-576.447" font-family="Times Roman,serif" font-size="14.00">create</text>
<text text-anchor="start" x="40.8872" y="-558.447" font-family="Times Roman,serif" font-size="14.00">destroy</text>
<text text-anchor="start" x="40.8872" y="-540.447" font-family="Times Roman,serif" font-size="14.00">edit</text>
<text text-anchor="start" x="40.8872" y="-522.447" font-family="Times Roman,serif" font-size="14.00">get_city</text>
<text text-anchor="start" x="40.8872" y="-504.447" font-family="Times Roman,serif" font-size="14.00">index</text>
<text text-anchor="start" x="40.8872" y="-486.447" font-family="Times Roman,serif" font-size="14.00">new</text>
<text text-anchor="start" x="40.8872" y="-468.447" font-family="Times Roman,serif" font-size="14.00">show</text>
<text text-anchor="start" x="40.8872" y="-450.447" font-family="Times Roman,serif" font-size="14.00">update</text>
<polyline fill="none" stroke="black" points="32.8872,-441.047 279.887,-441.047 "/>
<polyline fill="none" stroke="black" points="32.8872,-417.047 279.887,-417.047 "/>
<text text-anchor="start" x="40.8872" y="-400.447" font-family="Times Roman,serif" font-size="14.00">_layout</text>
</g>
<!-- ProjectsController -->
<g id="node4" class="node"><title>ProjectsController</title>
<polyline fill="none" stroke="black" points="696.24,-738.277 919.24,-738.277 "/>
<path fill="none" stroke="black" d="M919.24,-738.277C925.24,-738.277 931.24,-744.277 931.24,-750.277"/>
<polyline fill="none" stroke="black" points="931.24,-750.277 931.24,-972.277 "/>
<path fill="none" stroke="black" d="M931.24,-972.277C931.24,-978.277 925.24,-984.277 919.24,-984.277"/>
<polyline fill="none" stroke="black" points="919.24,-984.277 696.24,-984.277 "/>
<path fill="none" stroke="black" d="M696.24,-984.277C690.24,-984.277 684.24,-978.277 684.24,-972.277"/>
<polyline fill="none" stroke="black" points="684.24,-972.277 684.24,-750.277 "/>
<path fill="none" stroke="black" d="M684.24,-750.277C684.24,-744.277 690.24,-738.277 696.24,-738.277"/>
<text text-anchor="middle" x="807.74" y="-967.677" font-family="Times Roman,serif" font-size="14.00">ProjectsController</text>
<polyline fill="none" stroke="black" points="684.24,-958.277 931.24,-958.277 "/>
<text text-anchor="start" x="692.24" y="-941.677" font-family="Times Roman,serif" font-size="14.00">_callback_before_221</text>
<text text-anchor="start" x="692.24" y="-923.677" font-family="Times Roman,serif" font-size="14.00">_one_time_conditions_valid_222?</text>
<text text-anchor="start" x="692.24" y="-905.677" font-family="Times Roman,serif" font-size="14.00">create</text>
<text text-anchor="start" x="692.24" y="-887.677" font-family="Times Roman,serif" font-size="14.00">destroy</text>
<text text-anchor="start" x="692.24" y="-869.677" font-family="Times Roman,serif" font-size="14.00">edit</text>
<text text-anchor="start" x="692.24" y="-851.677" font-family="Times Roman,serif" font-size="14.00">index</text>
<text text-anchor="start" x="692.24" y="-833.677" font-family="Times Roman,serif" font-size="14.00">new</text>
<text text-anchor="start" x="692.24" y="-815.677" font-family="Times Roman,serif" font-size="14.00">show</text>
<text text-anchor="start" x="692.24" y="-797.677" font-family="Times Roman,serif" font-size="14.00">update</text>
<polyline fill="none" stroke="black" points="684.24,-788.277 931.24,-788.277 "/>
<polyline fill="none" stroke="black" points="684.24,-764.277 931.24,-764.277 "/>
<text text-anchor="start" x="692.24" y="-747.677" font-family="Times Roman,serif" font-size="14.00">_layout</text>
</g>
<!-- BlueprintsController -->
<g id="node5" class="node"><title>BlueprintsController</title>
<polyline fill="none" stroke="black" points="386.255,-23.3879 609.255,-23.3879 "/>
<path fill="none" stroke="black" d="M609.255,-23.3879C615.255,-23.3879 621.255,-29.3879 621.255,-35.3879"/>
<polyline fill="none" stroke="black" points="621.255,-35.3879 621.255,-293.388 "/>
<path fill="none" stroke="black" d="M621.255,-293.388C621.255,-299.388 615.255,-305.388 609.255,-305.388"/>
<polyline fill="none" stroke="black" points="609.255,-305.388 386.255,-305.388 "/>
<path fill="none" stroke="black" d="M386.255,-305.388C380.255,-305.388 374.255,-299.388 374.255,-293.388"/>
<polyline fill="none" stroke="black" points="374.255,-293.388 374.255,-35.3879 "/>
<path fill="none" stroke="black" d="M374.255,-35.3879C374.255,-29.3879 380.255,-23.3879 386.255,-23.3879"/>
<text text-anchor="middle" x="497.755" y="-288.788" font-family="Times Roman,serif" font-size="14.00">BlueprintsController</text>
<polyline fill="none" stroke="black" points="374.255,-279.388 621.255,-279.388 "/>
<text text-anchor="start" x="382.255" y="-262.788" font-family="Times Roman,serif" font-size="14.00">_callback_before_273</text>
<text text-anchor="start" x="382.255" y="-244.788" font-family="Times Roman,serif" font-size="14.00">_one_time_conditions_valid_272?</text>
<text text-anchor="start" x="382.255" y="-226.788" font-family="Times Roman,serif" font-size="14.00">_one_time_conditions_valid_274?</text>
<text text-anchor="start" x="382.255" y="-208.788" font-family="Times Roman,serif" font-size="14.00">create</text>
<text text-anchor="start" x="382.255" y="-190.788" font-family="Times Roman,serif" font-size="14.00">destroy</text>
<text text-anchor="start" x="382.255" y="-172.788" font-family="Times Roman,serif" font-size="14.00">edit</text>
<text text-anchor="start" x="382.255" y="-154.788" font-family="Times Roman,serif" font-size="14.00">get_project</text>
<text text-anchor="start" x="382.255" y="-136.788" font-family="Times Roman,serif" font-size="14.00">index</text>
<text text-anchor="start" x="382.255" y="-118.788" font-family="Times Roman,serif" font-size="14.00">new</text>
<text text-anchor="start" x="382.255" y="-100.788" font-family="Times Roman,serif" font-size="14.00">show</text>
<text text-anchor="start" x="382.255" y="-82.7879" font-family="Times Roman,serif" font-size="14.00">update</text>
<polyline fill="none" stroke="black" points="374.255,-73.3879 621.255,-73.3879 "/>
<polyline fill="none" stroke="black" points="374.255,-49.3879 621.255,-49.3879 "/>
<text text-anchor="start" x="382.255" y="-32.7879" font-family="Times Roman,serif" font-size="14.00">_layout</text>
</g>
<!-- ContentController -->
<g id="node6" class="node"><title>ContentController</title>
<polyline fill="none" stroke="black" points="381.83,-965.298 604.83,-965.298 "/>
<path fill="none" stroke="black" d="M604.83,-965.298C610.83,-965.298 616.83,-971.298 616.83,-977.298"/>
<polyline fill="none" stroke="black" points="616.83,-977.298 616.83,-1109.3 "/>
<path fill="none" stroke="black" d="M616.83,-1109.3C616.83,-1115.3 610.83,-1121.3 604.83,-1121.3"/>
<polyline fill="none" stroke="black" points="604.83,-1121.3 381.83,-1121.3 "/>
<path fill="none" stroke="black" d="M381.83,-1121.3C375.83,-1121.3 369.83,-1115.3 369.83,-1109.3"/>
<polyline fill="none" stroke="black" points="369.83,-1109.3 369.83,-977.298 "/>
<path fill="none" stroke="black" d="M369.83,-977.298C369.83,-971.298 375.83,-965.298 381.83,-965.298"/>
<text text-anchor="middle" x="493.33" y="-1104.7" font-family="Times Roman,serif" font-size="14.00">ContentController</text>
<polyline fill="none" stroke="black" points="369.83,-1095.3 616.83,-1095.3 "/>
<text text-anchor="start" x="377.83" y="-1078.7" font-family="Times Roman,serif" font-size="14.00">_one_time_conditions_valid_276?</text>
<text text-anchor="start" x="377.83" y="-1060.7" font-family="Times Roman,serif" font-size="14.00">gold</text>
<text text-anchor="start" x="377.83" y="-1042.7" font-family="Times Roman,serif" font-size="14.00">platinum</text>
<text text-anchor="start" x="377.83" y="-1024.7" font-family="Times Roman,serif" font-size="14.00">silver</text>
<polyline fill="none" stroke="black" points="369.83,-1015.3 616.83,-1015.3 "/>
<polyline fill="none" stroke="black" points="369.83,-991.298 616.83,-991.298 "/>
<text text-anchor="start" x="377.83" y="-974.698" font-family="Times Roman,serif" font-size="14.00">_layout</text>
</g>
<!-- GroupsController -->
<g id="node7" class="node"><title>GroupsController</title>
<polyline fill="none" stroke="black" points="618.036,-1174.91 841.036,-1174.91 "/>
<path fill="none" stroke="black" d="M841.036,-1174.91C847.036,-1174.91 853.036,-1180.91 853.036,-1186.91"/>
<polyline fill="none" stroke="black" points="853.036,-1186.91 853.036,-1408.91 "/>
<path fill="none" stroke="black" d="M853.036,-1408.91C853.036,-1414.91 847.036,-1420.91 841.036,-1420.91"/>
<polyline fill="none" stroke="black" points="841.036,-1420.91 618.036,-1420.91 "/>
<path fill="none" stroke="black" d="M618.036,-1420.91C612.036,-1420.91 606.036,-1414.91 606.036,-1408.91"/>
<polyline fill="none" stroke="black" points="606.036,-1408.91 606.036,-1186.91 "/>
<path fill="none" stroke="black" d="M606.036,-1186.91C606.036,-1180.91 612.036,-1174.91 618.036,-1174.91"/>
<text text-anchor="middle" x="729.536" y="-1404.31" font-family="Times Roman,serif" font-size="14.00">GroupsController</text>
<polyline fill="none" stroke="black" points="606.036,-1394.91 853.036,-1394.91 "/>
<text text-anchor="start" x="614.036" y="-1378.31" font-family="Times Roman,serif" font-size="14.00">_callback_before_301</text>
<text text-anchor="start" x="614.036" y="-1360.31" font-family="Times Roman,serif" font-size="14.00">_one_time_conditions_valid_302?</text>
<text text-anchor="start" x="614.036" y="-1342.31" font-family="Times Roman,serif" font-size="14.00">create</text>
<text text-anchor="start" x="614.036" y="-1324.31" font-family="Times Roman,serif" font-size="14.00">destroy</text>
<text text-anchor="start" x="614.036" y="-1306.31" font-family="Times Roman,serif" font-size="14.00">edit</text>
<text text-anchor="start" x="614.036" y="-1288.31" font-family="Times Roman,serif" font-size="14.00">index</text>
<text text-anchor="start" x="614.036" y="-1270.31" font-family="Times Roman,serif" font-size="14.00">new</text>
<text text-anchor="start" x="614.036" y="-1252.31" font-family="Times Roman,serif" font-size="14.00">show</text>
<text text-anchor="start" x="614.036" y="-1234.31" font-family="Times Roman,serif" font-size="14.00">update</text>
<polyline fill="none" stroke="black" points="606.036,-1224.91 853.036,-1224.91 "/>
<polyline fill="none" stroke="black" points="606.036,-1200.91 853.036,-1200.91 "/>
<text text-anchor="start" x="614.036" y="-1184.31" font-family="Times Roman,serif" font-size="14.00">_layout</text>
</g>
<!-- SealsController -->
<g id="node8" class="node"><title>SealsController</title>
<polyline fill="none" stroke="black" points="53.3857,-1137.29 276.386,-1137.29 "/>
<path fill="none" stroke="black" d="M276.386,-1137.29C282.386,-1137.29 288.386,-1143.29 288.386,-1149.29"/>
<polyline fill="none" stroke="black" points="288.386,-1149.29 288.386,-1407.29 "/>
<path fill="none" stroke="black" d="M288.386,-1407.29C288.386,-1413.29 282.386,-1419.29 276.386,-1419.29"/>
<polyline fill="none" stroke="black" points="276.386,-1419.29 53.3857,-1419.29 "/>
<path fill="none" stroke="black" d="M53.3857,-1419.29C47.3857,-1419.29 41.3857,-1413.29 41.3857,-1407.29"/>
<polyline fill="none" stroke="black" points="41.3857,-1407.29 41.3857,-1149.29 "/>
<path fill="none" stroke="black" d="M41.3857,-1149.29C41.3857,-1143.29 47.3857,-1137.29 53.3857,-1137.29"/>
<text text-anchor="middle" x="164.886" y="-1402.69" font-family="Times Roman,serif" font-size="14.00">SealsController</text>
<polyline fill="none" stroke="black" points="41.3857,-1393.29 288.386,-1393.29 "/>
<text text-anchor="start" x="49.3857" y="-1376.69" font-family="Times Roman,serif" font-size="14.00">_callback_before_309</text>
<text text-anchor="start" x="49.3857" y="-1358.69" font-family="Times Roman,serif" font-size="14.00">_one_time_conditions_valid_308?</text>
<text text-anchor="start" x="49.3857" y="-1340.69" font-family="Times Roman,serif" font-size="14.00">_one_time_conditions_valid_310?</text>
<text text-anchor="start" x="49.3857" y="-1322.69" font-family="Times Roman,serif" font-size="14.00">create</text>
<text text-anchor="start" x="49.3857" y="-1304.69" font-family="Times Roman,serif" font-size="14.00">destroy</text>
<text text-anchor="start" x="49.3857" y="-1286.69" font-family="Times Roman,serif" font-size="14.00">edit</text>
<text text-anchor="start" x="49.3857" y="-1268.69" font-family="Times Roman,serif" font-size="14.00">get_city</text>
<text text-anchor="start" x="49.3857" y="-1250.69" font-family="Times Roman,serif" font-size="14.00">index</text>
<text text-anchor="start" x="49.3857" y="-1232.69" font-family="Times Roman,serif" font-size="14.00">new</text>
<text text-anchor="start" x="49.3857" y="-1214.69" font-family="Times Roman,serif" font-size="14.00">show</text>
<text text-anchor="start" x="49.3857" y="-1196.69" font-family="Times Roman,serif" font-size="14.00">update</text>
<polyline fill="none" stroke="black" points="41.3857,-1187.29 288.386,-1187.29 "/>
<polyline fill="none" stroke="black" points="41.3857,-1163.29 288.386,-1163.29 "/>
<text text-anchor="start" x="49.3857" y="-1146.69" font-family="Times Roman,serif" font-size="14.00">_layout</text>
</g>
<!-- ApplicationController -->
<g id="node9" class="node"><title>ApplicationController</title>
<polyline fill="none" stroke="black" points="473.545,-538.037 696.545,-538.037 "/>
<path fill="none" stroke="black" d="M696.545,-538.037C702.545,-538.037 708.545,-544.037 708.545,-550.037"/>
<polyline fill="none" stroke="black" points="708.545,-550.037 708.545,-646.037 "/>
<path fill="none" stroke="black" d="M708.545,-646.037C708.545,-652.037 702.545,-658.037 696.545,-658.037"/>
<polyline fill="none" stroke="black" points="696.545,-658.037 473.545,-658.037 "/>
<path fill="none" stroke="black" d="M473.545,-658.037C467.545,-658.037 461.545,-652.037 461.545,-646.037"/>
<polyline fill="none" stroke="black" points="461.545,-646.037 461.545,-550.037 "/>
<path fill="none" stroke="black" d="M461.545,-550.037C461.545,-544.037 467.545,-538.037 473.545,-538.037"/>
<text text-anchor="middle" x="585.045" y="-641.437" font-family="Times Roman,serif" font-size="14.00">ApplicationController</text>
<polyline fill="none" stroke="black" points="461.545,-632.037 708.545,-632.037 "/>
<text text-anchor="start" x="469.545" y="-615.437" font-family="Times Roman,serif" font-size="14.00">_one_time_conditions_valid_136?</text>
<text text-anchor="start" x="469.545" y="-597.437" font-family="Times Roman,serif" font-size="14.00">after_sign_in_path_for</text>
<polyline fill="none" stroke="black" points="461.545,-588.037 708.545,-588.037 "/>
<polyline fill="none" stroke="black" points="461.545,-564.037 708.545,-564.037 "/>
<text text-anchor="start" x="469.545" y="-547.437" font-family="Times Roman,serif" font-size="14.00">_layout</text>
</g>
<!-- ApplicationController&#45;&gt;ReviewersController -->
<g id="edge2" class="edge"><title>ApplicationController&#45;&gt;ReviewersController</title>
<path fill="none" stroke="black" d="M461.347,-578.994C404.469,-570.238 337.152,-559.875 280.253,-551.115"/>
</g>
<!-- ApplicationController&#45;&gt;ProjectsController -->
<g id="edge4" class="edge"><title>ApplicationController&#45;&gt;ProjectsController</title>
<path fill="none" stroke="black" d="M635.857,-658.1C656.011,-681.923 679.967,-710.241 703.498,-738.056"/>
</g>
<!-- ApplicationController&#45;&gt;BlueprintsController -->
<g id="edge6" class="edge"><title>ApplicationController&#45;&gt;BlueprintsController</title>
<path fill="none" stroke="black" d="M572.908,-537.74C560.869,-477.93 541.98,-384.095 526.152,-305.462"/>
</g>
<!-- ApplicationController&#45;&gt;ContentController -->
<g id="edge8" class="edge"><title>ApplicationController&#45;&gt;ContentController</title>
<path fill="none" stroke="black" d="M572.676,-658.087C556.321,-737.49 527.469,-877.56 509.429,-965.136"/>
</g>
<!-- ApplicationController&#45;&gt;GroupsController -->
<g id="edge10" class="edge"><title>ApplicationController&#45;&gt;GroupsController</title>
<path fill="none" stroke="black" d="M597.49,-658.314C621.106,-772.705 672.851,-1023.34 704.093,-1174.67"/>
</g>
<!-- ApplicationController&#45;&gt;SealsController -->
<g id="edge12" class="edge"><title>ApplicationController&#45;&gt;SealsController</title>
<path fill="none" stroke="black" d="M547.943,-658.107C482.115,-764.685 343.247,-989.519 252.05,-1137.17"/>
</g>
<!-- CoordinatesController -->
<g id="node10" class="node"><title>CoordinatesController</title>
<polyline fill="none" stroke="black" points="981.892,-409.736 1204.89,-409.736 "/>
<path fill="none" stroke="black" d="M1204.89,-409.736C1210.89,-409.736 1216.89,-415.736 1216.89,-421.736"/>
<polyline fill="none" stroke="black" points="1216.89,-421.736 1216.89,-643.736 "/>
<path fill="none" stroke="black" d="M1216.89,-643.736C1216.89,-649.736 1210.89,-655.736 1204.89,-655.736"/>
<polyline fill="none" stroke="black" points="1204.89,-655.736 981.892,-655.736 "/>
<path fill="none" stroke="black" d="M981.892,-655.736C975.892,-655.736 969.892,-649.736 969.892,-643.736"/>
<polyline fill="none" stroke="black" points="969.892,-643.736 969.892,-421.736 "/>
<path fill="none" stroke="black" d="M969.892,-421.736C969.892,-415.736 975.892,-409.736 981.892,-409.736"/>
<text text-anchor="middle" x="1093.39" y="-639.136" font-family="Times Roman,serif" font-size="14.00">CoordinatesController</text>
<polyline fill="none" stroke="black" points="969.892,-629.736 1216.89,-629.736 "/>
<text text-anchor="start" x="977.892" y="-613.136" font-family="Times Roman,serif" font-size="14.00">_callback_before_315</text>
<text text-anchor="start" x="977.892" y="-595.136" font-family="Times Roman,serif" font-size="14.00">_one_time_conditions_valid_316?</text>
<text text-anchor="start" x="977.892" y="-577.136" font-family="Times Roman,serif" font-size="14.00">create</text>
<text text-anchor="start" x="977.892" y="-559.136" font-family="Times Roman,serif" font-size="14.00">destroy</text>
<text text-anchor="start" x="977.892" y="-541.136" font-family="Times Roman,serif" font-size="14.00">edit</text>
<text text-anchor="start" x="977.892" y="-523.136" font-family="Times Roman,serif" font-size="14.00">index</text>
<text text-anchor="start" x="977.892" y="-505.136" font-family="Times Roman,serif" font-size="14.00">new</text>
<text text-anchor="start" x="977.892" y="-487.136" font-family="Times Roman,serif" font-size="14.00">show</text>
<text text-anchor="start" x="977.892" y="-469.136" font-family="Times Roman,serif" font-size="14.00">update</text>
<polyline fill="none" stroke="black" points="969.892,-459.736 1216.89,-459.736 "/>
<polyline fill="none" stroke="black" points="969.892,-435.736 1216.89,-435.736 "/>
<text text-anchor="start" x="977.892" y="-419.136" font-family="Times Roman,serif" font-size="14.00">_layout</text>
</g>
<!-- ApplicationController&#45;&gt;CoordinatesController -->
<g id="edge14" class="edge"><title>ApplicationController&#45;&gt;CoordinatesController</title>
<path fill="none" stroke="black" d="M708.751,-582.146C787.955,-571.972 890.347,-558.819 969.573,-548.642"/>
</g>
<!-- ParticipantsController -->
<g id="node11" class="node"><title>ParticipantsController</title>
<polyline fill="none" stroke="black" points="13,-1.5 236,-1.5 "/>
<path fill="none" stroke="black" d="M236,-1.5C242,-1.5 248,-7.5 248,-13.5"/>
<polyline fill="none" stroke="black" points="248,-13.5 248,-271.5 "/>
<path fill="none" stroke="black" d="M248,-271.5C248,-277.5 242,-283.5 236,-283.5"/>
<polyline fill="none" stroke="black" points="236,-283.5 13,-283.5 "/>
<path fill="none" stroke="black" d="M13,-283.5C7,-283.5 1,-277.5 1,-271.5"/>
<polyline fill="none" stroke="black" points="1,-271.5 1,-13.5 "/>
<path fill="none" stroke="black" d="M1,-13.5C1,-7.5 7,-1.5 13,-1.5"/>
<text text-anchor="middle" x="124.5" y="-266.9" font-family="Times Roman,serif" font-size="14.00">ParticipantsController</text>
<polyline fill="none" stroke="black" points="1,-257.5 248,-257.5 "/>
<text text-anchor="start" x="9" y="-240.9" font-family="Times Roman,serif" font-size="14.00">_callback_before_323</text>
<text text-anchor="start" x="9" y="-222.9" font-family="Times Roman,serif" font-size="14.00">_one_time_conditions_valid_322?</text>
<text text-anchor="start" x="9" y="-204.9" font-family="Times Roman,serif" font-size="14.00">_one_time_conditions_valid_324?</text>
<text text-anchor="start" x="9" y="-186.9" font-family="Times Roman,serif" font-size="14.00">create</text>
<text text-anchor="start" x="9" y="-168.9" font-family="Times Roman,serif" font-size="14.00">destroy</text>
<text text-anchor="start" x="9" y="-150.9" font-family="Times Roman,serif" font-size="14.00">edit</text>
<text text-anchor="start" x="9" y="-132.9" font-family="Times Roman,serif" font-size="14.00">get_project</text>
<text text-anchor="start" x="9" y="-114.9" font-family="Times Roman,serif" font-size="14.00">index</text>
<text text-anchor="start" x="9" y="-96.9" font-family="Times Roman,serif" font-size="14.00">new</text>
<text text-anchor="start" x="9" y="-78.9" font-family="Times Roman,serif" font-size="14.00">show</text>
<text text-anchor="start" x="9" y="-60.9" font-family="Times Roman,serif" font-size="14.00">update</text>
<polyline fill="none" stroke="black" points="1,-51.5 248,-51.5 "/>
<polyline fill="none" stroke="black" points="1,-27.5 248,-27.5 "/>
<text text-anchor="start" x="9" y="-10.9" font-family="Times Roman,serif" font-size="14.00">_layout</text>
</g>
<!-- ApplicationController&#45;&gt;ParticipantsController -->
<g id="edge16" class="edge"><title>ApplicationController&#45;&gt;ParticipantsController</title>
<path fill="none" stroke="black" d="M524.364,-538.015C454.385,-468.797 337.517,-353.201 248.148,-264.803"/>
</g>
<!-- UsersController -->
<g id="node12" class="node"><title>UsersController</title>
<polyline fill="none" stroke="black" points="1080.44,-48.7754 1303.44,-48.7754 "/>
<path fill="none" stroke="black" d="M1303.44,-48.7754C1309.44,-48.7754 1315.44,-54.7754 1315.44,-60.7754"/>
<polyline fill="none" stroke="black" points="1315.44,-60.7754 1315.44,-246.775 "/>
<path fill="none" stroke="black" d="M1315.44,-246.775C1315.44,-252.775 1309.44,-258.775 1303.44,-258.775"/>
<polyline fill="none" stroke="black" points="1303.44,-258.775 1080.44,-258.775 "/>
<path fill="none" stroke="black" d="M1080.44,-258.775C1074.44,-258.775 1068.44,-252.775 1068.44,-246.775"/>
<polyline fill="none" stroke="black" points="1068.44,-246.775 1068.44,-60.7754 "/>
<path fill="none" stroke="black" d="M1068.44,-60.7754C1068.44,-54.7754 1074.44,-48.7754 1080.44,-48.7754"/>
<text text-anchor="middle" x="1191.94" y="-242.175" font-family="Times Roman,serif" font-size="14.00">UsersController</text>
<polyline fill="none" stroke="black" points="1068.44,-232.775 1315.44,-232.775 "/>
<text text-anchor="start" x="1076.44" y="-216.175" font-family="Times Roman,serif" font-size="14.00">_callback_before_327</text>
<text text-anchor="start" x="1076.44" y="-198.175" font-family="Times Roman,serif" font-size="14.00">_one_time_conditions_valid_326?</text>
<text text-anchor="start" x="1076.44" y="-180.175" font-family="Times Roman,serif" font-size="14.00">_one_time_conditions_valid_328?</text>
<text text-anchor="start" x="1076.44" y="-162.175" font-family="Times Roman,serif" font-size="14.00">destroy</text>
<text text-anchor="start" x="1076.44" y="-144.175" font-family="Times Roman,serif" font-size="14.00">index</text>
<text text-anchor="start" x="1076.44" y="-126.175" font-family="Times Roman,serif" font-size="14.00">show</text>
<text text-anchor="start" x="1076.44" y="-108.175" font-family="Times Roman,serif" font-size="14.00">update</text>
<polyline fill="none" stroke="black" points="1068.44,-98.7754 1315.44,-98.7754 "/>
<polyline fill="none" stroke="black" points="1068.44,-74.7754 1315.44,-74.7754 "/>
<text text-anchor="start" x="1076.44" y="-58.1754" font-family="Times Roman,serif" font-size="14.00">_layout</text>
</g>
<!-- ApplicationController&#45;&gt;UsersController -->
<g id="edge18" class="edge"><title>ApplicationController&#45;&gt;UsersController</title>
<path fill="none" stroke="black" d="M667.21,-537.891C770.428,-462.333 948.503,-331.978 1068.22,-244.34"/>
</g>
<!-- NotesController -->
<g id="node13" class="node"><title>NotesController</title>
<polyline fill="none" stroke="black" points="698.881,-30.5483 921.881,-30.5483 "/>
<path fill="none" stroke="black" d="M921.881,-30.5483C927.881,-30.5483 933.881,-36.5483 933.881,-42.5483"/>
<polyline fill="none" stroke="black" points="933.881,-42.5483 933.881,-318.548 "/>
<path fill="none" stroke="black" d="M933.881,-318.548C933.881,-324.548 927.881,-330.548 921.881,-330.548"/>
<polyline fill="none" stroke="black" points="921.881,-330.548 698.881,-330.548 "/>
<path fill="none" stroke="black" d="M698.881,-330.548C692.881,-330.548 686.881,-324.548 686.881,-318.548"/>
<polyline fill="none" stroke="black" points="686.881,-318.548 686.881,-42.5483 "/>
<path fill="none" stroke="black" d="M686.881,-42.5483C686.881,-36.5483 692.881,-30.5483 698.881,-30.5483"/>
<text text-anchor="middle" x="810.381" y="-313.948" font-family="Times Roman,serif" font-size="14.00">NotesController</text>
<polyline fill="none" stroke="black" points="686.881,-304.548 933.881,-304.548 "/>
<text text-anchor="start" x="694.881" y="-287.948" font-family="Times Roman,serif" font-size="14.00">_callback_before_347</text>
<text text-anchor="start" x="694.881" y="-269.948" font-family="Times Roman,serif" font-size="14.00">_one_time_conditions_valid_346?</text>
<text text-anchor="start" x="694.881" y="-251.948" font-family="Times Roman,serif" font-size="14.00">_one_time_conditions_valid_348?</text>
<text text-anchor="start" x="694.881" y="-233.948" font-family="Times Roman,serif" font-size="14.00">create</text>
<text text-anchor="start" x="694.881" y="-215.948" font-family="Times Roman,serif" font-size="14.00">destroy</text>
<text text-anchor="start" x="694.881" y="-197.948" font-family="Times Roman,serif" font-size="14.00">edit</text>
<text text-anchor="start" x="694.881" y="-179.948" font-family="Times Roman,serif" font-size="14.00">get_project</text>
<text text-anchor="start" x="694.881" y="-161.948" font-family="Times Roman,serif" font-size="14.00">index</text>
<text text-anchor="start" x="694.881" y="-143.948" font-family="Times Roman,serif" font-size="14.00">new</text>
<text text-anchor="start" x="694.881" y="-125.948" font-family="Times Roman,serif" font-size="14.00">show</text>
<text text-anchor="start" x="694.881" y="-107.948" font-family="Times Roman,serif" font-size="14.00">sort</text>
<text text-anchor="start" x="694.881" y="-89.9483" font-family="Times Roman,serif" font-size="14.00">update</text>
<polyline fill="none" stroke="black" points="686.881,-80.5483 933.881,-80.5483 "/>
<polyline fill="none" stroke="black" points="686.881,-56.5483 933.881,-56.5483 "/>
<text text-anchor="start" x="694.881" y="-39.9483" font-family="Times Roman,serif" font-size="14.00">_layout</text>
</g>
<!-- ApplicationController&#45;&gt;NotesController -->
<g id="edge20" class="edge"><title>ApplicationController&#45;&gt;NotesController</title>
<path fill="none" stroke="black" d="M617.571,-537.777C646.7,-483.808 690.648,-402.384 729.232,-330.897"/>
</g>
<!-- HomeController -->
<g id="node14" class="node"><title>HomeController</title>
<polyline fill="none" stroke="black" points="97.0464,-811.831 198.046,-811.831 "/>
<path fill="none" stroke="black" d="M198.046,-811.831C204.046,-811.831 210.046,-817.831 210.046,-823.831"/>
<polyline fill="none" stroke="black" points="210.046,-823.831 210.046,-899.831 "/>
<path fill="none" stroke="black" d="M210.046,-899.831C210.046,-905.831 204.046,-911.831 198.046,-911.831"/>
<polyline fill="none" stroke="black" points="198.046,-911.831 97.0464,-911.831 "/>
<path fill="none" stroke="black" d="M97.0464,-911.831C91.0464,-911.831 85.0464,-905.831 85.0464,-899.831"/>
<polyline fill="none" stroke="black" points="85.0464,-899.831 85.0464,-823.831 "/>
<path fill="none" stroke="black" d="M85.0464,-823.831C85.0464,-817.831 91.0464,-811.831 97.0464,-811.831"/>
<text text-anchor="middle" x="147.546" y="-895.231" font-family="Times Roman,serif" font-size="14.00">HomeController</text>
<polyline fill="none" stroke="black" points="85.0464,-885.831 210.046,-885.831 "/>
<polyline fill="none" stroke="black" points="85.0464,-861.831 210.046,-861.831 "/>
<polyline fill="none" stroke="black" points="85.0464,-837.831 210.046,-837.831 "/>
<text text-anchor="start" x="93.0464" y="-821.231" font-family="Times Roman,serif" font-size="14.00">_layout</text>
</g>
<!-- ApplicationController&#45;&gt;HomeController -->
<g id="edge22" class="edge"><title>ApplicationController&#45;&gt;HomeController</title>
<path fill="none" stroke="black" d="M485.497,-658.061C400.899,-709.07 282.061,-780.725 210.18,-824.066"/>
</g>
<!-- CitiesController -->
<g id="node15" class="node"><title>CitiesController</title>
<polyline fill="none" stroke="black" points="1092.8,-721.792 1315.8,-721.792 "/>
<path fill="none" stroke="black" d="M1315.8,-721.792C1321.8,-721.792 1327.8,-727.792 1327.8,-733.792"/>
<polyline fill="none" stroke="black" points="1327.8,-733.792 1327.8,-955.792 "/>
<path fill="none" stroke="black" d="M1327.8,-955.792C1327.8,-961.792 1321.8,-967.792 1315.8,-967.792"/>
<polyline fill="none" stroke="black" points="1315.8,-967.792 1092.8,-967.792 "/>
<path fill="none" stroke="black" d="M1092.8,-967.792C1086.8,-967.792 1080.8,-961.792 1080.8,-955.792"/>
<polyline fill="none" stroke="black" points="1080.8,-955.792 1080.8,-733.792 "/>
<path fill="none" stroke="black" d="M1080.8,-733.792C1080.8,-727.792 1086.8,-721.792 1092.8,-721.792"/>
<text text-anchor="middle" x="1204.3" y="-951.192" font-family="Times Roman,serif" font-size="14.00">CitiesController</text>
<polyline fill="none" stroke="black" points="1080.8,-941.792 1327.8,-941.792 "/>
<text text-anchor="start" x="1088.8" y="-925.192" font-family="Times Roman,serif" font-size="14.00">_callback_before_397</text>
<text text-anchor="start" x="1088.8" y="-907.192" font-family="Times Roman,serif" font-size="14.00">_one_time_conditions_valid_398?</text>
<text text-anchor="start" x="1088.8" y="-889.192" font-family="Times Roman,serif" font-size="14.00">create</text>
<text text-anchor="start" x="1088.8" y="-871.192" font-family="Times Roman,serif" font-size="14.00">destroy</text>
<text text-anchor="start" x="1088.8" y="-853.192" font-family="Times Roman,serif" font-size="14.00">edit</text>
<text text-anchor="start" x="1088.8" y="-835.192" font-family="Times Roman,serif" font-size="14.00">index</text>
<text text-anchor="start" x="1088.8" y="-817.192" font-family="Times Roman,serif" font-size="14.00">new</text>
<text text-anchor="start" x="1088.8" y="-799.192" font-family="Times Roman,serif" font-size="14.00">show</text>
<text text-anchor="start" x="1088.8" y="-781.192" font-family="Times Roman,serif" font-size="14.00">update</text>
<polyline fill="none" stroke="black" points="1080.8,-771.792 1327.8,-771.792 "/>
<polyline fill="none" stroke="black" points="1080.8,-747.792 1327.8,-747.792 "/>
<text text-anchor="start" x="1088.8" y="-731.192" font-family="Times Roman,serif" font-size="14.00">_layout</text>
</g>
<!-- ApplicationController&#45;&gt;CitiesController -->
<g id="edge24" class="edge"><title>ApplicationController&#45;&gt;CitiesController</title>
<path fill="none" stroke="black" d="M708.893,-646.183C775.767,-672.289 859.709,-705.232 934.44,-735.077 982.23,-754.163 1034.66,-775.409 1080.5,-794.083"/>
</g>
<!-- MembersController -->
<g id="node16" class="node"><title>MembersController</title>
<polyline fill="none" stroke="black" points="1054.07,-1113.31 1277.07,-1113.31 "/>
<path fill="none" stroke="black" d="M1277.07,-1113.31C1283.07,-1113.31 1289.07,-1119.31 1289.07,-1125.31"/>
<polyline fill="none" stroke="black" points="1289.07,-1125.31 1289.07,-1383.31 "/>
<path fill="none" stroke="black" d="M1289.07,-1383.31C1289.07,-1389.31 1283.07,-1395.31 1277.07,-1395.31"/>
<polyline fill="none" stroke="black" points="1277.07,-1395.31 1054.07,-1395.31 "/>
<path fill="none" stroke="black" d="M1054.07,-1395.31C1048.07,-1395.31 1042.07,-1389.31 1042.07,-1383.31"/>
<polyline fill="none" stroke="black" points="1042.07,-1383.31 1042.07,-1125.31 "/>
<path fill="none" stroke="black" d="M1042.07,-1125.31C1042.07,-1119.31 1048.07,-1113.31 1054.07,-1113.31"/>
<text text-anchor="middle" x="1165.57" y="-1378.71" font-family="Times Roman,serif" font-size="14.00">MembersController</text>
<polyline fill="none" stroke="black" points="1042.07,-1369.31 1289.07,-1369.31 "/>
<text text-anchor="start" x="1050.07" y="-1352.71" font-family="Times Roman,serif" font-size="14.00">_callback_before_405</text>
<text text-anchor="start" x="1050.07" y="-1334.71" font-family="Times Roman,serif" font-size="14.00">_one_time_conditions_valid_404?</text>
<text text-anchor="start" x="1050.07" y="-1316.71" font-family="Times Roman,serif" font-size="14.00">_one_time_conditions_valid_406?</text>
<text text-anchor="start" x="1050.07" y="-1298.71" font-family="Times Roman,serif" font-size="14.00">create</text>
<text text-anchor="start" x="1050.07" y="-1280.71" font-family="Times Roman,serif" font-size="14.00">destroy</text>
<text text-anchor="start" x="1050.07" y="-1262.71" font-family="Times Roman,serif" font-size="14.00">edit</text>
<text text-anchor="start" x="1050.07" y="-1244.71" font-family="Times Roman,serif" font-size="14.00">get_group</text>
<text text-anchor="start" x="1050.07" y="-1226.71" font-family="Times Roman,serif" font-size="14.00">index</text>
<text text-anchor="start" x="1050.07" y="-1208.71" font-family="Times Roman,serif" font-size="14.00">new</text>
<text text-anchor="start" x="1050.07" y="-1190.71" font-family="Times Roman,serif" font-size="14.00">show</text>
<text text-anchor="start" x="1050.07" y="-1172.71" font-family="Times Roman,serif" font-size="14.00">update</text>
<polyline fill="none" stroke="black" points="1042.07,-1163.31 1289.07,-1163.31 "/>
<polyline fill="none" stroke="black" points="1042.07,-1139.31 1289.07,-1139.31 "/>
<text text-anchor="start" x="1050.07" y="-1122.71" font-family="Times Roman,serif" font-size="14.00">_layout</text>
</g>
<!-- ApplicationController&#45;&gt;MembersController -->
<g id="edge26" class="edge"><title>ApplicationController&#45;&gt;MembersController</title>
<path fill="none" stroke="black" d="M708.633,-621.737C782.008,-641.329 872.505,-675.869 934.44,-735.077 991.5,-789.624 1067.52,-978.814 1116.51,-1113.04"/>
</g>
</g>
</svg>
