<?xml version="1.0" encoding="UTF-8" standalone="no"?>
<!DOCTYPE svg PUBLIC "-//W3C//DTD SVG 1.1//EN"
 "http://www.w3.org/Graphics/SVG/1.1/DTD/svg11.dtd">
<!-- Generated by graphviz version 2.26.3 (20100126.1600)
 -->
<!-- Title: controllers_diagram Pages: 1 -->
<svg width="1316pt" height="1223pt"
 viewBox="0.00 0.00 1316.00 1223.00" xmlns="http://www.w3.org/2000/svg" xmlns:xlink="http://www.w3.org/1999/xlink">
<g id="graph1" class="graph" transform="scale(1 1) rotate(0) translate(4 1219)">
<title>controllers_diagram</title>
<polygon fill="white" stroke="white" points="-4,5 -4,-1219 1313,-1219 1313,5 -4,5"/>
<!-- _diagram_info -->
<g id="node1" class="node"><title>_diagram_info</title>
<text text-anchor="start" x="1065" y="-78.3" font-family="Times Roman,serif" font-size="13.00">Controllers diagram</text>
<text text-anchor="start" x="1065" y="-61.3" font-family="Times Roman,serif" font-size="13.00">Date: Dec 28 2012 &#45; 12:56</text>
<text text-anchor="start" x="1065" y="-44.3" font-family="Times Roman,serif" font-size="13.00">Migration version: 20121228170157</text>
<text text-anchor="start" x="1065" y="-27.3" font-family="Times Roman,serif" font-size="13.00">Generated by RailRoady 1.1.0</text>
<text text-anchor="start" x="1065" y="-10.3" font-family="Times Roman,serif" font-size="13.00">http://railroady.prestonlee.com</text>
</g>
<!-- RegistrationsController -->
<g id="node2" class="node"><title>RegistrationsController</title>
<polyline fill="none" stroke="black" points="1069,-1057.5 1221,-1057.5 "/>
<path fill="none" stroke="black" d="M1221,-1057.5C1227,-1057.5 1233,-1063.5 1233,-1069.5"/>
<polyline fill="none" stroke="black" points="1233,-1069.5 1233,-1201.5 "/>
<path fill="none" stroke="black" d="M1233,-1201.5C1233,-1207.5 1227,-1213.5 1221,-1213.5"/>
<polyline fill="none" stroke="black" points="1221,-1213.5 1069,-1213.5 "/>
<path fill="none" stroke="black" d="M1069,-1213.5C1063,-1213.5 1057,-1207.5 1057,-1201.5"/>
<polyline fill="none" stroke="black" points="1057,-1201.5 1057,-1069.5 "/>
<path fill="none" stroke="black" d="M1057,-1069.5C1057,-1063.5 1063,-1057.5 1069,-1057.5"/>
<text text-anchor="middle" x="1145" y="-1196.9" font-family="Times Roman,serif" font-size="14.00">RegistrationsController</text>
<polyline fill="none" stroke="black" points="1057,-1187.5 1233,-1187.5 "/>
<text text-anchor="start" x="1065" y="-1170.9" font-family="Times Roman,serif" font-size="14.00">new</text>
<text text-anchor="start" x="1065" y="-1152.9" font-family="Times Roman,serif" font-size="14.00">update_card</text>
<text text-anchor="start" x="1065" y="-1134.9" font-family="Times Roman,serif" font-size="14.00">update_plan</text>
<polyline fill="none" stroke="black" points="1057,-1125.5 1233,-1125.5 "/>
<polyline fill="none" stroke="black" points="1057,-1101.5 1233,-1101.5 "/>
<text text-anchor="start" x="1065" y="-1084.9" font-family="Times Roman,serif" font-size="14.00">_layout</text>
<text text-anchor="start" x="1065" y="-1066.9" font-family="Times Roman,serif" font-size="14.00">build_resource</text>
</g>
<!-- ProjectsController -->
<g id="node3" class="node"><title>ProjectsController</title>
<polyline fill="none" stroke="black" points="13,-473.568 236,-473.568 "/>
<path fill="none" stroke="black" d="M236,-473.568C242,-473.568 248,-479.568 248,-485.568"/>
<polyline fill="none" stroke="black" points="248,-485.568 248,-707.568 "/>
<path fill="none" stroke="black" d="M248,-707.568C248,-713.568 242,-719.568 236,-719.568"/>
<polyline fill="none" stroke="black" points="236,-719.568 13,-719.568 "/>
<path fill="none" stroke="black" d="M13,-719.568C7,-719.568 1,-713.568 1,-707.568"/>
<polyline fill="none" stroke="black" points="1,-707.568 1,-485.568 "/>
<path fill="none" stroke="black" d="M1,-485.568C1,-479.568 7,-473.568 13,-473.568"/>
<text text-anchor="middle" x="124.5" y="-702.968" font-family="Times Roman,serif" font-size="14.00">ProjectsController</text>
<polyline fill="none" stroke="black" points="1,-693.568 248,-693.568 "/>
<text text-anchor="start" x="9" y="-676.968" font-family="Times Roman,serif" font-size="14.00">_callback_before_147</text>
<text text-anchor="start" x="9" y="-658.968" font-family="Times Roman,serif" font-size="14.00">_one_time_conditions_valid_148?</text>
<text text-anchor="start" x="9" y="-640.968" font-family="Times Roman,serif" font-size="14.00">create</text>
<text text-anchor="start" x="9" y="-622.968" font-family="Times Roman,serif" font-size="14.00">destroy</text>
<text text-anchor="start" x="9" y="-604.968" font-family="Times Roman,serif" font-size="14.00">edit</text>
<text text-anchor="start" x="9" y="-586.968" font-family="Times Roman,serif" font-size="14.00">index</text>
<text text-anchor="start" x="9" y="-568.968" font-family="Times Roman,serif" font-size="14.00">new</text>
<text text-anchor="start" x="9" y="-550.968" font-family="Times Roman,serif" font-size="14.00">show</text>
<text text-anchor="start" x="9" y="-532.968" font-family="Times Roman,serif" font-size="14.00">update</text>
<polyline fill="none" stroke="black" points="1,-523.568 248,-523.568 "/>
<polyline fill="none" stroke="black" points="1,-499.568 248,-499.568 "/>
<text text-anchor="start" x="9" y="-482.968" font-family="Times Roman,serif" font-size="14.00">_layout</text>
</g>
<!-- BlueprintsController -->
<g id="node4" class="node"><title>BlueprintsController</title>
<polyline fill="none" stroke="black" points="798.894,-709.193 1021.89,-709.193 "/>
<path fill="none" stroke="black" d="M1021.89,-709.193C1027.89,-709.193 1033.89,-715.193 1033.89,-721.193"/>
<polyline fill="none" stroke="black" points="1033.89,-721.193 1033.89,-943.193 "/>
<path fill="none" stroke="black" d="M1033.89,-943.193C1033.89,-949.193 1027.89,-955.193 1021.89,-955.193"/>
<polyline fill="none" stroke="black" points="1021.89,-955.193 798.894,-955.193 "/>
<path fill="none" stroke="black" d="M798.894,-955.193C792.894,-955.193 786.894,-949.193 786.894,-943.193"/>
<polyline fill="none" stroke="black" points="786.894,-943.193 786.894,-721.193 "/>
<path fill="none" stroke="black" d="M786.894,-721.193C786.894,-715.193 792.894,-709.193 798.894,-709.193"/>
<text text-anchor="middle" x="910.394" y="-938.593" font-family="Times Roman,serif" font-size="14.00">BlueprintsController</text>
<polyline fill="none" stroke="black" points="786.894,-929.193 1033.89,-929.193 "/>
<text text-anchor="start" x="794.894" y="-912.593" font-family="Times Roman,serif" font-size="14.00">_one_time_conditions_valid_198?</text>
<text text-anchor="start" x="794.894" y="-894.593" font-family="Times Roman,serif" font-size="14.00">create</text>
<text text-anchor="start" x="794.894" y="-876.593" font-family="Times Roman,serif" font-size="14.00">destroy</text>
<text text-anchor="start" x="794.894" y="-858.593" font-family="Times Roman,serif" font-size="14.00">edit</text>
<text text-anchor="start" x="794.894" y="-840.593" font-family="Times Roman,serif" font-size="14.00">get_project</text>
<text text-anchor="start" x="794.894" y="-822.593" font-family="Times Roman,serif" font-size="14.00">index</text>
<text text-anchor="start" x="794.894" y="-804.593" font-family="Times Roman,serif" font-size="14.00">new</text>
<text text-anchor="start" x="794.894" y="-786.593" font-family="Times Roman,serif" font-size="14.00">show</text>
<text text-anchor="start" x="794.894" y="-768.593" font-family="Times Roman,serif" font-size="14.00">update</text>
<polyline fill="none" stroke="black" points="786.894,-759.193 1033.89,-759.193 "/>
<polyline fill="none" stroke="black" points="786.894,-735.193 1033.89,-735.193 "/>
<text text-anchor="start" x="794.894" y="-718.593" font-family="Times Roman,serif" font-size="14.00">_layout</text>
</g>
<!-- ContentController -->
<g id="node5" class="node"><title>ContentController</title>
<polyline fill="none" stroke="black" points="414.42,-32.4439 637.42,-32.4439 "/>
<path fill="none" stroke="black" d="M637.42,-32.4439C643.42,-32.4439 649.42,-38.4439 649.42,-44.4439"/>
<polyline fill="none" stroke="black" points="649.42,-44.4439 649.42,-176.444 "/>
<path fill="none" stroke="black" d="M649.42,-176.444C649.42,-182.444 643.42,-188.444 637.42,-188.444"/>
<polyline fill="none" stroke="black" points="637.42,-188.444 414.42,-188.444 "/>
<path fill="none" stroke="black" d="M414.42,-188.444C408.42,-188.444 402.42,-182.444 402.42,-176.444"/>
<polyline fill="none" stroke="black" points="402.42,-176.444 402.42,-44.4439 "/>
<path fill="none" stroke="black" d="M402.42,-44.4439C402.42,-38.4439 408.42,-32.4439 414.42,-32.4439"/>
<text text-anchor="middle" x="525.92" y="-171.844" font-family="Times Roman,serif" font-size="14.00">ContentController</text>
<polyline fill="none" stroke="black" points="402.42,-162.444 649.42,-162.444 "/>
<text text-anchor="start" x="410.42" y="-145.844" font-family="Times Roman,serif" font-size="14.00">_one_time_conditions_valid_200?</text>
<text text-anchor="start" x="410.42" y="-127.844" font-family="Times Roman,serif" font-size="14.00">gold</text>
<text text-anchor="start" x="410.42" y="-109.844" font-family="Times Roman,serif" font-size="14.00">platinum</text>
<text text-anchor="start" x="410.42" y="-91.8439" font-family="Times Roman,serif" font-size="14.00">silver</text>
<polyline fill="none" stroke="black" points="402.42,-82.4439 649.42,-82.4439 "/>
<polyline fill="none" stroke="black" points="402.42,-58.4439 649.42,-58.4439 "/>
<text text-anchor="start" x="410.42" y="-41.8439" font-family="Times Roman,serif" font-size="14.00">_layout</text>
</g>
<!-- ApplicationController -->
<g id="node6" class="node"><title>ApplicationController</title>
<polyline fill="none" stroke="black" points="410.754,-414.266 624.754,-414.266 "/>
<path fill="none" stroke="black" d="M624.754,-414.266C630.754,-414.266 636.754,-420.266 636.754,-426.266"/>
<polyline fill="none" stroke="black" points="636.754,-426.266 636.754,-522.266 "/>
<path fill="none" stroke="black" d="M636.754,-522.266C636.754,-528.266 630.754,-534.266 624.754,-534.266"/>
<polyline fill="none" stroke="black" points="624.754,-534.266 410.754,-534.266 "/>
<path fill="none" stroke="black" d="M410.754,-534.266C404.754,-534.266 398.754,-528.266 398.754,-522.266"/>
<polyline fill="none" stroke="black" points="398.754,-522.266 398.754,-426.266 "/>
<path fill="none" stroke="black" d="M398.754,-426.266C398.754,-420.266 404.754,-414.266 410.754,-414.266"/>
<text text-anchor="middle" x="517.754" y="-517.666" font-family="Times Roman,serif" font-size="14.00">ApplicationController</text>
<polyline fill="none" stroke="black" points="398.754,-508.266 636.754,-508.266 "/>
<text text-anchor="start" x="406.754" y="-491.666" font-family="Times Roman,serif" font-size="14.00">_one_time_conditions_valid_76?</text>
<text text-anchor="start" x="406.754" y="-473.666" font-family="Times Roman,serif" font-size="14.00">after_sign_in_path_for</text>
<polyline fill="none" stroke="black" points="398.754,-464.266 636.754,-464.266 "/>
<polyline fill="none" stroke="black" points="398.754,-440.266 636.754,-440.266 "/>
<text text-anchor="start" x="406.754" y="-423.666" font-family="Times Roman,serif" font-size="14.00">_layout</text>
</g>
<!-- ApplicationController&#45;&gt;ProjectsController -->
<g id="edge2" class="edge"><title>ApplicationController&#45;&gt;ProjectsController</title>
<path fill="none" stroke="black" d="M398.698,-511.293C351.111,-526.092 296.306,-543.137 248.261,-558.079"/>
</g>
<!-- ApplicationController&#45;&gt;BlueprintsController -->
<g id="edge4" class="edge"><title>ApplicationController&#45;&gt;BlueprintsController</title>
<path fill="none" stroke="black" d="M583.916,-534.579C639.21,-584.984 719.576,-658.245 786.734,-719.466"/>
</g>
<!-- ApplicationController&#45;&gt;ContentController -->
<g id="edge6" class="edge"><title>ApplicationController&#45;&gt;ContentController</title>
<path fill="none" stroke="black" d="M519.102,-414.188C520.486,-352.53 522.646,-256.311 524.163,-188.727"/>
</g>
<!-- CoordinatesController -->
<g id="node7" class="node"><title>CoordinatesController</title>
<polyline fill="none" stroke="black" points="456.898,-727.403 600.898,-727.403 "/>
<path fill="none" stroke="black" d="M600.898,-727.403C606.898,-727.403 612.898,-733.403 612.898,-739.403"/>
<polyline fill="none" stroke="black" points="612.898,-739.403 612.898,-925.403 "/>
<path fill="none" stroke="black" d="M612.898,-925.403C612.898,-931.403 606.898,-937.403 600.898,-937.403"/>
<polyline fill="none" stroke="black" points="600.898,-937.403 456.898,-937.403 "/>
<path fill="none" stroke="black" d="M456.898,-937.403C450.898,-937.403 444.898,-931.403 444.898,-925.403"/>
<polyline fill="none" stroke="black" points="444.898,-925.403 444.898,-739.403 "/>
<path fill="none" stroke="black" d="M444.898,-739.403C444.898,-733.403 450.898,-727.403 456.898,-727.403"/>
<text text-anchor="middle" x="528.898" y="-920.803" font-family="Times Roman,serif" font-size="14.00">CoordinatesController</text>
<polyline fill="none" stroke="black" points="444.898,-911.403 612.898,-911.403 "/>
<text text-anchor="start" x="452.898" y="-894.803" font-family="Times Roman,serif" font-size="14.00">create</text>
<text text-anchor="start" x="452.898" y="-876.803" font-family="Times Roman,serif" font-size="14.00">destroy</text>
<text text-anchor="start" x="452.898" y="-858.803" font-family="Times Roman,serif" font-size="14.00">edit</text>
<text text-anchor="start" x="452.898" y="-840.803" font-family="Times Roman,serif" font-size="14.00">index</text>
<text text-anchor="start" x="452.898" y="-822.803" font-family="Times Roman,serif" font-size="14.00">new</text>
<text text-anchor="start" x="452.898" y="-804.803" font-family="Times Roman,serif" font-size="14.00">show</text>
<text text-anchor="start" x="452.898" y="-786.803" font-family="Times Roman,serif" font-size="14.00">update</text>
<polyline fill="none" stroke="black" points="444.898,-777.403 612.898,-777.403 "/>
<polyline fill="none" stroke="black" points="444.898,-753.403 612.898,-753.403 "/>
<text text-anchor="start" x="452.898" y="-736.803" font-family="Times Roman,serif" font-size="14.00">_layout</text>
</g>
<!-- ApplicationController&#45;&gt;CoordinatesController -->
<g id="edge8" class="edge"><title>ApplicationController&#45;&gt;CoordinatesController</title>
<path fill="none" stroke="black" d="M519.632,-534.614C521.266,-587.143 523.673,-664.477 525.624,-727.172"/>
</g>
<!-- ParticipantsController -->
<g id="node8" class="node"><title>ParticipantsController</title>
<polyline fill="none" stroke="black" points="22.3341,-735.712 245.334,-735.712 "/>
<path fill="none" stroke="black" d="M245.334,-735.712C251.334,-735.712 257.334,-741.712 257.334,-747.712"/>
<polyline fill="none" stroke="black" points="257.334,-747.712 257.334,-1005.71 "/>
<path fill="none" stroke="black" d="M257.334,-1005.71C257.334,-1011.71 251.334,-1017.71 245.334,-1017.71"/>
<polyline fill="none" stroke="black" points="245.334,-1017.71 22.3341,-1017.71 "/>
<path fill="none" stroke="black" d="M22.3341,-1017.71C16.3341,-1017.71 10.3341,-1011.71 10.3341,-1005.71"/>
<polyline fill="none" stroke="black" points="10.3341,-1005.71 10.3341,-747.712 "/>
<path fill="none" stroke="black" d="M10.3341,-747.712C10.3341,-741.712 16.3341,-735.712 22.3341,-735.712"/>
<text text-anchor="middle" x="133.834" y="-1001.11" font-family="Times Roman,serif" font-size="14.00">ParticipantsController</text>
<polyline fill="none" stroke="black" points="10.3341,-991.712 257.334,-991.712 "/>
<text text-anchor="start" x="18.3341" y="-975.112" font-family="Times Roman,serif" font-size="14.00">_callback_before_211</text>
<text text-anchor="start" x="18.3341" y="-957.112" font-family="Times Roman,serif" font-size="14.00">_one_time_conditions_valid_210?</text>
<text text-anchor="start" x="18.3341" y="-939.112" font-family="Times Roman,serif" font-size="14.00">_one_time_conditions_valid_212?</text>
<text text-anchor="start" x="18.3341" y="-921.112" font-family="Times Roman,serif" font-size="14.00">create</text>
<text text-anchor="start" x="18.3341" y="-903.112" font-family="Times Roman,serif" font-size="14.00">destroy</text>
<text text-anchor="start" x="18.3341" y="-885.112" font-family="Times Roman,serif" font-size="14.00">edit</text>
<text text-anchor="start" x="18.3341" y="-867.112" font-family="Times Roman,serif" font-size="14.00">get_project</text>
<text text-anchor="start" x="18.3341" y="-849.112" font-family="Times Roman,serif" font-size="14.00">index</text>
<text text-anchor="start" x="18.3341" y="-831.112" font-family="Times Roman,serif" font-size="14.00">new</text>
<text text-anchor="start" x="18.3341" y="-813.112" font-family="Times Roman,serif" font-size="14.00">show</text>
<text text-anchor="start" x="18.3341" y="-795.112" font-family="Times Roman,serif" font-size="14.00">update</text>
<polyline fill="none" stroke="black" points="10.3341,-785.712 257.334,-785.712 "/>
<polyline fill="none" stroke="black" points="10.3341,-761.712 257.334,-761.712 "/>
<text text-anchor="start" x="18.3341" y="-745.112" font-family="Times Roman,serif" font-size="14.00">_layout</text>
</g>
<!-- ApplicationController&#45;&gt;ParticipantsController -->
<g id="edge10" class="edge"><title>ApplicationController&#45;&gt;ParticipantsController</title>
<path fill="none" stroke="black" d="M460.277,-534.517C406.936,-590.432 325.753,-675.532 257.693,-746.877"/>
</g>
<!-- UsersController -->
<g id="node9" class="node"><title>UsersController</title>
<polyline fill="none" stroke="black" points="25.002,-258.114 248.002,-258.114 "/>
<path fill="none" stroke="black" d="M248.002,-258.114C254.002,-258.114 260.002,-264.114 260.002,-270.114"/>
<polyline fill="none" stroke="black" points="260.002,-270.114 260.002,-420.114 "/>
<path fill="none" stroke="black" d="M260.002,-420.114C260.002,-426.114 254.002,-432.114 248.002,-432.114"/>
<polyline fill="none" stroke="black" points="248.002,-432.114 25.002,-432.114 "/>
<path fill="none" stroke="black" d="M25.002,-432.114C19.002,-432.114 13.002,-426.114 13.002,-420.114"/>
<polyline fill="none" stroke="black" points="13.002,-420.114 13.002,-270.114 "/>
<path fill="none" stroke="black" d="M13.002,-270.114C13.002,-264.114 19.002,-258.114 25.002,-258.114"/>
<text text-anchor="middle" x="136.502" y="-415.514" font-family="Times Roman,serif" font-size="14.00">UsersController</text>
<polyline fill="none" stroke="black" points="13.002,-406.114 260.002,-406.114 "/>
<text text-anchor="start" x="21.002" y="-389.514" font-family="Times Roman,serif" font-size="14.00">_one_time_conditions_valid_214?</text>
<text text-anchor="start" x="21.002" y="-371.514" font-family="Times Roman,serif" font-size="14.00">destroy</text>
<text text-anchor="start" x="21.002" y="-353.514" font-family="Times Roman,serif" font-size="14.00">index</text>
<text text-anchor="start" x="21.002" y="-335.514" font-family="Times Roman,serif" font-size="14.00">show</text>
<text text-anchor="start" x="21.002" y="-317.514" font-family="Times Roman,serif" font-size="14.00">update</text>
<polyline fill="none" stroke="black" points="13.002,-308.114 260.002,-308.114 "/>
<polyline fill="none" stroke="black" points="13.002,-284.114 260.002,-284.114 "/>
<text text-anchor="start" x="21.002" y="-267.514" font-family="Times Roman,serif" font-size="14.00">_layout</text>
</g>
<!-- ApplicationController&#45;&gt;UsersController -->
<g id="edge12" class="edge"><title>ApplicationController&#45;&gt;UsersController</title>
<path fill="none" stroke="black" d="M398.692,-433.933C354.667,-419.019 304.685,-402.087 260.254,-387.036"/>
</g>
<!-- NotesController -->
<g id="node10" class="node"><title>NotesController</title>
<polyline fill="none" stroke="black" points="790.424,-336.314 1013.42,-336.314 "/>
<path fill="none" stroke="black" d="M1013.42,-336.314C1019.42,-336.314 1025.42,-342.314 1025.42,-348.314"/>
<polyline fill="none" stroke="black" points="1025.42,-348.314 1025.42,-588.314 "/>
<path fill="none" stroke="black" d="M1025.42,-588.314C1025.42,-594.314 1019.42,-600.314 1013.42,-600.314"/>
<polyline fill="none" stroke="black" points="1013.42,-600.314 790.424,-600.314 "/>
<path fill="none" stroke="black" d="M790.424,-600.314C784.424,-600.314 778.424,-594.314 778.424,-588.314"/>
<polyline fill="none" stroke="black" points="778.424,-588.314 778.424,-348.314 "/>
<path fill="none" stroke="black" d="M778.424,-348.314C778.424,-342.314 784.424,-336.314 790.424,-336.314"/>
<text text-anchor="middle" x="901.924" y="-583.714" font-family="Times Roman,serif" font-size="14.00">NotesController</text>
<polyline fill="none" stroke="black" points="778.424,-574.314 1025.42,-574.314 "/>
<text text-anchor="start" x="786.424" y="-557.714" font-family="Times Roman,serif" font-size="14.00">_one_time_conditions_valid_232?</text>
<text text-anchor="start" x="786.424" y="-539.714" font-family="Times Roman,serif" font-size="14.00">create</text>
<text text-anchor="start" x="786.424" y="-521.714" font-family="Times Roman,serif" font-size="14.00">destroy</text>
<text text-anchor="start" x="786.424" y="-503.714" font-family="Times Roman,serif" font-size="14.00">edit</text>
<text text-anchor="start" x="786.424" y="-485.714" font-family="Times Roman,serif" font-size="14.00">get_project</text>
<text text-anchor="start" x="786.424" y="-467.714" font-family="Times Roman,serif" font-size="14.00">index</text>
<text text-anchor="start" x="786.424" y="-449.714" font-family="Times Roman,serif" font-size="14.00">new</text>
<text text-anchor="start" x="786.424" y="-431.714" font-family="Times Roman,serif" font-size="14.00">show</text>
<text text-anchor="start" x="786.424" y="-413.714" font-family="Times Roman,serif" font-size="14.00">sort</text>
<text text-anchor="start" x="786.424" y="-395.714" font-family="Times Roman,serif" font-size="14.00">update</text>
<polyline fill="none" stroke="black" points="778.424,-386.314 1025.42,-386.314 "/>
<polyline fill="none" stroke="black" points="778.424,-362.314 1025.42,-362.314 "/>
<text text-anchor="start" x="786.424" y="-345.714" font-family="Times Roman,serif" font-size="14.00">_layout</text>
</g>
<!-- ApplicationController&#45;&gt;NotesController -->
<g id="edge14" class="edge"><title>ApplicationController&#45;&gt;NotesController</title>
<path fill="none" stroke="black" d="M636.939,-472.42C681.883,-471.723 733.079,-470.93 778.411,-470.227"/>
</g>
<!-- HomeController -->
<g id="node11" class="node"><title>HomeController</title>
<polyline fill="none" stroke="black" points="78.2192,-15.9394 179.219,-15.9394 "/>
<path fill="none" stroke="black" d="M179.219,-15.9394C185.219,-15.9394 191.219,-21.9394 191.219,-27.9394"/>
<polyline fill="none" stroke="black" points="191.219,-27.9394 191.219,-103.939 "/>
<path fill="none" stroke="black" d="M191.219,-103.939C191.219,-109.939 185.219,-115.939 179.219,-115.939"/>
<polyline fill="none" stroke="black" points="179.219,-115.939 78.2192,-115.939 "/>
<path fill="none" stroke="black" d="M78.2192,-115.939C72.2192,-115.939 66.2192,-109.939 66.2192,-103.939"/>
<polyline fill="none" stroke="black" points="66.2192,-103.939 66.2192,-27.9394 "/>
<path fill="none" stroke="black" d="M66.2192,-27.9394C66.2192,-21.9394 72.2192,-15.9394 78.2192,-15.9394"/>
<text text-anchor="middle" x="128.719" y="-99.3394" font-family="Times Roman,serif" font-size="14.00">HomeController</text>
<polyline fill="none" stroke="black" points="66.2192,-89.9394 191.219,-89.9394 "/>
<polyline fill="none" stroke="black" points="66.2192,-65.9394 191.219,-65.9394 "/>
<polyline fill="none" stroke="black" points="66.2192,-41.9394 191.219,-41.9394 "/>
<text text-anchor="start" x="74.2192" y="-25.3394" font-family="Times Roman,serif" font-size="14.00">_layout</text>
</g>
<!-- ApplicationController&#45;&gt;HomeController -->
<g id="edge16" class="edge"><title>ApplicationController&#45;&gt;HomeController</title>
<path fill="none" stroke="black" d="M460.35,-414.016C383.415,-333.266 248.255,-191.403 176.544,-116.136"/>
</g>
<!-- CitiesController -->
<g id="node12" class="node"><title>CitiesController</title>
<polyline fill="none" stroke="black" points="858.715,-1.5 958.715,-1.5 "/>
<path fill="none" stroke="black" d="M958.715,-1.5C964.715,-1.5 970.715,-7.5 970.715,-13.5"/>
<polyline fill="none" stroke="black" points="970.715,-13.5 970.715,-199.5 "/>
<path fill="none" stroke="black" d="M970.715,-199.5C970.715,-205.5 964.715,-211.5 958.715,-211.5"/>
<polyline fill="none" stroke="black" points="958.715,-211.5 858.715,-211.5 "/>
<path fill="none" stroke="black" d="M858.715,-211.5C852.715,-211.5 846.715,-205.5 846.715,-199.5"/>
<polyline fill="none" stroke="black" points="846.715,-199.5 846.715,-13.5 "/>
<path fill="none" stroke="black" d="M846.715,-13.5C846.715,-7.5 852.715,-1.5 858.715,-1.5"/>
<text text-anchor="middle" x="908.715" y="-194.9" font-family="Times Roman,serif" font-size="14.00">CitiesController</text>
<polyline fill="none" stroke="black" points="846.715,-185.5 970.715,-185.5 "/>
<text text-anchor="start" x="854.715" y="-168.9" font-family="Times Roman,serif" font-size="14.00">create</text>
<text text-anchor="start" x="854.715" y="-150.9" font-family="Times Roman,serif" font-size="14.00">destroy</text>
<text text-anchor="start" x="854.715" y="-132.9" font-family="Times Roman,serif" font-size="14.00">edit</text>
<text text-anchor="start" x="854.715" y="-114.9" font-family="Times Roman,serif" font-size="14.00">index</text>
<text text-anchor="start" x="854.715" y="-96.9" font-family="Times Roman,serif" font-size="14.00">new</text>
<text text-anchor="start" x="854.715" y="-78.9" font-family="Times Roman,serif" font-size="14.00">show</text>
<text text-anchor="start" x="854.715" y="-60.9" font-family="Times Roman,serif" font-size="14.00">update</text>
<polyline fill="none" stroke="black" points="846.715,-51.5 970.715,-51.5 "/>
<polyline fill="none" stroke="black" points="846.715,-27.5 970.715,-27.5 "/>
<text text-anchor="start" x="854.715" y="-10.9" font-family="Times Roman,serif" font-size="14.00">_layout</text>
</g>
<!-- ApplicationController&#45;&gt;CitiesController -->
<g id="edge18" class="edge"><title>ApplicationController&#45;&gt;CitiesController</title>
<path fill="none" stroke="black" d="M581.875,-413.949C655.096,-345.072 774.082,-233.146 846.498,-165.026"/>
</g>
</g>
</svg>
