<?xml version="1.0" encoding="UTF-8" standalone="no"?>
<!DOCTYPE svg PUBLIC "-//W3C//DTD SVG 1.1//EN"
 "http://www.w3.org/Graphics/SVG/1.1/DTD/svg11.dtd">
<!-- Generated by graphviz version 2.26.3 (20100126.1600)
 -->
<!-- Title: controllers_diagram Pages: 1 -->
<svg width="1332pt" height="1239pt"
 viewBox="0.00 0.00 1332.00 1239.00" xmlns="http://www.w3.org/2000/svg" xmlns:xlink="http://www.w3.org/1999/xlink">
<g id="graph1" class="graph" transform="scale(1 1) rotate(0) translate(4 1235)">
<title>controllers_diagram</title>
<polygon fill="white" stroke="white" points="-4,5 -4,-1235 1329,-1235 1329,5 -4,5"/>
<!-- _diagram_info -->
<g id="node1" class="node"><title>_diagram_info</title>
<text text-anchor="start" x="1081" y="-1150.3" font-family="Times Roman,serif" font-size="13.00">Controllers diagram</text>
<text text-anchor="start" x="1081" y="-1133.3" font-family="Times Roman,serif" font-size="13.00">Date: Dec 28 2012 &#45; 16:48</text>
<text text-anchor="start" x="1081" y="-1116.3" font-family="Times Roman,serif" font-size="13.00">Migration version: 20121228204356</text>
<text text-anchor="start" x="1081" y="-1099.3" font-family="Times Roman,serif" font-size="13.00">Generated by RailRoady 1.1.0</text>
<text text-anchor="start" x="1081" y="-1082.3" font-family="Times Roman,serif" font-size="13.00">http://railroady.prestonlee.com</text>
</g>
<!-- RegistrationsController -->
<g id="node2" class="node"><title>RegistrationsController</title>
<polyline fill="none" stroke="black" points="817,-1073.5 969,-1073.5 "/>
<path fill="none" stroke="black" d="M969,-1073.5C975,-1073.5 981,-1079.5 981,-1085.5"/>
<polyline fill="none" stroke="black" points="981,-1085.5 981,-1217.5 "/>
<path fill="none" stroke="black" d="M981,-1217.5C981,-1223.5 975,-1229.5 969,-1229.5"/>
<polyline fill="none" stroke="black" points="969,-1229.5 817,-1229.5 "/>
<path fill="none" stroke="black" d="M817,-1229.5C811,-1229.5 805,-1223.5 805,-1217.5"/>
<polyline fill="none" stroke="black" points="805,-1217.5 805,-1085.5 "/>
<path fill="none" stroke="black" d="M805,-1085.5C805,-1079.5 811,-1073.5 817,-1073.5"/>
<text text-anchor="middle" x="893" y="-1212.9" font-family="Times Roman,serif" font-size="14.00">RegistrationsController</text>
<polyline fill="none" stroke="black" points="805,-1203.5 981,-1203.5 "/>
<text text-anchor="start" x="813" y="-1186.9" font-family="Times Roman,serif" font-size="14.00">new</text>
<text text-anchor="start" x="813" y="-1168.9" font-family="Times Roman,serif" font-size="14.00">update_card</text>
<text text-anchor="start" x="813" y="-1150.9" font-family="Times Roman,serif" font-size="14.00">update_plan</text>
<polyline fill="none" stroke="black" points="805,-1141.5 981,-1141.5 "/>
<polyline fill="none" stroke="black" points="805,-1117.5 981,-1117.5 "/>
<text text-anchor="start" x="813" y="-1100.9" font-family="Times Roman,serif" font-size="14.00">_layout</text>
<text text-anchor="start" x="813" y="-1082.9" font-family="Times Roman,serif" font-size="14.00">build_resource</text>
</g>
<!-- ReviewersController -->
<g id="node3" class="node"><title>ReviewersController</title>
<polyline fill="none" stroke="black" points="52.4656,-494.444 275.466,-494.444 "/>
<path fill="none" stroke="black" d="M275.466,-494.444C281.466,-494.444 287.466,-500.444 287.466,-506.444"/>
<polyline fill="none" stroke="black" points="287.466,-506.444 287.466,-728.444 "/>
<path fill="none" stroke="black" d="M287.466,-728.444C287.466,-734.444 281.466,-740.444 275.466,-740.444"/>
<polyline fill="none" stroke="black" points="275.466,-740.444 52.4656,-740.444 "/>
<path fill="none" stroke="black" d="M52.4656,-740.444C46.4656,-740.444 40.4656,-734.444 40.4656,-728.444"/>
<polyline fill="none" stroke="black" points="40.4656,-728.444 40.4656,-506.444 "/>
<path fill="none" stroke="black" d="M40.4656,-506.444C40.4656,-500.444 46.4656,-494.444 52.4656,-494.444"/>
<text text-anchor="middle" x="163.966" y="-723.844" font-family="Times Roman,serif" font-size="14.00">ReviewersController</text>
<polyline fill="none" stroke="black" points="40.4656,-714.444 287.466,-714.444 "/>
<text text-anchor="start" x="48.4656" y="-697.844" font-family="Times Roman,serif" font-size="14.00">_one_time_conditions_valid_128?</text>
<text text-anchor="start" x="48.4656" y="-679.844" font-family="Times Roman,serif" font-size="14.00">create</text>
<text text-anchor="start" x="48.4656" y="-661.844" font-family="Times Roman,serif" font-size="14.00">destroy</text>
<text text-anchor="start" x="48.4656" y="-643.844" font-family="Times Roman,serif" font-size="14.00">edit</text>
<text text-anchor="start" x="48.4656" y="-625.844" font-family="Times Roman,serif" font-size="14.00">get_city</text>
<text text-anchor="start" x="48.4656" y="-607.844" font-family="Times Roman,serif" font-size="14.00">index</text>
<text text-anchor="start" x="48.4656" y="-589.844" font-family="Times Roman,serif" font-size="14.00">new</text>
<text text-anchor="start" x="48.4656" y="-571.844" font-family="Times Roman,serif" font-size="14.00">show</text>
<text text-anchor="start" x="48.4656" y="-553.844" font-family="Times Roman,serif" font-size="14.00">update</text>
<polyline fill="none" stroke="black" points="40.4656,-544.444 287.466,-544.444 "/>
<polyline fill="none" stroke="black" points="40.4656,-520.444 287.466,-520.444 "/>
<text text-anchor="start" x="48.4656" y="-503.844" font-family="Times Roman,serif" font-size="14.00">_layout</text>
</g>
<!-- ProjectsController -->
<g id="node4" class="node"><title>ProjectsController</title>
<polyline fill="none" stroke="black" points="821.655,-733.438 1044.65,-733.438 "/>
<path fill="none" stroke="black" d="M1044.65,-733.438C1050.65,-733.438 1056.65,-739.438 1056.65,-745.438"/>
<polyline fill="none" stroke="black" points="1056.65,-745.438 1056.65,-967.438 "/>
<path fill="none" stroke="black" d="M1056.65,-967.438C1056.65,-973.438 1050.65,-979.438 1044.65,-979.438"/>
<polyline fill="none" stroke="black" points="1044.65,-979.438 821.655,-979.438 "/>
<path fill="none" stroke="black" d="M821.655,-979.438C815.655,-979.438 809.655,-973.438 809.655,-967.438"/>
<polyline fill="none" stroke="black" points="809.655,-967.438 809.655,-745.438 "/>
<path fill="none" stroke="black" d="M809.655,-745.438C809.655,-739.438 815.655,-733.438 821.655,-733.438"/>
<text text-anchor="middle" x="933.155" y="-962.838" font-family="Times Roman,serif" font-size="14.00">ProjectsController</text>
<polyline fill="none" stroke="black" points="809.655,-953.438 1056.65,-953.438 "/>
<text text-anchor="start" x="817.655" y="-936.838" font-family="Times Roman,serif" font-size="14.00">_callback_before_195</text>
<text text-anchor="start" x="817.655" y="-918.838" font-family="Times Roman,serif" font-size="14.00">_one_time_conditions_valid_196?</text>
<text text-anchor="start" x="817.655" y="-900.838" font-family="Times Roman,serif" font-size="14.00">create</text>
<text text-anchor="start" x="817.655" y="-882.838" font-family="Times Roman,serif" font-size="14.00">destroy</text>
<text text-anchor="start" x="817.655" y="-864.838" font-family="Times Roman,serif" font-size="14.00">edit</text>
<text text-anchor="start" x="817.655" y="-846.838" font-family="Times Roman,serif" font-size="14.00">index</text>
<text text-anchor="start" x="817.655" y="-828.838" font-family="Times Roman,serif" font-size="14.00">new</text>
<text text-anchor="start" x="817.655" y="-810.838" font-family="Times Roman,serif" font-size="14.00">show</text>
<text text-anchor="start" x="817.655" y="-792.838" font-family="Times Roman,serif" font-size="14.00">update</text>
<polyline fill="none" stroke="black" points="809.655,-783.438 1056.65,-783.438 "/>
<polyline fill="none" stroke="black" points="809.655,-759.438 1056.65,-759.438 "/>
<text text-anchor="start" x="817.655" y="-742.838" font-family="Times Roman,serif" font-size="14.00">_layout</text>
</g>
<!-- BlueprintsController -->
<g id="node5" class="node"><title>BlueprintsController</title>
<polyline fill="none" stroke="black" points="302.452,-5.1995 525.452,-5.1995 "/>
<path fill="none" stroke="black" d="M525.452,-5.1995C531.452,-5.1995 537.452,-11.1995 537.452,-17.1995"/>
<polyline fill="none" stroke="black" points="537.452,-17.1995 537.452,-239.199 "/>
<path fill="none" stroke="black" d="M537.452,-239.199C537.452,-245.199 531.452,-251.199 525.452,-251.199"/>
<polyline fill="none" stroke="black" points="525.452,-251.199 302.452,-251.199 "/>
<path fill="none" stroke="black" d="M302.452,-251.199C296.452,-251.199 290.452,-245.199 290.452,-239.199"/>
<polyline fill="none" stroke="black" points="290.452,-239.199 290.452,-17.1995 "/>
<path fill="none" stroke="black" d="M290.452,-17.1995C290.452,-11.1995 296.452,-5.1995 302.452,-5.1995"/>
<text text-anchor="middle" x="413.952" y="-234.599" font-family="Times Roman,serif" font-size="14.00">BlueprintsController</text>
<polyline fill="none" stroke="black" points="290.452,-225.199 537.452,-225.199 "/>
<text text-anchor="start" x="298.452" y="-208.599" font-family="Times Roman,serif" font-size="14.00">_one_time_conditions_valid_246?</text>
<text text-anchor="start" x="298.452" y="-190.599" font-family="Times Roman,serif" font-size="14.00">create</text>
<text text-anchor="start" x="298.452" y="-172.599" font-family="Times Roman,serif" font-size="14.00">destroy</text>
<text text-anchor="start" x="298.452" y="-154.599" font-family="Times Roman,serif" font-size="14.00">edit</text>
<text text-anchor="start" x="298.452" y="-136.599" font-family="Times Roman,serif" font-size="14.00">get_project</text>
<text text-anchor="start" x="298.452" y="-118.599" font-family="Times Roman,serif" font-size="14.00">index</text>
<text text-anchor="start" x="298.452" y="-100.599" font-family="Times Roman,serif" font-size="14.00">new</text>
<text text-anchor="start" x="298.452" y="-82.5995" font-family="Times Roman,serif" font-size="14.00">show</text>
<text text-anchor="start" x="298.452" y="-64.5995" font-family="Times Roman,serif" font-size="14.00">update</text>
<polyline fill="none" stroke="black" points="290.452,-55.1995 537.452,-55.1995 "/>
<polyline fill="none" stroke="black" points="290.452,-31.1995 537.452,-31.1995 "/>
<text text-anchor="start" x="298.452" y="-14.5995" font-family="Times Roman,serif" font-size="14.00">_layout</text>
</g>
<!-- ContentController -->
<g id="node6" class="node"><title>ContentController</title>
<polyline fill="none" stroke="black" points="301.365,-783.118 524.365,-783.118 "/>
<path fill="none" stroke="black" d="M524.365,-783.118C530.365,-783.118 536.365,-789.118 536.365,-795.118"/>
<polyline fill="none" stroke="black" points="536.365,-795.118 536.365,-927.118 "/>
<path fill="none" stroke="black" d="M536.365,-927.118C536.365,-933.118 530.365,-939.118 524.365,-939.118"/>
<polyline fill="none" stroke="black" points="524.365,-939.118 301.365,-939.118 "/>
<path fill="none" stroke="black" d="M301.365,-939.118C295.365,-939.118 289.365,-933.118 289.365,-927.118"/>
<polyline fill="none" stroke="black" points="289.365,-927.118 289.365,-795.118 "/>
<path fill="none" stroke="black" d="M289.365,-795.118C289.365,-789.118 295.365,-783.118 301.365,-783.118"/>
<text text-anchor="middle" x="412.865" y="-922.518" font-family="Times Roman,serif" font-size="14.00">ContentController</text>
<polyline fill="none" stroke="black" points="289.365,-913.118 536.365,-913.118 "/>
<text text-anchor="start" x="297.365" y="-896.518" font-family="Times Roman,serif" font-size="14.00">_one_time_conditions_valid_248?</text>
<text text-anchor="start" x="297.365" y="-878.518" font-family="Times Roman,serif" font-size="14.00">gold</text>
<text text-anchor="start" x="297.365" y="-860.518" font-family="Times Roman,serif" font-size="14.00">platinum</text>
<text text-anchor="start" x="297.365" y="-842.518" font-family="Times Roman,serif" font-size="14.00">silver</text>
<polyline fill="none" stroke="black" points="289.365,-833.118 536.365,-833.118 "/>
<polyline fill="none" stroke="black" points="289.365,-809.118 536.365,-809.118 "/>
<text text-anchor="start" x="297.365" y="-792.518" font-family="Times Roman,serif" font-size="14.00">_layout</text>
</g>
<!-- SealsController -->
<g id="node7" class="node"><title>SealsController</title>
<polyline fill="none" stroke="black" points="555.38,-715.691 778.38,-715.691 "/>
<path fill="none" stroke="black" d="M778.38,-715.691C784.38,-715.691 790.38,-721.691 790.38,-727.691"/>
<polyline fill="none" stroke="black" points="790.38,-727.691 790.38,-949.691 "/>
<path fill="none" stroke="black" d="M790.38,-949.691C790.38,-955.691 784.38,-961.691 778.38,-961.691"/>
<polyline fill="none" stroke="black" points="778.38,-961.691 555.38,-961.691 "/>
<path fill="none" stroke="black" d="M555.38,-961.691C549.38,-961.691 543.38,-955.691 543.38,-949.691"/>
<polyline fill="none" stroke="black" points="543.38,-949.691 543.38,-727.691 "/>
<path fill="none" stroke="black" d="M543.38,-727.691C543.38,-721.691 549.38,-715.691 555.38,-715.691"/>
<text text-anchor="middle" x="666.88" y="-945.091" font-family="Times Roman,serif" font-size="14.00">SealsController</text>
<polyline fill="none" stroke="black" points="543.38,-935.691 790.38,-935.691 "/>
<text text-anchor="start" x="551.38" y="-919.091" font-family="Times Roman,serif" font-size="14.00">_one_time_conditions_valid_254?</text>
<text text-anchor="start" x="551.38" y="-901.091" font-family="Times Roman,serif" font-size="14.00">create</text>
<text text-anchor="start" x="551.38" y="-883.091" font-family="Times Roman,serif" font-size="14.00">destroy</text>
<text text-anchor="start" x="551.38" y="-865.091" font-family="Times Roman,serif" font-size="14.00">edit</text>
<text text-anchor="start" x="551.38" y="-847.091" font-family="Times Roman,serif" font-size="14.00">get_city</text>
<text text-anchor="start" x="551.38" y="-829.091" font-family="Times Roman,serif" font-size="14.00">index</text>
<text text-anchor="start" x="551.38" y="-811.091" font-family="Times Roman,serif" font-size="14.00">new</text>
<text text-anchor="start" x="551.38" y="-793.091" font-family="Times Roman,serif" font-size="14.00">show</text>
<text text-anchor="start" x="551.38" y="-775.091" font-family="Times Roman,serif" font-size="14.00">update</text>
<polyline fill="none" stroke="black" points="543.38,-765.691 790.38,-765.691 "/>
<polyline fill="none" stroke="black" points="543.38,-741.691 790.38,-741.691 "/>
<text text-anchor="start" x="551.38" y="-725.091" font-family="Times Roman,serif" font-size="14.00">_layout</text>
</g>
<!-- ApplicationController -->
<g id="node8" class="node"><title>ApplicationController</title>
<polyline fill="none" stroke="black" points="411.238,-434.611 634.238,-434.611 "/>
<path fill="none" stroke="black" d="M634.238,-434.611C640.238,-434.611 646.238,-440.611 646.238,-446.611"/>
<polyline fill="none" stroke="black" points="646.238,-446.611 646.238,-542.611 "/>
<path fill="none" stroke="black" d="M646.238,-542.611C646.238,-548.611 640.238,-554.611 634.238,-554.611"/>
<polyline fill="none" stroke="black" points="634.238,-554.611 411.238,-554.611 "/>
<path fill="none" stroke="black" d="M411.238,-554.611C405.238,-554.611 399.238,-548.611 399.238,-542.611"/>
<polyline fill="none" stroke="black" points="399.238,-542.611 399.238,-446.611 "/>
<path fill="none" stroke="black" d="M399.238,-446.611C399.238,-440.611 405.238,-434.611 411.238,-434.611"/>
<text text-anchor="middle" x="522.738" y="-538.011" font-family="Times Roman,serif" font-size="14.00">ApplicationController</text>
<polyline fill="none" stroke="black" points="399.238,-528.611 646.238,-528.611 "/>
<text text-anchor="start" x="407.238" y="-512.011" font-family="Times Roman,serif" font-size="14.00">_one_time_conditions_valid_112?</text>
<text text-anchor="start" x="407.238" y="-494.011" font-family="Times Roman,serif" font-size="14.00">after_sign_in_path_for</text>
<polyline fill="none" stroke="black" points="399.238,-484.611 646.238,-484.611 "/>
<polyline fill="none" stroke="black" points="399.238,-460.611 646.238,-460.611 "/>
<text text-anchor="start" x="407.238" y="-444.011" font-family="Times Roman,serif" font-size="14.00">_layout</text>
</g>
<!-- ApplicationController&#45;&gt;ReviewersController -->
<g id="edge2" class="edge"><title>ApplicationController&#45;&gt;ReviewersController</title>
<path fill="none" stroke="black" d="M399.018,-536.969C362.951,-549.317 323.553,-562.806 287.498,-575.15"/>
</g>
<!-- ApplicationController&#45;&gt;ProjectsController -->
<g id="edge4" class="edge"><title>ApplicationController&#45;&gt;ProjectsController</title>
<path fill="none" stroke="black" d="M602.792,-554.822C657.869,-597.246 731.92,-656.288 793.58,-712.491 800.912,-719.174 808.341,-726.153 815.755,-733.28"/>
</g>
<!-- ApplicationController&#45;&gt;BlueprintsController -->
<g id="edge6" class="edge"><title>ApplicationController&#45;&gt;BlueprintsController</title>
<path fill="none" stroke="black" d="M504.896,-434.516C490.188,-384.977 468.844,-313.087 450.529,-251.4"/>
</g>
<!-- ApplicationController&#45;&gt;ContentController -->
<g id="edge8" class="edge"><title>ApplicationController&#45;&gt;ContentController</title>
<path fill="none" stroke="black" d="M504.717,-554.722C486.027,-617.068 456.727,-714.806 436.26,-783.079"/>
</g>
<!-- ApplicationController&#45;&gt;SealsController -->
<g id="edge10" class="edge"><title>ApplicationController&#45;&gt;SealsController</title>
<path fill="none" stroke="black" d="M548.01,-554.939C566.581,-599.268 592.454,-661.031 615.322,-715.618"/>
</g>
<!-- CoordinatesController -->
<g id="node9" class="node"><title>CoordinatesController</title>
<polyline fill="none" stroke="black" points="92.084,-266.003 236.084,-266.003 "/>
<path fill="none" stroke="black" d="M236.084,-266.003C242.084,-266.003 248.084,-272.003 248.084,-278.003"/>
<polyline fill="none" stroke="black" points="248.084,-278.003 248.084,-464.003 "/>
<path fill="none" stroke="black" d="M248.084,-464.003C248.084,-470.003 242.084,-476.003 236.084,-476.003"/>
<polyline fill="none" stroke="black" points="236.084,-476.003 92.084,-476.003 "/>
<path fill="none" stroke="black" d="M92.084,-476.003C86.084,-476.003 80.084,-470.003 80.084,-464.003"/>
<polyline fill="none" stroke="black" points="80.084,-464.003 80.084,-278.003 "/>
<path fill="none" stroke="black" d="M80.084,-278.003C80.084,-272.003 86.084,-266.003 92.084,-266.003"/>
<text text-anchor="middle" x="164.084" y="-459.403" font-family="Times Roman,serif" font-size="14.00">CoordinatesController</text>
<polyline fill="none" stroke="black" points="80.084,-450.003 248.084,-450.003 "/>
<text text-anchor="start" x="88.084" y="-433.403" font-family="Times Roman,serif" font-size="14.00">create</text>
<text text-anchor="start" x="88.084" y="-415.403" font-family="Times Roman,serif" font-size="14.00">destroy</text>
<text text-anchor="start" x="88.084" y="-397.403" font-family="Times Roman,serif" font-size="14.00">edit</text>
<text text-anchor="start" x="88.084" y="-379.403" font-family="Times Roman,serif" font-size="14.00">index</text>
<text text-anchor="start" x="88.084" y="-361.403" font-family="Times Roman,serif" font-size="14.00">new</text>
<text text-anchor="start" x="88.084" y="-343.403" font-family="Times Roman,serif" font-size="14.00">show</text>
<text text-anchor="start" x="88.084" y="-325.403" font-family="Times Roman,serif" font-size="14.00">update</text>
<polyline fill="none" stroke="black" points="80.084,-316.003 248.084,-316.003 "/>
<polyline fill="none" stroke="black" points="80.084,-292.003 248.084,-292.003 "/>
<text text-anchor="start" x="88.084" y="-275.403" font-family="Times Roman,serif" font-size="14.00">_layout</text>
</g>
<!-- ApplicationController&#45;&gt;CoordinatesController -->
<g id="edge12" class="edge"><title>ApplicationController&#45;&gt;CoordinatesController</title>
<path fill="none" stroke="black" d="M399.058,-451.986C349.231,-434.813 293.04,-415.447 248.104,-399.96"/>
</g>
<!-- ParticipantsController -->
<g id="node10" class="node"><title>ParticipantsController</title>
<polyline fill="none" stroke="black" points="776.049,-354.138 999.049,-354.138 "/>
<path fill="none" stroke="black" d="M999.049,-354.138C1005.05,-354.138 1011.05,-360.138 1011.05,-366.138"/>
<polyline fill="none" stroke="black" points="1011.05,-366.138 1011.05,-624.138 "/>
<path fill="none" stroke="black" d="M1011.05,-624.138C1011.05,-630.138 1005.05,-636.138 999.049,-636.138"/>
<polyline fill="none" stroke="black" points="999.049,-636.138 776.049,-636.138 "/>
<path fill="none" stroke="black" d="M776.049,-636.138C770.049,-636.138 764.049,-630.138 764.049,-624.138"/>
<polyline fill="none" stroke="black" points="764.049,-624.138 764.049,-366.138 "/>
<path fill="none" stroke="black" d="M764.049,-366.138C764.049,-360.138 770.049,-354.138 776.049,-354.138"/>
<text text-anchor="middle" x="887.549" y="-619.538" font-family="Times Roman,serif" font-size="14.00">ParticipantsController</text>
<polyline fill="none" stroke="black" points="764.049,-610.138 1011.05,-610.138 "/>
<text text-anchor="start" x="772.049" y="-593.538" font-family="Times Roman,serif" font-size="14.00">_callback_before_265</text>
<text text-anchor="start" x="772.049" y="-575.538" font-family="Times Roman,serif" font-size="14.00">_one_time_conditions_valid_264?</text>
<text text-anchor="start" x="772.049" y="-557.538" font-family="Times Roman,serif" font-size="14.00">_one_time_conditions_valid_266?</text>
<text text-anchor="start" x="772.049" y="-539.538" font-family="Times Roman,serif" font-size="14.00">create</text>
<text text-anchor="start" x="772.049" y="-521.538" font-family="Times Roman,serif" font-size="14.00">destroy</text>
<text text-anchor="start" x="772.049" y="-503.538" font-family="Times Roman,serif" font-size="14.00">edit</text>
<text text-anchor="start" x="772.049" y="-485.538" font-family="Times Roman,serif" font-size="14.00">get_project</text>
<text text-anchor="start" x="772.049" y="-467.538" font-family="Times Roman,serif" font-size="14.00">index</text>
<text text-anchor="start" x="772.049" y="-449.538" font-family="Times Roman,serif" font-size="14.00">new</text>
<text text-anchor="start" x="772.049" y="-431.538" font-family="Times Roman,serif" font-size="14.00">show</text>
<text text-anchor="start" x="772.049" y="-413.538" font-family="Times Roman,serif" font-size="14.00">update</text>
<polyline fill="none" stroke="black" points="764.049,-404.138 1011.05,-404.138 "/>
<polyline fill="none" stroke="black" points="764.049,-380.138 1011.05,-380.138 "/>
<text text-anchor="start" x="772.049" y="-363.538" font-family="Times Roman,serif" font-size="14.00">_layout</text>
</g>
<!-- ApplicationController&#45;&gt;ParticipantsController -->
<g id="edge14" class="edge"><title>ApplicationController&#45;&gt;ParticipantsController</title>
<path fill="none" stroke="black" d="M646.246,-494.79C684.177,-494.844 725.914,-494.905 763.858,-494.96"/>
</g>
<!-- UsersController -->
<g id="node11" class="node"><title>UsersController</title>
<polyline fill="none" stroke="black" points="13,-8.35349 236,-8.35349 "/>
<path fill="none" stroke="black" d="M236,-8.35349C242,-8.35349 248,-14.3535 248,-20.3535"/>
<polyline fill="none" stroke="black" points="248,-20.3535 248,-170.353 "/>
<path fill="none" stroke="black" d="M248,-170.353C248,-176.353 242,-182.353 236,-182.353"/>
<polyline fill="none" stroke="black" points="236,-182.353 13,-182.353 "/>
<path fill="none" stroke="black" d="M13,-182.353C7,-182.353 1,-176.353 1,-170.353"/>
<polyline fill="none" stroke="black" points="1,-170.353 1,-20.3535 "/>
<path fill="none" stroke="black" d="M1,-20.3535C1,-14.3535 7,-8.35349 13,-8.35349"/>
<text text-anchor="middle" x="124.5" y="-165.753" font-family="Times Roman,serif" font-size="14.00">UsersController</text>
<polyline fill="none" stroke="black" points="1,-156.353 248,-156.353 "/>
<text text-anchor="start" x="9" y="-139.753" font-family="Times Roman,serif" font-size="14.00">_one_time_conditions_valid_268?</text>
<text text-anchor="start" x="9" y="-121.753" font-family="Times Roman,serif" font-size="14.00">destroy</text>
<text text-anchor="start" x="9" y="-103.753" font-family="Times Roman,serif" font-size="14.00">index</text>
<text text-anchor="start" x="9" y="-85.7535" font-family="Times Roman,serif" font-size="14.00">show</text>
<text text-anchor="start" x="9" y="-67.7535" font-family="Times Roman,serif" font-size="14.00">update</text>
<polyline fill="none" stroke="black" points="1,-58.3535 248,-58.3535 "/>
<polyline fill="none" stroke="black" points="1,-34.3535 248,-34.3535 "/>
<text text-anchor="start" x="9" y="-17.7535" font-family="Times Roman,serif" font-size="14.00">_layout</text>
</g>
<!-- ApplicationController&#45;&gt;UsersController -->
<g id="edge16" class="edge"><title>ApplicationController&#45;&gt;UsersController</title>
<path fill="none" stroke="black" d="M462.686,-434.406C395.87,-367.419 287.327,-258.597 211.279,-182.354"/>
</g>
<!-- NotesController -->
<g id="node12" class="node"><title>NotesController</title>
<polyline fill="none" stroke="black" points="822.148,-1.5 1045.15,-1.5 "/>
<path fill="none" stroke="black" d="M1045.15,-1.5C1051.15,-1.5 1057.15,-7.5 1057.15,-13.5"/>
<polyline fill="none" stroke="black" points="1057.15,-13.5 1057.15,-253.5 "/>
<path fill="none" stroke="black" d="M1057.15,-253.5C1057.15,-259.5 1051.15,-265.5 1045.15,-265.5"/>
<polyline fill="none" stroke="black" points="1045.15,-265.5 822.148,-265.5 "/>
<path fill="none" stroke="black" d="M822.148,-265.5C816.148,-265.5 810.148,-259.5 810.148,-253.5"/>
<polyline fill="none" stroke="black" points="810.148,-253.5 810.148,-13.5 "/>
<path fill="none" stroke="black" d="M810.148,-13.5C810.148,-7.5 816.148,-1.5 822.148,-1.5"/>
<text text-anchor="middle" x="933.648" y="-248.9" font-family="Times Roman,serif" font-size="14.00">NotesController</text>
<polyline fill="none" stroke="black" points="810.148,-239.5 1057.15,-239.5 "/>
<text text-anchor="start" x="818.148" y="-222.9" font-family="Times Roman,serif" font-size="14.00">_one_time_conditions_valid_286?</text>
<text text-anchor="start" x="818.148" y="-204.9" font-family="Times Roman,serif" font-size="14.00">create</text>
<text text-anchor="start" x="818.148" y="-186.9" font-family="Times Roman,serif" font-size="14.00">destroy</text>
<text text-anchor="start" x="818.148" y="-168.9" font-family="Times Roman,serif" font-size="14.00">edit</text>
<text text-anchor="start" x="818.148" y="-150.9" font-family="Times Roman,serif" font-size="14.00">get_project</text>
<text text-anchor="start" x="818.148" y="-132.9" font-family="Times Roman,serif" font-size="14.00">index</text>
<text text-anchor="start" x="818.148" y="-114.9" font-family="Times Roman,serif" font-size="14.00">new</text>
<text text-anchor="start" x="818.148" y="-96.9" font-family="Times Roman,serif" font-size="14.00">show</text>
<text text-anchor="start" x="818.148" y="-78.9" font-family="Times Roman,serif" font-size="14.00">sort</text>
<text text-anchor="start" x="818.148" y="-60.9" font-family="Times Roman,serif" font-size="14.00">update</text>
<polyline fill="none" stroke="black" points="810.148,-51.5 1057.15,-51.5 "/>
<polyline fill="none" stroke="black" points="810.148,-27.5 1057.15,-27.5 "/>
<text text-anchor="start" x="818.148" y="-10.9" font-family="Times Roman,serif" font-size="14.00">_layout</text>
</g>
<!-- ApplicationController&#45;&gt;NotesController -->
<g id="edge18" class="edge"><title>ApplicationController&#45;&gt;NotesController</title>
<path fill="none" stroke="black" d="M591.052,-434.576C650.501,-382.331 738.143,-305.311 809.899,-242.251"/>
</g>
<!-- HomeController -->
<g id="node13" class="node"><title>HomeController</title>
<polyline fill="none" stroke="black" points="617.497,-100.885 718.497,-100.885 "/>
<path fill="none" stroke="black" d="M718.497,-100.885C724.497,-100.885 730.497,-106.885 730.497,-112.885"/>
<polyline fill="none" stroke="black" points="730.497,-112.885 730.497,-188.885 "/>
<path fill="none" stroke="black" d="M730.497,-188.885C730.497,-194.885 724.497,-200.885 718.497,-200.885"/>
<polyline fill="none" stroke="black" points="718.497,-200.885 617.497,-200.885 "/>
<path fill="none" stroke="black" d="M617.497,-200.885C611.497,-200.885 605.497,-194.885 605.497,-188.885"/>
<polyline fill="none" stroke="black" points="605.497,-188.885 605.497,-112.885 "/>
<path fill="none" stroke="black" d="M605.497,-112.885C605.497,-106.885 611.497,-100.885 617.497,-100.885"/>
<text text-anchor="middle" x="667.997" y="-184.285" font-family="Times Roman,serif" font-size="14.00">HomeController</text>
<polyline fill="none" stroke="black" points="605.497,-174.885 730.497,-174.885 "/>
<polyline fill="none" stroke="black" points="605.497,-150.885 730.497,-150.885 "/>
<polyline fill="none" stroke="black" points="605.497,-126.885 730.497,-126.885 "/>
<text text-anchor="start" x="613.497" y="-110.285" font-family="Times Roman,serif" font-size="14.00">_layout</text>
</g>
<!-- ApplicationController&#45;&gt;HomeController -->
<g id="edge20" class="edge"><title>ApplicationController&#45;&gt;HomeController</title>
<path fill="none" stroke="black" d="M548.206,-434.345C576.196,-368.112 620.65,-262.922 646.809,-201.021"/>
</g>
<!-- CitiesController -->
<g id="node14" class="node"><title>CitiesController</title>
<polyline fill="none" stroke="black" points="74.0461,-788.7 174.046,-788.7 "/>
<path fill="none" stroke="black" d="M174.046,-788.7C180.046,-788.7 186.046,-794.7 186.046,-800.7"/>
<polyline fill="none" stroke="black" points="186.046,-800.7 186.046,-986.7 "/>
<path fill="none" stroke="black" d="M186.046,-986.7C186.046,-992.7 180.046,-998.7 174.046,-998.7"/>
<polyline fill="none" stroke="black" points="174.046,-998.7 74.0461,-998.7 "/>
<path fill="none" stroke="black" d="M74.0461,-998.7C68.0461,-998.7 62.0461,-992.7 62.0461,-986.7"/>
<polyline fill="none" stroke="black" points="62.0461,-986.7 62.0461,-800.7 "/>
<path fill="none" stroke="black" d="M62.0461,-800.7C62.0461,-794.7 68.0461,-788.7 74.0461,-788.7"/>
<text text-anchor="middle" x="124.046" y="-982.1" font-family="Times Roman,serif" font-size="14.00">CitiesController</text>
<polyline fill="none" stroke="black" points="62.0461,-972.7 186.046,-972.7 "/>
<text text-anchor="start" x="70.0461" y="-956.1" font-family="Times Roman,serif" font-size="14.00">create</text>
<text text-anchor="start" x="70.0461" y="-938.1" font-family="Times Roman,serif" font-size="14.00">destroy</text>
<text text-anchor="start" x="70.0461" y="-920.1" font-family="Times Roman,serif" font-size="14.00">edit</text>
<text text-anchor="start" x="70.0461" y="-902.1" font-family="Times Roman,serif" font-size="14.00">index</text>
<text text-anchor="start" x="70.0461" y="-884.1" font-family="Times Roman,serif" font-size="14.00">new</text>
<text text-anchor="start" x="70.0461" y="-866.1" font-family="Times Roman,serif" font-size="14.00">show</text>
<text text-anchor="start" x="70.0461" y="-848.1" font-family="Times Roman,serif" font-size="14.00">update</text>
<polyline fill="none" stroke="black" points="62.0461,-838.7 186.046,-838.7 "/>
<polyline fill="none" stroke="black" points="62.0461,-814.7 186.046,-814.7 "/>
<text text-anchor="start" x="70.0461" y="-798.1" font-family="Times Roman,serif" font-size="14.00">_layout</text>
</g>
<!-- ApplicationController&#45;&gt;CitiesController -->
<g id="edge22" class="edge"><title>ApplicationController&#45;&gt;CitiesController</title>
<path fill="none" stroke="black" d="M469.297,-554.864C423.149,-606.18 354.09,-681.289 290.666,-743.644 257.076,-776.666 218.016,-811.996 186.16,-840.074"/>
</g>
</g>
</svg>
