<?xml version="1.0" encoding="UTF-8" standalone="no"?>
<!DOCTYPE svg PUBLIC "-//W3C//DTD SVG 1.1//EN"
 "http://www.w3.org/Graphics/SVG/1.1/DTD/svg11.dtd">
<!-- Generated by graphviz version 2.26.3 (20100126.1600)
 -->
<!-- Title: controllers_diagram Pages: 1 -->
<svg width="1658pt" height="1514pt"
 viewBox="0.00 0.00 1658.00 1513.70" xmlns="http://www.w3.org/2000/svg" xmlns:xlink="http://www.w3.org/1999/xlink">
<g id="graph1" class="graph" transform="scale(1 1) rotate(0) translate(4 1509.7)">
<title>controllers_diagram</title>
<polygon fill="white" stroke="white" points="-4,5 -4,-1509.7 1655,-1509.7 1655,5 -4,5"/>
<!-- _diagram_info -->
<g id="node1" class="node"><title>_diagram_info</title>
<text text-anchor="start" x="1389" y="-1274.3" font-family="Times Roman,serif" font-size="13.00">Controllers diagram</text>
<text text-anchor="start" x="1389" y="-1257.3" font-family="Times Roman,serif" font-size="13.00">Date: Jan 10 2013 &#45; 22:32</text>
<text text-anchor="start" x="1389" y="-1240.3" font-family="Times Roman,serif" font-size="13.00">Migration version: 20130111015224</text>
<text text-anchor="start" x="1389" y="-1223.3" font-family="Times Roman,serif" font-size="13.00">Generated by RailRoady 1.1.0</text>
<text text-anchor="start" x="1389" y="-1206.3" font-family="Times Roman,serif" font-size="13.00">http://railroady.prestonlee.com</text>
</g>
<!-- RegistrationsController -->
<g id="node2" class="node"><title>RegistrationsController</title>
<polyline fill="none" stroke="black" points="1485,-1.5 1637,-1.5 "/>
<path fill="none" stroke="black" d="M1637,-1.5C1643,-1.5 1649,-7.5 1649,-13.5"/>
<polyline fill="none" stroke="black" points="1649,-13.5 1649,-145.5 "/>
<path fill="none" stroke="black" d="M1649,-145.5C1649,-151.5 1643,-157.5 1637,-157.5"/>
<polyline fill="none" stroke="black" points="1637,-157.5 1485,-157.5 "/>
<path fill="none" stroke="black" d="M1485,-157.5C1479,-157.5 1473,-151.5 1473,-145.5"/>
<polyline fill="none" stroke="black" points="1473,-145.5 1473,-13.5 "/>
<path fill="none" stroke="black" d="M1473,-13.5C1473,-7.5 1479,-1.5 1485,-1.5"/>
<text text-anchor="middle" x="1561" y="-140.9" font-family="Times Roman,serif" font-size="14.00">RegistrationsController</text>
<polyline fill="none" stroke="black" points="1473,-131.5 1649,-131.5 "/>
<text text-anchor="start" x="1481" y="-114.9" font-family="Times Roman,serif" font-size="14.00">new</text>
<text text-anchor="start" x="1481" y="-96.9" font-family="Times Roman,serif" font-size="14.00">update_card</text>
<text text-anchor="start" x="1481" y="-78.9" font-family="Times Roman,serif" font-size="14.00">update_plan</text>
<polyline fill="none" stroke="black" points="1473,-69.5 1649,-69.5 "/>
<polyline fill="none" stroke="black" points="1473,-45.5 1649,-45.5 "/>
<text text-anchor="start" x="1481" y="-28.9" font-family="Times Roman,serif" font-size="14.00">_layout</text>
<text text-anchor="start" x="1481" y="-10.9" font-family="Times Roman,serif" font-size="14.00">build_resource</text>
</g>
<!-- ReviewersController -->
<g id="node3" class="node"><title>ReviewersController</title>
<polyline fill="none" stroke="black" points="55.2338,-467.278 278.234,-467.278 "/>
<path fill="none" stroke="black" d="M278.234,-467.278C284.234,-467.278 290.234,-473.278 290.234,-479.278"/>
<polyline fill="none" stroke="black" points="290.234,-479.278 290.234,-737.278 "/>
<path fill="none" stroke="black" d="M290.234,-737.278C290.234,-743.278 284.234,-749.278 278.234,-749.278"/>
<polyline fill="none" stroke="black" points="278.234,-749.278 55.2338,-749.278 "/>
<path fill="none" stroke="black" d="M55.2338,-749.278C49.2338,-749.278 43.2338,-743.278 43.2338,-737.278"/>
<polyline fill="none" stroke="black" points="43.2338,-737.278 43.2338,-479.278 "/>
<path fill="none" stroke="black" d="M43.2338,-479.278C43.2338,-473.278 49.2338,-467.278 55.2338,-467.278"/>
<text text-anchor="middle" x="166.734" y="-732.678" font-family="Times Roman,serif" font-size="14.00">ReviewersController</text>
<polyline fill="none" stroke="black" points="43.2338,-723.278 290.234,-723.278 "/>
<text text-anchor="start" x="51.2338" y="-706.678" font-family="Times Roman,serif" font-size="14.00">_callback_before_189</text>
<text text-anchor="start" x="51.2338" y="-688.678" font-family="Times Roman,serif" font-size="14.00">_one_time_conditions_valid_188?</text>
<text text-anchor="start" x="51.2338" y="-670.678" font-family="Times Roman,serif" font-size="14.00">_one_time_conditions_valid_190?</text>
<text text-anchor="start" x="51.2338" y="-652.678" font-family="Times Roman,serif" font-size="14.00">create</text>
<text text-anchor="start" x="51.2338" y="-634.678" font-family="Times Roman,serif" font-size="14.00">destroy</text>
<text text-anchor="start" x="51.2338" y="-616.678" font-family="Times Roman,serif" font-size="14.00">edit</text>
<text text-anchor="start" x="51.2338" y="-598.678" font-family="Times Roman,serif" font-size="14.00">get_city</text>
<text text-anchor="start" x="51.2338" y="-580.678" font-family="Times Roman,serif" font-size="14.00">index</text>
<text text-anchor="start" x="51.2338" y="-562.678" font-family="Times Roman,serif" font-size="14.00">new</text>
<text text-anchor="start" x="51.2338" y="-544.678" font-family="Times Roman,serif" font-size="14.00">show</text>
<text text-anchor="start" x="51.2338" y="-526.678" font-family="Times Roman,serif" font-size="14.00">update</text>
<polyline fill="none" stroke="black" points="43.2338,-517.278 290.234,-517.278 "/>
<polyline fill="none" stroke="black" points="43.2338,-493.278 290.234,-493.278 "/>
<text text-anchor="start" x="51.2338" y="-476.678" font-family="Times Roman,serif" font-size="14.00">_layout</text>
</g>
<!-- ProjectsController -->
<g id="node4" class="node"><title>ProjectsController</title>
<polyline fill="none" stroke="black" points="1049.81,-826.264 1272.81,-826.264 "/>
<path fill="none" stroke="black" d="M1272.81,-826.264C1278.81,-826.264 1284.81,-832.264 1284.81,-838.264"/>
<polyline fill="none" stroke="black" points="1284.81,-838.264 1284.81,-1060.26 "/>
<path fill="none" stroke="black" d="M1284.81,-1060.26C1284.81,-1066.26 1278.81,-1072.26 1272.81,-1072.26"/>
<polyline fill="none" stroke="black" points="1272.81,-1072.26 1049.81,-1072.26 "/>
<path fill="none" stroke="black" d="M1049.81,-1072.26C1043.81,-1072.26 1037.81,-1066.26 1037.81,-1060.26"/>
<polyline fill="none" stroke="black" points="1037.81,-1060.26 1037.81,-838.264 "/>
<path fill="none" stroke="black" d="M1037.81,-838.264C1037.81,-832.264 1043.81,-826.264 1049.81,-826.264"/>
<text text-anchor="middle" x="1161.31" y="-1055.66" font-family="Times Roman,serif" font-size="14.00">ProjectsController</text>
<polyline fill="none" stroke="black" points="1037.81,-1046.26 1284.81,-1046.26 "/>
<text text-anchor="start" x="1045.81" y="-1029.66" font-family="Times Roman,serif" font-size="14.00">_callback_before_269</text>
<text text-anchor="start" x="1045.81" y="-1011.66" font-family="Times Roman,serif" font-size="14.00">_one_time_conditions_valid_270?</text>
<text text-anchor="start" x="1045.81" y="-993.664" font-family="Times Roman,serif" font-size="14.00">create</text>
<text text-anchor="start" x="1045.81" y="-975.664" font-family="Times Roman,serif" font-size="14.00">destroy</text>
<text text-anchor="start" x="1045.81" y="-957.664" font-family="Times Roman,serif" font-size="14.00">edit</text>
<text text-anchor="start" x="1045.81" y="-939.664" font-family="Times Roman,serif" font-size="14.00">index</text>
<text text-anchor="start" x="1045.81" y="-921.664" font-family="Times Roman,serif" font-size="14.00">new</text>
<text text-anchor="start" x="1045.81" y="-903.664" font-family="Times Roman,serif" font-size="14.00">show</text>
<text text-anchor="start" x="1045.81" y="-885.664" font-family="Times Roman,serif" font-size="14.00">update</text>
<polyline fill="none" stroke="black" points="1037.81,-876.264 1284.81,-876.264 "/>
<polyline fill="none" stroke="black" points="1037.81,-852.264 1284.81,-852.264 "/>
<text text-anchor="start" x="1045.81" y="-835.664" font-family="Times Roman,serif" font-size="14.00">_layout</text>
</g>
<!-- BlueprintsController -->
<g id="node5" class="node"><title>BlueprintsController</title>
<polyline fill="none" stroke="black" points="401.713,-1.5 624.713,-1.5 "/>
<path fill="none" stroke="black" d="M624.713,-1.5C630.713,-1.5 636.713,-7.5 636.713,-13.5"/>
<polyline fill="none" stroke="black" points="636.713,-13.5 636.713,-289.5 "/>
<path fill="none" stroke="black" d="M636.713,-289.5C636.713,-295.5 630.713,-301.5 624.713,-301.5"/>
<polyline fill="none" stroke="black" points="624.713,-301.5 401.713,-301.5 "/>
<path fill="none" stroke="black" d="M401.713,-301.5C395.713,-301.5 389.713,-295.5 389.713,-289.5"/>
<polyline fill="none" stroke="black" points="389.713,-289.5 389.713,-13.5 "/>
<path fill="none" stroke="black" d="M389.713,-13.5C389.713,-7.5 395.713,-1.5 401.713,-1.5"/>
<text text-anchor="middle" x="513.213" y="-284.9" font-family="Times Roman,serif" font-size="14.00">BlueprintsController</text>
<polyline fill="none" stroke="black" points="389.713,-275.5 636.713,-275.5 "/>
<text text-anchor="start" x="397.713" y="-258.9" font-family="Times Roman,serif" font-size="14.00">_callback_before_381</text>
<text text-anchor="start" x="397.713" y="-240.9" font-family="Times Roman,serif" font-size="14.00">_one_time_conditions_valid_380?</text>
<text text-anchor="start" x="397.713" y="-222.9" font-family="Times Roman,serif" font-size="14.00">_one_time_conditions_valid_382?</text>
<text text-anchor="start" x="397.713" y="-204.9" font-family="Times Roman,serif" font-size="14.00">create</text>
<text text-anchor="start" x="397.713" y="-186.9" font-family="Times Roman,serif" font-size="14.00">destroy</text>
<text text-anchor="start" x="397.713" y="-168.9" font-family="Times Roman,serif" font-size="14.00">edit</text>
<text text-anchor="start" x="397.713" y="-150.9" font-family="Times Roman,serif" font-size="14.00">get_project</text>
<text text-anchor="start" x="397.713" y="-132.9" font-family="Times Roman,serif" font-size="14.00">index</text>
<text text-anchor="start" x="397.713" y="-114.9" font-family="Times Roman,serif" font-size="14.00">new</text>
<text text-anchor="start" x="397.713" y="-96.9" font-family="Times Roman,serif" font-size="14.00">show</text>
<text text-anchor="start" x="397.713" y="-78.9" font-family="Times Roman,serif" font-size="14.00">sort</text>
<text text-anchor="start" x="397.713" y="-60.9" font-family="Times Roman,serif" font-size="14.00">update</text>
<polyline fill="none" stroke="black" points="389.713,-51.5 636.713,-51.5 "/>
<polyline fill="none" stroke="black" points="389.713,-27.5 636.713,-27.5 "/>
<text text-anchor="start" x="397.713" y="-10.9" font-family="Times Roman,serif" font-size="14.00">_layout</text>
</g>
<!-- ContentController -->
<g id="node6" class="node"><title>ContentController</title>
<polyline fill="none" stroke="black" points="74.4441,-1272.63 297.444,-1272.63 "/>
<path fill="none" stroke="black" d="M297.444,-1272.63C303.444,-1272.63 309.444,-1278.63 309.444,-1284.63"/>
<polyline fill="none" stroke="black" points="309.444,-1284.63 309.444,-1416.63 "/>
<path fill="none" stroke="black" d="M309.444,-1416.63C309.444,-1422.63 303.444,-1428.63 297.444,-1428.63"/>
<polyline fill="none" stroke="black" points="297.444,-1428.63 74.4441,-1428.63 "/>
<path fill="none" stroke="black" d="M74.4441,-1428.63C68.4441,-1428.63 62.4441,-1422.63 62.4441,-1416.63"/>
<polyline fill="none" stroke="black" points="62.4441,-1416.63 62.4441,-1284.63 "/>
<path fill="none" stroke="black" d="M62.4441,-1284.63C62.4441,-1278.63 68.4441,-1272.63 74.4441,-1272.63"/>
<text text-anchor="middle" x="185.944" y="-1412.03" font-family="Times Roman,serif" font-size="14.00">ContentController</text>
<polyline fill="none" stroke="black" points="62.4441,-1402.63 309.444,-1402.63 "/>
<text text-anchor="start" x="70.4441" y="-1386.03" font-family="Times Roman,serif" font-size="14.00">_one_time_conditions_valid_384?</text>
<text text-anchor="start" x="70.4441" y="-1368.03" font-family="Times Roman,serif" font-size="14.00">gold</text>
<text text-anchor="start" x="70.4441" y="-1350.03" font-family="Times Roman,serif" font-size="14.00">platinum</text>
<text text-anchor="start" x="70.4441" y="-1332.03" font-family="Times Roman,serif" font-size="14.00">silver</text>
<polyline fill="none" stroke="black" points="62.4441,-1322.63 309.444,-1322.63 "/>
<polyline fill="none" stroke="black" points="62.4441,-1298.63 309.444,-1298.63 "/>
<text text-anchor="start" x="70.4441" y="-1282.03" font-family="Times Roman,serif" font-size="14.00">_layout</text>
</g>
<!-- GroupsController -->
<g id="node7" class="node"><title>GroupsController</title>
<polyline fill="none" stroke="black" points="721.789,-927.561 944.789,-927.561 "/>
<path fill="none" stroke="black" d="M944.789,-927.561C950.789,-927.561 956.789,-933.561 956.789,-939.561"/>
<polyline fill="none" stroke="black" points="956.789,-939.561 956.789,-1161.56 "/>
<path fill="none" stroke="black" d="M956.789,-1161.56C956.789,-1167.56 950.789,-1173.56 944.789,-1173.56"/>
<polyline fill="none" stroke="black" points="944.789,-1173.56 721.789,-1173.56 "/>
<path fill="none" stroke="black" d="M721.789,-1173.56C715.789,-1173.56 709.789,-1167.56 709.789,-1161.56"/>
<polyline fill="none" stroke="black" points="709.789,-1161.56 709.789,-939.561 "/>
<path fill="none" stroke="black" d="M709.789,-939.561C709.789,-933.561 715.789,-927.561 721.789,-927.561"/>
<text text-anchor="middle" x="833.289" y="-1156.96" font-family="Times Roman,serif" font-size="14.00">GroupsController</text>
<polyline fill="none" stroke="black" points="709.789,-1147.56 956.789,-1147.56 "/>
<text text-anchor="start" x="717.789" y="-1130.96" font-family="Times Roman,serif" font-size="14.00">_callback_before_409</text>
<text text-anchor="start" x="717.789" y="-1112.96" font-family="Times Roman,serif" font-size="14.00">_one_time_conditions_valid_410?</text>
<text text-anchor="start" x="717.789" y="-1094.96" font-family="Times Roman,serif" font-size="14.00">create</text>
<text text-anchor="start" x="717.789" y="-1076.96" font-family="Times Roman,serif" font-size="14.00">destroy</text>
<text text-anchor="start" x="717.789" y="-1058.96" font-family="Times Roman,serif" font-size="14.00">edit</text>
<text text-anchor="start" x="717.789" y="-1040.96" font-family="Times Roman,serif" font-size="14.00">index</text>
<text text-anchor="start" x="717.789" y="-1022.96" font-family="Times Roman,serif" font-size="14.00">new</text>
<text text-anchor="start" x="717.789" y="-1004.96" font-family="Times Roman,serif" font-size="14.00">show</text>
<text text-anchor="start" x="717.789" y="-986.961" font-family="Times Roman,serif" font-size="14.00">update</text>
<polyline fill="none" stroke="black" points="709.789,-977.561 956.789,-977.561 "/>
<polyline fill="none" stroke="black" points="709.789,-953.561 956.789,-953.561 "/>
<text text-anchor="start" x="717.789" y="-936.961" font-family="Times Roman,serif" font-size="14.00">_layout</text>
</g>
<!-- SealsController -->
<g id="node8" class="node"><title>SealsController</title>
<polyline fill="none" stroke="black" points="359.477,-912.636 582.477,-912.636 "/>
<path fill="none" stroke="black" d="M582.477,-912.636C588.477,-912.636 594.477,-918.636 594.477,-924.636"/>
<polyline fill="none" stroke="black" points="594.477,-924.636 594.477,-1182.64 "/>
<path fill="none" stroke="black" d="M594.477,-1182.64C594.477,-1188.64 588.477,-1194.64 582.477,-1194.64"/>
<polyline fill="none" stroke="black" points="582.477,-1194.64 359.477,-1194.64 "/>
<path fill="none" stroke="black" d="M359.477,-1194.64C353.477,-1194.64 347.477,-1188.64 347.477,-1182.64"/>
<polyline fill="none" stroke="black" points="347.477,-1182.64 347.477,-924.636 "/>
<path fill="none" stroke="black" d="M347.477,-924.636C347.477,-918.636 353.477,-912.636 359.477,-912.636"/>
<text text-anchor="middle" x="470.977" y="-1178.04" font-family="Times Roman,serif" font-size="14.00">SealsController</text>
<polyline fill="none" stroke="black" points="347.477,-1168.64 594.477,-1168.64 "/>
<text text-anchor="start" x="355.477" y="-1152.04" font-family="Times Roman,serif" font-size="14.00">_callback_before_417</text>
<text text-anchor="start" x="355.477" y="-1134.04" font-family="Times Roman,serif" font-size="14.00">_one_time_conditions_valid_416?</text>
<text text-anchor="start" x="355.477" y="-1116.04" font-family="Times Roman,serif" font-size="14.00">_one_time_conditions_valid_418?</text>
<text text-anchor="start" x="355.477" y="-1098.04" font-family="Times Roman,serif" font-size="14.00">create</text>
<text text-anchor="start" x="355.477" y="-1080.04" font-family="Times Roman,serif" font-size="14.00">destroy</text>
<text text-anchor="start" x="355.477" y="-1062.04" font-family="Times Roman,serif" font-size="14.00">edit</text>
<text text-anchor="start" x="355.477" y="-1044.04" font-family="Times Roman,serif" font-size="14.00">get_city</text>
<text text-anchor="start" x="355.477" y="-1026.04" font-family="Times Roman,serif" font-size="14.00">index</text>
<text text-anchor="start" x="355.477" y="-1008.04" font-family="Times Roman,serif" font-size="14.00">new</text>
<text text-anchor="start" x="355.477" y="-990.036" font-family="Times Roman,serif" font-size="14.00">show</text>
<text text-anchor="start" x="355.477" y="-972.036" font-family="Times Roman,serif" font-size="14.00">update</text>
<polyline fill="none" stroke="black" points="347.477,-962.636 594.477,-962.636 "/>
<polyline fill="none" stroke="black" points="347.477,-938.636 594.477,-938.636 "/>
<text text-anchor="start" x="355.477" y="-922.036" font-family="Times Roman,serif" font-size="14.00">_layout</text>
</g>
<!-- ApplicationController -->
<g id="node9" class="node"><title>ApplicationController</title>
<polyline fill="none" stroke="black" points="507.88,-721.439 730.88,-721.439 "/>
<path fill="none" stroke="black" d="M730.88,-721.439C736.88,-721.439 742.88,-727.439 742.88,-733.439"/>
<polyline fill="none" stroke="black" points="742.88,-733.439 742.88,-829.439 "/>
<path fill="none" stroke="black" d="M742.88,-829.439C742.88,-835.439 736.88,-841.439 730.88,-841.439"/>
<polyline fill="none" stroke="black" points="730.88,-841.439 507.88,-841.439 "/>
<path fill="none" stroke="black" d="M507.88,-841.439C501.88,-841.439 495.88,-835.439 495.88,-829.439"/>
<polyline fill="none" stroke="black" points="495.88,-829.439 495.88,-733.439 "/>
<path fill="none" stroke="black" d="M495.88,-733.439C495.88,-727.439 501.88,-721.439 507.88,-721.439"/>
<text text-anchor="middle" x="619.38" y="-824.839" font-family="Times Roman,serif" font-size="14.00">ApplicationController</text>
<polyline fill="none" stroke="black" points="495.88,-815.439 742.88,-815.439 "/>
<text text-anchor="start" x="503.88" y="-798.839" font-family="Times Roman,serif" font-size="14.00">_one_time_conditions_valid_172?</text>
<text text-anchor="start" x="503.88" y="-780.839" font-family="Times Roman,serif" font-size="14.00">after_sign_in_path_for</text>
<polyline fill="none" stroke="black" points="495.88,-771.439 742.88,-771.439 "/>
<polyline fill="none" stroke="black" points="495.88,-747.439 742.88,-747.439 "/>
<text text-anchor="start" x="503.88" y="-730.839" font-family="Times Roman,serif" font-size="14.00">_layout</text>
</g>
<!-- ApplicationController&#45;&gt;ReviewersController -->
<g id="edge2" class="edge"><title>ApplicationController&#45;&gt;ReviewersController</title>
<path fill="none" stroke="black" d="M495.693,-734.122C431.824,-709.689 354.119,-679.963 290.272,-655.538"/>
</g>
<!-- ApplicationController&#45;&gt;ProjectsController -->
<g id="edge4" class="edge"><title>ApplicationController&#45;&gt;ProjectsController</title>
<path fill="none" stroke="black" d="M743.031,-819.731C831.282,-847.06 949.487,-883.666 1037.72,-910.991"/>
</g>
<!-- ApplicationController&#45;&gt;BlueprintsController -->
<g id="edge6" class="edge"><title>ApplicationController&#45;&gt;BlueprintsController</title>
<path fill="none" stroke="black" d="M641.974,-721.388C668.095,-642.973 703.34,-502.158 668.818,-387.206 660.003,-357.855 646.218,-328.786 630.414,-301.611"/>
</g>
<!-- ApplicationController&#45;&gt;ContentController -->
<g id="edge8" class="edge"><title>ApplicationController&#45;&gt;ContentController</title>
<path fill="none" stroke="black" d="M495.679,-815.353C442.974,-835.252 384.501,-865.378 344.277,-909.436 250.039,-1012.66 210.983,-1175.96 195.483,-1272.27"/>
</g>
<!-- ApplicationController&#45;&gt;GroupsController -->
<g id="edge10" class="edge"><title>ApplicationController&#45;&gt;GroupsController</title>
<path fill="none" stroke="black" d="M667.119,-841.5C687.313,-866.906 711.619,-897.486 735.331,-927.319"/>
</g>
<!-- ApplicationController&#45;&gt;SealsController -->
<g id="edge12" class="edge"><title>ApplicationController&#45;&gt;SealsController</title>
<path fill="none" stroke="black" d="M586.629,-841.51C575.063,-862.724 561.519,-887.567 547.854,-912.632"/>
</g>
<!-- TasksController -->
<g id="node10" class="node"><title>TasksController</title>
<polyline fill="none" stroke="black" points="1190.63,-110.077 1288.63,-110.077 "/>
<path fill="none" stroke="black" d="M1288.63,-110.077C1294.63,-110.077 1300.63,-116.077 1300.63,-122.077"/>
<polyline fill="none" stroke="black" points="1300.63,-122.077 1300.63,-308.077 "/>
<path fill="none" stroke="black" d="M1300.63,-308.077C1300.63,-314.077 1294.63,-320.077 1288.63,-320.077"/>
<polyline fill="none" stroke="black" points="1288.63,-320.077 1190.63,-320.077 "/>
<path fill="none" stroke="black" d="M1190.63,-320.077C1184.63,-320.077 1178.63,-314.077 1178.63,-308.077"/>
<polyline fill="none" stroke="black" points="1178.63,-308.077 1178.63,-122.077 "/>
<path fill="none" stroke="black" d="M1178.63,-122.077C1178.63,-116.077 1184.63,-110.077 1190.63,-110.077"/>
<text text-anchor="middle" x="1239.63" y="-303.477" font-family="Times Roman,serif" font-size="14.00">TasksController</text>
<polyline fill="none" stroke="black" points="1178.63,-294.077 1300.63,-294.077 "/>
<text text-anchor="start" x="1186.63" y="-277.477" font-family="Times Roman,serif" font-size="14.00">create</text>
<text text-anchor="start" x="1186.63" y="-259.477" font-family="Times Roman,serif" font-size="14.00">destroy</text>
<text text-anchor="start" x="1186.63" y="-241.477" font-family="Times Roman,serif" font-size="14.00">edit</text>
<text text-anchor="start" x="1186.63" y="-223.477" font-family="Times Roman,serif" font-size="14.00">index</text>
<text text-anchor="start" x="1186.63" y="-205.477" font-family="Times Roman,serif" font-size="14.00">new</text>
<text text-anchor="start" x="1186.63" y="-187.477" font-family="Times Roman,serif" font-size="14.00">show</text>
<text text-anchor="start" x="1186.63" y="-169.477" font-family="Times Roman,serif" font-size="14.00">update</text>
<polyline fill="none" stroke="black" points="1178.63,-160.077 1300.63,-160.077 "/>
<polyline fill="none" stroke="black" points="1178.63,-136.077 1300.63,-136.077 "/>
<text text-anchor="start" x="1186.63" y="-119.477" font-family="Times Roman,serif" font-size="14.00">_layout</text>
</g>
<!-- ApplicationController&#45;&gt;TasksController -->
<g id="edge14" class="edge"><title>ApplicationController&#45;&gt;TasksController</title>
<path fill="none" stroke="black" d="M635.732,-721.253C658.709,-646.547 707.034,-519.126 787.782,-438.173 817.746,-408.132 1061.78,-295.502 1178.23,-242.709"/>
</g>
<!-- CoordinatesController -->
<g id="node11" class="node"><title>CoordinatesController</title>
<polyline fill="none" stroke="black" points="24.0958,-81.115 247.096,-81.115 "/>
<path fill="none" stroke="black" d="M247.096,-81.115C253.096,-81.115 259.096,-87.115 259.096,-93.115"/>
<polyline fill="none" stroke="black" points="259.096,-93.115 259.096,-315.115 "/>
<path fill="none" stroke="black" d="M259.096,-315.115C259.096,-321.115 253.096,-327.115 247.096,-327.115"/>
<polyline fill="none" stroke="black" points="247.096,-327.115 24.0958,-327.115 "/>
<path fill="none" stroke="black" d="M24.0958,-327.115C18.0958,-327.115 12.0958,-321.115 12.0958,-315.115"/>
<polyline fill="none" stroke="black" points="12.0958,-315.115 12.0958,-93.115 "/>
<path fill="none" stroke="black" d="M12.0958,-93.115C12.0958,-87.115 18.0958,-81.115 24.0958,-81.115"/>
<text text-anchor="middle" x="135.596" y="-310.515" font-family="Times Roman,serif" font-size="14.00">CoordinatesController</text>
<polyline fill="none" stroke="black" points="12.0958,-301.115 259.096,-301.115 "/>
<text text-anchor="start" x="20.0958" y="-284.515" font-family="Times Roman,serif" font-size="14.00">_callback_before_425</text>
<text text-anchor="start" x="20.0958" y="-266.515" font-family="Times Roman,serif" font-size="14.00">_one_time_conditions_valid_426?</text>
<text text-anchor="start" x="20.0958" y="-248.515" font-family="Times Roman,serif" font-size="14.00">create</text>
<text text-anchor="start" x="20.0958" y="-230.515" font-family="Times Roman,serif" font-size="14.00">destroy</text>
<text text-anchor="start" x="20.0958" y="-212.515" font-family="Times Roman,serif" font-size="14.00">edit</text>
<text text-anchor="start" x="20.0958" y="-194.515" font-family="Times Roman,serif" font-size="14.00">index</text>
<text text-anchor="start" x="20.0958" y="-176.515" font-family="Times Roman,serif" font-size="14.00">new</text>
<text text-anchor="start" x="20.0958" y="-158.515" font-family="Times Roman,serif" font-size="14.00">show</text>
<text text-anchor="start" x="20.0958" y="-140.515" font-family="Times Roman,serif" font-size="14.00">update</text>
<polyline fill="none" stroke="black" points="12.0958,-131.115 259.096,-131.115 "/>
<polyline fill="none" stroke="black" points="12.0958,-107.115 259.096,-107.115 "/>
<text text-anchor="start" x="20.0958" y="-90.515" font-family="Times Roman,serif" font-size="14.00">_layout</text>
</g>
<!-- ApplicationController&#45;&gt;CoordinatesController -->
<g id="edge16" class="edge"><title>ApplicationController&#45;&gt;CoordinatesController</title>
<path fill="none" stroke="black" d="M541.734,-721.306C501.86,-688.61 453.741,-646.224 415.418,-603.606 337.992,-517.501 263.438,-409.393 210.781,-327.359"/>
</g>
<!-- ParticipantsController -->
<g id="node12" class="node"><title>ParticipantsController</title>
<polyline fill="none" stroke="black" points="751.771,-39.1782 974.771,-39.1782 "/>
<path fill="none" stroke="black" d="M974.771,-39.1782C980.771,-39.1782 986.771,-45.1782 986.771,-51.1782"/>
<polyline fill="none" stroke="black" points="986.771,-51.1782 986.771,-309.178 "/>
<path fill="none" stroke="black" d="M986.771,-309.178C986.771,-315.178 980.771,-321.178 974.771,-321.178"/>
<polyline fill="none" stroke="black" points="974.771,-321.178 751.771,-321.178 "/>
<path fill="none" stroke="black" d="M751.771,-321.178C745.771,-321.178 739.771,-315.178 739.771,-309.178"/>
<polyline fill="none" stroke="black" points="739.771,-309.178 739.771,-51.1782 "/>
<path fill="none" stroke="black" d="M739.771,-51.1782C739.771,-45.1782 745.771,-39.1782 751.771,-39.1782"/>
<text text-anchor="middle" x="863.271" y="-304.578" font-family="Times Roman,serif" font-size="14.00">ParticipantsController</text>
<polyline fill="none" stroke="black" points="739.771,-295.178 986.771,-295.178 "/>
<text text-anchor="start" x="747.771" y="-278.578" font-family="Times Roman,serif" font-size="14.00">_callback_before_433</text>
<text text-anchor="start" x="747.771" y="-260.578" font-family="Times Roman,serif" font-size="14.00">_one_time_conditions_valid_432?</text>
<text text-anchor="start" x="747.771" y="-242.578" font-family="Times Roman,serif" font-size="14.00">_one_time_conditions_valid_434?</text>
<text text-anchor="start" x="747.771" y="-224.578" font-family="Times Roman,serif" font-size="14.00">create</text>
<text text-anchor="start" x="747.771" y="-206.578" font-family="Times Roman,serif" font-size="14.00">destroy</text>
<text text-anchor="start" x="747.771" y="-188.578" font-family="Times Roman,serif" font-size="14.00">edit</text>
<text text-anchor="start" x="747.771" y="-170.578" font-family="Times Roman,serif" font-size="14.00">get_project</text>
<text text-anchor="start" x="747.771" y="-152.578" font-family="Times Roman,serif" font-size="14.00">index</text>
<text text-anchor="start" x="747.771" y="-134.578" font-family="Times Roman,serif" font-size="14.00">new</text>
<text text-anchor="start" x="747.771" y="-116.578" font-family="Times Roman,serif" font-size="14.00">show</text>
<text text-anchor="start" x="747.771" y="-98.5782" font-family="Times Roman,serif" font-size="14.00">update</text>
<polyline fill="none" stroke="black" points="739.771,-89.1782 986.771,-89.1782 "/>
<polyline fill="none" stroke="black" points="739.771,-65.1782 986.771,-65.1782 "/>
<text text-anchor="start" x="747.771" y="-48.5782" font-family="Times Roman,serif" font-size="14.00">_layout</text>
</g>
<!-- ApplicationController&#45;&gt;ParticipantsController -->
<g id="edge18" class="edge"><title>ApplicationController&#45;&gt;ParticipantsController</title>
<path fill="none" stroke="black" d="M643.77,-721.312C681.38,-628.593 754.568,-448.163 806.064,-321.209"/>
</g>
<!-- UsersController -->
<g id="node13" class="node"><title>UsersController</title>
<polyline fill="none" stroke="black" points="430.618,-390.406 653.618,-390.406 "/>
<path fill="none" stroke="black" d="M653.618,-390.406C659.618,-390.406 665.618,-396.406 665.618,-402.406"/>
<polyline fill="none" stroke="black" points="665.618,-402.406 665.618,-588.406 "/>
<path fill="none" stroke="black" d="M665.618,-588.406C665.618,-594.406 659.618,-600.406 653.618,-600.406"/>
<polyline fill="none" stroke="black" points="653.618,-600.406 430.618,-600.406 "/>
<path fill="none" stroke="black" d="M430.618,-600.406C424.618,-600.406 418.618,-594.406 418.618,-588.406"/>
<polyline fill="none" stroke="black" points="418.618,-588.406 418.618,-402.406 "/>
<path fill="none" stroke="black" d="M418.618,-402.406C418.618,-396.406 424.618,-390.406 430.618,-390.406"/>
<text text-anchor="middle" x="542.118" y="-583.806" font-family="Times Roman,serif" font-size="14.00">UsersController</text>
<polyline fill="none" stroke="black" points="418.618,-574.406 665.618,-574.406 "/>
<text text-anchor="start" x="426.618" y="-557.806" font-family="Times Roman,serif" font-size="14.00">_callback_before_437</text>
<text text-anchor="start" x="426.618" y="-539.806" font-family="Times Roman,serif" font-size="14.00">_one_time_conditions_valid_436?</text>
<text text-anchor="start" x="426.618" y="-521.806" font-family="Times Roman,serif" font-size="14.00">_one_time_conditions_valid_438?</text>
<text text-anchor="start" x="426.618" y="-503.806" font-family="Times Roman,serif" font-size="14.00">destroy</text>
<text text-anchor="start" x="426.618" y="-485.806" font-family="Times Roman,serif" font-size="14.00">index</text>
<text text-anchor="start" x="426.618" y="-467.806" font-family="Times Roman,serif" font-size="14.00">show</text>
<text text-anchor="start" x="426.618" y="-449.806" font-family="Times Roman,serif" font-size="14.00">update</text>
<polyline fill="none" stroke="black" points="418.618,-440.406 665.618,-440.406 "/>
<polyline fill="none" stroke="black" points="418.618,-416.406 665.618,-416.406 "/>
<text text-anchor="start" x="426.618" y="-399.806" font-family="Times Roman,serif" font-size="14.00">_layout</text>
</g>
<!-- ApplicationController&#45;&gt;UsersController -->
<g id="edge20" class="edge"><title>ApplicationController&#45;&gt;UsersController</title>
<path fill="none" stroke="black" d="M603.089,-721.128C593.637,-686.134 581.466,-641.076 570.487,-600.431"/>
</g>
<!-- GithubController -->
<g id="node14" class="node"><title>GithubController</title>
<polyline fill="none" stroke="black" points="13,-851.834 236,-851.834 "/>
<path fill="none" stroke="black" d="M236,-851.834C242,-851.834 248,-857.834 248,-863.834"/>
<polyline fill="none" stroke="black" points="248,-863.834 248,-1031.83 "/>
<path fill="none" stroke="black" d="M248,-1031.83C248,-1037.83 242,-1043.83 236,-1043.83"/>
<polyline fill="none" stroke="black" points="236,-1043.83 13,-1043.83 "/>
<path fill="none" stroke="black" d="M13,-1043.83C7,-1043.83 1,-1037.83 1,-1031.83"/>
<polyline fill="none" stroke="black" points="1,-1031.83 1,-863.834 "/>
<path fill="none" stroke="black" d="M1,-863.834C1,-857.834 7,-851.834 13,-851.834"/>
<text text-anchor="middle" x="124.5" y="-1027.23" font-family="Times Roman,serif" font-size="14.00">GithubController</text>
<polyline fill="none" stroke="black" points="1,-1017.83 248,-1017.83 "/>
<text text-anchor="start" x="9" y="-1001.23" font-family="Times Roman,serif" font-size="14.00">_callback_before_439</text>
<text text-anchor="start" x="9" y="-983.234" font-family="Times Roman,serif" font-size="14.00">_one_time_conditions_valid_440?</text>
<text text-anchor="start" x="9" y="-965.234" font-family="Times Roman,serif" font-size="14.00">authorize</text>
<text text-anchor="start" x="9" y="-947.234" font-family="Times Roman,serif" font-size="14.00">callback</text>
<text text-anchor="start" x="9" y="-929.234" font-family="Times Roman,serif" font-size="14.00">index</text>
<text text-anchor="start" x="9" y="-911.234" font-family="Times Roman,serif" font-size="14.00">show</text>
<polyline fill="none" stroke="black" points="1,-901.834 248,-901.834 "/>
<polyline fill="none" stroke="black" points="1,-877.834 248,-877.834 "/>
<text text-anchor="start" x="9" y="-861.234" font-family="Times Roman,serif" font-size="14.00">_layout</text>
</g>
<!-- ApplicationController&#45;&gt;GithubController -->
<g id="edge22" class="edge"><title>ApplicationController&#45;&gt;GithubController</title>
<path fill="none" stroke="black" d="M495.778,-822.998C420.197,-848.411 323.848,-880.806 248.242,-906.228"/>
</g>
<!-- NotesController -->
<g id="node15" class="node"><title>NotesController</title>
<polyline fill="none" stroke="black" points="1164.81,-509.415 1387.81,-509.415 "/>
<path fill="none" stroke="black" d="M1387.81,-509.415C1393.81,-509.415 1399.81,-515.415 1399.81,-521.415"/>
<polyline fill="none" stroke="black" points="1399.81,-521.415 1399.81,-797.415 "/>
<path fill="none" stroke="black" d="M1399.81,-797.415C1399.81,-803.415 1393.81,-809.415 1387.81,-809.415"/>
<polyline fill="none" stroke="black" points="1387.81,-809.415 1164.81,-809.415 "/>
<path fill="none" stroke="black" d="M1164.81,-809.415C1158.81,-809.415 1152.81,-803.415 1152.81,-797.415"/>
<polyline fill="none" stroke="black" points="1152.81,-797.415 1152.81,-521.415 "/>
<path fill="none" stroke="black" d="M1152.81,-521.415C1152.81,-515.415 1158.81,-509.415 1164.81,-509.415"/>
<text text-anchor="middle" x="1276.31" y="-792.815" font-family="Times Roman,serif" font-size="14.00">NotesController</text>
<polyline fill="none" stroke="black" points="1152.81,-783.415 1399.81,-783.415 "/>
<text text-anchor="start" x="1160.81" y="-766.815" font-family="Times Roman,serif" font-size="14.00">_callback_before_519</text>
<text text-anchor="start" x="1160.81" y="-748.815" font-family="Times Roman,serif" font-size="14.00">_one_time_conditions_valid_518?</text>
<text text-anchor="start" x="1160.81" y="-730.815" font-family="Times Roman,serif" font-size="14.00">_one_time_conditions_valid_520?</text>
<text text-anchor="start" x="1160.81" y="-712.815" font-family="Times Roman,serif" font-size="14.00">create</text>
<text text-anchor="start" x="1160.81" y="-694.815" font-family="Times Roman,serif" font-size="14.00">destroy</text>
<text text-anchor="start" x="1160.81" y="-676.815" font-family="Times Roman,serif" font-size="14.00">edit</text>
<text text-anchor="start" x="1160.81" y="-658.815" font-family="Times Roman,serif" font-size="14.00">get_project</text>
<text text-anchor="start" x="1160.81" y="-640.815" font-family="Times Roman,serif" font-size="14.00">index</text>
<text text-anchor="start" x="1160.81" y="-622.815" font-family="Times Roman,serif" font-size="14.00">new</text>
<text text-anchor="start" x="1160.81" y="-604.815" font-family="Times Roman,serif" font-size="14.00">show</text>
<text text-anchor="start" x="1160.81" y="-586.815" font-family="Times Roman,serif" font-size="14.00">sort</text>
<text text-anchor="start" x="1160.81" y="-568.815" font-family="Times Roman,serif" font-size="14.00">update</text>
<polyline fill="none" stroke="black" points="1152.81,-559.415 1399.81,-559.415 "/>
<polyline fill="none" stroke="black" points="1152.81,-535.415 1399.81,-535.415 "/>
<text text-anchor="start" x="1160.81" y="-518.815" font-family="Times Roman,serif" font-size="14.00">_layout</text>
</g>
<!-- ApplicationController&#45;&gt;NotesController -->
<g id="edge24" class="edge"><title>ApplicationController&#45;&gt;NotesController</title>
<path fill="none" stroke="black" d="M742.926,-770.263C827.44,-761.425 941.744,-747.122 1041.18,-726.573 1077.77,-719.013 1116.98,-708.714 1152.7,-698.454"/>
</g>
<!-- HomeController -->
<g id="node16" class="node"><title>HomeController</title>
<polyline fill="none" stroke="black" points="1154.68,-1277.23 1255.68,-1277.23 "/>
<path fill="none" stroke="black" d="M1255.68,-1277.23C1261.68,-1277.23 1267.68,-1283.23 1267.68,-1289.23"/>
<polyline fill="none" stroke="black" points="1267.68,-1289.23 1267.68,-1365.23 "/>
<path fill="none" stroke="black" d="M1267.68,-1365.23C1267.68,-1371.23 1261.68,-1377.23 1255.68,-1377.23"/>
<polyline fill="none" stroke="black" points="1255.68,-1377.23 1154.68,-1377.23 "/>
<path fill="none" stroke="black" d="M1154.68,-1377.23C1148.68,-1377.23 1142.68,-1371.23 1142.68,-1365.23"/>
<polyline fill="none" stroke="black" points="1142.68,-1365.23 1142.68,-1289.23 "/>
<path fill="none" stroke="black" d="M1142.68,-1289.23C1142.68,-1283.23 1148.68,-1277.23 1154.68,-1277.23"/>
<text text-anchor="middle" x="1205.18" y="-1360.63" font-family="Times Roman,serif" font-size="14.00">HomeController</text>
<polyline fill="none" stroke="black" points="1142.68,-1351.23 1267.68,-1351.23 "/>
<polyline fill="none" stroke="black" points="1142.68,-1327.23 1267.68,-1327.23 "/>
<polyline fill="none" stroke="black" points="1142.68,-1303.23 1267.68,-1303.23 "/>
<text text-anchor="start" x="1150.68" y="-1286.63" font-family="Times Roman,serif" font-size="14.00">_layout</text>
</g>
<!-- ApplicationController&#45;&gt;HomeController -->
<g id="edge26" class="edge"><title>ApplicationController&#45;&gt;HomeController</title>
<path fill="none" stroke="black" d="M743.194,-810.22C813.708,-831.841 899.725,-867.689 959.989,-924.361 1014.55,-975.672 996.935,-1010.73 1034.61,-1075.46 1076.7,-1147.79 1132.06,-1227.07 1168.12,-1276.96"/>
</g>
<!-- CitiesController -->
<g id="node17" class="node"><title>CitiesController</title>
<polyline fill="none" stroke="black" points="584.936,-1258.2 807.936,-1258.2 "/>
<path fill="none" stroke="black" d="M807.936,-1258.2C813.936,-1258.2 819.936,-1264.2 819.936,-1270.2"/>
<polyline fill="none" stroke="black" points="819.936,-1270.2 819.936,-1492.2 "/>
<path fill="none" stroke="black" d="M819.936,-1492.2C819.936,-1498.2 813.936,-1504.2 807.936,-1504.2"/>
<polyline fill="none" stroke="black" points="807.936,-1504.2 584.936,-1504.2 "/>
<path fill="none" stroke="black" d="M584.936,-1504.2C578.936,-1504.2 572.936,-1498.2 572.936,-1492.2"/>
<polyline fill="none" stroke="black" points="572.936,-1492.2 572.936,-1270.2 "/>
<path fill="none" stroke="black" d="M572.936,-1270.2C572.936,-1264.2 578.936,-1258.2 584.936,-1258.2"/>
<text text-anchor="middle" x="696.436" y="-1487.6" font-family="Times Roman,serif" font-size="14.00">CitiesController</text>
<polyline fill="none" stroke="black" points="572.936,-1478.2 819.936,-1478.2 "/>
<text text-anchor="start" x="580.936" y="-1461.6" font-family="Times Roman,serif" font-size="14.00">_callback_before_569</text>
<text text-anchor="start" x="580.936" y="-1443.6" font-family="Times Roman,serif" font-size="14.00">_one_time_conditions_valid_570?</text>
<text text-anchor="start" x="580.936" y="-1425.6" font-family="Times Roman,serif" font-size="14.00">create</text>
<text text-anchor="start" x="580.936" y="-1407.6" font-family="Times Roman,serif" font-size="14.00">destroy</text>
<text text-anchor="start" x="580.936" y="-1389.6" font-family="Times Roman,serif" font-size="14.00">edit</text>
<text text-anchor="start" x="580.936" y="-1371.6" font-family="Times Roman,serif" font-size="14.00">index</text>
<text text-anchor="start" x="580.936" y="-1353.6" font-family="Times Roman,serif" font-size="14.00">new</text>
<text text-anchor="start" x="580.936" y="-1335.6" font-family="Times Roman,serif" font-size="14.00">show</text>
<text text-anchor="start" x="580.936" y="-1317.6" font-family="Times Roman,serif" font-size="14.00">update</text>
<polyline fill="none" stroke="black" points="572.936,-1308.2 819.936,-1308.2 "/>
<polyline fill="none" stroke="black" points="572.936,-1284.2 819.936,-1284.2 "/>
<text text-anchor="start" x="580.936" y="-1267.6" font-family="Times Roman,serif" font-size="14.00">_layout</text>
</g>
<!-- ApplicationController&#45;&gt;CitiesController -->
<g id="edge28" class="edge"><title>ApplicationController&#45;&gt;CitiesController</title>
<path fill="none" stroke="black" d="M627.122,-841.692C639.573,-938.606 664.3,-1131.07 680.603,-1257.96"/>
</g>
<!-- MembersController -->
<g id="node18" class="node"><title>MembersController</title>
<polyline fill="none" stroke="black" points="802.982,-441.373 1025.98,-441.373 "/>
<path fill="none" stroke="black" d="M1025.98,-441.373C1031.98,-441.373 1037.98,-447.373 1037.98,-453.373"/>
<polyline fill="none" stroke="black" points="1037.98,-453.373 1037.98,-711.373 "/>
<path fill="none" stroke="black" d="M1037.98,-711.373C1037.98,-717.373 1031.98,-723.373 1025.98,-723.373"/>
<polyline fill="none" stroke="black" points="1025.98,-723.373 802.982,-723.373 "/>
<path fill="none" stroke="black" d="M802.982,-723.373C796.982,-723.373 790.982,-717.373 790.982,-711.373"/>
<polyline fill="none" stroke="black" points="790.982,-711.373 790.982,-453.373 "/>
<path fill="none" stroke="black" d="M790.982,-453.373C790.982,-447.373 796.982,-441.373 802.982,-441.373"/>
<text text-anchor="middle" x="914.482" y="-706.773" font-family="Times Roman,serif" font-size="14.00">MembersController</text>
<polyline fill="none" stroke="black" points="790.982,-697.373 1037.98,-697.373 "/>
<text text-anchor="start" x="798.982" y="-680.773" font-family="Times Roman,serif" font-size="14.00">_callback_before_577</text>
<text text-anchor="start" x="798.982" y="-662.773" font-family="Times Roman,serif" font-size="14.00">_one_time_conditions_valid_576?</text>
<text text-anchor="start" x="798.982" y="-644.773" font-family="Times Roman,serif" font-size="14.00">_one_time_conditions_valid_578?</text>
<text text-anchor="start" x="798.982" y="-626.773" font-family="Times Roman,serif" font-size="14.00">create</text>
<text text-anchor="start" x="798.982" y="-608.773" font-family="Times Roman,serif" font-size="14.00">destroy</text>
<text text-anchor="start" x="798.982" y="-590.773" font-family="Times Roman,serif" font-size="14.00">edit</text>
<text text-anchor="start" x="798.982" y="-572.773" font-family="Times Roman,serif" font-size="14.00">get_group</text>
<text text-anchor="start" x="798.982" y="-554.773" font-family="Times Roman,serif" font-size="14.00">index</text>
<text text-anchor="start" x="798.982" y="-536.773" font-family="Times Roman,serif" font-size="14.00">new</text>
<text text-anchor="start" x="798.982" y="-518.773" font-family="Times Roman,serif" font-size="14.00">show</text>
<text text-anchor="start" x="798.982" y="-500.773" font-family="Times Roman,serif" font-size="14.00">update</text>
<polyline fill="none" stroke="black" points="790.982,-491.373 1037.98,-491.373 "/>
<polyline fill="none" stroke="black" points="790.982,-467.373 1037.98,-467.373 "/>
<text text-anchor="start" x="798.982" y="-450.773" font-family="Times Roman,serif" font-size="14.00">_layout</text>
</g>
<!-- ApplicationController&#45;&gt;MembersController -->
<g id="edge30" class="edge"><title>ApplicationController&#45;&gt;MembersController</title>
<path fill="none" stroke="black" d="M708.721,-721.172C734.591,-703.721 763.305,-684.352 790.873,-665.756"/>
</g>
</g>
</svg>
