<?xml version="1.0" encoding="UTF-8" standalone="no"?>
<!DOCTYPE svg PUBLIC "-//W3C//DTD SVG 1.1//EN"
 "http://www.w3.org/Graphics/SVG/1.1/DTD/svg11.dtd">
<!-- Generated by graphviz version 2.26.3 (20100126.1600)
 -->
<!-- Title: controllers_diagram Pages: 1 -->
<svg width="1229pt" height="1015pt"
 viewBox="0.00 0.00 1229.00 1015.00" xmlns="http://www.w3.org/2000/svg" xmlns:xlink="http://www.w3.org/1999/xlink">
<g id="graph1" class="graph" transform="scale(1 1) rotate(0) translate(4 1011)">
<title>controllers_diagram</title>
<polygon fill="white" stroke="white" points="-4,5 -4,-1011 1226,-1011 1226,5 -4,5"/>
<!-- _diagram_info -->
<g id="node1" class="node"><title>_diagram_info</title>
<text text-anchor="start" x="978" y="-990.3" font-family="Times Roman,serif" font-size="13.00">Controllers diagram</text>
<text text-anchor="start" x="978" y="-973.3" font-family="Times Roman,serif" font-size="13.00">Date: Dec 26 2012 &#45; 17:25</text>
<text text-anchor="start" x="978" y="-956.3" font-family="Times Roman,serif" font-size="13.00">Migration version: 20121222234417</text>
<text text-anchor="start" x="978" y="-939.3" font-family="Times Roman,serif" font-size="13.00">Generated by RailRoady 1.1.0</text>
<text text-anchor="start" x="978" y="-922.3" font-family="Times Roman,serif" font-size="13.00">http://railroady.prestonlee.com</text>
</g>
<!-- RegistrationsController -->
<g id="node2" class="node"><title>RegistrationsController</title>
<polyline fill="none" stroke="black" points="868,-1.5 1020,-1.5 "/>
<path fill="none" stroke="black" d="M1020,-1.5C1026,-1.5 1032,-7.5 1032,-13.5"/>
<polyline fill="none" stroke="black" points="1032,-13.5 1032,-145.5 "/>
<path fill="none" stroke="black" d="M1032,-145.5C1032,-151.5 1026,-157.5 1020,-157.5"/>
<polyline fill="none" stroke="black" points="1020,-157.5 868,-157.5 "/>
<path fill="none" stroke="black" d="M868,-157.5C862,-157.5 856,-151.5 856,-145.5"/>
<polyline fill="none" stroke="black" points="856,-145.5 856,-13.5 "/>
<path fill="none" stroke="black" d="M856,-13.5C856,-7.5 862,-1.5 868,-1.5"/>
<text text-anchor="middle" x="944" y="-140.9" font-family="Times Roman,serif" font-size="14.00">RegistrationsController</text>
<polyline fill="none" stroke="black" points="856,-131.5 1032,-131.5 "/>
<text text-anchor="start" x="864" y="-114.9" font-family="Times Roman,serif" font-size="14.00">new</text>
<text text-anchor="start" x="864" y="-96.9" font-family="Times Roman,serif" font-size="14.00">update_card</text>
<text text-anchor="start" x="864" y="-78.9" font-family="Times Roman,serif" font-size="14.00">update_plan</text>
<polyline fill="none" stroke="black" points="856,-69.5 1032,-69.5 "/>
<polyline fill="none" stroke="black" points="856,-45.5 1032,-45.5 "/>
<text text-anchor="start" x="864" y="-28.9" font-family="Times Roman,serif" font-size="14.00">_layout</text>
<text text-anchor="start" x="864" y="-10.9" font-family="Times Roman,serif" font-size="14.00">build_resource</text>
</g>
<!-- ProjectsController -->
<g id="node3" class="node"><title>ProjectsController</title>
<polyline fill="none" stroke="black" points="64.3442,-312.211 287.344,-312.211 "/>
<path fill="none" stroke="black" d="M287.344,-312.211C293.344,-312.211 299.344,-318.211 299.344,-324.211"/>
<polyline fill="none" stroke="black" points="299.344,-324.211 299.344,-546.211 "/>
<path fill="none" stroke="black" d="M299.344,-546.211C299.344,-552.211 293.344,-558.211 287.344,-558.211"/>
<polyline fill="none" stroke="black" points="287.344,-558.211 64.3442,-558.211 "/>
<path fill="none" stroke="black" d="M64.3442,-558.211C58.3442,-558.211 52.3442,-552.211 52.3442,-546.211"/>
<polyline fill="none" stroke="black" points="52.3442,-546.211 52.3442,-324.211 "/>
<path fill="none" stroke="black" d="M52.3442,-324.211C52.3442,-318.211 58.3442,-312.211 64.3442,-312.211"/>
<text text-anchor="middle" x="175.844" y="-541.611" font-family="Times Roman,serif" font-size="14.00">ProjectsController</text>
<polyline fill="none" stroke="black" points="52.3442,-532.211 299.344,-532.211 "/>
<text text-anchor="start" x="60.3442" y="-515.611" font-family="Times Roman,serif" font-size="14.00">_callback_before_135</text>
<text text-anchor="start" x="60.3442" y="-497.611" font-family="Times Roman,serif" font-size="14.00">_one_time_conditions_valid_136?</text>
<text text-anchor="start" x="60.3442" y="-479.611" font-family="Times Roman,serif" font-size="14.00">create</text>
<text text-anchor="start" x="60.3442" y="-461.611" font-family="Times Roman,serif" font-size="14.00">destroy</text>
<text text-anchor="start" x="60.3442" y="-443.611" font-family="Times Roman,serif" font-size="14.00">edit</text>
<text text-anchor="start" x="60.3442" y="-425.611" font-family="Times Roman,serif" font-size="14.00">index</text>
<text text-anchor="start" x="60.3442" y="-407.611" font-family="Times Roman,serif" font-size="14.00">new</text>
<text text-anchor="start" x="60.3442" y="-389.611" font-family="Times Roman,serif" font-size="14.00">show</text>
<text text-anchor="start" x="60.3442" y="-371.611" font-family="Times Roman,serif" font-size="14.00">update</text>
<polyline fill="none" stroke="black" points="52.3442,-362.211 299.344,-362.211 "/>
<polyline fill="none" stroke="black" points="52.3442,-338.211 299.344,-338.211 "/>
<text text-anchor="start" x="60.3442" y="-321.611" font-family="Times Roman,serif" font-size="14.00">_layout</text>
</g>
<!-- BlueprintsController -->
<g id="node4" class="node"><title>BlueprintsController</title>
<polyline fill="none" stroke="black" points="682.767,-545.096 905.767,-545.096 "/>
<path fill="none" stroke="black" d="M905.767,-545.096C911.767,-545.096 917.767,-551.096 917.767,-557.096"/>
<polyline fill="none" stroke="black" points="917.767,-557.096 917.767,-779.096 "/>
<path fill="none" stroke="black" d="M917.767,-779.096C917.767,-785.096 911.767,-791.096 905.767,-791.096"/>
<polyline fill="none" stroke="black" points="905.767,-791.096 682.767,-791.096 "/>
<path fill="none" stroke="black" d="M682.767,-791.096C676.767,-791.096 670.767,-785.096 670.767,-779.096"/>
<polyline fill="none" stroke="black" points="670.767,-779.096 670.767,-557.096 "/>
<path fill="none" stroke="black" d="M670.767,-557.096C670.767,-551.096 676.767,-545.096 682.767,-545.096"/>
<text text-anchor="middle" x="794.267" y="-774.496" font-family="Times Roman,serif" font-size="14.00">BlueprintsController</text>
<polyline fill="none" stroke="black" points="670.767,-765.096 917.767,-765.096 "/>
<text text-anchor="start" x="678.767" y="-748.496" font-family="Times Roman,serif" font-size="14.00">_one_time_conditions_valid_164?</text>
<text text-anchor="start" x="678.767" y="-730.496" font-family="Times Roman,serif" font-size="14.00">create</text>
<text text-anchor="start" x="678.767" y="-712.496" font-family="Times Roman,serif" font-size="14.00">destroy</text>
<text text-anchor="start" x="678.767" y="-694.496" font-family="Times Roman,serif" font-size="14.00">edit</text>
<text text-anchor="start" x="678.767" y="-676.496" font-family="Times Roman,serif" font-size="14.00">get_project</text>
<text text-anchor="start" x="678.767" y="-658.496" font-family="Times Roman,serif" font-size="14.00">index</text>
<text text-anchor="start" x="678.767" y="-640.496" font-family="Times Roman,serif" font-size="14.00">new</text>
<text text-anchor="start" x="678.767" y="-622.496" font-family="Times Roman,serif" font-size="14.00">show</text>
<text text-anchor="start" x="678.767" y="-604.496" font-family="Times Roman,serif" font-size="14.00">update</text>
<polyline fill="none" stroke="black" points="670.767,-595.096 917.767,-595.096 "/>
<polyline fill="none" stroke="black" points="670.767,-571.096 917.767,-571.096 "/>
<text text-anchor="start" x="678.767" y="-554.496" font-family="Times Roman,serif" font-size="14.00">_layout</text>
</g>
<!-- ContentController -->
<g id="node5" class="node"><title>ContentController</title>
<polyline fill="none" stroke="black" points="288.869,-82.5843 511.869,-82.5843 "/>
<path fill="none" stroke="black" d="M511.869,-82.5843C517.869,-82.5843 523.869,-88.5843 523.869,-94.5843"/>
<polyline fill="none" stroke="black" points="523.869,-94.5843 523.869,-226.584 "/>
<path fill="none" stroke="black" d="M523.869,-226.584C523.869,-232.584 517.869,-238.584 511.869,-238.584"/>
<polyline fill="none" stroke="black" points="511.869,-238.584 288.869,-238.584 "/>
<path fill="none" stroke="black" d="M288.869,-238.584C282.869,-238.584 276.869,-232.584 276.869,-226.584"/>
<polyline fill="none" stroke="black" points="276.869,-226.584 276.869,-94.5843 "/>
<path fill="none" stroke="black" d="M276.869,-94.5843C276.869,-88.5843 282.869,-82.5843 288.869,-82.5843"/>
<text text-anchor="middle" x="400.369" y="-221.984" font-family="Times Roman,serif" font-size="14.00">ContentController</text>
<polyline fill="none" stroke="black" points="276.869,-212.584 523.869,-212.584 "/>
<text text-anchor="start" x="284.869" y="-195.984" font-family="Times Roman,serif" font-size="14.00">_one_time_conditions_valid_166?</text>
<text text-anchor="start" x="284.869" y="-177.984" font-family="Times Roman,serif" font-size="14.00">gold</text>
<text text-anchor="start" x="284.869" y="-159.984" font-family="Times Roman,serif" font-size="14.00">platinum</text>
<text text-anchor="start" x="284.869" y="-141.984" font-family="Times Roman,serif" font-size="14.00">silver</text>
<polyline fill="none" stroke="black" points="276.869,-132.584 523.869,-132.584 "/>
<polyline fill="none" stroke="black" points="276.869,-108.584 523.869,-108.584 "/>
<text text-anchor="start" x="284.869" y="-91.9843" font-family="Times Roman,serif" font-size="14.00">_layout</text>
</g>
<!-- ApplicationController -->
<g id="node6" class="node"><title>ApplicationController</title>
<polyline fill="none" stroke="black" points="417.58,-366.174 631.58,-366.174 "/>
<path fill="none" stroke="black" d="M631.58,-366.174C637.58,-366.174 643.58,-372.174 643.58,-378.174"/>
<polyline fill="none" stroke="black" points="643.58,-378.174 643.58,-474.174 "/>
<path fill="none" stroke="black" d="M643.58,-474.174C643.58,-480.174 637.58,-486.174 631.58,-486.174"/>
<polyline fill="none" stroke="black" points="631.58,-486.174 417.58,-486.174 "/>
<path fill="none" stroke="black" d="M417.58,-486.174C411.58,-486.174 405.58,-480.174 405.58,-474.174"/>
<polyline fill="none" stroke="black" points="405.58,-474.174 405.58,-378.174 "/>
<path fill="none" stroke="black" d="M405.58,-378.174C405.58,-372.174 411.58,-366.174 417.58,-366.174"/>
<text text-anchor="middle" x="524.58" y="-469.574" font-family="Times Roman,serif" font-size="14.00">ApplicationController</text>
<polyline fill="none" stroke="black" points="405.58,-460.174 643.58,-460.174 "/>
<text text-anchor="start" x="413.58" y="-443.574" font-family="Times Roman,serif" font-size="14.00">_one_time_conditions_valid_76?</text>
<text text-anchor="start" x="413.58" y="-425.574" font-family="Times Roman,serif" font-size="14.00">after_sign_in_path_for</text>
<polyline fill="none" stroke="black" points="405.58,-416.174 643.58,-416.174 "/>
<polyline fill="none" stroke="black" points="405.58,-392.174 643.58,-392.174 "/>
<text text-anchor="start" x="413.58" y="-375.574" font-family="Times Roman,serif" font-size="14.00">_layout</text>
</g>
<!-- ApplicationController&#45;&gt;ProjectsController -->
<g id="edge2" class="edge"><title>ApplicationController&#45;&gt;ProjectsController</title>
<path fill="none" stroke="black" d="M405.54,-429.259C371.306,-430.146 333.897,-431.115 299.396,-432.009"/>
</g>
<!-- ApplicationController&#45;&gt;BlueprintsController -->
<g id="edge4" class="edge"><title>ApplicationController&#45;&gt;BlueprintsController</title>
<path fill="none" stroke="black" d="M591.591,-486.286C615.536,-507.766 643.341,-532.709 670.539,-557.106"/>
</g>
<!-- ApplicationController&#45;&gt;ContentController -->
<g id="edge6" class="edge"><title>ApplicationController&#45;&gt;ContentController</title>
<path fill="none" stroke="black" d="M496.394,-365.908C478.787,-328.258 455.931,-279.388 436.936,-238.772"/>
</g>
<!-- CoordinatesController -->
<g id="node7" class="node"><title>CoordinatesController</title>
<polyline fill="none" stroke="black" points="402.97,-600.208 546.97,-600.208 "/>
<path fill="none" stroke="black" d="M546.97,-600.208C552.97,-600.208 558.97,-606.208 558.97,-612.208"/>
<polyline fill="none" stroke="black" points="558.97,-612.208 558.97,-798.208 "/>
<path fill="none" stroke="black" d="M558.97,-798.208C558.97,-804.208 552.97,-810.208 546.97,-810.208"/>
<polyline fill="none" stroke="black" points="546.97,-810.208 402.97,-810.208 "/>
<path fill="none" stroke="black" d="M402.97,-810.208C396.97,-810.208 390.97,-804.208 390.97,-798.208"/>
<polyline fill="none" stroke="black" points="390.97,-798.208 390.97,-612.208 "/>
<path fill="none" stroke="black" d="M390.97,-612.208C390.97,-606.208 396.97,-600.208 402.97,-600.208"/>
<text text-anchor="middle" x="474.97" y="-793.608" font-family="Times Roman,serif" font-size="14.00">CoordinatesController</text>
<polyline fill="none" stroke="black" points="390.97,-784.208 558.97,-784.208 "/>
<text text-anchor="start" x="398.97" y="-767.608" font-family="Times Roman,serif" font-size="14.00">create</text>
<text text-anchor="start" x="398.97" y="-749.608" font-family="Times Roman,serif" font-size="14.00">destroy</text>
<text text-anchor="start" x="398.97" y="-731.608" font-family="Times Roman,serif" font-size="14.00">edit</text>
<text text-anchor="start" x="398.97" y="-713.608" font-family="Times Roman,serif" font-size="14.00">index</text>
<text text-anchor="start" x="398.97" y="-695.608" font-family="Times Roman,serif" font-size="14.00">new</text>
<text text-anchor="start" x="398.97" y="-677.608" font-family="Times Roman,serif" font-size="14.00">show</text>
<text text-anchor="start" x="398.97" y="-659.608" font-family="Times Roman,serif" font-size="14.00">update</text>
<polyline fill="none" stroke="black" points="390.97,-650.208 558.97,-650.208 "/>
<polyline fill="none" stroke="black" points="390.97,-626.208 558.97,-626.208 "/>
<text text-anchor="start" x="398.97" y="-609.608" font-family="Times Roman,serif" font-size="14.00">_layout</text>
</g>
<!-- ApplicationController&#45;&gt;CoordinatesController -->
<g id="edge8" class="edge"><title>ApplicationController&#45;&gt;CoordinatesController</title>
<path fill="none" stroke="black" d="M513.876,-486.377C507.98,-519.54 500.492,-561.657 493.663,-600.067"/>
</g>
<!-- ParticipantsController -->
<g id="node8" class="node"><title>ParticipantsController</title>
<polyline fill="none" stroke="black" points="39.5226,-580.835 262.523,-580.835 "/>
<path fill="none" stroke="black" d="M262.523,-580.835C268.523,-580.835 274.523,-586.835 274.523,-592.835"/>
<polyline fill="none" stroke="black" points="274.523,-592.835 274.523,-814.835 "/>
<path fill="none" stroke="black" d="M274.523,-814.835C274.523,-820.835 268.523,-826.835 262.523,-826.835"/>
<polyline fill="none" stroke="black" points="262.523,-826.835 39.5226,-826.835 "/>
<path fill="none" stroke="black" d="M39.5226,-826.835C33.5226,-826.835 27.5226,-820.835 27.5226,-814.835"/>
<polyline fill="none" stroke="black" points="27.5226,-814.835 27.5226,-592.835 "/>
<path fill="none" stroke="black" d="M27.5226,-592.835C27.5226,-586.835 33.5226,-580.835 39.5226,-580.835"/>
<text text-anchor="middle" x="151.023" y="-810.235" font-family="Times Roman,serif" font-size="14.00">ParticipantsController</text>
<polyline fill="none" stroke="black" points="27.5226,-800.835 274.523,-800.835 "/>
<text text-anchor="start" x="35.5226" y="-784.235" font-family="Times Roman,serif" font-size="14.00">_callback_before_175</text>
<text text-anchor="start" x="35.5226" y="-766.235" font-family="Times Roman,serif" font-size="14.00">_one_time_conditions_valid_176?</text>
<text text-anchor="start" x="35.5226" y="-748.235" font-family="Times Roman,serif" font-size="14.00">create</text>
<text text-anchor="start" x="35.5226" y="-730.235" font-family="Times Roman,serif" font-size="14.00">destroy</text>
<text text-anchor="start" x="35.5226" y="-712.235" font-family="Times Roman,serif" font-size="14.00">edit</text>
<text text-anchor="start" x="35.5226" y="-694.235" font-family="Times Roman,serif" font-size="14.00">index</text>
<text text-anchor="start" x="35.5226" y="-676.235" font-family="Times Roman,serif" font-size="14.00">new</text>
<text text-anchor="start" x="35.5226" y="-658.235" font-family="Times Roman,serif" font-size="14.00">show</text>
<text text-anchor="start" x="35.5226" y="-640.235" font-family="Times Roman,serif" font-size="14.00">update</text>
<polyline fill="none" stroke="black" points="27.5226,-630.835 274.523,-630.835 "/>
<polyline fill="none" stroke="black" points="27.5226,-606.835 274.523,-606.835 "/>
<text text-anchor="start" x="35.5226" y="-590.235" font-family="Times Roman,serif" font-size="14.00">_layout</text>
</g>
<!-- ApplicationController&#45;&gt;ParticipantsController -->
<g id="edge10" class="edge"><title>ApplicationController&#45;&gt;ParticipantsController</title>
<path fill="none" stroke="black" d="M443.524,-486.422C394.17,-523.107 330.131,-570.706 274.561,-612.011"/>
</g>
<!-- UsersController -->
<g id="node9" class="node"><title>UsersController</title>
<polyline fill="none" stroke="black" points="13,-66.4672 236,-66.4672 "/>
<path fill="none" stroke="black" d="M236,-66.4672C242,-66.4672 248,-72.4672 248,-78.4672"/>
<polyline fill="none" stroke="black" points="248,-78.4672 248,-228.467 "/>
<path fill="none" stroke="black" d="M248,-228.467C248,-234.467 242,-240.467 236,-240.467"/>
<polyline fill="none" stroke="black" points="236,-240.467 13,-240.467 "/>
<path fill="none" stroke="black" d="M13,-240.467C7,-240.467 1,-234.467 1,-228.467"/>
<polyline fill="none" stroke="black" points="1,-228.467 1,-78.4672 "/>
<path fill="none" stroke="black" d="M1,-78.4672C1,-72.4672 7,-66.4672 13,-66.4672"/>
<text text-anchor="middle" x="124.5" y="-223.867" font-family="Times Roman,serif" font-size="14.00">UsersController</text>
<polyline fill="none" stroke="black" points="1,-214.467 248,-214.467 "/>
<text text-anchor="start" x="9" y="-197.867" font-family="Times Roman,serif" font-size="14.00">_one_time_conditions_valid_178?</text>
<text text-anchor="start" x="9" y="-179.867" font-family="Times Roman,serif" font-size="14.00">destroy</text>
<text text-anchor="start" x="9" y="-161.867" font-family="Times Roman,serif" font-size="14.00">index</text>
<text text-anchor="start" x="9" y="-143.867" font-family="Times Roman,serif" font-size="14.00">show</text>
<text text-anchor="start" x="9" y="-125.867" font-family="Times Roman,serif" font-size="14.00">update</text>
<polyline fill="none" stroke="black" points="1,-116.467 248,-116.467 "/>
<polyline fill="none" stroke="black" points="1,-92.4672 248,-92.4672 "/>
<text text-anchor="start" x="9" y="-75.8672" font-family="Times Roman,serif" font-size="14.00">_layout</text>
</g>
<!-- ApplicationController&#45;&gt;UsersController -->
<g id="edge12" class="edge"><title>ApplicationController&#45;&gt;UsersController</title>
<path fill="none" stroke="black" d="M436.285,-365.99C381.058,-328.345 309.098,-279.295 248.228,-237.804"/>
</g>
<!-- NotesController -->
<g id="node10" class="node"><title>NotesController</title>
<polyline fill="none" stroke="black" points="720.276,-189.938 943.276,-189.938 "/>
<path fill="none" stroke="black" d="M943.276,-189.938C949.276,-189.938 955.276,-195.938 955.276,-201.938"/>
<polyline fill="none" stroke="black" points="955.276,-201.938 955.276,-423.938 "/>
<path fill="none" stroke="black" d="M955.276,-423.938C955.276,-429.938 949.276,-435.938 943.276,-435.938"/>
<polyline fill="none" stroke="black" points="943.276,-435.938 720.276,-435.938 "/>
<path fill="none" stroke="black" d="M720.276,-435.938C714.276,-435.938 708.276,-429.938 708.276,-423.938"/>
<polyline fill="none" stroke="black" points="708.276,-423.938 708.276,-201.938 "/>
<path fill="none" stroke="black" d="M708.276,-201.938C708.276,-195.938 714.276,-189.938 720.276,-189.938"/>
<text text-anchor="middle" x="831.776" y="-419.338" font-family="Times Roman,serif" font-size="14.00">NotesController</text>
<polyline fill="none" stroke="black" points="708.276,-409.938 955.276,-409.938 "/>
<text text-anchor="start" x="716.276" y="-393.338" font-family="Times Roman,serif" font-size="14.00">_one_time_conditions_valid_196?</text>
<text text-anchor="start" x="716.276" y="-375.338" font-family="Times Roman,serif" font-size="14.00">create</text>
<text text-anchor="start" x="716.276" y="-357.338" font-family="Times Roman,serif" font-size="14.00">destroy</text>
<text text-anchor="start" x="716.276" y="-339.338" font-family="Times Roman,serif" font-size="14.00">edit</text>
<text text-anchor="start" x="716.276" y="-321.338" font-family="Times Roman,serif" font-size="14.00">get_project</text>
<text text-anchor="start" x="716.276" y="-303.338" font-family="Times Roman,serif" font-size="14.00">index</text>
<text text-anchor="start" x="716.276" y="-285.338" font-family="Times Roman,serif" font-size="14.00">new</text>
<text text-anchor="start" x="716.276" y="-267.338" font-family="Times Roman,serif" font-size="14.00">show</text>
<text text-anchor="start" x="716.276" y="-249.338" font-family="Times Roman,serif" font-size="14.00">update</text>
<polyline fill="none" stroke="black" points="708.276,-239.938 955.276,-239.938 "/>
<polyline fill="none" stroke="black" points="708.276,-215.938 955.276,-215.938 "/>
<text text-anchor="start" x="716.276" y="-199.338" font-family="Times Roman,serif" font-size="14.00">_layout</text>
</g>
<!-- ApplicationController&#45;&gt;NotesController -->
<g id="edge14" class="edge"><title>ApplicationController&#45;&gt;NotesController</title>
<path fill="none" stroke="black" d="M643.79,-382.232C664.871,-374.461 686.864,-366.354 708.067,-358.539"/>
</g>
<!-- HomeController -->
<g id="node11" class="node"><title>HomeController</title>
<polyline fill="none" stroke="black" points="648.732,-58.5 749.732,-58.5 "/>
<path fill="none" stroke="black" d="M749.732,-58.5C755.732,-58.5 761.732,-64.5 761.732,-70.5"/>
<polyline fill="none" stroke="black" points="761.732,-70.5 761.732,-146.5 "/>
<path fill="none" stroke="black" d="M761.732,-146.5C761.732,-152.5 755.732,-158.5 749.732,-158.5"/>
<polyline fill="none" stroke="black" points="749.732,-158.5 648.732,-158.5 "/>
<path fill="none" stroke="black" d="M648.732,-158.5C642.732,-158.5 636.732,-152.5 636.732,-146.5"/>
<polyline fill="none" stroke="black" points="636.732,-146.5 636.732,-70.5 "/>
<path fill="none" stroke="black" d="M636.732,-70.5C636.732,-64.5 642.732,-58.5 648.732,-58.5"/>
<text text-anchor="middle" x="699.232" y="-141.9" font-family="Times Roman,serif" font-size="14.00">HomeController</text>
<polyline fill="none" stroke="black" points="636.732,-132.5 761.732,-132.5 "/>
<polyline fill="none" stroke="black" points="636.732,-108.5 761.732,-108.5 "/>
<polyline fill="none" stroke="black" points="636.732,-84.5 761.732,-84.5 "/>
<text text-anchor="start" x="644.732" y="-67.9" font-family="Times Roman,serif" font-size="14.00">_layout</text>
</g>
<!-- ApplicationController&#45;&gt;HomeController -->
<g id="edge16" class="edge"><title>ApplicationController&#45;&gt;HomeController</title>
<path fill="none" stroke="black" d="M557.636,-366.049C590.617,-306.06 640.709,-214.948 671.627,-158.71"/>
</g>
</g>
</svg>
