<?xml version="1.0" encoding="UTF-8" standalone="no"?>
<!DOCTYPE svg PUBLIC "-//W3C//DTD SVG 1.1//EN"
 "http://www.w3.org/Graphics/SVG/1.1/DTD/svg11.dtd">
<!-- Generated by graphviz version 2.26.3 (20100126.1600)
 -->
<!-- Title: controllers_diagram Pages: 1 -->
<svg width="1490pt" height="1439pt"
 viewBox="0.00 0.00 1490.00 1438.64" xmlns="http://www.w3.org/2000/svg" xmlns:xlink="http://www.w3.org/1999/xlink">
<g id="graph1" class="graph" transform="scale(1 1) rotate(0) translate(4 1434.64)">
<title>controllers_diagram</title>
<polygon fill="white" stroke="white" points="-4,5 -4,-1434.64 1487,-1434.64 1487,5 -4,5"/>
<!-- _diagram_info -->
<g id="node1" class="node"><title>_diagram_info</title>
<text text-anchor="start" x="1239" y="-488.3" font-family="Times Roman,serif" font-size="13.00">Controllers diagram</text>
<text text-anchor="start" x="1239" y="-471.3" font-family="Times Roman,serif" font-size="13.00">Date: Jan 09 2013 &#45; 15:16</text>
<text text-anchor="start" x="1239" y="-454.3" font-family="Times Roman,serif" font-size="13.00">Migration version: 20130109025748</text>
<text text-anchor="start" x="1239" y="-437.3" font-family="Times Roman,serif" font-size="13.00">Generated by RailRoady 1.1.0</text>
<text text-anchor="start" x="1239" y="-420.3" font-family="Times Roman,serif" font-size="13.00">http://railroady.prestonlee.com</text>
</g>
<!-- RegistrationsController -->
<g id="node2" class="node"><title>RegistrationsController</title>
<polyline fill="none" stroke="black" points="1243,-657.5 1395,-657.5 "/>
<path fill="none" stroke="black" d="M1395,-657.5C1401,-657.5 1407,-663.5 1407,-669.5"/>
<polyline fill="none" stroke="black" points="1407,-669.5 1407,-801.5 "/>
<path fill="none" stroke="black" d="M1407,-801.5C1407,-807.5 1401,-813.5 1395,-813.5"/>
<polyline fill="none" stroke="black" points="1395,-813.5 1243,-813.5 "/>
<path fill="none" stroke="black" d="M1243,-813.5C1237,-813.5 1231,-807.5 1231,-801.5"/>
<polyline fill="none" stroke="black" points="1231,-801.5 1231,-669.5 "/>
<path fill="none" stroke="black" d="M1231,-669.5C1231,-663.5 1237,-657.5 1243,-657.5"/>
<text text-anchor="middle" x="1319" y="-796.9" font-family="Times Roman,serif" font-size="14.00">RegistrationsController</text>
<polyline fill="none" stroke="black" points="1231,-787.5 1407,-787.5 "/>
<text text-anchor="start" x="1239" y="-770.9" font-family="Times Roman,serif" font-size="14.00">new</text>
<text text-anchor="start" x="1239" y="-752.9" font-family="Times Roman,serif" font-size="14.00">update_card</text>
<text text-anchor="start" x="1239" y="-734.9" font-family="Times Roman,serif" font-size="14.00">update_plan</text>
<polyline fill="none" stroke="black" points="1231,-725.5 1407,-725.5 "/>
<polyline fill="none" stroke="black" points="1231,-701.5 1407,-701.5 "/>
<text text-anchor="start" x="1239" y="-684.9" font-family="Times Roman,serif" font-size="14.00">_layout</text>
<text text-anchor="start" x="1239" y="-666.9" font-family="Times Roman,serif" font-size="14.00">build_resource</text>
</g>
<!-- ReviewersController -->
<g id="node3" class="node"><title>ReviewersController</title>
<polyline fill="none" stroke="black" points="13,-393.214 236,-393.214 "/>
<path fill="none" stroke="black" d="M236,-393.214C242,-393.214 248,-399.214 248,-405.214"/>
<polyline fill="none" stroke="black" points="248,-405.214 248,-663.214 "/>
<path fill="none" stroke="black" d="M248,-663.214C248,-669.214 242,-675.214 236,-675.214"/>
<polyline fill="none" stroke="black" points="236,-675.214 13,-675.214 "/>
<path fill="none" stroke="black" d="M13,-675.214C7,-675.214 1,-669.214 1,-663.214"/>
<polyline fill="none" stroke="black" points="1,-663.214 1,-405.214 "/>
<path fill="none" stroke="black" d="M1,-405.214C1,-399.214 7,-393.214 13,-393.214"/>
<text text-anchor="middle" x="124.5" y="-658.614" font-family="Times Roman,serif" font-size="14.00">ReviewersController</text>
<polyline fill="none" stroke="black" points="1,-649.214 248,-649.214 "/>
<text text-anchor="start" x="9" y="-632.614" font-family="Times Roman,serif" font-size="14.00">_callback_before_189</text>
<text text-anchor="start" x="9" y="-614.614" font-family="Times Roman,serif" font-size="14.00">_one_time_conditions_valid_188?</text>
<text text-anchor="start" x="9" y="-596.614" font-family="Times Roman,serif" font-size="14.00">_one_time_conditions_valid_190?</text>
<text text-anchor="start" x="9" y="-578.614" font-family="Times Roman,serif" font-size="14.00">create</text>
<text text-anchor="start" x="9" y="-560.614" font-family="Times Roman,serif" font-size="14.00">destroy</text>
<text text-anchor="start" x="9" y="-542.614" font-family="Times Roman,serif" font-size="14.00">edit</text>
<text text-anchor="start" x="9" y="-524.614" font-family="Times Roman,serif" font-size="14.00">get_city</text>
<text text-anchor="start" x="9" y="-506.614" font-family="Times Roman,serif" font-size="14.00">index</text>
<text text-anchor="start" x="9" y="-488.614" font-family="Times Roman,serif" font-size="14.00">new</text>
<text text-anchor="start" x="9" y="-470.614" font-family="Times Roman,serif" font-size="14.00">show</text>
<text text-anchor="start" x="9" y="-452.614" font-family="Times Roman,serif" font-size="14.00">update</text>
<polyline fill="none" stroke="black" points="1,-443.214 248,-443.214 "/>
<polyline fill="none" stroke="black" points="1,-419.214 248,-419.214 "/>
<text text-anchor="start" x="9" y="-402.614" font-family="Times Roman,serif" font-size="14.00">_layout</text>
</g>
<!-- ProjectsController -->
<g id="node4" class="node"><title>ProjectsController</title>
<polyline fill="none" stroke="black" points="622.35,-594.861 845.35,-594.861 "/>
<path fill="none" stroke="black" d="M845.35,-594.861C851.35,-594.861 857.35,-600.861 857.35,-606.861"/>
<polyline fill="none" stroke="black" points="857.35,-606.861 857.35,-828.861 "/>
<path fill="none" stroke="black" d="M857.35,-828.861C857.35,-834.861 851.35,-840.861 845.35,-840.861"/>
<polyline fill="none" stroke="black" points="845.35,-840.861 622.35,-840.861 "/>
<path fill="none" stroke="black" d="M622.35,-840.861C616.35,-840.861 610.35,-834.861 610.35,-828.861"/>
<polyline fill="none" stroke="black" points="610.35,-828.861 610.35,-606.861 "/>
<path fill="none" stroke="black" d="M610.35,-606.861C610.35,-600.861 616.35,-594.861 622.35,-594.861"/>
<text text-anchor="middle" x="733.85" y="-824.261" font-family="Times Roman,serif" font-size="14.00">ProjectsController</text>
<polyline fill="none" stroke="black" points="610.35,-814.861 857.35,-814.861 "/>
<text text-anchor="start" x="618.35" y="-798.261" font-family="Times Roman,serif" font-size="14.00">_callback_before_269</text>
<text text-anchor="start" x="618.35" y="-780.261" font-family="Times Roman,serif" font-size="14.00">_one_time_conditions_valid_270?</text>
<text text-anchor="start" x="618.35" y="-762.261" font-family="Times Roman,serif" font-size="14.00">create</text>
<text text-anchor="start" x="618.35" y="-744.261" font-family="Times Roman,serif" font-size="14.00">destroy</text>
<text text-anchor="start" x="618.35" y="-726.261" font-family="Times Roman,serif" font-size="14.00">edit</text>
<text text-anchor="start" x="618.35" y="-708.261" font-family="Times Roman,serif" font-size="14.00">index</text>
<text text-anchor="start" x="618.35" y="-690.261" font-family="Times Roman,serif" font-size="14.00">new</text>
<text text-anchor="start" x="618.35" y="-672.261" font-family="Times Roman,serif" font-size="14.00">show</text>
<text text-anchor="start" x="618.35" y="-654.261" font-family="Times Roman,serif" font-size="14.00">update</text>
<polyline fill="none" stroke="black" points="610.35,-644.861 857.35,-644.861 "/>
<polyline fill="none" stroke="black" points="610.35,-620.861 857.35,-620.861 "/>
<text text-anchor="start" x="618.35" y="-604.261" font-family="Times Roman,serif" font-size="14.00">_layout</text>
</g>
<!-- BlueprintsController -->
<g id="node5" class="node"><title>BlueprintsController</title>
<polyline fill="none" stroke="black" points="459.246,-1.5 682.246,-1.5 "/>
<path fill="none" stroke="black" d="M682.246,-1.5C688.246,-1.5 694.246,-7.5 694.246,-13.5"/>
<polyline fill="none" stroke="black" points="694.246,-13.5 694.246,-289.5 "/>
<path fill="none" stroke="black" d="M694.246,-289.5C694.246,-295.5 688.246,-301.5 682.246,-301.5"/>
<polyline fill="none" stroke="black" points="682.246,-301.5 459.246,-301.5 "/>
<path fill="none" stroke="black" d="M459.246,-301.5C453.246,-301.5 447.246,-295.5 447.246,-289.5"/>
<polyline fill="none" stroke="black" points="447.246,-289.5 447.246,-13.5 "/>
<path fill="none" stroke="black" d="M447.246,-13.5C447.246,-7.5 453.246,-1.5 459.246,-1.5"/>
<text text-anchor="middle" x="570.746" y="-284.9" font-family="Times Roman,serif" font-size="14.00">BlueprintsController</text>
<polyline fill="none" stroke="black" points="447.246,-275.5 694.246,-275.5 "/>
<text text-anchor="start" x="455.246" y="-258.9" font-family="Times Roman,serif" font-size="14.00">_callback_before_381</text>
<text text-anchor="start" x="455.246" y="-240.9" font-family="Times Roman,serif" font-size="14.00">_one_time_conditions_valid_380?</text>
<text text-anchor="start" x="455.246" y="-222.9" font-family="Times Roman,serif" font-size="14.00">_one_time_conditions_valid_382?</text>
<text text-anchor="start" x="455.246" y="-204.9" font-family="Times Roman,serif" font-size="14.00">create</text>
<text text-anchor="start" x="455.246" y="-186.9" font-family="Times Roman,serif" font-size="14.00">destroy</text>
<text text-anchor="start" x="455.246" y="-168.9" font-family="Times Roman,serif" font-size="14.00">edit</text>
<text text-anchor="start" x="455.246" y="-150.9" font-family="Times Roman,serif" font-size="14.00">get_project</text>
<text text-anchor="start" x="455.246" y="-132.9" font-family="Times Roman,serif" font-size="14.00">index</text>
<text text-anchor="start" x="455.246" y="-114.9" font-family="Times Roman,serif" font-size="14.00">new</text>
<text text-anchor="start" x="455.246" y="-96.9" font-family="Times Roman,serif" font-size="14.00">show</text>
<text text-anchor="start" x="455.246" y="-78.9" font-family="Times Roman,serif" font-size="14.00">sort</text>
<text text-anchor="start" x="455.246" y="-60.9" font-family="Times Roman,serif" font-size="14.00">update</text>
<polyline fill="none" stroke="black" points="447.246,-51.5 694.246,-51.5 "/>
<polyline fill="none" stroke="black" points="447.246,-27.5 694.246,-27.5 "/>
<text text-anchor="start" x="455.246" y="-10.9" font-family="Times Roman,serif" font-size="14.00">_layout</text>
</g>
<!-- ContentController -->
<g id="node6" class="node"><title>ContentController</title>
<polyline fill="none" stroke="black" points="55.9229,-1174.45 278.923,-1174.45 "/>
<path fill="none" stroke="black" d="M278.923,-1174.45C284.923,-1174.45 290.923,-1180.45 290.923,-1186.45"/>
<polyline fill="none" stroke="black" points="290.923,-1186.45 290.923,-1318.45 "/>
<path fill="none" stroke="black" d="M290.923,-1318.45C290.923,-1324.45 284.923,-1330.45 278.923,-1330.45"/>
<polyline fill="none" stroke="black" points="278.923,-1330.45 55.9229,-1330.45 "/>
<path fill="none" stroke="black" d="M55.9229,-1330.45C49.9229,-1330.45 43.9229,-1324.45 43.9229,-1318.45"/>
<polyline fill="none" stroke="black" points="43.9229,-1318.45 43.9229,-1186.45 "/>
<path fill="none" stroke="black" d="M43.9229,-1186.45C43.9229,-1180.45 49.9229,-1174.45 55.9229,-1174.45"/>
<text text-anchor="middle" x="167.423" y="-1313.85" font-family="Times Roman,serif" font-size="14.00">ContentController</text>
<polyline fill="none" stroke="black" points="43.9229,-1304.45 290.923,-1304.45 "/>
<text text-anchor="start" x="51.9229" y="-1287.85" font-family="Times Roman,serif" font-size="14.00">_one_time_conditions_valid_384?</text>
<text text-anchor="start" x="51.9229" y="-1269.85" font-family="Times Roman,serif" font-size="14.00">gold</text>
<text text-anchor="start" x="51.9229" y="-1251.85" font-family="Times Roman,serif" font-size="14.00">platinum</text>
<text text-anchor="start" x="51.9229" y="-1233.85" font-family="Times Roman,serif" font-size="14.00">silver</text>
<polyline fill="none" stroke="black" points="43.9229,-1224.45 290.923,-1224.45 "/>
<polyline fill="none" stroke="black" points="43.9229,-1200.45 290.923,-1200.45 "/>
<text text-anchor="start" x="51.9229" y="-1183.85" font-family="Times Roman,serif" font-size="14.00">_layout</text>
</g>
<!-- GroupsController -->
<g id="node7" class="node"><title>GroupsController</title>
<polyline fill="none" stroke="black" points="646.748,-881.264 869.748,-881.264 "/>
<path fill="none" stroke="black" d="M869.748,-881.264C875.748,-881.264 881.748,-887.264 881.748,-893.264"/>
<polyline fill="none" stroke="black" points="881.748,-893.264 881.748,-1115.26 "/>
<path fill="none" stroke="black" d="M881.748,-1115.26C881.748,-1121.26 875.748,-1127.26 869.748,-1127.26"/>
<polyline fill="none" stroke="black" points="869.748,-1127.26 646.748,-1127.26 "/>
<path fill="none" stroke="black" d="M646.748,-1127.26C640.748,-1127.26 634.748,-1121.26 634.748,-1115.26"/>
<polyline fill="none" stroke="black" points="634.748,-1115.26 634.748,-893.264 "/>
<path fill="none" stroke="black" d="M634.748,-893.264C634.748,-887.264 640.748,-881.264 646.748,-881.264"/>
<text text-anchor="middle" x="758.248" y="-1110.66" font-family="Times Roman,serif" font-size="14.00">GroupsController</text>
<polyline fill="none" stroke="black" points="634.748,-1101.26 881.748,-1101.26 "/>
<text text-anchor="start" x="642.748" y="-1084.66" font-family="Times Roman,serif" font-size="14.00">_callback_before_409</text>
<text text-anchor="start" x="642.748" y="-1066.66" font-family="Times Roman,serif" font-size="14.00">_one_time_conditions_valid_410?</text>
<text text-anchor="start" x="642.748" y="-1048.66" font-family="Times Roman,serif" font-size="14.00">create</text>
<text text-anchor="start" x="642.748" y="-1030.66" font-family="Times Roman,serif" font-size="14.00">destroy</text>
<text text-anchor="start" x="642.748" y="-1012.66" font-family="Times Roman,serif" font-size="14.00">edit</text>
<text text-anchor="start" x="642.748" y="-994.664" font-family="Times Roman,serif" font-size="14.00">index</text>
<text text-anchor="start" x="642.748" y="-976.664" font-family="Times Roman,serif" font-size="14.00">new</text>
<text text-anchor="start" x="642.748" y="-958.664" font-family="Times Roman,serif" font-size="14.00">show</text>
<text text-anchor="start" x="642.748" y="-940.664" font-family="Times Roman,serif" font-size="14.00">update</text>
<polyline fill="none" stroke="black" points="634.748,-931.264 881.748,-931.264 "/>
<polyline fill="none" stroke="black" points="634.748,-907.264 881.748,-907.264 "/>
<text text-anchor="start" x="642.748" y="-890.664" font-family="Times Roman,serif" font-size="14.00">_layout</text>
</g>
<!-- SealsController -->
<g id="node8" class="node"><title>SealsController</title>
<polyline fill="none" stroke="black" points="344.546,-776.222 567.546,-776.222 "/>
<path fill="none" stroke="black" d="M567.546,-776.222C573.546,-776.222 579.546,-782.222 579.546,-788.222"/>
<polyline fill="none" stroke="black" points="579.546,-788.222 579.546,-1046.22 "/>
<path fill="none" stroke="black" d="M579.546,-1046.22C579.546,-1052.22 573.546,-1058.22 567.546,-1058.22"/>
<polyline fill="none" stroke="black" points="567.546,-1058.22 344.546,-1058.22 "/>
<path fill="none" stroke="black" d="M344.546,-1058.22C338.546,-1058.22 332.546,-1052.22 332.546,-1046.22"/>
<polyline fill="none" stroke="black" points="332.546,-1046.22 332.546,-788.222 "/>
<path fill="none" stroke="black" d="M332.546,-788.222C332.546,-782.222 338.546,-776.222 344.546,-776.222"/>
<text text-anchor="middle" x="456.046" y="-1041.62" font-family="Times Roman,serif" font-size="14.00">SealsController</text>
<polyline fill="none" stroke="black" points="332.546,-1032.22 579.546,-1032.22 "/>
<text text-anchor="start" x="340.546" y="-1015.62" font-family="Times Roman,serif" font-size="14.00">_callback_before_417</text>
<text text-anchor="start" x="340.546" y="-997.622" font-family="Times Roman,serif" font-size="14.00">_one_time_conditions_valid_416?</text>
<text text-anchor="start" x="340.546" y="-979.622" font-family="Times Roman,serif" font-size="14.00">_one_time_conditions_valid_418?</text>
<text text-anchor="start" x="340.546" y="-961.622" font-family="Times Roman,serif" font-size="14.00">create</text>
<text text-anchor="start" x="340.546" y="-943.622" font-family="Times Roman,serif" font-size="14.00">destroy</text>
<text text-anchor="start" x="340.546" y="-925.622" font-family="Times Roman,serif" font-size="14.00">edit</text>
<text text-anchor="start" x="340.546" y="-907.622" font-family="Times Roman,serif" font-size="14.00">get_city</text>
<text text-anchor="start" x="340.546" y="-889.622" font-family="Times Roman,serif" font-size="14.00">index</text>
<text text-anchor="start" x="340.546" y="-871.622" font-family="Times Roman,serif" font-size="14.00">new</text>
<text text-anchor="start" x="340.546" y="-853.622" font-family="Times Roman,serif" font-size="14.00">show</text>
<text text-anchor="start" x="340.546" y="-835.622" font-family="Times Roman,serif" font-size="14.00">update</text>
<polyline fill="none" stroke="black" points="332.546,-826.222 579.546,-826.222 "/>
<polyline fill="none" stroke="black" points="332.546,-802.222 579.546,-802.222 "/>
<text text-anchor="start" x="340.546" y="-785.622" font-family="Times Roman,serif" font-size="14.00">_layout</text>
</g>
<!-- ApplicationController -->
<g id="node9" class="node"><title>ApplicationController</title>
<polyline fill="none" stroke="black" points="336.153,-497.674 559.153,-497.674 "/>
<path fill="none" stroke="black" d="M559.153,-497.674C565.153,-497.674 571.153,-503.674 571.153,-509.674"/>
<polyline fill="none" stroke="black" points="571.153,-509.674 571.153,-605.674 "/>
<path fill="none" stroke="black" d="M571.153,-605.674C571.153,-611.674 565.153,-617.674 559.153,-617.674"/>
<polyline fill="none" stroke="black" points="559.153,-617.674 336.153,-617.674 "/>
<path fill="none" stroke="black" d="M336.153,-617.674C330.153,-617.674 324.153,-611.674 324.153,-605.674"/>
<polyline fill="none" stroke="black" points="324.153,-605.674 324.153,-509.674 "/>
<path fill="none" stroke="black" d="M324.153,-509.674C324.153,-503.674 330.153,-497.674 336.153,-497.674"/>
<text text-anchor="middle" x="447.653" y="-601.074" font-family="Times Roman,serif" font-size="14.00">ApplicationController</text>
<polyline fill="none" stroke="black" points="324.153,-591.674 571.153,-591.674 "/>
<text text-anchor="start" x="332.153" y="-575.074" font-family="Times Roman,serif" font-size="14.00">_one_time_conditions_valid_172?</text>
<text text-anchor="start" x="332.153" y="-557.074" font-family="Times Roman,serif" font-size="14.00">after_sign_in_path_for</text>
<polyline fill="none" stroke="black" points="324.153,-547.674 571.153,-547.674 "/>
<polyline fill="none" stroke="black" points="324.153,-523.674 571.153,-523.674 "/>
<text text-anchor="start" x="332.153" y="-507.074" font-family="Times Roman,serif" font-size="14.00">_layout</text>
</g>
<!-- ApplicationController&#45;&gt;ReviewersController -->
<g id="edge2" class="edge"><title>ApplicationController&#45;&gt;ReviewersController</title>
<path fill="none" stroke="black" d="M324.099,-548.704C299.243,-546.9 273.115,-545.003 248.252,-543.198"/>
</g>
<!-- ApplicationController&#45;&gt;ProjectsController -->
<g id="edge4" class="edge"><title>ApplicationController&#45;&gt;ProjectsController</title>
<path fill="none" stroke="black" d="M555.036,-617.777C572.959,-627.809 591.681,-638.288 609.976,-648.528"/>
</g>
<!-- ApplicationController&#45;&gt;BlueprintsController -->
<g id="edge6" class="edge"><title>ApplicationController&#45;&gt;BlueprintsController</title>
<path fill="none" stroke="black" d="M465.948,-497.304C481.553,-445.813 504.658,-369.572 525.205,-301.771"/>
</g>
<!-- ApplicationController&#45;&gt;ContentController -->
<g id="edge8" class="edge"><title>ApplicationController&#45;&gt;ContentController</title>
<path fill="none" stroke="black" d="M409.8,-618.1C384.527,-660.322 351.912,-718.652 329.346,-773.022 285.471,-878.74 293.783,-911.796 257.08,-1020.21 239.514,-1072.1 217.364,-1129.54 199.475,-1174.31"/>
</g>
<!-- ApplicationController&#45;&gt;GroupsController -->
<g id="edge10" class="edge"><title>ApplicationController&#45;&gt;GroupsController</title>
<path fill="none" stroke="black" d="M490.569,-617.725C519.291,-659.779 556.497,-718.063 582.746,-773.022 597.134,-803.146 589.885,-815.488 607.15,-844.061 615.256,-857.478 624.642,-870.706 634.689,-883.462"/>
</g>
<!-- ApplicationController&#45;&gt;SealsController -->
<g id="edge12" class="edge"><title>ApplicationController&#45;&gt;SealsController</title>
<path fill="none" stroke="black" d="M449.058,-617.854C450.066,-661.035 451.467,-721.063 452.751,-776.038"/>
</g>
<!-- TasksController -->
<g id="node10" class="node"><title>TasksController</title>
<polyline fill="none" stroke="black" points="1024.14,-432.421 1122.14,-432.421 "/>
<path fill="none" stroke="black" d="M1122.14,-432.421C1128.14,-432.421 1134.14,-438.421 1134.14,-444.421"/>
<polyline fill="none" stroke="black" points="1134.14,-444.421 1134.14,-630.421 "/>
<path fill="none" stroke="black" d="M1134.14,-630.421C1134.14,-636.421 1128.14,-642.421 1122.14,-642.421"/>
<polyline fill="none" stroke="black" points="1122.14,-642.421 1024.14,-642.421 "/>
<path fill="none" stroke="black" d="M1024.14,-642.421C1018.14,-642.421 1012.14,-636.421 1012.14,-630.421"/>
<polyline fill="none" stroke="black" points="1012.14,-630.421 1012.14,-444.421 "/>
<path fill="none" stroke="black" d="M1012.14,-444.421C1012.14,-438.421 1018.14,-432.421 1024.14,-432.421"/>
<text text-anchor="middle" x="1073.14" y="-625.821" font-family="Times Roman,serif" font-size="14.00">TasksController</text>
<polyline fill="none" stroke="black" points="1012.14,-616.421 1134.14,-616.421 "/>
<text text-anchor="start" x="1020.14" y="-599.821" font-family="Times Roman,serif" font-size="14.00">create</text>
<text text-anchor="start" x="1020.14" y="-581.821" font-family="Times Roman,serif" font-size="14.00">destroy</text>
<text text-anchor="start" x="1020.14" y="-563.821" font-family="Times Roman,serif" font-size="14.00">edit</text>
<text text-anchor="start" x="1020.14" y="-545.821" font-family="Times Roman,serif" font-size="14.00">index</text>
<text text-anchor="start" x="1020.14" y="-527.821" font-family="Times Roman,serif" font-size="14.00">new</text>
<text text-anchor="start" x="1020.14" y="-509.821" font-family="Times Roman,serif" font-size="14.00">show</text>
<text text-anchor="start" x="1020.14" y="-491.821" font-family="Times Roman,serif" font-size="14.00">update</text>
<polyline fill="none" stroke="black" points="1012.14,-482.421 1134.14,-482.421 "/>
<polyline fill="none" stroke="black" points="1012.14,-458.421 1134.14,-458.421 "/>
<text text-anchor="start" x="1020.14" y="-441.821" font-family="Times Roman,serif" font-size="14.00">_layout</text>
</g>
<!-- ApplicationController&#45;&gt;TasksController -->
<g id="edge14" class="edge"><title>ApplicationController&#45;&gt;TasksController</title>
<path fill="none" stroke="black" d="M571.229,-553.672C704.204,-549.367 910.266,-542.695 1012.02,-539.4"/>
</g>
<!-- CoordinatesController -->
<g id="node11" class="node"><title>CoordinatesController</title>
<polyline fill="none" stroke="black" points="59.0259,-48.1847 282.026,-48.1847 "/>
<path fill="none" stroke="black" d="M282.026,-48.1847C288.026,-48.1847 294.026,-54.1847 294.026,-60.1847"/>
<polyline fill="none" stroke="black" points="294.026,-60.1847 294.026,-282.185 "/>
<path fill="none" stroke="black" d="M294.026,-282.185C294.026,-288.185 288.026,-294.185 282.026,-294.185"/>
<polyline fill="none" stroke="black" points="282.026,-294.185 59.0259,-294.185 "/>
<path fill="none" stroke="black" d="M59.0259,-294.185C53.0259,-294.185 47.0259,-288.185 47.0259,-282.185"/>
<polyline fill="none" stroke="black" points="47.0259,-282.185 47.0259,-60.1847 "/>
<path fill="none" stroke="black" d="M47.0259,-60.1847C47.0259,-54.1847 53.0259,-48.1847 59.0259,-48.1847"/>
<text text-anchor="middle" x="170.526" y="-277.585" font-family="Times Roman,serif" font-size="14.00">CoordinatesController</text>
<polyline fill="none" stroke="black" points="47.0259,-268.185 294.026,-268.185 "/>
<text text-anchor="start" x="55.0259" y="-251.585" font-family="Times Roman,serif" font-size="14.00">_callback_before_425</text>
<text text-anchor="start" x="55.0259" y="-233.585" font-family="Times Roman,serif" font-size="14.00">_one_time_conditions_valid_426?</text>
<text text-anchor="start" x="55.0259" y="-215.585" font-family="Times Roman,serif" font-size="14.00">create</text>
<text text-anchor="start" x="55.0259" y="-197.585" font-family="Times Roman,serif" font-size="14.00">destroy</text>
<text text-anchor="start" x="55.0259" y="-179.585" font-family="Times Roman,serif" font-size="14.00">edit</text>
<text text-anchor="start" x="55.0259" y="-161.585" font-family="Times Roman,serif" font-size="14.00">index</text>
<text text-anchor="start" x="55.0259" y="-143.585" font-family="Times Roman,serif" font-size="14.00">new</text>
<text text-anchor="start" x="55.0259" y="-125.585" font-family="Times Roman,serif" font-size="14.00">show</text>
<text text-anchor="start" x="55.0259" y="-107.585" font-family="Times Roman,serif" font-size="14.00">update</text>
<polyline fill="none" stroke="black" points="47.0259,-98.1847 294.026,-98.1847 "/>
<polyline fill="none" stroke="black" points="47.0259,-74.1847 294.026,-74.1847 "/>
<text text-anchor="start" x="55.0259" y="-57.5847" font-family="Times Roman,serif" font-size="14.00">_layout</text>
</g>
<!-- ApplicationController&#45;&gt;CoordinatesController -->
<g id="edge16" class="edge"><title>ApplicationController&#45;&gt;CoordinatesController</title>
<path fill="none" stroke="black" d="M404.352,-497.285C365.533,-443.147 307.381,-362.046 258.782,-294.269"/>
</g>
<!-- ParticipantsController -->
<g id="node12" class="node"><title>ParticipantsController</title>
<polyline fill="none" stroke="black" points="910.04,-18.0794 1133.04,-18.0794 "/>
<path fill="none" stroke="black" d="M1133.04,-18.0794C1139.04,-18.0794 1145.04,-24.0794 1145.04,-30.0794"/>
<polyline fill="none" stroke="black" points="1145.04,-30.0794 1145.04,-288.079 "/>
<path fill="none" stroke="black" d="M1145.04,-288.079C1145.04,-294.079 1139.04,-300.079 1133.04,-300.079"/>
<polyline fill="none" stroke="black" points="1133.04,-300.079 910.04,-300.079 "/>
<path fill="none" stroke="black" d="M910.04,-300.079C904.04,-300.079 898.04,-294.079 898.04,-288.079"/>
<polyline fill="none" stroke="black" points="898.04,-288.079 898.04,-30.0794 "/>
<path fill="none" stroke="black" d="M898.04,-30.0794C898.04,-24.0794 904.04,-18.0794 910.04,-18.0794"/>
<text text-anchor="middle" x="1021.54" y="-283.479" font-family="Times Roman,serif" font-size="14.00">ParticipantsController</text>
<polyline fill="none" stroke="black" points="898.04,-274.079 1145.04,-274.079 "/>
<text text-anchor="start" x="906.04" y="-257.479" font-family="Times Roman,serif" font-size="14.00">_callback_before_433</text>
<text text-anchor="start" x="906.04" y="-239.479" font-family="Times Roman,serif" font-size="14.00">_one_time_conditions_valid_432?</text>
<text text-anchor="start" x="906.04" y="-221.479" font-family="Times Roman,serif" font-size="14.00">_one_time_conditions_valid_434?</text>
<text text-anchor="start" x="906.04" y="-203.479" font-family="Times Roman,serif" font-size="14.00">create</text>
<text text-anchor="start" x="906.04" y="-185.479" font-family="Times Roman,serif" font-size="14.00">destroy</text>
<text text-anchor="start" x="906.04" y="-167.479" font-family="Times Roman,serif" font-size="14.00">edit</text>
<text text-anchor="start" x="906.04" y="-149.479" font-family="Times Roman,serif" font-size="14.00">get_project</text>
<text text-anchor="start" x="906.04" y="-131.479" font-family="Times Roman,serif" font-size="14.00">index</text>
<text text-anchor="start" x="906.04" y="-113.479" font-family="Times Roman,serif" font-size="14.00">new</text>
<text text-anchor="start" x="906.04" y="-95.4794" font-family="Times Roman,serif" font-size="14.00">show</text>
<text text-anchor="start" x="906.04" y="-77.4794" font-family="Times Roman,serif" font-size="14.00">update</text>
<polyline fill="none" stroke="black" points="898.04,-68.0794 1145.04,-68.0794 "/>
<polyline fill="none" stroke="black" points="898.04,-44.0794 1145.04,-44.0794 "/>
<text text-anchor="start" x="906.04" y="-27.4794" font-family="Times Roman,serif" font-size="14.00">_layout</text>
</g>
<!-- ApplicationController&#45;&gt;ParticipantsController -->
<g id="edge18" class="edge"><title>ApplicationController&#45;&gt;ParticipantsController</title>
<path fill="none" stroke="black" d="M473.611,-497.448C500.563,-442.435 548.081,-363.364 614.185,-320.642 645.829,-300.191 661.516,-316.04 697.446,-304.7 765.682,-283.163 838.623,-251.244 897.995,-222.775"/>
</g>
<!-- UsersController -->
<g id="node13" class="node"><title>UsersController</title>
<polyline fill="none" stroke="black" points="629.385,-323.842 852.385,-323.842 "/>
<path fill="none" stroke="black" d="M852.385,-323.842C858.385,-323.842 864.385,-329.842 864.385,-335.842"/>
<polyline fill="none" stroke="black" points="864.385,-335.842 864.385,-521.842 "/>
<path fill="none" stroke="black" d="M864.385,-521.842C864.385,-527.842 858.385,-533.842 852.385,-533.842"/>
<polyline fill="none" stroke="black" points="852.385,-533.842 629.385,-533.842 "/>
<path fill="none" stroke="black" d="M629.385,-533.842C623.385,-533.842 617.385,-527.842 617.385,-521.842"/>
<polyline fill="none" stroke="black" points="617.385,-521.842 617.385,-335.842 "/>
<path fill="none" stroke="black" d="M617.385,-335.842C617.385,-329.842 623.385,-323.842 629.385,-323.842"/>
<text text-anchor="middle" x="740.885" y="-517.242" font-family="Times Roman,serif" font-size="14.00">UsersController</text>
<polyline fill="none" stroke="black" points="617.385,-507.842 864.385,-507.842 "/>
<text text-anchor="start" x="625.385" y="-491.242" font-family="Times Roman,serif" font-size="14.00">_callback_before_437</text>
<text text-anchor="start" x="625.385" y="-473.242" font-family="Times Roman,serif" font-size="14.00">_one_time_conditions_valid_436?</text>
<text text-anchor="start" x="625.385" y="-455.242" font-family="Times Roman,serif" font-size="14.00">_one_time_conditions_valid_438?</text>
<text text-anchor="start" x="625.385" y="-437.242" font-family="Times Roman,serif" font-size="14.00">destroy</text>
<text text-anchor="start" x="625.385" y="-419.242" font-family="Times Roman,serif" font-size="14.00">index</text>
<text text-anchor="start" x="625.385" y="-401.242" font-family="Times Roman,serif" font-size="14.00">show</text>
<text text-anchor="start" x="625.385" y="-383.242" font-family="Times Roman,serif" font-size="14.00">update</text>
<polyline fill="none" stroke="black" points="617.385,-373.842 864.385,-373.842 "/>
<polyline fill="none" stroke="black" points="617.385,-349.842 864.385,-349.842 "/>
<text text-anchor="start" x="625.385" y="-333.242" font-family="Times Roman,serif" font-size="14.00">_layout</text>
</g>
<!-- ApplicationController&#45;&gt;UsersController -->
<g id="edge20" class="edge"><title>ApplicationController&#45;&gt;UsersController</title>
<path fill="none" stroke="black" d="M571.16,-503.411C586.342,-496.74 601.864,-489.921 617.051,-483.248"/>
</g>
<!-- NotesController -->
<g id="node14" class="node"><title>NotesController</title>
<polyline fill="none" stroke="black" points="18.8801,-717.013 241.88,-717.013 "/>
<path fill="none" stroke="black" d="M241.88,-717.013C247.88,-717.013 253.88,-723.013 253.88,-729.013"/>
<polyline fill="none" stroke="black" points="253.88,-729.013 253.88,-1005.01 "/>
<path fill="none" stroke="black" d="M253.88,-1005.01C253.88,-1011.01 247.88,-1017.01 241.88,-1017.01"/>
<polyline fill="none" stroke="black" points="241.88,-1017.01 18.8801,-1017.01 "/>
<path fill="none" stroke="black" d="M18.8801,-1017.01C12.8801,-1017.01 6.88009,-1011.01 6.88009,-1005.01"/>
<polyline fill="none" stroke="black" points="6.88009,-1005.01 6.88009,-729.013 "/>
<path fill="none" stroke="black" d="M6.88009,-729.013C6.88009,-723.013 12.8801,-717.013 18.8801,-717.013"/>
<text text-anchor="middle" x="130.38" y="-1000.41" font-family="Times Roman,serif" font-size="14.00">NotesController</text>
<polyline fill="none" stroke="black" points="6.88009,-991.013 253.88,-991.013 "/>
<text text-anchor="start" x="14.8801" y="-974.413" font-family="Times Roman,serif" font-size="14.00">_callback_before_517</text>
<text text-anchor="start" x="14.8801" y="-956.413" font-family="Times Roman,serif" font-size="14.00">_one_time_conditions_valid_516?</text>
<text text-anchor="start" x="14.8801" y="-938.413" font-family="Times Roman,serif" font-size="14.00">_one_time_conditions_valid_518?</text>
<text text-anchor="start" x="14.8801" y="-920.413" font-family="Times Roman,serif" font-size="14.00">create</text>
<text text-anchor="start" x="14.8801" y="-902.413" font-family="Times Roman,serif" font-size="14.00">destroy</text>
<text text-anchor="start" x="14.8801" y="-884.413" font-family="Times Roman,serif" font-size="14.00">edit</text>
<text text-anchor="start" x="14.8801" y="-866.413" font-family="Times Roman,serif" font-size="14.00">get_project</text>
<text text-anchor="start" x="14.8801" y="-848.413" font-family="Times Roman,serif" font-size="14.00">index</text>
<text text-anchor="start" x="14.8801" y="-830.413" font-family="Times Roman,serif" font-size="14.00">new</text>
<text text-anchor="start" x="14.8801" y="-812.413" font-family="Times Roman,serif" font-size="14.00">show</text>
<text text-anchor="start" x="14.8801" y="-794.413" font-family="Times Roman,serif" font-size="14.00">sort</text>
<text text-anchor="start" x="14.8801" y="-776.413" font-family="Times Roman,serif" font-size="14.00">update</text>
<polyline fill="none" stroke="black" points="6.88009,-767.013 253.88,-767.013 "/>
<polyline fill="none" stroke="black" points="6.88009,-743.013 253.88,-743.013 "/>
<text text-anchor="start" x="14.8801" y="-726.413" font-family="Times Roman,serif" font-size="14.00">_layout</text>
</g>
<!-- ApplicationController&#45;&gt;NotesController -->
<g id="edge22" class="edge"><title>ApplicationController&#45;&gt;NotesController</title>
<path fill="none" stroke="black" d="M386.103,-617.684C348.621,-654.23 299.388,-702.231 254.139,-746.349"/>
</g>
<!-- HomeController -->
<g id="node15" class="node"><title>HomeController</title>
<polyline fill="none" stroke="black" points="1026.36,-828.607 1127.36,-828.607 "/>
<path fill="none" stroke="black" d="M1127.36,-828.607C1133.36,-828.607 1139.36,-834.607 1139.36,-840.607"/>
<polyline fill="none" stroke="black" points="1139.36,-840.607 1139.36,-916.607 "/>
<path fill="none" stroke="black" d="M1139.36,-916.607C1139.36,-922.607 1133.36,-928.607 1127.36,-928.607"/>
<polyline fill="none" stroke="black" points="1127.36,-928.607 1026.36,-928.607 "/>
<path fill="none" stroke="black" d="M1026.36,-928.607C1020.36,-928.607 1014.36,-922.607 1014.36,-916.607"/>
<polyline fill="none" stroke="black" points="1014.36,-916.607 1014.36,-840.607 "/>
<path fill="none" stroke="black" d="M1014.36,-840.607C1014.36,-834.607 1020.36,-828.607 1026.36,-828.607"/>
<text text-anchor="middle" x="1076.86" y="-912.007" font-family="Times Roman,serif" font-size="14.00">HomeController</text>
<polyline fill="none" stroke="black" points="1014.36,-902.607 1139.36,-902.607 "/>
<polyline fill="none" stroke="black" points="1014.36,-878.607 1139.36,-878.607 "/>
<polyline fill="none" stroke="black" points="1014.36,-854.607 1139.36,-854.607 "/>
<text text-anchor="start" x="1022.36" y="-838.007" font-family="Times Roman,serif" font-size="14.00">_layout</text>
</g>
<!-- ApplicationController&#45;&gt;HomeController -->
<g id="edge24" class="edge"><title>ApplicationController&#45;&gt;HomeController</title>
<path fill="none" stroke="black" d="M571.288,-542.333C657.543,-537.488 772.506,-543.164 860.55,-591.661 957.134,-644.863 1023.46,-761.386 1055.28,-828.432"/>
</g>
<!-- CitiesController -->
<g id="node16" class="node"><title>CitiesController</title>
<polyline fill="none" stroke="black" points="918.264,-1144.12 1141.26,-1144.12 "/>
<path fill="none" stroke="black" d="M1141.26,-1144.12C1147.26,-1144.12 1153.26,-1150.12 1153.26,-1156.12"/>
<polyline fill="none" stroke="black" points="1153.26,-1156.12 1153.26,-1378.12 "/>
<path fill="none" stroke="black" d="M1153.26,-1378.12C1153.26,-1384.12 1147.26,-1390.12 1141.26,-1390.12"/>
<polyline fill="none" stroke="black" points="1141.26,-1390.12 918.264,-1390.12 "/>
<path fill="none" stroke="black" d="M918.264,-1390.12C912.264,-1390.12 906.264,-1384.12 906.264,-1378.12"/>
<polyline fill="none" stroke="black" points="906.264,-1378.12 906.264,-1156.12 "/>
<path fill="none" stroke="black" d="M906.264,-1156.12C906.264,-1150.12 912.264,-1144.12 918.264,-1144.12"/>
<text text-anchor="middle" x="1029.76" y="-1373.52" font-family="Times Roman,serif" font-size="14.00">CitiesController</text>
<polyline fill="none" stroke="black" points="906.264,-1364.12 1153.26,-1364.12 "/>
<text text-anchor="start" x="914.264" y="-1347.52" font-family="Times Roman,serif" font-size="14.00">_callback_before_567</text>
<text text-anchor="start" x="914.264" y="-1329.52" font-family="Times Roman,serif" font-size="14.00">_one_time_conditions_valid_568?</text>
<text text-anchor="start" x="914.264" y="-1311.52" font-family="Times Roman,serif" font-size="14.00">create</text>
<text text-anchor="start" x="914.264" y="-1293.52" font-family="Times Roman,serif" font-size="14.00">destroy</text>
<text text-anchor="start" x="914.264" y="-1275.52" font-family="Times Roman,serif" font-size="14.00">edit</text>
<text text-anchor="start" x="914.264" y="-1257.52" font-family="Times Roman,serif" font-size="14.00">index</text>
<text text-anchor="start" x="914.264" y="-1239.52" font-family="Times Roman,serif" font-size="14.00">new</text>
<text text-anchor="start" x="914.264" y="-1221.52" font-family="Times Roman,serif" font-size="14.00">show</text>
<text text-anchor="start" x="914.264" y="-1203.52" font-family="Times Roman,serif" font-size="14.00">update</text>
<polyline fill="none" stroke="black" points="906.264,-1194.12 1153.26,-1194.12 "/>
<polyline fill="none" stroke="black" points="906.264,-1170.12 1153.26,-1170.12 "/>
<text text-anchor="start" x="914.264" y="-1153.52" font-family="Times Roman,serif" font-size="14.00">_layout</text>
</g>
<!-- ApplicationController&#45;&gt;CitiesController -->
<g id="edge26" class="edge"><title>ApplicationController&#45;&gt;CitiesController</title>
<path fill="none" stroke="black" d="M490.569,-617.725C519.291,-659.779 556.497,-718.063 582.746,-773.022 597.134,-803.146 581.209,-823.048 607.15,-844.061 703.803,-922.358 787.306,-801.003 884.948,-878.064 965.851,-941.914 1001.56,-1055.83 1017.32,-1143.95"/>
</g>
<!-- MembersController -->
<g id="node17" class="node"><title>MembersController</title>
<polyline fill="none" stroke="black" points="470.207,-1147.14 693.207,-1147.14 "/>
<path fill="none" stroke="black" d="M693.207,-1147.14C699.207,-1147.14 705.207,-1153.14 705.207,-1159.14"/>
<polyline fill="none" stroke="black" points="705.207,-1159.14 705.207,-1417.14 "/>
<path fill="none" stroke="black" d="M705.207,-1417.14C705.207,-1423.14 699.207,-1429.14 693.207,-1429.14"/>
<polyline fill="none" stroke="black" points="693.207,-1429.14 470.207,-1429.14 "/>
<path fill="none" stroke="black" d="M470.207,-1429.14C464.207,-1429.14 458.207,-1423.14 458.207,-1417.14"/>
<polyline fill="none" stroke="black" points="458.207,-1417.14 458.207,-1159.14 "/>
<path fill="none" stroke="black" d="M458.207,-1159.14C458.207,-1153.14 464.207,-1147.14 470.207,-1147.14"/>
<text text-anchor="middle" x="581.707" y="-1412.54" font-family="Times Roman,serif" font-size="14.00">MembersController</text>
<polyline fill="none" stroke="black" points="458.207,-1403.14 705.207,-1403.14 "/>
<text text-anchor="start" x="466.207" y="-1386.54" font-family="Times Roman,serif" font-size="14.00">_callback_before_575</text>
<text text-anchor="start" x="466.207" y="-1368.54" font-family="Times Roman,serif" font-size="14.00">_one_time_conditions_valid_574?</text>
<text text-anchor="start" x="466.207" y="-1350.54" font-family="Times Roman,serif" font-size="14.00">_one_time_conditions_valid_576?</text>
<text text-anchor="start" x="466.207" y="-1332.54" font-family="Times Roman,serif" font-size="14.00">create</text>
<text text-anchor="start" x="466.207" y="-1314.54" font-family="Times Roman,serif" font-size="14.00">destroy</text>
<text text-anchor="start" x="466.207" y="-1296.54" font-family="Times Roman,serif" font-size="14.00">edit</text>
<text text-anchor="start" x="466.207" y="-1278.54" font-family="Times Roman,serif" font-size="14.00">get_group</text>
<text text-anchor="start" x="466.207" y="-1260.54" font-family="Times Roman,serif" font-size="14.00">index</text>
<text text-anchor="start" x="466.207" y="-1242.54" font-family="Times Roman,serif" font-size="14.00">new</text>
<text text-anchor="start" x="466.207" y="-1224.54" font-family="Times Roman,serif" font-size="14.00">show</text>
<text text-anchor="start" x="466.207" y="-1206.54" font-family="Times Roman,serif" font-size="14.00">update</text>
<polyline fill="none" stroke="black" points="458.207,-1197.14 705.207,-1197.14 "/>
<polyline fill="none" stroke="black" points="458.207,-1173.14 705.207,-1173.14 "/>
<text text-anchor="start" x="466.207" y="-1156.54" font-family="Times Roman,serif" font-size="14.00">_layout</text>
</g>
<!-- ApplicationController&#45;&gt;MembersController -->
<g id="edge28" class="edge"><title>ApplicationController&#45;&gt;MembersController</title>
<path fill="none" stroke="black" d="M498.279,-617.695C529.334,-658.587 566.212,-715.551 582.746,-773.022 618.043,-895.708 613.653,-1041.74 602.861,-1146.94"/>
</g>
</g>
</svg>
