<?xml version="1.0" encoding="UTF-8" standalone="no"?>
<!DOCTYPE svg PUBLIC "-//W3C//DTD SVG 1.1//EN"
 "http://www.w3.org/Graphics/SVG/1.1/DTD/svg11.dtd">
<!-- Generated by graphviz version 2.26.3 (20100126.1600)
 -->
<!-- Title: controllers_diagram Pages: 1 -->
<svg width="1572pt" height="1421pt"
 viewBox="0.00 0.00 1572.00 1420.85" xmlns="http://www.w3.org/2000/svg" xmlns:xlink="http://www.w3.org/1999/xlink">
<g id="graph1" class="graph" transform="scale(1 1) rotate(0) translate(4 1416.85)">
<title>controllers_diagram</title>
<polygon fill="white" stroke="white" points="-4,5 -4,-1416.85 1569,-1416.85 1569,5 -4,5"/>
<!-- _diagram_info -->
<g id="node1" class="node"><title>_diagram_info</title>
<text text-anchor="start" x="1321" y="-78.3" font-family="Times Roman,serif" font-size="13.00">Controllers diagram</text>
<text text-anchor="start" x="1321" y="-61.3" font-family="Times Roman,serif" font-size="13.00">Date: Jan 07 2013 &#45; 04:23</text>
<text text-anchor="start" x="1321" y="-44.3" font-family="Times Roman,serif" font-size="13.00">Migration version: 20130104223013</text>
<text text-anchor="start" x="1321" y="-27.3" font-family="Times Roman,serif" font-size="13.00">Generated by RailRoady 1.1.0</text>
<text text-anchor="start" x="1321" y="-10.3" font-family="Times Roman,serif" font-size="13.00">http://railroady.prestonlee.com</text>
</g>
<!-- RegistrationsController -->
<g id="node2" class="node"><title>RegistrationsController</title>
<polyline fill="none" stroke="black" points="1325,-247.5 1477,-247.5 "/>
<path fill="none" stroke="black" d="M1477,-247.5C1483,-247.5 1489,-253.5 1489,-259.5"/>
<polyline fill="none" stroke="black" points="1489,-259.5 1489,-391.5 "/>
<path fill="none" stroke="black" d="M1489,-391.5C1489,-397.5 1483,-403.5 1477,-403.5"/>
<polyline fill="none" stroke="black" points="1477,-403.5 1325,-403.5 "/>
<path fill="none" stroke="black" d="M1325,-403.5C1319,-403.5 1313,-397.5 1313,-391.5"/>
<polyline fill="none" stroke="black" points="1313,-391.5 1313,-259.5 "/>
<path fill="none" stroke="black" d="M1313,-259.5C1313,-253.5 1319,-247.5 1325,-247.5"/>
<text text-anchor="middle" x="1401" y="-386.9" font-family="Times Roman,serif" font-size="14.00">RegistrationsController</text>
<polyline fill="none" stroke="black" points="1313,-377.5 1489,-377.5 "/>
<text text-anchor="start" x="1321" y="-360.9" font-family="Times Roman,serif" font-size="14.00">new</text>
<text text-anchor="start" x="1321" y="-342.9" font-family="Times Roman,serif" font-size="14.00">update_card</text>
<text text-anchor="start" x="1321" y="-324.9" font-family="Times Roman,serif" font-size="14.00">update_plan</text>
<polyline fill="none" stroke="black" points="1313,-315.5 1489,-315.5 "/>
<polyline fill="none" stroke="black" points="1313,-291.5 1489,-291.5 "/>
<text text-anchor="start" x="1321" y="-274.9" font-family="Times Roman,serif" font-size="14.00">_layout</text>
<text text-anchor="start" x="1321" y="-256.9" font-family="Times Roman,serif" font-size="14.00">build_resource</text>
</g>
<!-- ReviewersController -->
<g id="node3" class="node"><title>ReviewersController</title>
<polyline fill="none" stroke="black" points="13,-375.307 236,-375.307 "/>
<path fill="none" stroke="black" d="M236,-375.307C242,-375.307 248,-381.307 248,-387.307"/>
<polyline fill="none" stroke="black" points="248,-387.307 248,-645.307 "/>
<path fill="none" stroke="black" d="M248,-645.307C248,-651.307 242,-657.307 236,-657.307"/>
<polyline fill="none" stroke="black" points="236,-657.307 13,-657.307 "/>
<path fill="none" stroke="black" d="M13,-657.307C7,-657.307 1,-651.307 1,-645.307"/>
<polyline fill="none" stroke="black" points="1,-645.307 1,-387.307 "/>
<path fill="none" stroke="black" d="M1,-387.307C1,-381.307 7,-375.307 13,-375.307"/>
<text text-anchor="middle" x="124.5" y="-640.707" font-family="Times Roman,serif" font-size="14.00">ReviewersController</text>
<polyline fill="none" stroke="black" points="1,-631.307 248,-631.307 "/>
<text text-anchor="start" x="9" y="-614.707" font-family="Times Roman,serif" font-size="14.00">_callback_before_189</text>
<text text-anchor="start" x="9" y="-596.707" font-family="Times Roman,serif" font-size="14.00">_one_time_conditions_valid_188?</text>
<text text-anchor="start" x="9" y="-578.707" font-family="Times Roman,serif" font-size="14.00">_one_time_conditions_valid_190?</text>
<text text-anchor="start" x="9" y="-560.707" font-family="Times Roman,serif" font-size="14.00">create</text>
<text text-anchor="start" x="9" y="-542.707" font-family="Times Roman,serif" font-size="14.00">destroy</text>
<text text-anchor="start" x="9" y="-524.707" font-family="Times Roman,serif" font-size="14.00">edit</text>
<text text-anchor="start" x="9" y="-506.707" font-family="Times Roman,serif" font-size="14.00">get_city</text>
<text text-anchor="start" x="9" y="-488.707" font-family="Times Roman,serif" font-size="14.00">index</text>
<text text-anchor="start" x="9" y="-470.707" font-family="Times Roman,serif" font-size="14.00">new</text>
<text text-anchor="start" x="9" y="-452.707" font-family="Times Roman,serif" font-size="14.00">show</text>
<text text-anchor="start" x="9" y="-434.707" font-family="Times Roman,serif" font-size="14.00">update</text>
<polyline fill="none" stroke="black" points="1,-425.307 248,-425.307 "/>
<polyline fill="none" stroke="black" points="1,-401.307 248,-401.307 "/>
<text text-anchor="start" x="9" y="-384.707" font-family="Times Roman,serif" font-size="14.00">_layout</text>
</g>
<!-- ProjectsController -->
<g id="node4" class="node"><title>ProjectsController</title>
<polyline fill="none" stroke="black" points="635.586,-577.659 858.586,-577.659 "/>
<path fill="none" stroke="black" d="M858.586,-577.659C864.586,-577.659 870.586,-583.659 870.586,-589.659"/>
<polyline fill="none" stroke="black" points="870.586,-589.659 870.586,-811.659 "/>
<path fill="none" stroke="black" d="M870.586,-811.659C870.586,-817.659 864.586,-823.659 858.586,-823.659"/>
<polyline fill="none" stroke="black" points="858.586,-823.659 635.586,-823.659 "/>
<path fill="none" stroke="black" d="M635.586,-823.659C629.586,-823.659 623.586,-817.659 623.586,-811.659"/>
<polyline fill="none" stroke="black" points="623.586,-811.659 623.586,-589.659 "/>
<path fill="none" stroke="black" d="M623.586,-589.659C623.586,-583.659 629.586,-577.659 635.586,-577.659"/>
<text text-anchor="middle" x="747.086" y="-807.059" font-family="Times Roman,serif" font-size="14.00">ProjectsController</text>
<polyline fill="none" stroke="black" points="623.586,-797.659 870.586,-797.659 "/>
<text text-anchor="start" x="631.586" y="-781.059" font-family="Times Roman,serif" font-size="14.00">_callback_before_269</text>
<text text-anchor="start" x="631.586" y="-763.059" font-family="Times Roman,serif" font-size="14.00">_one_time_conditions_valid_270?</text>
<text text-anchor="start" x="631.586" y="-745.059" font-family="Times Roman,serif" font-size="14.00">create</text>
<text text-anchor="start" x="631.586" y="-727.059" font-family="Times Roman,serif" font-size="14.00">destroy</text>
<text text-anchor="start" x="631.586" y="-709.059" font-family="Times Roman,serif" font-size="14.00">edit</text>
<text text-anchor="start" x="631.586" y="-691.059" font-family="Times Roman,serif" font-size="14.00">index</text>
<text text-anchor="start" x="631.586" y="-673.059" font-family="Times Roman,serif" font-size="14.00">new</text>
<text text-anchor="start" x="631.586" y="-655.059" font-family="Times Roman,serif" font-size="14.00">show</text>
<text text-anchor="start" x="631.586" y="-637.059" font-family="Times Roman,serif" font-size="14.00">update</text>
<polyline fill="none" stroke="black" points="623.586,-627.659 870.586,-627.659 "/>
<polyline fill="none" stroke="black" points="623.586,-603.659 870.586,-603.659 "/>
<text text-anchor="start" x="631.586" y="-587.059" font-family="Times Roman,serif" font-size="14.00">_layout</text>
</g>
<!-- BlueprintsController -->
<g id="node5" class="node"><title>BlueprintsController</title>
<polyline fill="none" stroke="black" points="455.393,-1.5 678.393,-1.5 "/>
<path fill="none" stroke="black" d="M678.393,-1.5C684.393,-1.5 690.393,-7.5 690.393,-13.5"/>
<polyline fill="none" stroke="black" points="690.393,-13.5 690.393,-271.5 "/>
<path fill="none" stroke="black" d="M690.393,-271.5C690.393,-277.5 684.393,-283.5 678.393,-283.5"/>
<polyline fill="none" stroke="black" points="678.393,-283.5 455.393,-283.5 "/>
<path fill="none" stroke="black" d="M455.393,-283.5C449.393,-283.5 443.393,-277.5 443.393,-271.5"/>
<polyline fill="none" stroke="black" points="443.393,-271.5 443.393,-13.5 "/>
<path fill="none" stroke="black" d="M443.393,-13.5C443.393,-7.5 449.393,-1.5 455.393,-1.5"/>
<text text-anchor="middle" x="566.893" y="-266.9" font-family="Times Roman,serif" font-size="14.00">BlueprintsController</text>
<polyline fill="none" stroke="black" points="443.393,-257.5 690.393,-257.5 "/>
<text text-anchor="start" x="451.393" y="-240.9" font-family="Times Roman,serif" font-size="14.00">_callback_before_381</text>
<text text-anchor="start" x="451.393" y="-222.9" font-family="Times Roman,serif" font-size="14.00">_one_time_conditions_valid_380?</text>
<text text-anchor="start" x="451.393" y="-204.9" font-family="Times Roman,serif" font-size="14.00">_one_time_conditions_valid_382?</text>
<text text-anchor="start" x="451.393" y="-186.9" font-family="Times Roman,serif" font-size="14.00">create</text>
<text text-anchor="start" x="451.393" y="-168.9" font-family="Times Roman,serif" font-size="14.00">destroy</text>
<text text-anchor="start" x="451.393" y="-150.9" font-family="Times Roman,serif" font-size="14.00">edit</text>
<text text-anchor="start" x="451.393" y="-132.9" font-family="Times Roman,serif" font-size="14.00">get_project</text>
<text text-anchor="start" x="451.393" y="-114.9" font-family="Times Roman,serif" font-size="14.00">index</text>
<text text-anchor="start" x="451.393" y="-96.9" font-family="Times Roman,serif" font-size="14.00">new</text>
<text text-anchor="start" x="451.393" y="-78.9" font-family="Times Roman,serif" font-size="14.00">show</text>
<text text-anchor="start" x="451.393" y="-60.9" font-family="Times Roman,serif" font-size="14.00">update</text>
<polyline fill="none" stroke="black" points="443.393,-51.5 690.393,-51.5 "/>
<polyline fill="none" stroke="black" points="443.393,-27.5 690.393,-27.5 "/>
<text text-anchor="start" x="451.393" y="-10.9" font-family="Times Roman,serif" font-size="14.00">_layout</text>
</g>
<!-- ContentController -->
<g id="node6" class="node"><title>ContentController</title>
<polyline fill="none" stroke="black" points="58.0344,-1158.21 281.034,-1158.21 "/>
<path fill="none" stroke="black" d="M281.034,-1158.21C287.034,-1158.21 293.034,-1164.21 293.034,-1170.21"/>
<polyline fill="none" stroke="black" points="293.034,-1170.21 293.034,-1302.21 "/>
<path fill="none" stroke="black" d="M293.034,-1302.21C293.034,-1308.21 287.034,-1314.21 281.034,-1314.21"/>
<polyline fill="none" stroke="black" points="281.034,-1314.21 58.0344,-1314.21 "/>
<path fill="none" stroke="black" d="M58.0344,-1314.21C52.0344,-1314.21 46.0344,-1308.21 46.0344,-1302.21"/>
<polyline fill="none" stroke="black" points="46.0344,-1302.21 46.0344,-1170.21 "/>
<path fill="none" stroke="black" d="M46.0344,-1170.21C46.0344,-1164.21 52.0344,-1158.21 58.0344,-1158.21"/>
<text text-anchor="middle" x="169.534" y="-1297.61" font-family="Times Roman,serif" font-size="14.00">ContentController</text>
<polyline fill="none" stroke="black" points="46.0344,-1288.21 293.034,-1288.21 "/>
<text text-anchor="start" x="54.0344" y="-1271.61" font-family="Times Roman,serif" font-size="14.00">_one_time_conditions_valid_384?</text>
<text text-anchor="start" x="54.0344" y="-1253.61" font-family="Times Roman,serif" font-size="14.00">gold</text>
<text text-anchor="start" x="54.0344" y="-1235.61" font-family="Times Roman,serif" font-size="14.00">platinum</text>
<text text-anchor="start" x="54.0344" y="-1217.61" font-family="Times Roman,serif" font-size="14.00">silver</text>
<polyline fill="none" stroke="black" points="46.0344,-1208.21 293.034,-1208.21 "/>
<polyline fill="none" stroke="black" points="46.0344,-1184.21 293.034,-1184.21 "/>
<text text-anchor="start" x="54.0344" y="-1167.61" font-family="Times Roman,serif" font-size="14.00">_layout</text>
</g>
<!-- GroupsController -->
<g id="node7" class="node"><title>GroupsController</title>
<polyline fill="none" stroke="black" points="658.561,-874.186 881.561,-874.186 "/>
<path fill="none" stroke="black" d="M881.561,-874.186C887.561,-874.186 893.561,-880.186 893.561,-886.186"/>
<polyline fill="none" stroke="black" points="893.561,-886.186 893.561,-1108.19 "/>
<path fill="none" stroke="black" d="M893.561,-1108.19C893.561,-1114.19 887.561,-1120.19 881.561,-1120.19"/>
<polyline fill="none" stroke="black" points="881.561,-1120.19 658.561,-1120.19 "/>
<path fill="none" stroke="black" d="M658.561,-1120.19C652.561,-1120.19 646.561,-1114.19 646.561,-1108.19"/>
<polyline fill="none" stroke="black" points="646.561,-1108.19 646.561,-886.186 "/>
<path fill="none" stroke="black" d="M646.561,-886.186C646.561,-880.186 652.561,-874.186 658.561,-874.186"/>
<text text-anchor="middle" x="770.061" y="-1103.59" font-family="Times Roman,serif" font-size="14.00">GroupsController</text>
<polyline fill="none" stroke="black" points="646.561,-1094.19 893.561,-1094.19 "/>
<text text-anchor="start" x="654.561" y="-1077.59" font-family="Times Roman,serif" font-size="14.00">_callback_before_409</text>
<text text-anchor="start" x="654.561" y="-1059.59" font-family="Times Roman,serif" font-size="14.00">_one_time_conditions_valid_410?</text>
<text text-anchor="start" x="654.561" y="-1041.59" font-family="Times Roman,serif" font-size="14.00">create</text>
<text text-anchor="start" x="654.561" y="-1023.59" font-family="Times Roman,serif" font-size="14.00">destroy</text>
<text text-anchor="start" x="654.561" y="-1005.59" font-family="Times Roman,serif" font-size="14.00">edit</text>
<text text-anchor="start" x="654.561" y="-987.586" font-family="Times Roman,serif" font-size="14.00">index</text>
<text text-anchor="start" x="654.561" y="-969.586" font-family="Times Roman,serif" font-size="14.00">new</text>
<text text-anchor="start" x="654.561" y="-951.586" font-family="Times Roman,serif" font-size="14.00">show</text>
<text text-anchor="start" x="654.561" y="-933.586" font-family="Times Roman,serif" font-size="14.00">update</text>
<polyline fill="none" stroke="black" points="646.561,-924.186 893.561,-924.186 "/>
<polyline fill="none" stroke="black" points="646.561,-900.186 893.561,-900.186 "/>
<text text-anchor="start" x="654.561" y="-883.586" font-family="Times Roman,serif" font-size="14.00">_layout</text>
</g>
<!-- SealsController -->
<g id="node8" class="node"><title>SealsController</title>
<polyline fill="none" stroke="black" points="343.533,-771.069 566.533,-771.069 "/>
<path fill="none" stroke="black" d="M566.533,-771.069C572.533,-771.069 578.533,-777.069 578.533,-783.069"/>
<polyline fill="none" stroke="black" points="578.533,-783.069 578.533,-1041.07 "/>
<path fill="none" stroke="black" d="M578.533,-1041.07C578.533,-1047.07 572.533,-1053.07 566.533,-1053.07"/>
<polyline fill="none" stroke="black" points="566.533,-1053.07 343.533,-1053.07 "/>
<path fill="none" stroke="black" d="M343.533,-1053.07C337.533,-1053.07 331.533,-1047.07 331.533,-1041.07"/>
<polyline fill="none" stroke="black" points="331.533,-1041.07 331.533,-783.069 "/>
<path fill="none" stroke="black" d="M331.533,-783.069C331.533,-777.069 337.533,-771.069 343.533,-771.069"/>
<text text-anchor="middle" x="455.033" y="-1036.47" font-family="Times Roman,serif" font-size="14.00">SealsController</text>
<polyline fill="none" stroke="black" points="331.533,-1027.07 578.533,-1027.07 "/>
<text text-anchor="start" x="339.533" y="-1010.47" font-family="Times Roman,serif" font-size="14.00">_callback_before_417</text>
<text text-anchor="start" x="339.533" y="-992.469" font-family="Times Roman,serif" font-size="14.00">_one_time_conditions_valid_416?</text>
<text text-anchor="start" x="339.533" y="-974.469" font-family="Times Roman,serif" font-size="14.00">_one_time_conditions_valid_418?</text>
<text text-anchor="start" x="339.533" y="-956.469" font-family="Times Roman,serif" font-size="14.00">create</text>
<text text-anchor="start" x="339.533" y="-938.469" font-family="Times Roman,serif" font-size="14.00">destroy</text>
<text text-anchor="start" x="339.533" y="-920.469" font-family="Times Roman,serif" font-size="14.00">edit</text>
<text text-anchor="start" x="339.533" y="-902.469" font-family="Times Roman,serif" font-size="14.00">get_city</text>
<text text-anchor="start" x="339.533" y="-884.469" font-family="Times Roman,serif" font-size="14.00">index</text>
<text text-anchor="start" x="339.533" y="-866.469" font-family="Times Roman,serif" font-size="14.00">new</text>
<text text-anchor="start" x="339.533" y="-848.469" font-family="Times Roman,serif" font-size="14.00">show</text>
<text text-anchor="start" x="339.533" y="-830.469" font-family="Times Roman,serif" font-size="14.00">update</text>
<polyline fill="none" stroke="black" points="331.533,-821.069 578.533,-821.069 "/>
<polyline fill="none" stroke="black" points="331.533,-797.069 578.533,-797.069 "/>
<text text-anchor="start" x="339.533" y="-780.469" font-family="Times Roman,serif" font-size="14.00">_layout</text>
</g>
<!-- ApplicationController -->
<g id="node9" class="node"><title>ApplicationController</title>
<polyline fill="none" stroke="black" points="335.808,-485.206 558.808,-485.206 "/>
<path fill="none" stroke="black" d="M558.808,-485.206C564.808,-485.206 570.808,-491.206 570.808,-497.206"/>
<polyline fill="none" stroke="black" points="570.808,-497.206 570.808,-593.206 "/>
<path fill="none" stroke="black" d="M570.808,-593.206C570.808,-599.206 564.808,-605.206 558.808,-605.206"/>
<polyline fill="none" stroke="black" points="558.808,-605.206 335.808,-605.206 "/>
<path fill="none" stroke="black" d="M335.808,-605.206C329.808,-605.206 323.808,-599.206 323.808,-593.206"/>
<polyline fill="none" stroke="black" points="323.808,-593.206 323.808,-497.206 "/>
<path fill="none" stroke="black" d="M323.808,-497.206C323.808,-491.206 329.808,-485.206 335.808,-485.206"/>
<text text-anchor="middle" x="447.308" y="-588.606" font-family="Times Roman,serif" font-size="14.00">ApplicationController</text>
<polyline fill="none" stroke="black" points="323.808,-579.206 570.808,-579.206 "/>
<text text-anchor="start" x="331.808" y="-562.606" font-family="Times Roman,serif" font-size="14.00">_one_time_conditions_valid_172?</text>
<text text-anchor="start" x="331.808" y="-544.606" font-family="Times Roman,serif" font-size="14.00">after_sign_in_path_for</text>
<polyline fill="none" stroke="black" points="323.808,-535.206 570.808,-535.206 "/>
<polyline fill="none" stroke="black" points="323.808,-511.206 570.808,-511.206 "/>
<text text-anchor="start" x="331.808" y="-494.606" font-family="Times Roman,serif" font-size="14.00">_layout</text>
</g>
<!-- ApplicationController&#45;&gt;ReviewersController -->
<g id="edge2" class="edge"><title>ApplicationController&#45;&gt;ReviewersController</title>
<path fill="none" stroke="black" d="M323.425,-534.116C298.711,-531.903 272.754,-529.579 248.051,-527.368"/>
</g>
<!-- ApplicationController&#45;&gt;ProjectsController -->
<g id="edge4" class="edge"><title>ApplicationController&#45;&gt;ProjectsController</title>
<path fill="none" stroke="black" d="M563.21,-605.308C582.981,-615.561 603.585,-626.245 623.546,-636.596"/>
</g>
<!-- ApplicationController&#45;&gt;BlueprintsController -->
<g id="edge6" class="edge"><title>ApplicationController&#45;&gt;BlueprintsController</title>
<path fill="none" stroke="black" d="M465.211,-484.917C480.946,-431.928 504.46,-352.745 524.913,-283.868"/>
</g>
<!-- ApplicationController&#45;&gt;ContentController -->
<g id="edge8" class="edge"><title>ApplicationController&#45;&gt;ContentController</title>
<path fill="none" stroke="black" d="M410.86,-605.523C385.378,-649.441 351.837,-710.951 328.333,-767.869 285.636,-871.268 291.745,-902.96 255.759,-1008.88 238.752,-1058.94 217.747,-1114.43 200.727,-1158.06"/>
</g>
<!-- ApplicationController&#45;&gt;GroupsController -->
<g id="edge10" class="edge"><title>ApplicationController&#45;&gt;GroupsController</title>
<path fill="none" stroke="black" d="M483.45,-605.232C529.637,-681.749 605.429,-806.601 620.386,-826.859 631.96,-842.535 644.654,-858.517 657.603,-874.101"/>
</g>
<!-- ApplicationController&#45;&gt;SealsController -->
<g id="edge12" class="edge"><title>ApplicationController&#45;&gt;SealsController</title>
<path fill="none" stroke="black" d="M448.575,-605.376C449.521,-650.3 450.854,-713.583 452.063,-771.006"/>
</g>
<!-- TasksController -->
<g id="node10" class="node"><title>TasksController</title>
<polyline fill="none" stroke="black" points="1033.85,-411.484 1131.85,-411.484 "/>
<path fill="none" stroke="black" d="M1131.85,-411.484C1137.85,-411.484 1143.85,-417.484 1143.85,-423.484"/>
<polyline fill="none" stroke="black" points="1143.85,-423.484 1143.85,-609.484 "/>
<path fill="none" stroke="black" d="M1143.85,-609.484C1143.85,-615.484 1137.85,-621.484 1131.85,-621.484"/>
<polyline fill="none" stroke="black" points="1131.85,-621.484 1033.85,-621.484 "/>
<path fill="none" stroke="black" d="M1033.85,-621.484C1027.85,-621.484 1021.85,-615.484 1021.85,-609.484"/>
<polyline fill="none" stroke="black" points="1021.85,-609.484 1021.85,-423.484 "/>
<path fill="none" stroke="black" d="M1021.85,-423.484C1021.85,-417.484 1027.85,-411.484 1033.85,-411.484"/>
<text text-anchor="middle" x="1082.85" y="-604.884" font-family="Times Roman,serif" font-size="14.00">TasksController</text>
<polyline fill="none" stroke="black" points="1021.85,-595.484 1143.85,-595.484 "/>
<text text-anchor="start" x="1029.85" y="-578.884" font-family="Times Roman,serif" font-size="14.00">create</text>
<text text-anchor="start" x="1029.85" y="-560.884" font-family="Times Roman,serif" font-size="14.00">destroy</text>
<text text-anchor="start" x="1029.85" y="-542.884" font-family="Times Roman,serif" font-size="14.00">edit</text>
<text text-anchor="start" x="1029.85" y="-524.884" font-family="Times Roman,serif" font-size="14.00">index</text>
<text text-anchor="start" x="1029.85" y="-506.884" font-family="Times Roman,serif" font-size="14.00">new</text>
<text text-anchor="start" x="1029.85" y="-488.884" font-family="Times Roman,serif" font-size="14.00">show</text>
<text text-anchor="start" x="1029.85" y="-470.884" font-family="Times Roman,serif" font-size="14.00">update</text>
<polyline fill="none" stroke="black" points="1021.85,-461.484 1143.85,-461.484 "/>
<polyline fill="none" stroke="black" points="1021.85,-437.484 1143.85,-437.484 "/>
<text text-anchor="start" x="1029.85" y="-420.884" font-family="Times Roman,serif" font-size="14.00">_layout</text>
</g>
<!-- ApplicationController&#45;&gt;TasksController -->
<g id="edge14" class="edge"><title>ApplicationController&#45;&gt;TasksController</title>
<path fill="none" stroke="black" d="M570.978,-539.617C706.394,-533.497 918.037,-523.932 1021.6,-519.252"/>
</g>
<!-- CoordinatesController -->
<g id="node11" class="node"><title>CoordinatesController</title>
<polyline fill="none" stroke="black" points="58.8348,-38.6103 281.835,-38.6103 "/>
<path fill="none" stroke="black" d="M281.835,-38.6103C287.835,-38.6103 293.835,-44.6103 293.835,-50.6103"/>
<polyline fill="none" stroke="black" points="293.835,-50.6103 293.835,-272.61 "/>
<path fill="none" stroke="black" d="M293.835,-272.61C293.835,-278.61 287.835,-284.61 281.835,-284.61"/>
<polyline fill="none" stroke="black" points="281.835,-284.61 58.8348,-284.61 "/>
<path fill="none" stroke="black" d="M58.8348,-284.61C52.8348,-284.61 46.8348,-278.61 46.8348,-272.61"/>
<polyline fill="none" stroke="black" points="46.8348,-272.61 46.8348,-50.6103 "/>
<path fill="none" stroke="black" d="M46.8348,-50.6103C46.8348,-44.6103 52.8348,-38.6103 58.8348,-38.6103"/>
<text text-anchor="middle" x="170.335" y="-268.01" font-family="Times Roman,serif" font-size="14.00">CoordinatesController</text>
<polyline fill="none" stroke="black" points="46.8348,-258.61 293.835,-258.61 "/>
<text text-anchor="start" x="54.8348" y="-242.01" font-family="Times Roman,serif" font-size="14.00">_callback_before_425</text>
<text text-anchor="start" x="54.8348" y="-224.01" font-family="Times Roman,serif" font-size="14.00">_one_time_conditions_valid_426?</text>
<text text-anchor="start" x="54.8348" y="-206.01" font-family="Times Roman,serif" font-size="14.00">create</text>
<text text-anchor="start" x="54.8348" y="-188.01" font-family="Times Roman,serif" font-size="14.00">destroy</text>
<text text-anchor="start" x="54.8348" y="-170.01" font-family="Times Roman,serif" font-size="14.00">edit</text>
<text text-anchor="start" x="54.8348" y="-152.01" font-family="Times Roman,serif" font-size="14.00">index</text>
<text text-anchor="start" x="54.8348" y="-134.01" font-family="Times Roman,serif" font-size="14.00">new</text>
<text text-anchor="start" x="54.8348" y="-116.01" font-family="Times Roman,serif" font-size="14.00">show</text>
<text text-anchor="start" x="54.8348" y="-98.0103" font-family="Times Roman,serif" font-size="14.00">update</text>
<polyline fill="none" stroke="black" points="46.8348,-88.6103 293.835,-88.6103 "/>
<polyline fill="none" stroke="black" points="46.8348,-64.6103 293.835,-64.6103 "/>
<text text-anchor="start" x="54.8348" y="-48.0103" font-family="Times Roman,serif" font-size="14.00">_layout</text>
</g>
<!-- ApplicationController&#45;&gt;CoordinatesController -->
<g id="edge16" class="edge"><title>ApplicationController&#45;&gt;CoordinatesController</title>
<path fill="none" stroke="black" d="M403.726,-484.848C365.107,-431.362 307.516,-351.601 259.207,-284.695"/>
</g>
<!-- ParticipantsController -->
<g id="node12" class="node"><title>ParticipantsController</title>
<polyline fill="none" stroke="black" points="916.865,-5.31238 1139.86,-5.31238 "/>
<path fill="none" stroke="black" d="M1139.86,-5.31238C1145.86,-5.31238 1151.86,-11.3124 1151.86,-17.3124"/>
<polyline fill="none" stroke="black" points="1151.86,-17.3124 1151.86,-275.312 "/>
<path fill="none" stroke="black" d="M1151.86,-275.312C1151.86,-281.312 1145.86,-287.312 1139.86,-287.312"/>
<polyline fill="none" stroke="black" points="1139.86,-287.312 916.865,-287.312 "/>
<path fill="none" stroke="black" d="M916.865,-287.312C910.865,-287.312 904.865,-281.312 904.865,-275.312"/>
<polyline fill="none" stroke="black" points="904.865,-275.312 904.865,-17.3124 "/>
<path fill="none" stroke="black" d="M904.865,-17.3124C904.865,-11.3124 910.865,-5.31238 916.865,-5.31238"/>
<text text-anchor="middle" x="1028.36" y="-270.712" font-family="Times Roman,serif" font-size="14.00">ParticipantsController</text>
<polyline fill="none" stroke="black" points="904.865,-261.312 1151.86,-261.312 "/>
<text text-anchor="start" x="912.865" y="-244.712" font-family="Times Roman,serif" font-size="14.00">_callback_before_433</text>
<text text-anchor="start" x="912.865" y="-226.712" font-family="Times Roman,serif" font-size="14.00">_one_time_conditions_valid_432?</text>
<text text-anchor="start" x="912.865" y="-208.712" font-family="Times Roman,serif" font-size="14.00">_one_time_conditions_valid_434?</text>
<text text-anchor="start" x="912.865" y="-190.712" font-family="Times Roman,serif" font-size="14.00">create</text>
<text text-anchor="start" x="912.865" y="-172.712" font-family="Times Roman,serif" font-size="14.00">destroy</text>
<text text-anchor="start" x="912.865" y="-154.712" font-family="Times Roman,serif" font-size="14.00">edit</text>
<text text-anchor="start" x="912.865" y="-136.712" font-family="Times Roman,serif" font-size="14.00">get_project</text>
<text text-anchor="start" x="912.865" y="-118.712" font-family="Times Roman,serif" font-size="14.00">index</text>
<text text-anchor="start" x="912.865" y="-100.712" font-family="Times Roman,serif" font-size="14.00">new</text>
<text text-anchor="start" x="912.865" y="-82.7124" font-family="Times Roman,serif" font-size="14.00">show</text>
<text text-anchor="start" x="912.865" y="-64.7124" font-family="Times Roman,serif" font-size="14.00">update</text>
<polyline fill="none" stroke="black" points="904.865,-55.3124 1151.86,-55.3124 "/>
<polyline fill="none" stroke="black" points="904.865,-31.3124 1151.86,-31.3124 "/>
<text text-anchor="start" x="912.865" y="-14.7124" font-family="Times Roman,serif" font-size="14.00">_layout</text>
</g>
<!-- ApplicationController&#45;&gt;ParticipantsController -->
<g id="edge18" class="edge"><title>ApplicationController&#45;&gt;ParticipantsController</title>
<path fill="none" stroke="black" d="M470.682,-485.052C497.686,-424.588 548.345,-334.382 623.99,-291.503 637.478,-283.858 678.507,-290.28 693.593,-286.7 765.951,-269.529 842.731,-238.361 904.483,-209.747"/>
</g>
<!-- UsersController -->
<g id="node13" class="node"><title>UsersController</title>
<polyline fill="none" stroke="black" points="639.19,-294.703 862.19,-294.703 "/>
<path fill="none" stroke="black" d="M862.19,-294.703C868.19,-294.703 874.19,-300.703 874.19,-306.703"/>
<polyline fill="none" stroke="black" points="874.19,-306.703 874.19,-492.703 "/>
<path fill="none" stroke="black" d="M874.19,-492.703C874.19,-498.703 868.19,-504.703 862.19,-504.703"/>
<polyline fill="none" stroke="black" points="862.19,-504.703 639.19,-504.703 "/>
<path fill="none" stroke="black" d="M639.19,-504.703C633.19,-504.703 627.19,-498.703 627.19,-492.703"/>
<polyline fill="none" stroke="black" points="627.19,-492.703 627.19,-306.703 "/>
<path fill="none" stroke="black" d="M627.19,-306.703C627.19,-300.703 633.19,-294.703 639.19,-294.703"/>
<text text-anchor="middle" x="750.69" y="-488.103" font-family="Times Roman,serif" font-size="14.00">UsersController</text>
<polyline fill="none" stroke="black" points="627.19,-478.703 874.19,-478.703 "/>
<text text-anchor="start" x="635.19" y="-462.103" font-family="Times Roman,serif" font-size="14.00">_callback_before_437</text>
<text text-anchor="start" x="635.19" y="-444.103" font-family="Times Roman,serif" font-size="14.00">_one_time_conditions_valid_436?</text>
<text text-anchor="start" x="635.19" y="-426.103" font-family="Times Roman,serif" font-size="14.00">_one_time_conditions_valid_438?</text>
<text text-anchor="start" x="635.19" y="-408.103" font-family="Times Roman,serif" font-size="14.00">destroy</text>
<text text-anchor="start" x="635.19" y="-390.103" font-family="Times Roman,serif" font-size="14.00">index</text>
<text text-anchor="start" x="635.19" y="-372.103" font-family="Times Roman,serif" font-size="14.00">show</text>
<text text-anchor="start" x="635.19" y="-354.103" font-family="Times Roman,serif" font-size="14.00">update</text>
<polyline fill="none" stroke="black" points="627.19,-344.703 874.19,-344.703 "/>
<polyline fill="none" stroke="black" points="627.19,-320.703 874.19,-320.703 "/>
<text text-anchor="start" x="635.19" y="-304.103" font-family="Times Roman,serif" font-size="14.00">_layout</text>
</g>
<!-- ApplicationController&#45;&gt;UsersController -->
<g id="edge20" class="edge"><title>ApplicationController&#45;&gt;UsersController</title>
<path fill="none" stroke="black" d="M571.142,-485.815C589.493,-477.014 608.407,-467.943 626.759,-459.141"/>
</g>
<!-- NotesController -->
<g id="node14" class="node"><title>NotesController</title>
<polyline fill="none" stroke="black" points="17.559,-705.681 240.559,-705.681 "/>
<path fill="none" stroke="black" d="M240.559,-705.681C246.559,-705.681 252.559,-711.681 252.559,-717.681"/>
<polyline fill="none" stroke="black" points="252.559,-717.681 252.559,-993.681 "/>
<path fill="none" stroke="black" d="M252.559,-993.681C252.559,-999.681 246.559,-1005.68 240.559,-1005.68"/>
<polyline fill="none" stroke="black" points="240.559,-1005.68 17.559,-1005.68 "/>
<path fill="none" stroke="black" d="M17.559,-1005.68C11.559,-1005.68 5.55902,-999.681 5.55902,-993.681"/>
<polyline fill="none" stroke="black" points="5.55902,-993.681 5.55902,-717.681 "/>
<path fill="none" stroke="black" d="M5.55902,-717.681C5.55902,-711.681 11.559,-705.681 17.559,-705.681"/>
<text text-anchor="middle" x="129.059" y="-989.081" font-family="Times Roman,serif" font-size="14.00">NotesController</text>
<polyline fill="none" stroke="black" points="5.55902,-979.681 252.559,-979.681 "/>
<text text-anchor="start" x="13.559" y="-963.081" font-family="Times Roman,serif" font-size="14.00">_callback_before_517</text>
<text text-anchor="start" x="13.559" y="-945.081" font-family="Times Roman,serif" font-size="14.00">_one_time_conditions_valid_516?</text>
<text text-anchor="start" x="13.559" y="-927.081" font-family="Times Roman,serif" font-size="14.00">_one_time_conditions_valid_518?</text>
<text text-anchor="start" x="13.559" y="-909.081" font-family="Times Roman,serif" font-size="14.00">create</text>
<text text-anchor="start" x="13.559" y="-891.081" font-family="Times Roman,serif" font-size="14.00">destroy</text>
<text text-anchor="start" x="13.559" y="-873.081" font-family="Times Roman,serif" font-size="14.00">edit</text>
<text text-anchor="start" x="13.559" y="-855.081" font-family="Times Roman,serif" font-size="14.00">get_project</text>
<text text-anchor="start" x="13.559" y="-837.081" font-family="Times Roman,serif" font-size="14.00">index</text>
<text text-anchor="start" x="13.559" y="-819.081" font-family="Times Roman,serif" font-size="14.00">new</text>
<text text-anchor="start" x="13.559" y="-801.081" font-family="Times Roman,serif" font-size="14.00">show</text>
<text text-anchor="start" x="13.559" y="-783.081" font-family="Times Roman,serif" font-size="14.00">sort</text>
<text text-anchor="start" x="13.559" y="-765.081" font-family="Times Roman,serif" font-size="14.00">update</text>
<polyline fill="none" stroke="black" points="5.55902,-755.681 252.559,-755.681 "/>
<polyline fill="none" stroke="black" points="5.55902,-731.681 252.559,-731.681 "/>
<text text-anchor="start" x="13.559" y="-715.081" font-family="Times Roman,serif" font-size="14.00">_layout</text>
</g>
<!-- ApplicationController&#45;&gt;NotesController -->
<g id="edge22" class="edge"><title>ApplicationController&#45;&gt;NotesController</title>
<path fill="none" stroke="black" d="M385.569,-605.437C347.881,-642.205 298.35,-690.526 252.872,-734.893"/>
</g>
<!-- HomeController -->
<g id="node15" class="node"><title>HomeController</title>
<polyline fill="none" stroke="black" points="1036.57,-815.93 1137.57,-815.93 "/>
<path fill="none" stroke="black" d="M1137.57,-815.93C1143.57,-815.93 1149.57,-821.93 1149.57,-827.93"/>
<polyline fill="none" stroke="black" points="1149.57,-827.93 1149.57,-903.93 "/>
<path fill="none" stroke="black" d="M1149.57,-903.93C1149.57,-909.93 1143.57,-915.93 1137.57,-915.93"/>
<polyline fill="none" stroke="black" points="1137.57,-915.93 1036.57,-915.93 "/>
<path fill="none" stroke="black" d="M1036.57,-915.93C1030.57,-915.93 1024.57,-909.93 1024.57,-903.93"/>
<polyline fill="none" stroke="black" points="1024.57,-903.93 1024.57,-827.93 "/>
<path fill="none" stroke="black" d="M1024.57,-827.93C1024.57,-821.93 1030.57,-815.93 1036.57,-815.93"/>
<text text-anchor="middle" x="1087.07" y="-899.33" font-family="Times Roman,serif" font-size="14.00">HomeController</text>
<polyline fill="none" stroke="black" points="1024.57,-889.93 1149.57,-889.93 "/>
<polyline fill="none" stroke="black" points="1024.57,-865.93 1149.57,-865.93 "/>
<polyline fill="none" stroke="black" points="1024.57,-841.93 1149.57,-841.93 "/>
<text text-anchor="start" x="1032.57" y="-825.33" font-family="Times Roman,serif" font-size="14.00">_layout</text>
</g>
<!-- ApplicationController&#45;&gt;HomeController -->
<g id="edge24" class="edge"><title>ApplicationController&#45;&gt;HomeController</title>
<path fill="none" stroke="black" d="M571.269,-527.14C660.796,-520.162 781.655,-523.675 873.786,-574.459 971.258,-628.187 1036.1,-747.533 1066.7,-815.674"/>
</g>
<!-- CitiesController -->
<g id="node16" class="node"><title>CitiesController</title>
<polyline fill="none" stroke="black" points="927.486,-1126.4 1150.49,-1126.4 "/>
<path fill="none" stroke="black" d="M1150.49,-1126.4C1156.49,-1126.4 1162.49,-1132.4 1162.49,-1138.4"/>
<polyline fill="none" stroke="black" points="1162.49,-1138.4 1162.49,-1360.4 "/>
<path fill="none" stroke="black" d="M1162.49,-1360.4C1162.49,-1366.4 1156.49,-1372.4 1150.49,-1372.4"/>
<polyline fill="none" stroke="black" points="1150.49,-1372.4 927.486,-1372.4 "/>
<path fill="none" stroke="black" d="M927.486,-1372.4C921.486,-1372.4 915.486,-1366.4 915.486,-1360.4"/>
<polyline fill="none" stroke="black" points="915.486,-1360.4 915.486,-1138.4 "/>
<path fill="none" stroke="black" d="M915.486,-1138.4C915.486,-1132.4 921.486,-1126.4 927.486,-1126.4"/>
<text text-anchor="middle" x="1038.99" y="-1355.8" font-family="Times Roman,serif" font-size="14.00">CitiesController</text>
<polyline fill="none" stroke="black" points="915.486,-1346.4 1162.49,-1346.4 "/>
<text text-anchor="start" x="923.486" y="-1329.8" font-family="Times Roman,serif" font-size="14.00">_callback_before_567</text>
<text text-anchor="start" x="923.486" y="-1311.8" font-family="Times Roman,serif" font-size="14.00">_one_time_conditions_valid_568?</text>
<text text-anchor="start" x="923.486" y="-1293.8" font-family="Times Roman,serif" font-size="14.00">create</text>
<text text-anchor="start" x="923.486" y="-1275.8" font-family="Times Roman,serif" font-size="14.00">destroy</text>
<text text-anchor="start" x="923.486" y="-1257.8" font-family="Times Roman,serif" font-size="14.00">edit</text>
<text text-anchor="start" x="923.486" y="-1239.8" font-family="Times Roman,serif" font-size="14.00">index</text>
<text text-anchor="start" x="923.486" y="-1221.8" font-family="Times Roman,serif" font-size="14.00">new</text>
<text text-anchor="start" x="923.486" y="-1203.8" font-family="Times Roman,serif" font-size="14.00">show</text>
<text text-anchor="start" x="923.486" y="-1185.8" font-family="Times Roman,serif" font-size="14.00">update</text>
<polyline fill="none" stroke="black" points="915.486,-1176.4 1162.49,-1176.4 "/>
<polyline fill="none" stroke="black" points="915.486,-1152.4 1162.49,-1152.4 "/>
<text text-anchor="start" x="923.486" y="-1135.8" font-family="Times Roman,serif" font-size="14.00">_layout</text>
</g>
<!-- ApplicationController&#45;&gt;CitiesController -->
<g id="edge26" class="edge"><title>ApplicationController&#45;&gt;CitiesController</title>
<path fill="none" stroke="black" d="M483.414,-605.353C532.555,-687.011 615.047,-823.292 620.386,-826.859 723.812,-895.966 800.417,-792.307 896.761,-870.986 973.273,-933.468 1008.64,-1041.63 1024.99,-1126.36"/>
</g>
<!-- MembersController -->
<g id="node17" class="node"><title>MembersController</title>
<polyline fill="none" stroke="black" points="475.773,-1129.35 698.773,-1129.35 "/>
<path fill="none" stroke="black" d="M698.773,-1129.35C704.773,-1129.35 710.773,-1135.35 710.773,-1141.35"/>
<polyline fill="none" stroke="black" points="710.773,-1141.35 710.773,-1399.35 "/>
<path fill="none" stroke="black" d="M710.773,-1399.35C710.773,-1405.35 704.773,-1411.35 698.773,-1411.35"/>
<polyline fill="none" stroke="black" points="698.773,-1411.35 475.773,-1411.35 "/>
<path fill="none" stroke="black" d="M475.773,-1411.35C469.773,-1411.35 463.773,-1405.35 463.773,-1399.35"/>
<polyline fill="none" stroke="black" points="463.773,-1399.35 463.773,-1141.35 "/>
<path fill="none" stroke="black" d="M463.773,-1141.35C463.773,-1135.35 469.773,-1129.35 475.773,-1129.35"/>
<text text-anchor="middle" x="587.273" y="-1394.75" font-family="Times Roman,serif" font-size="14.00">MembersController</text>
<polyline fill="none" stroke="black" points="463.773,-1385.35 710.773,-1385.35 "/>
<text text-anchor="start" x="471.773" y="-1368.75" font-family="Times Roman,serif" font-size="14.00">_callback_before_575</text>
<text text-anchor="start" x="471.773" y="-1350.75" font-family="Times Roman,serif" font-size="14.00">_one_time_conditions_valid_574?</text>
<text text-anchor="start" x="471.773" y="-1332.75" font-family="Times Roman,serif" font-size="14.00">_one_time_conditions_valid_576?</text>
<text text-anchor="start" x="471.773" y="-1314.75" font-family="Times Roman,serif" font-size="14.00">create</text>
<text text-anchor="start" x="471.773" y="-1296.75" font-family="Times Roman,serif" font-size="14.00">destroy</text>
<text text-anchor="start" x="471.773" y="-1278.75" font-family="Times Roman,serif" font-size="14.00">edit</text>
<text text-anchor="start" x="471.773" y="-1260.75" font-family="Times Roman,serif" font-size="14.00">get_group</text>
<text text-anchor="start" x="471.773" y="-1242.75" font-family="Times Roman,serif" font-size="14.00">index</text>
<text text-anchor="start" x="471.773" y="-1224.75" font-family="Times Roman,serif" font-size="14.00">new</text>
<text text-anchor="start" x="471.773" y="-1206.75" font-family="Times Roman,serif" font-size="14.00">show</text>
<text text-anchor="start" x="471.773" y="-1188.75" font-family="Times Roman,serif" font-size="14.00">update</text>
<polyline fill="none" stroke="black" points="463.773,-1179.35 710.773,-1179.35 "/>
<polyline fill="none" stroke="black" points="463.773,-1155.35 710.773,-1155.35 "/>
<text text-anchor="start" x="471.773" y="-1138.75" font-family="Times Roman,serif" font-size="14.00">_layout</text>
</g>
<!-- ApplicationController&#45;&gt;MembersController -->
<g id="edge28" class="edge"><title>ApplicationController&#45;&gt;MembersController</title>
<path fill="none" stroke="black" d="M495.795,-605.314C526.956,-647.911 564.687,-707.932 581.733,-767.869 615.413,-886.292 613.643,-1026.85 605.273,-1129.15"/>
</g>
</g>
</svg>
