<?xml version="1.0" encoding="UTF-8" standalone="no"?>
<!DOCTYPE svg PUBLIC "-//W3C//DTD SVG 1.1//EN"
 "http://www.w3.org/Graphics/SVG/1.1/DTD/svg11.dtd">
<!-- Generated by graphviz version 2.26.3 (20100126.1600)
 -->
<!-- Title: controllers_diagram Pages: 1 -->
<svg width="1172pt" height="1015pt"
 viewBox="0.00 0.00 1172.00 1015.00" xmlns="http://www.w3.org/2000/svg" xmlns:xlink="http://www.w3.org/1999/xlink">
<g id="graph1" class="graph" transform="scale(1 1) rotate(0) translate(4 1011)">
<title>controllers_diagram</title>
<polygon fill="white" stroke="white" points="-4,5 -4,-1011 1169,-1011 1169,5 -4,5"/>
<!-- _diagram_info -->
<g id="node1" class="node"><title>_diagram_info</title>
<text text-anchor="start" x="921" y="-990.3" font-family="Times Roman,serif" font-size="13.00">Controllers diagram</text>
<text text-anchor="start" x="921" y="-973.3" font-family="Times Roman,serif" font-size="13.00">Date: Dec 28 2012 &#45; 11:54</text>
<text text-anchor="start" x="921" y="-956.3" font-family="Times Roman,serif" font-size="13.00">Migration version: 20121228164205</text>
<text text-anchor="start" x="921" y="-939.3" font-family="Times Roman,serif" font-size="13.00">Generated by RailRoady 1.1.0</text>
<text text-anchor="start" x="921" y="-922.3" font-family="Times Roman,serif" font-size="13.00">http://railroady.prestonlee.com</text>
</g>
<!-- RegistrationsController -->
<g id="node2" class="node"><title>RegistrationsController</title>
<polyline fill="none" stroke="black" points="925,-1.5 1077,-1.5 "/>
<path fill="none" stroke="black" d="M1077,-1.5C1083,-1.5 1089,-7.5 1089,-13.5"/>
<polyline fill="none" stroke="black" points="1089,-13.5 1089,-145.5 "/>
<path fill="none" stroke="black" d="M1089,-145.5C1089,-151.5 1083,-157.5 1077,-157.5"/>
<polyline fill="none" stroke="black" points="1077,-157.5 925,-157.5 "/>
<path fill="none" stroke="black" d="M925,-157.5C919,-157.5 913,-151.5 913,-145.5"/>
<polyline fill="none" stroke="black" points="913,-145.5 913,-13.5 "/>
<path fill="none" stroke="black" d="M913,-13.5C913,-7.5 919,-1.5 925,-1.5"/>
<text text-anchor="middle" x="1001" y="-140.9" font-family="Times Roman,serif" font-size="14.00">RegistrationsController</text>
<polyline fill="none" stroke="black" points="913,-131.5 1089,-131.5 "/>
<text text-anchor="start" x="921" y="-114.9" font-family="Times Roman,serif" font-size="14.00">new</text>
<text text-anchor="start" x="921" y="-96.9" font-family="Times Roman,serif" font-size="14.00">update_card</text>
<text text-anchor="start" x="921" y="-78.9" font-family="Times Roman,serif" font-size="14.00">update_plan</text>
<polyline fill="none" stroke="black" points="913,-69.5 1089,-69.5 "/>
<polyline fill="none" stroke="black" points="913,-45.5 1089,-45.5 "/>
<text text-anchor="start" x="921" y="-28.9" font-family="Times Roman,serif" font-size="14.00">_layout</text>
<text text-anchor="start" x="921" y="-10.9" font-family="Times Roman,serif" font-size="14.00">build_resource</text>
</g>
<!-- ProjectsController -->
<g id="node3" class="node"><title>ProjectsController</title>
<polyline fill="none" stroke="black" points="45.1038,-317.247 268.104,-317.247 "/>
<path fill="none" stroke="black" d="M268.104,-317.247C274.104,-317.247 280.104,-323.247 280.104,-329.247"/>
<polyline fill="none" stroke="black" points="280.104,-329.247 280.104,-551.247 "/>
<path fill="none" stroke="black" d="M280.104,-551.247C280.104,-557.247 274.104,-563.247 268.104,-563.247"/>
<polyline fill="none" stroke="black" points="268.104,-563.247 45.1038,-563.247 "/>
<path fill="none" stroke="black" d="M45.1038,-563.247C39.1038,-563.247 33.1038,-557.247 33.1038,-551.247"/>
<polyline fill="none" stroke="black" points="33.1038,-551.247 33.1038,-329.247 "/>
<path fill="none" stroke="black" d="M33.1038,-329.247C33.1038,-323.247 39.1038,-317.247 45.1038,-317.247"/>
<text text-anchor="middle" x="156.604" y="-546.647" font-family="Times Roman,serif" font-size="14.00">ProjectsController</text>
<polyline fill="none" stroke="black" points="33.1038,-537.247 280.104,-537.247 "/>
<text text-anchor="start" x="41.1038" y="-520.647" font-family="Times Roman,serif" font-size="14.00">_callback_before_135</text>
<text text-anchor="start" x="41.1038" y="-502.647" font-family="Times Roman,serif" font-size="14.00">_one_time_conditions_valid_136?</text>
<text text-anchor="start" x="41.1038" y="-484.647" font-family="Times Roman,serif" font-size="14.00">create</text>
<text text-anchor="start" x="41.1038" y="-466.647" font-family="Times Roman,serif" font-size="14.00">destroy</text>
<text text-anchor="start" x="41.1038" y="-448.647" font-family="Times Roman,serif" font-size="14.00">edit</text>
<text text-anchor="start" x="41.1038" y="-430.647" font-family="Times Roman,serif" font-size="14.00">index</text>
<text text-anchor="start" x="41.1038" y="-412.647" font-family="Times Roman,serif" font-size="14.00">new</text>
<text text-anchor="start" x="41.1038" y="-394.647" font-family="Times Roman,serif" font-size="14.00">show</text>
<text text-anchor="start" x="41.1038" y="-376.647" font-family="Times Roman,serif" font-size="14.00">update</text>
<polyline fill="none" stroke="black" points="33.1038,-367.247 280.104,-367.247 "/>
<polyline fill="none" stroke="black" points="33.1038,-343.247 280.104,-343.247 "/>
<text text-anchor="start" x="41.1038" y="-326.647" font-family="Times Roman,serif" font-size="14.00">_layout</text>
</g>
<!-- BlueprintsController -->
<g id="node4" class="node"><title>BlueprintsController</title>
<polyline fill="none" stroke="black" points="665.455,-594.05 888.455,-594.05 "/>
<path fill="none" stroke="black" d="M888.455,-594.05C894.455,-594.05 900.455,-600.05 900.455,-606.05"/>
<polyline fill="none" stroke="black" points="900.455,-606.05 900.455,-828.05 "/>
<path fill="none" stroke="black" d="M900.455,-828.05C900.455,-834.05 894.455,-840.05 888.455,-840.05"/>
<polyline fill="none" stroke="black" points="888.455,-840.05 665.455,-840.05 "/>
<path fill="none" stroke="black" d="M665.455,-840.05C659.455,-840.05 653.455,-834.05 653.455,-828.05"/>
<polyline fill="none" stroke="black" points="653.455,-828.05 653.455,-606.05 "/>
<path fill="none" stroke="black" d="M653.455,-606.05C653.455,-600.05 659.455,-594.05 665.455,-594.05"/>
<text text-anchor="middle" x="776.955" y="-823.45" font-family="Times Roman,serif" font-size="14.00">BlueprintsController</text>
<polyline fill="none" stroke="black" points="653.455,-814.05 900.455,-814.05 "/>
<text text-anchor="start" x="661.455" y="-797.45" font-family="Times Roman,serif" font-size="14.00">_one_time_conditions_valid_186?</text>
<text text-anchor="start" x="661.455" y="-779.45" font-family="Times Roman,serif" font-size="14.00">create</text>
<text text-anchor="start" x="661.455" y="-761.45" font-family="Times Roman,serif" font-size="14.00">destroy</text>
<text text-anchor="start" x="661.455" y="-743.45" font-family="Times Roman,serif" font-size="14.00">edit</text>
<text text-anchor="start" x="661.455" y="-725.45" font-family="Times Roman,serif" font-size="14.00">get_project</text>
<text text-anchor="start" x="661.455" y="-707.45" font-family="Times Roman,serif" font-size="14.00">index</text>
<text text-anchor="start" x="661.455" y="-689.45" font-family="Times Roman,serif" font-size="14.00">new</text>
<text text-anchor="start" x="661.455" y="-671.45" font-family="Times Roman,serif" font-size="14.00">show</text>
<text text-anchor="start" x="661.455" y="-653.45" font-family="Times Roman,serif" font-size="14.00">update</text>
<polyline fill="none" stroke="black" points="653.455,-644.05 900.455,-644.05 "/>
<polyline fill="none" stroke="black" points="653.455,-620.05 900.455,-620.05 "/>
<text text-anchor="start" x="661.455" y="-603.45" font-family="Times Roman,serif" font-size="14.00">_layout</text>
</g>
<!-- ContentController -->
<g id="node5" class="node"><title>ContentController</title>
<polyline fill="none" stroke="black" points="316.524,-68.3565 539.524,-68.3565 "/>
<path fill="none" stroke="black" d="M539.524,-68.3565C545.524,-68.3565 551.524,-74.3565 551.524,-80.3565"/>
<polyline fill="none" stroke="black" points="551.524,-80.3565 551.524,-212.357 "/>
<path fill="none" stroke="black" d="M551.524,-212.357C551.524,-218.357 545.524,-224.357 539.524,-224.357"/>
<polyline fill="none" stroke="black" points="539.524,-224.357 316.524,-224.357 "/>
<path fill="none" stroke="black" d="M316.524,-224.357C310.524,-224.357 304.524,-218.357 304.524,-212.357"/>
<polyline fill="none" stroke="black" points="304.524,-212.357 304.524,-80.3565 "/>
<path fill="none" stroke="black" d="M304.524,-80.3565C304.524,-74.3565 310.524,-68.3565 316.524,-68.3565"/>
<text text-anchor="middle" x="428.024" y="-207.757" font-family="Times Roman,serif" font-size="14.00">ContentController</text>
<polyline fill="none" stroke="black" points="304.524,-198.357 551.524,-198.357 "/>
<text text-anchor="start" x="312.524" y="-181.757" font-family="Times Roman,serif" font-size="14.00">_one_time_conditions_valid_188?</text>
<text text-anchor="start" x="312.524" y="-163.757" font-family="Times Roman,serif" font-size="14.00">gold</text>
<text text-anchor="start" x="312.524" y="-145.757" font-family="Times Roman,serif" font-size="14.00">platinum</text>
<text text-anchor="start" x="312.524" y="-127.757" font-family="Times Roman,serif" font-size="14.00">silver</text>
<polyline fill="none" stroke="black" points="304.524,-118.357 551.524,-118.357 "/>
<polyline fill="none" stroke="black" points="304.524,-94.3565 551.524,-94.3565 "/>
<text text-anchor="start" x="312.524" y="-77.7565" font-family="Times Roman,serif" font-size="14.00">_layout</text>
</g>
<!-- ApplicationController -->
<g id="node6" class="node"><title>ApplicationController</title>
<polyline fill="none" stroke="black" points="383.533,-378.371 597.533,-378.371 "/>
<path fill="none" stroke="black" d="M597.533,-378.371C603.533,-378.371 609.533,-384.371 609.533,-390.371"/>
<polyline fill="none" stroke="black" points="609.533,-390.371 609.533,-486.371 "/>
<path fill="none" stroke="black" d="M609.533,-486.371C609.533,-492.371 603.533,-498.371 597.533,-498.371"/>
<polyline fill="none" stroke="black" points="597.533,-498.371 383.533,-498.371 "/>
<path fill="none" stroke="black" d="M383.533,-498.371C377.533,-498.371 371.533,-492.371 371.533,-486.371"/>
<polyline fill="none" stroke="black" points="371.533,-486.371 371.533,-390.371 "/>
<path fill="none" stroke="black" d="M371.533,-390.371C371.533,-384.371 377.533,-378.371 383.533,-378.371"/>
<text text-anchor="middle" x="490.533" y="-481.771" font-family="Times Roman,serif" font-size="14.00">ApplicationController</text>
<polyline fill="none" stroke="black" points="371.533,-472.371 609.533,-472.371 "/>
<text text-anchor="start" x="379.533" y="-455.771" font-family="Times Roman,serif" font-size="14.00">_one_time_conditions_valid_76?</text>
<text text-anchor="start" x="379.533" y="-437.771" font-family="Times Roman,serif" font-size="14.00">after_sign_in_path_for</text>
<polyline fill="none" stroke="black" points="371.533,-428.371 609.533,-428.371 "/>
<polyline fill="none" stroke="black" points="371.533,-404.371 609.533,-404.371 "/>
<text text-anchor="start" x="379.533" y="-387.771" font-family="Times Roman,serif" font-size="14.00">_layout</text>
</g>
<!-- ApplicationController&#45;&gt;ProjectsController -->
<g id="edge2" class="edge"><title>ApplicationController&#45;&gt;ProjectsController</title>
<path fill="none" stroke="black" d="M371.391,-439.041C341.797,-439.207 310.014,-439.385 280.211,-439.553"/>
</g>
<!-- ApplicationController&#45;&gt;BlueprintsController -->
<g id="edge4" class="edge"><title>ApplicationController&#45;&gt;BlueprintsController</title>
<path fill="none" stroke="black" d="M552.33,-498.497C581.931,-527.299 618.482,-562.861 653.437,-596.872"/>
</g>
<!-- ApplicationController&#45;&gt;ContentController -->
<g id="edge6" class="edge"><title>ApplicationController&#45;&gt;ContentController</title>
<path fill="none" stroke="black" d="M477.657,-378.22C468.132,-333.725 455.076,-272.731 444.745,-224.47"/>
</g>
<!-- CoordinatesController -->
<g id="node7" class="node"><title>CoordinatesController</title>
<polyline fill="none" stroke="black" points="385.174,-625.241 529.174,-625.241 "/>
<path fill="none" stroke="black" d="M529.174,-625.241C535.174,-625.241 541.174,-631.241 541.174,-637.241"/>
<polyline fill="none" stroke="black" points="541.174,-637.241 541.174,-823.241 "/>
<path fill="none" stroke="black" d="M541.174,-823.241C541.174,-829.241 535.174,-835.241 529.174,-835.241"/>
<polyline fill="none" stroke="black" points="529.174,-835.241 385.174,-835.241 "/>
<path fill="none" stroke="black" d="M385.174,-835.241C379.174,-835.241 373.174,-829.241 373.174,-823.241"/>
<polyline fill="none" stroke="black" points="373.174,-823.241 373.174,-637.241 "/>
<path fill="none" stroke="black" d="M373.174,-637.241C373.174,-631.241 379.174,-625.241 385.174,-625.241"/>
<text text-anchor="middle" x="457.174" y="-818.641" font-family="Times Roman,serif" font-size="14.00">CoordinatesController</text>
<polyline fill="none" stroke="black" points="373.174,-809.241 541.174,-809.241 "/>
<text text-anchor="start" x="381.174" y="-792.641" font-family="Times Roman,serif" font-size="14.00">create</text>
<text text-anchor="start" x="381.174" y="-774.641" font-family="Times Roman,serif" font-size="14.00">destroy</text>
<text text-anchor="start" x="381.174" y="-756.641" font-family="Times Roman,serif" font-size="14.00">edit</text>
<text text-anchor="start" x="381.174" y="-738.641" font-family="Times Roman,serif" font-size="14.00">index</text>
<text text-anchor="start" x="381.174" y="-720.641" font-family="Times Roman,serif" font-size="14.00">new</text>
<text text-anchor="start" x="381.174" y="-702.641" font-family="Times Roman,serif" font-size="14.00">show</text>
<text text-anchor="start" x="381.174" y="-684.641" font-family="Times Roman,serif" font-size="14.00">update</text>
<polyline fill="none" stroke="black" points="373.174,-675.241 541.174,-675.241 "/>
<polyline fill="none" stroke="black" points="373.174,-651.241 541.174,-651.241 "/>
<text text-anchor="start" x="381.174" y="-634.641" font-family="Times Roman,serif" font-size="14.00">_layout</text>
</g>
<!-- ApplicationController&#45;&gt;CoordinatesController -->
<g id="edge8" class="edge"><title>ApplicationController&#45;&gt;CoordinatesController</title>
<path fill="none" stroke="black" d="M483.661,-498.493C479.494,-534.955 474.059,-582.503 469.198,-625.034"/>
</g>
<!-- ParticipantsController -->
<g id="node8" class="node"><title>ParticipantsController</title>
<polyline fill="none" stroke="black" points="25.9012,-587.608 248.901,-587.608 "/>
<path fill="none" stroke="black" d="M248.901,-587.608C254.901,-587.608 260.901,-593.608 260.901,-599.608"/>
<polyline fill="none" stroke="black" points="260.901,-599.608 260.901,-857.608 "/>
<path fill="none" stroke="black" d="M260.901,-857.608C260.901,-863.608 254.901,-869.608 248.901,-869.608"/>
<polyline fill="none" stroke="black" points="248.901,-869.608 25.9012,-869.608 "/>
<path fill="none" stroke="black" d="M25.9012,-869.608C19.9012,-869.608 13.9012,-863.608 13.9012,-857.608"/>
<polyline fill="none" stroke="black" points="13.9012,-857.608 13.9012,-599.608 "/>
<path fill="none" stroke="black" d="M13.9012,-599.608C13.9012,-593.608 19.9012,-587.608 25.9012,-587.608"/>
<text text-anchor="middle" x="137.401" y="-853.008" font-family="Times Roman,serif" font-size="14.00">ParticipantsController</text>
<polyline fill="none" stroke="black" points="13.9012,-843.608 260.901,-843.608 "/>
<text text-anchor="start" x="21.9012" y="-827.008" font-family="Times Roman,serif" font-size="14.00">_callback_before_199</text>
<text text-anchor="start" x="21.9012" y="-809.008" font-family="Times Roman,serif" font-size="14.00">_one_time_conditions_valid_198?</text>
<text text-anchor="start" x="21.9012" y="-791.008" font-family="Times Roman,serif" font-size="14.00">_one_time_conditions_valid_200?</text>
<text text-anchor="start" x="21.9012" y="-773.008" font-family="Times Roman,serif" font-size="14.00">create</text>
<text text-anchor="start" x="21.9012" y="-755.008" font-family="Times Roman,serif" font-size="14.00">destroy</text>
<text text-anchor="start" x="21.9012" y="-737.008" font-family="Times Roman,serif" font-size="14.00">edit</text>
<text text-anchor="start" x="21.9012" y="-719.008" font-family="Times Roman,serif" font-size="14.00">get_project</text>
<text text-anchor="start" x="21.9012" y="-701.008" font-family="Times Roman,serif" font-size="14.00">index</text>
<text text-anchor="start" x="21.9012" y="-683.008" font-family="Times Roman,serif" font-size="14.00">new</text>
<text text-anchor="start" x="21.9012" y="-665.008" font-family="Times Roman,serif" font-size="14.00">show</text>
<text text-anchor="start" x="21.9012" y="-647.008" font-family="Times Roman,serif" font-size="14.00">update</text>
<polyline fill="none" stroke="black" points="13.9012,-637.608 260.901,-637.608 "/>
<polyline fill="none" stroke="black" points="13.9012,-613.608 260.901,-613.608 "/>
<text text-anchor="start" x="21.9012" y="-597.008" font-family="Times Roman,serif" font-size="14.00">_layout</text>
</g>
<!-- ApplicationController&#45;&gt;ParticipantsController -->
<g id="edge10" class="edge"><title>ApplicationController&#45;&gt;ParticipantsController</title>
<path fill="none" stroke="black" d="M417.364,-498.508C372.313,-535.535 313.397,-583.958 261.239,-626.826"/>
</g>
<!-- UsersController -->
<g id="node9" class="node"><title>UsersController</title>
<polyline fill="none" stroke="black" points="13,-58.5 236,-58.5 "/>
<path fill="none" stroke="black" d="M236,-58.5C242,-58.5 248,-64.5 248,-70.5"/>
<polyline fill="none" stroke="black" points="248,-70.5 248,-220.5 "/>
<path fill="none" stroke="black" d="M248,-220.5C248,-226.5 242,-232.5 236,-232.5"/>
<polyline fill="none" stroke="black" points="236,-232.5 13,-232.5 "/>
<path fill="none" stroke="black" d="M13,-232.5C7,-232.5 1,-226.5 1,-220.5"/>
<polyline fill="none" stroke="black" points="1,-220.5 1,-70.5 "/>
<path fill="none" stroke="black" d="M1,-70.5C1,-64.5 7,-58.5 13,-58.5"/>
<text text-anchor="middle" x="124.5" y="-215.9" font-family="Times Roman,serif" font-size="14.00">UsersController</text>
<polyline fill="none" stroke="black" points="1,-206.5 248,-206.5 "/>
<text text-anchor="start" x="9" y="-189.9" font-family="Times Roman,serif" font-size="14.00">_one_time_conditions_valid_202?</text>
<text text-anchor="start" x="9" y="-171.9" font-family="Times Roman,serif" font-size="14.00">destroy</text>
<text text-anchor="start" x="9" y="-153.9" font-family="Times Roman,serif" font-size="14.00">index</text>
<text text-anchor="start" x="9" y="-135.9" font-family="Times Roman,serif" font-size="14.00">show</text>
<text text-anchor="start" x="9" y="-117.9" font-family="Times Roman,serif" font-size="14.00">update</text>
<polyline fill="none" stroke="black" points="1,-108.5 248,-108.5 "/>
<polyline fill="none" stroke="black" points="1,-84.5 248,-84.5 "/>
<text text-anchor="start" x="9" y="-67.9" font-family="Times Roman,serif" font-size="14.00">_layout</text>
</g>
<!-- ApplicationController&#45;&gt;UsersController -->
<g id="edge12" class="edge"><title>ApplicationController&#45;&gt;UsersController</title>
<path fill="none" stroke="black" d="M415.134,-378.043C362.71,-336.097 292.013,-279.531 233.474,-232.692"/>
</g>
<!-- NotesController -->
<g id="node10" class="node"><title>NotesController</title>
<polyline fill="none" stroke="black" points="683.177,-275.265 906.177,-275.265 "/>
<path fill="none" stroke="black" d="M906.177,-275.265C912.177,-275.265 918.177,-281.265 918.177,-287.265"/>
<polyline fill="none" stroke="black" points="918.177,-287.265 918.177,-527.265 "/>
<path fill="none" stroke="black" d="M918.177,-527.265C918.177,-533.265 912.177,-539.265 906.177,-539.265"/>
<polyline fill="none" stroke="black" points="906.177,-539.265 683.177,-539.265 "/>
<path fill="none" stroke="black" d="M683.177,-539.265C677.177,-539.265 671.177,-533.265 671.177,-527.265"/>
<polyline fill="none" stroke="black" points="671.177,-527.265 671.177,-287.265 "/>
<path fill="none" stroke="black" d="M671.177,-287.265C671.177,-281.265 677.177,-275.265 683.177,-275.265"/>
<text text-anchor="middle" x="794.677" y="-522.665" font-family="Times Roman,serif" font-size="14.00">NotesController</text>
<polyline fill="none" stroke="black" points="671.177,-513.265 918.177,-513.265 "/>
<text text-anchor="start" x="679.177" y="-496.665" font-family="Times Roman,serif" font-size="14.00">_one_time_conditions_valid_220?</text>
<text text-anchor="start" x="679.177" y="-478.665" font-family="Times Roman,serif" font-size="14.00">create</text>
<text text-anchor="start" x="679.177" y="-460.665" font-family="Times Roman,serif" font-size="14.00">destroy</text>
<text text-anchor="start" x="679.177" y="-442.665" font-family="Times Roman,serif" font-size="14.00">edit</text>
<text text-anchor="start" x="679.177" y="-424.665" font-family="Times Roman,serif" font-size="14.00">get_project</text>
<text text-anchor="start" x="679.177" y="-406.665" font-family="Times Roman,serif" font-size="14.00">index</text>
<text text-anchor="start" x="679.177" y="-388.665" font-family="Times Roman,serif" font-size="14.00">new</text>
<text text-anchor="start" x="679.177" y="-370.665" font-family="Times Roman,serif" font-size="14.00">show</text>
<text text-anchor="start" x="679.177" y="-352.665" font-family="Times Roman,serif" font-size="14.00">sort</text>
<text text-anchor="start" x="679.177" y="-334.665" font-family="Times Roman,serif" font-size="14.00">update</text>
<polyline fill="none" stroke="black" points="671.177,-325.265 918.177,-325.265 "/>
<polyline fill="none" stroke="black" points="671.177,-301.265 918.177,-301.265 "/>
<text text-anchor="start" x="679.177" y="-284.665" font-family="Times Roman,serif" font-size="14.00">_layout</text>
</g>
<!-- ApplicationController&#45;&gt;NotesController -->
<g id="edge14" class="edge"><title>ApplicationController&#45;&gt;NotesController</title>
<path fill="none" stroke="black" d="M609.866,-426.167C629.919,-424.116 650.771,-421.983 670.933,-419.921"/>
</g>
<!-- HomeController -->
<g id="node11" class="node"><title>HomeController</title>
<polyline fill="none" stroke="black" points="705.905,-76.3673 806.905,-76.3673 "/>
<path fill="none" stroke="black" d="M806.905,-76.3673C812.905,-76.3673 818.905,-82.3673 818.905,-88.3673"/>
<polyline fill="none" stroke="black" points="818.905,-88.3673 818.905,-164.367 "/>
<path fill="none" stroke="black" d="M818.905,-164.367C818.905,-170.367 812.905,-176.367 806.905,-176.367"/>
<polyline fill="none" stroke="black" points="806.905,-176.367 705.905,-176.367 "/>
<path fill="none" stroke="black" d="M705.905,-176.367C699.905,-176.367 693.905,-170.367 693.905,-164.367"/>
<polyline fill="none" stroke="black" points="693.905,-164.367 693.905,-88.3673 "/>
<path fill="none" stroke="black" d="M693.905,-88.3673C693.905,-82.3673 699.905,-76.3673 705.905,-76.3673"/>
<text text-anchor="middle" x="756.405" y="-159.767" font-family="Times Roman,serif" font-size="14.00">HomeController</text>
<polyline fill="none" stroke="black" points="693.905,-150.367 818.905,-150.367 "/>
<polyline fill="none" stroke="black" points="693.905,-126.367 818.905,-126.367 "/>
<polyline fill="none" stroke="black" points="693.905,-102.367 818.905,-102.367 "/>
<text text-anchor="start" x="701.905" y="-85.7673" font-family="Times Roman,serif" font-size="14.00">_layout</text>
</g>
<!-- ApplicationController&#45;&gt;HomeController -->
<g id="edge16" class="edge"><title>ApplicationController&#45;&gt;HomeController</title>
<path fill="none" stroke="black" d="M541.796,-378.214C591.743,-319.6 666.804,-231.515 713.633,-176.561"/>
</g>
</g>
</svg>
