<?xml version="1.0" encoding="UTF-8" standalone="no"?>
<!DOCTYPE svg PUBLIC "-//W3C//DTD SVG 1.1//EN"
 "http://www.w3.org/Graphics/SVG/1.1/DTD/svg11.dtd">
<!-- Generated by graphviz version 2.26.3 (20100126.1600)
 -->
<!-- Title: controllers_diagram Pages: 1 -->
<svg width="830pt" height="857pt"
 viewBox="0.00 0.00 830.00 857.00" xmlns="http://www.w3.org/2000/svg" xmlns:xlink="http://www.w3.org/1999/xlink">
<g id="graph1" class="graph" transform="scale(1 1) rotate(0) translate(4 853)">
<title>controllers_diagram</title>
<polygon fill="white" stroke="white" points="-4,5 -4,-853 827,-853 827,5 -4,5"/>
<!-- _diagram_info -->
<g id="node1" class="node"><title>_diagram_info</title>
<text text-anchor="start" x="515" y="-354.3" font-family="Times Roman,serif" font-size="13.00">Controllers diagram</text>
<text text-anchor="start" x="515" y="-337.3" font-family="Times Roman,serif" font-size="13.00">Date: Dec 22 2012 &#45; 11:42</text>
<text text-anchor="start" x="515" y="-320.3" font-family="Times Roman,serif" font-size="13.00">Migration version: 20121222161208</text>
<text text-anchor="start" x="515" y="-303.3" font-family="Times Roman,serif" font-size="13.00">Generated by RailRoady 1.1.0</text>
<text text-anchor="start" x="515" y="-286.3" font-family="Times Roman,serif" font-size="13.00">http://railroady.prestonlee.com</text>
</g>
<!-- RegistrationsController -->
<g id="node2" class="node"><title>RegistrationsController</title>
<polyline fill="none" stroke="black" points="657,-691.5 809,-691.5 "/>
<path fill="none" stroke="black" d="M809,-691.5C815,-691.5 821,-697.5 821,-703.5"/>
<polyline fill="none" stroke="black" points="821,-703.5 821,-835.5 "/>
<path fill="none" stroke="black" d="M821,-835.5C821,-841.5 815,-847.5 809,-847.5"/>
<polyline fill="none" stroke="black" points="809,-847.5 657,-847.5 "/>
<path fill="none" stroke="black" d="M657,-847.5C651,-847.5 645,-841.5 645,-835.5"/>
<polyline fill="none" stroke="black" points="645,-835.5 645,-703.5 "/>
<path fill="none" stroke="black" d="M645,-703.5C645,-697.5 651,-691.5 657,-691.5"/>
<text text-anchor="middle" x="733" y="-830.9" font-family="Times Roman,serif" font-size="14.00">RegistrationsController</text>
<polyline fill="none" stroke="black" points="645,-821.5 821,-821.5 "/>
<text text-anchor="start" x="653" y="-804.9" font-family="Times Roman,serif" font-size="14.00">new</text>
<text text-anchor="start" x="653" y="-786.9" font-family="Times Roman,serif" font-size="14.00">update_card</text>
<text text-anchor="start" x="653" y="-768.9" font-family="Times Roman,serif" font-size="14.00">update_plan</text>
<polyline fill="none" stroke="black" points="645,-759.5 821,-759.5 "/>
<polyline fill="none" stroke="black" points="645,-735.5 821,-735.5 "/>
<text text-anchor="start" x="653" y="-718.9" font-family="Times Roman,serif" font-size="14.00">_layout</text>
<text text-anchor="start" x="653" y="-700.9" font-family="Times Roman,serif" font-size="14.00">build_resource</text>
</g>
<!-- ProjectsController -->
<g id="node3" class="node"><title>ProjectsController</title>
<polyline fill="none" stroke="black" points="68.4721,-1.5 184.472,-1.5 "/>
<path fill="none" stroke="black" d="M184.472,-1.5C190.472,-1.5 196.472,-7.5 196.472,-13.5"/>
<polyline fill="none" stroke="black" points="196.472,-13.5 196.472,-199.5 "/>
<path fill="none" stroke="black" d="M196.472,-199.5C196.472,-205.5 190.472,-211.5 184.472,-211.5"/>
<polyline fill="none" stroke="black" points="184.472,-211.5 68.4721,-211.5 "/>
<path fill="none" stroke="black" d="M68.4721,-211.5C62.4721,-211.5 56.4721,-205.5 56.4721,-199.5"/>
<polyline fill="none" stroke="black" points="56.4721,-199.5 56.4721,-13.5 "/>
<path fill="none" stroke="black" d="M56.4721,-13.5C56.4721,-7.5 62.4721,-1.5 68.4721,-1.5"/>
<text text-anchor="middle" x="126.472" y="-194.9" font-family="Times Roman,serif" font-size="14.00">ProjectsController</text>
<polyline fill="none" stroke="black" points="56.4721,-185.5 196.472,-185.5 "/>
<text text-anchor="start" x="64.4721" y="-168.9" font-family="Times Roman,serif" font-size="14.00">create</text>
<text text-anchor="start" x="64.4721" y="-150.9" font-family="Times Roman,serif" font-size="14.00">destroy</text>
<text text-anchor="start" x="64.4721" y="-132.9" font-family="Times Roman,serif" font-size="14.00">edit</text>
<text text-anchor="start" x="64.4721" y="-114.9" font-family="Times Roman,serif" font-size="14.00">index</text>
<text text-anchor="start" x="64.4721" y="-96.9" font-family="Times Roman,serif" font-size="14.00">new</text>
<text text-anchor="start" x="64.4721" y="-78.9" font-family="Times Roman,serif" font-size="14.00">show</text>
<text text-anchor="start" x="64.4721" y="-60.9" font-family="Times Roman,serif" font-size="14.00">update</text>
<polyline fill="none" stroke="black" points="56.4721,-51.5 196.472,-51.5 "/>
<polyline fill="none" stroke="black" points="56.4721,-27.5 196.472,-27.5 "/>
<text text-anchor="start" x="64.4721" y="-10.9" font-family="Times Roman,serif" font-size="14.00">_layout</text>
</g>
<!-- ContentController -->
<g id="node4" class="node"><title>ContentController</title>
<polyline fill="none" stroke="black" points="375.886,-46.9265 589.886,-46.9265 "/>
<path fill="none" stroke="black" d="M589.886,-46.9265C595.886,-46.9265 601.886,-52.9265 601.886,-58.9265"/>
<polyline fill="none" stroke="black" points="601.886,-58.9265 601.886,-190.927 "/>
<path fill="none" stroke="black" d="M601.886,-190.927C601.886,-196.927 595.886,-202.927 589.886,-202.927"/>
<polyline fill="none" stroke="black" points="589.886,-202.927 375.886,-202.927 "/>
<path fill="none" stroke="black" d="M375.886,-202.927C369.886,-202.927 363.886,-196.927 363.886,-190.927"/>
<polyline fill="none" stroke="black" points="363.886,-190.927 363.886,-58.9265 "/>
<path fill="none" stroke="black" d="M363.886,-58.9265C363.886,-52.9265 369.886,-46.9265 375.886,-46.9265"/>
<text text-anchor="middle" x="482.886" y="-186.327" font-family="Times Roman,serif" font-size="14.00">ContentController</text>
<polyline fill="none" stroke="black" points="363.886,-176.927 601.886,-176.927 "/>
<text text-anchor="start" x="371.886" y="-160.327" font-family="Times Roman,serif" font-size="14.00">_one_time_conditions_valid_88?</text>
<text text-anchor="start" x="371.886" y="-142.327" font-family="Times Roman,serif" font-size="14.00">gold</text>
<text text-anchor="start" x="371.886" y="-124.327" font-family="Times Roman,serif" font-size="14.00">platinum</text>
<text text-anchor="start" x="371.886" y="-106.327" font-family="Times Roman,serif" font-size="14.00">silver</text>
<polyline fill="none" stroke="black" points="363.886,-96.9265 601.886,-96.9265 "/>
<polyline fill="none" stroke="black" points="363.886,-72.9265 601.886,-72.9265 "/>
<text text-anchor="start" x="371.886" y="-56.3265" font-family="Times Roman,serif" font-size="14.00">_layout</text>
</g>
<!-- ApplicationController -->
<g id="node5" class="node"><title>ApplicationController</title>
<polyline fill="none" stroke="black" points="209.588,-267.442 423.588,-267.442 "/>
<path fill="none" stroke="black" d="M423.588,-267.442C429.588,-267.442 435.588,-273.442 435.588,-279.442"/>
<polyline fill="none" stroke="black" points="435.588,-279.442 435.588,-375.442 "/>
<path fill="none" stroke="black" d="M435.588,-375.442C435.588,-381.442 429.588,-387.442 423.588,-387.442"/>
<polyline fill="none" stroke="black" points="423.588,-387.442 209.588,-387.442 "/>
<path fill="none" stroke="black" d="M209.588,-387.442C203.588,-387.442 197.588,-381.442 197.588,-375.442"/>
<polyline fill="none" stroke="black" points="197.588,-375.442 197.588,-279.442 "/>
<path fill="none" stroke="black" d="M197.588,-279.442C197.588,-273.442 203.588,-267.442 209.588,-267.442"/>
<text text-anchor="middle" x="316.588" y="-370.842" font-family="Times Roman,serif" font-size="14.00">ApplicationController</text>
<polyline fill="none" stroke="black" points="197.588,-361.442 435.588,-361.442 "/>
<text text-anchor="start" x="205.588" y="-344.842" font-family="Times Roman,serif" font-size="14.00">_one_time_conditions_valid_52?</text>
<text text-anchor="start" x="205.588" y="-326.842" font-family="Times Roman,serif" font-size="14.00">after_sign_in_path_for</text>
<polyline fill="none" stroke="black" points="197.588,-317.442 435.588,-317.442 "/>
<polyline fill="none" stroke="black" points="197.588,-293.442 435.588,-293.442 "/>
<text text-anchor="start" x="205.588" y="-276.842" font-family="Times Roman,serif" font-size="14.00">_layout</text>
</g>
<!-- ApplicationController&#45;&gt;ProjectsController -->
<g id="edge2" class="edge"><title>ApplicationController&#45;&gt;ProjectsController</title>
<path fill="none" stroke="black" d="M264.889,-267.361C243.888,-242.954 219.293,-214.371 196.708,-188.124"/>
</g>
<!-- ApplicationController&#45;&gt;ContentController -->
<g id="edge4" class="edge"><title>ApplicationController&#45;&gt;ContentController</title>
<path fill="none" stroke="black" d="M366.033,-267.229C382.596,-247.058 401.307,-224.272 418.824,-202.94"/>
</g>
<!-- ParticipantsController -->
<g id="node6" class="node"><title>ParticipantsController</title>
<polyline fill="none" stroke="black" points="87.0932,-486.231 301.093,-486.231 "/>
<path fill="none" stroke="black" d="M301.093,-486.231C307.093,-486.231 313.093,-492.231 313.093,-498.231"/>
<polyline fill="none" stroke="black" points="313.093,-498.231 313.093,-720.231 "/>
<path fill="none" stroke="black" d="M313.093,-720.231C313.093,-726.231 307.093,-732.231 301.093,-732.231"/>
<polyline fill="none" stroke="black" points="301.093,-732.231 87.0932,-732.231 "/>
<path fill="none" stroke="black" d="M87.0932,-732.231C81.0932,-732.231 75.0932,-726.231 75.0932,-720.231"/>
<polyline fill="none" stroke="black" points="75.0932,-720.231 75.0932,-498.231 "/>
<path fill="none" stroke="black" d="M75.0932,-498.231C75.0932,-492.231 81.0932,-486.231 87.0932,-486.231"/>
<text text-anchor="middle" x="194.093" y="-715.631" font-family="Times Roman,serif" font-size="14.00">ParticipantsController</text>
<polyline fill="none" stroke="black" points="75.0932,-706.231 313.093,-706.231 "/>
<text text-anchor="start" x="83.0932" y="-689.631" font-family="Times Roman,serif" font-size="14.00">_callback_before_93</text>
<text text-anchor="start" x="83.0932" y="-671.631" font-family="Times Roman,serif" font-size="14.00">_one_time_conditions_valid_94?</text>
<text text-anchor="start" x="83.0932" y="-653.631" font-family="Times Roman,serif" font-size="14.00">create</text>
<text text-anchor="start" x="83.0932" y="-635.631" font-family="Times Roman,serif" font-size="14.00">destroy</text>
<text text-anchor="start" x="83.0932" y="-617.631" font-family="Times Roman,serif" font-size="14.00">edit</text>
<text text-anchor="start" x="83.0932" y="-599.631" font-family="Times Roman,serif" font-size="14.00">index</text>
<text text-anchor="start" x="83.0932" y="-581.631" font-family="Times Roman,serif" font-size="14.00">new</text>
<text text-anchor="start" x="83.0932" y="-563.631" font-family="Times Roman,serif" font-size="14.00">show</text>
<text text-anchor="start" x="83.0932" y="-545.631" font-family="Times Roman,serif" font-size="14.00">update</text>
<polyline fill="none" stroke="black" points="75.0932,-536.231 313.093,-536.231 "/>
<polyline fill="none" stroke="black" points="75.0932,-512.231 313.093,-512.231 "/>
<text text-anchor="start" x="83.0932" y="-495.631" font-family="Times Roman,serif" font-size="14.00">_layout</text>
</g>
<!-- ApplicationController&#45;&gt;ParticipantsController -->
<g id="edge6" class="edge"><title>ApplicationController&#45;&gt;ParticipantsController</title>
<path fill="none" stroke="black" d="M290.46,-387.548C277.953,-416.319 262.495,-451.879 247.649,-486.03"/>
</g>
<!-- UsersController -->
<g id="node7" class="node"><title>UsersController</title>
<polyline fill="none" stroke="black" points="396.725,-442.374 610.725,-442.374 "/>
<path fill="none" stroke="black" d="M610.725,-442.374C616.725,-442.374 622.725,-448.374 622.725,-454.374"/>
<polyline fill="none" stroke="black" points="622.725,-454.374 622.725,-604.374 "/>
<path fill="none" stroke="black" d="M622.725,-604.374C622.725,-610.374 616.725,-616.374 610.725,-616.374"/>
<polyline fill="none" stroke="black" points="610.725,-616.374 396.725,-616.374 "/>
<path fill="none" stroke="black" d="M396.725,-616.374C390.725,-616.374 384.725,-610.374 384.725,-604.374"/>
<polyline fill="none" stroke="black" points="384.725,-604.374 384.725,-454.374 "/>
<path fill="none" stroke="black" d="M384.725,-454.374C384.725,-448.374 390.725,-442.374 396.725,-442.374"/>
<text text-anchor="middle" x="503.725" y="-599.774" font-family="Times Roman,serif" font-size="14.00">UsersController</text>
<polyline fill="none" stroke="black" points="384.725,-590.374 622.725,-590.374 "/>
<text text-anchor="start" x="392.725" y="-573.774" font-family="Times Roman,serif" font-size="14.00">_one_time_conditions_valid_96?</text>
<text text-anchor="start" x="392.725" y="-555.774" font-family="Times Roman,serif" font-size="14.00">destroy</text>
<text text-anchor="start" x="392.725" y="-537.774" font-family="Times Roman,serif" font-size="14.00">index</text>
<text text-anchor="start" x="392.725" y="-519.774" font-family="Times Roman,serif" font-size="14.00">show</text>
<text text-anchor="start" x="392.725" y="-501.774" font-family="Times Roman,serif" font-size="14.00">update</text>
<polyline fill="none" stroke="black" points="384.725,-492.374 622.725,-492.374 "/>
<polyline fill="none" stroke="black" points="384.725,-468.374 622.725,-468.374 "/>
<text text-anchor="start" x="392.725" y="-451.774" font-family="Times Roman,serif" font-size="14.00">_layout</text>
</g>
<!-- ApplicationController&#45;&gt;UsersController -->
<g id="edge8" class="edge"><title>ApplicationController&#45;&gt;UsersController</title>
<path fill="none" stroke="black" d="M372.229,-387.482C388.174,-404.688 405.889,-423.803 423.017,-442.285"/>
</g>
<!-- HomeController -->
<g id="node8" class="node"><title>HomeController</title>
<polyline fill="none" stroke="black" points="13,-368.384 114,-368.384 "/>
<path fill="none" stroke="black" d="M114,-368.384C120,-368.384 126,-374.384 126,-380.384"/>
<polyline fill="none" stroke="black" points="126,-380.384 126,-456.384 "/>
<path fill="none" stroke="black" d="M126,-456.384C126,-462.384 120,-468.384 114,-468.384"/>
<polyline fill="none" stroke="black" points="114,-468.384 13,-468.384 "/>
<path fill="none" stroke="black" d="M13,-468.384C7,-468.384 1,-462.384 1,-456.384"/>
<polyline fill="none" stroke="black" points="1,-456.384 1,-380.384 "/>
<path fill="none" stroke="black" d="M1,-380.384C1,-374.384 7,-368.384 13,-368.384"/>
<text text-anchor="middle" x="63.5" y="-451.784" font-family="Times Roman,serif" font-size="14.00">HomeController</text>
<polyline fill="none" stroke="black" points="1,-442.384 126,-442.384 "/>
<polyline fill="none" stroke="black" points="1,-418.384 126,-418.384 "/>
<polyline fill="none" stroke="black" points="1,-394.384 126,-394.384 "/>
<text text-anchor="start" x="9" y="-377.784" font-family="Times Roman,serif" font-size="14.00">_layout</text>
</g>
<!-- ApplicationController&#45;&gt;HomeController -->
<g id="edge10" class="edge"><title>ApplicationController&#45;&gt;HomeController</title>
<path fill="none" stroke="black" d="M197.455,-370.25C172.839,-379.096 147.847,-388.076 126.224,-395.846"/>
</g>
</g>
</svg>
