<?xml version="1.0" encoding="UTF-8" standalone="no"?>
<!DOCTYPE svg PUBLIC "-//W3C//DTD SVG 1.1//EN"
 "http://www.w3.org/Graphics/SVG/1.1/DTD/svg11.dtd">
<!-- Generated by graphviz version 2.26.3 (20100126.1600)
 -->
<!-- Title: controllers_diagram Pages: 1 -->
<svg width="1349pt" height="732pt"
 viewBox="0.00 0.00 1349.19 732.26" xmlns="http://www.w3.org/2000/svg" xmlns:xlink="http://www.w3.org/1999/xlink">
<g id="graph1" class="graph" transform="scale(1 1) rotate(0) translate(4 728.259)">
<title>controllers_diagram</title>
<polygon fill="white" stroke="white" points="-4,5 -4,-728.259 1346.19,-728.259 1346.19,5 -4,5"/>
<!-- _diagram_info -->
<g id="node1" class="node"><title>_diagram_info</title>
<text text-anchor="start" x="717" y="-78.3" font-family="Times Roman,serif" font-size="13.00">Controllers diagram</text>
<text text-anchor="start" x="717" y="-61.3" font-family="Times Roman,serif" font-size="13.00">Date: Jan 09 2013 &#45; 15:16</text>
<text text-anchor="start" x="717" y="-44.3" font-family="Times Roman,serif" font-size="13.00">Migration version: 20130109025748</text>
<text text-anchor="start" x="717" y="-27.3" font-family="Times Roman,serif" font-size="13.00">Generated by RailRoady 1.1.0</text>
<text text-anchor="start" x="717" y="-10.3" font-family="Times Roman,serif" font-size="13.00">http://railroady.prestonlee.com</text>
</g>
<!-- RegistrationsController -->
<g id="node2" class="node"><title>RegistrationsController</title>
<ellipse fill="none" stroke="black" cx="1187.5" cy="-78.5" rx="123.951" ry="18.3848"/>
<text text-anchor="middle" x="1187.5" y="-74.9" font-family="Times Roman,serif" font-size="14.00">RegistrationsController</text>
</g>
<!-- ReviewersController -->
<g id="node3" class="node"><title>ReviewersController</title>
<ellipse fill="none" stroke="black" cx="112" cy="-195.061" rx="111.016" ry="18.3848"/>
<text text-anchor="middle" x="112" y="-191.461" font-family="Times Roman,serif" font-size="14.00">ReviewersController</text>
</g>
<!-- ProjectsController -->
<g id="node4" class="node"><title>ProjectsController</title>
<ellipse fill="none" stroke="black" cx="976.215" cy="-421.638" rx="98.9949" ry="18.3848"/>
<text text-anchor="middle" x="976.215" y="-418.038" font-family="Times Roman,serif" font-size="14.00">ProjectsController</text>
</g>
<!-- BlueprintsController -->
<g id="node5" class="node"><title>BlueprintsController</title>
<ellipse fill="none" stroke="black" cx="426.755" cy="-137.5" rx="109.81" ry="18.3848"/>
<text text-anchor="middle" x="426.755" y="-133.9" font-family="Times Roman,serif" font-size="14.00">BlueprintsController</text>
</g>
<!-- ContentController -->
<g id="node6" class="node"><title>ContentController</title>
<ellipse fill="none" stroke="black" cx="646.239" cy="-704.417" rx="99.9096" ry="18.3848"/>
<text text-anchor="middle" x="646.239" y="-700.817" font-family="Times Roman,serif" font-size="14.00">ContentController</text>
</g>
<!-- GroupsController -->
<g id="node7" class="node"><title>GroupsController</title>
<ellipse fill="none" stroke="black" cx="758.328" cy="-440.16" rx="94.9596" ry="18.3848"/>
<text text-anchor="middle" x="758.328" y="-436.56" font-family="Times Roman,serif" font-size="14.00">GroupsController</text>
</g>
<!-- SealsController -->
<g id="node8" class="node"><title>SealsController</title>
<ellipse fill="none" stroke="black" cx="394.261" cy="-704.759" rx="85.7684" ry="18.3848"/>
<text text-anchor="middle" x="394.261" y="-701.159" font-family="Times Roman,serif" font-size="14.00">SealsController</text>
</g>
<!-- ApplicationController -->
<g id="node9" class="node"><title>ApplicationController</title>
<ellipse fill="none" stroke="black" cx="548.243" cy="-422.446" rx="113.844" ry="18.3848"/>
<text text-anchor="middle" x="548.243" y="-418.846" font-family="Times Roman,serif" font-size="14.00">ApplicationController</text>
</g>
<!-- ApplicationController&#45;&gt;ReviewersController -->
<g id="edge2" class="edge"><title>ApplicationController&#45;&gt;ReviewersController</title>
<path fill="none" stroke="black" d="M514.012,-404.603C432.462,-362.097 227.461,-255.243 146.072,-212.821"/>
</g>
<!-- ApplicationController&#45;&gt;ProjectsController -->
<g id="edge4" class="edge"><title>ApplicationController&#45;&gt;ProjectsController</title>
<path fill="none" stroke="black" d="M661.963,-420.769C693.229,-420.413 727.142,-420.124 758.436,-420.06 797.285,-419.98 840.032,-420.218 877.289,-420.533"/>
</g>
<!-- ApplicationController&#45;&gt;BlueprintsController -->
<g id="edge6" class="edge"><title>ApplicationController&#45;&gt;BlueprintsController</title>
<path fill="none" stroke="black" d="M540.272,-403.75C518.259,-352.119 456.804,-207.978 434.756,-156.265"/>
</g>
<!-- ApplicationController&#45;&gt;ContentController -->
<g id="edge8" class="edge"><title>ApplicationController&#45;&gt;ContentController</title>
<path fill="none" stroke="black" d="M554.673,-440.947C572.429,-492.038 622.001,-634.676 639.785,-685.848"/>
</g>
<!-- ApplicationController&#45;&gt;GroupsController -->
<g id="edge10" class="edge"><title>ApplicationController&#45;&gt;GroupsController</title>
<path fill="none" stroke="black" d="M649.593,-430.991C656.728,-431.593 663.886,-432.197 670.935,-432.791"/>
</g>
<!-- ApplicationController&#45;&gt;SealsController -->
<g id="edge12" class="edge"><title>ApplicationController&#45;&gt;SealsController</title>
<path fill="none" stroke="black" d="M538.14,-440.969C510.239,-492.123 432.346,-634.933 404.401,-686.168"/>
</g>
<!-- TasksController -->
<g id="node10" class="node"><title>TasksController</title>
<ellipse fill="none" stroke="black" cx="1224.52" cy="-148.265" rx="85.7684" ry="18.3848"/>
<text text-anchor="middle" x="1224.52" y="-144.665" font-family="Times Roman,serif" font-size="14.00">TasksController</text>
</g>
<!-- ApplicationController&#45;&gt;TasksController -->
<g id="edge14" class="edge"><title>ApplicationController&#45;&gt;TasksController</title>
<path fill="none" stroke="black" d="M590.803,-405.191C713.083,-355.616 1064.3,-213.223 1184,-164.695"/>
</g>
<!-- CoordinatesController -->
<g id="node11" class="node"><title>CoordinatesController</title>
<ellipse fill="none" stroke="black" cx="313.487" cy="-415.022" rx="118.794" ry="18.3848"/>
<text text-anchor="middle" x="313.487" y="-411.422" font-family="Times Roman,serif" font-size="14.00">CoordinatesController</text>
</g>
<!-- ApplicationController&#45;&gt;CoordinatesController -->
<g id="edge16" class="edge"><title>ApplicationController&#45;&gt;CoordinatesController</title>
<path fill="none" stroke="black" d="M436.022,-418.897C434.135,-418.837 432.248,-418.778 430.36,-418.718"/>
</g>
<!-- ParticipantsController -->
<g id="node12" class="node"><title>ParticipantsController</title>
<ellipse fill="none" stroke="black" cx="920.814" cy="-144.973" rx="118.087" ry="18.3848"/>
<text text-anchor="middle" x="920.814" y="-141.373" font-family="Times Roman,serif" font-size="14.00">ParticipantsController</text>
</g>
<!-- ApplicationController&#45;&gt;ParticipantsController -->
<g id="edge18" class="edge"><title>ApplicationController&#45;&gt;ParticipantsController</title>
<path fill="none" stroke="black" d="M572.688,-404.24C640.196,-353.964 828.663,-213.602 896.278,-163.246"/>
</g>
<!-- UsersController -->
<g id="node13" class="node"><title>UsersController</title>
<ellipse fill="none" stroke="black" cx="680.856" cy="-154.113" rx="87.1802" ry="18.3848"/>
<text text-anchor="middle" x="680.856" y="-150.513" font-family="Times Roman,serif" font-size="14.00">UsersController</text>
</g>
<!-- ApplicationController&#45;&gt;UsersController -->
<g id="edge20" class="edge"><title>ApplicationController&#45;&gt;UsersController</title>
<path fill="none" stroke="black" d="M557.358,-404.002C581.584,-354.982 647.378,-221.853 671.677,-172.686"/>
</g>
<!-- NotesController -->
<g id="node14" class="node"><title>NotesController</title>
<ellipse fill="none" stroke="black" cx="102.726" cy="-639.721" rx="87.889" ry="18.3848"/>
<text text-anchor="middle" x="102.726" y="-636.121" font-family="Times Roman,serif" font-size="14.00">NotesController</text>
</g>
<!-- ApplicationController&#45;&gt;NotesController -->
<g id="edge22" class="edge"><title>ApplicationController&#45;&gt;NotesController</title>
<path fill="none" stroke="black" d="M512.162,-440.042C428.161,-481.009 220.397,-582.334 137.599,-622.714"/>
</g>
<!-- HomeController -->
<g id="node15" class="node"><title>HomeController</title>
<ellipse fill="none" stroke="black" cx="1251.69" cy="-430.514" rx="87.889" ry="18.3848"/>
<text text-anchor="middle" x="1251.69" y="-426.914" font-family="Times Roman,serif" font-size="14.00">HomeController</text>
</g>
<!-- ApplicationController&#45;&gt;HomeController -->
<g id="edge24" class="edge"><title>ApplicationController&#45;&gt;HomeController</title>
<path fill="none" stroke="black" d="M660.626,-419.145C692.269,-418.766 726.708,-418.871 758.436,-420.06 788.872,-421.2 796.423,-422.746 826.711,-425.963 861.548,-429.662 870.074,-432.173 904.917,-435.818 936.44,-439.116 944.297,-441.066 975.985,-441.738 1040.64,-443.11 1113.78,-439.913 1168.47,-436.585"/>
</g>
<!-- CitiesController -->
<g id="node16" class="node"><title>CitiesController</title>
<ellipse fill="none" stroke="black" cx="1215.16" cy="-704.702" rx="87.1802" ry="18.3848"/>
<text text-anchor="middle" x="1215.16" y="-701.102" font-family="Times Roman,serif" font-size="14.00">CitiesController</text>
</g>
<!-- ApplicationController&#45;&gt;CitiesController -->
<g id="edge26" class="edge"><title>ApplicationController&#45;&gt;CitiesController</title>
<path fill="none" stroke="black" d="M589.208,-439.783C709.086,-490.519 1058.14,-638.244 1175.86,-688.069"/>
</g>
<!-- MembersController -->
<g id="node17" class="node"><title>MembersController</title>
<ellipse fill="none" stroke="black" cx="901.674" cy="-703.393" rx="104.151" ry="18.3848"/>
<text text-anchor="middle" x="901.674" y="-699.793" font-family="Times Roman,serif" font-size="14.00">MembersController</text>
</g>
<!-- ApplicationController&#45;&gt;MembersController -->
<g id="edge28" class="edge"><title>ApplicationController&#45;&gt;MembersController</title>
<path fill="none" stroke="black" d="M571.16,-440.663C635.1,-491.49 814.932,-634.441 878.809,-685.217"/>
</g>
</g>
</svg>
