<?xml version="1.0" encoding="UTF-8" standalone="no"?>
<!DOCTYPE svg PUBLIC "-//W3C//DTD SVG 1.1//EN"
 "http://www.w3.org/Graphics/SVG/1.1/DTD/svg11.dtd">
<!-- Generated by graphviz version 2.26.3 (20100126.1600)
 -->
<!-- Title: models_diagram Pages: 1 -->
<svg width="855pt" height="890pt"
 viewBox="0.00 0.00 855.00 890.00" xmlns="http://www.w3.org/2000/svg" xmlns:xlink="http://www.w3.org/1999/xlink">
<g id="graph1" class="graph" transform="scale(1 1) rotate(0) translate(4 886)">
<title>models_diagram</title>
<polygon fill="white" stroke="white" points="-4,5 -4,-886 852,-886 852,5 -4,5"/>
<!-- _diagram_info -->
<g id="node1" class="node"><title>_diagram_info</title>
<text text-anchor="start" x="8" y="-840.8" font-family="Times Roman,serif" font-size="13.00">Models diagram</text>
<text text-anchor="start" x="8" y="-823.8" font-family="Times Roman,serif" font-size="13.00">Date: Dec 28 2012 &#45; 12:56</text>
<text text-anchor="start" x="8" y="-806.8" font-family="Times Roman,serif" font-size="13.00">Migration version: 20121228170157</text>
<text text-anchor="start" x="8" y="-789.8" font-family="Times Roman,serif" font-size="13.00">Generated by RailRoady 1.1.0</text>
<text text-anchor="start" x="8" y="-772.8" font-family="Times Roman,serif" font-size="13.00">http://railroady.prestonlee.com</text>
</g>
<!-- Coordinate -->
<g id="node2" class="node"><title>Coordinate</title>
<polyline fill="none" stroke="black" points="114.5,-1 255.5,-1 "/>
<path fill="none" stroke="black" d="M255.5,-1C261.5,-1 267.5,-7 267.5,-13"/>
<polyline fill="none" stroke="black" points="267.5,-13 267.5,-113 "/>
<path fill="none" stroke="black" d="M267.5,-113C267.5,-119 261.5,-125 255.5,-125"/>
<polyline fill="none" stroke="black" points="255.5,-125 114.5,-125 "/>
<path fill="none" stroke="black" d="M114.5,-125C108.5,-125 102.5,-119 102.5,-113"/>
<polyline fill="none" stroke="black" points="102.5,-113 102.5,-13 "/>
<path fill="none" stroke="black" d="M102.5,-13C102.5,-7 108.5,-1 114.5,-1"/>
<text text-anchor="middle" x="185" y="-108.4" font-family="Times Roman,serif" font-size="14.00">Coordinate</text>
<polyline fill="none" stroke="black" points="102.5,-99 267.5,-99 "/>
<text text-anchor="start" x="110.5" y="-82.4" font-family="Times Roman,serif" font-size="14.00">id :integer</text>
<text text-anchor="start" x="110.5" y="-64.4" font-family="Times Roman,serif" font-size="14.00">note_id :integer</text>
<text text-anchor="start" x="110.5" y="-46.4" font-family="Times Roman,serif" font-size="14.00">blueprint_id :integer</text>
<text text-anchor="start" x="110.5" y="-28.4" font-family="Times Roman,serif" font-size="14.00">created_at :datetime</text>
<text text-anchor="start" x="110.5" y="-10.4" font-family="Times Roman,serif" font-size="14.00">updated_at :datetime</text>
</g>
<!-- Project -->
<g id="node3" class="node"><title>Project</title>
<polyline fill="none" stroke="black" points="279.5,-757 420.5,-757 "/>
<path fill="none" stroke="black" d="M420.5,-757C426.5,-757 432.5,-763 432.5,-769"/>
<polyline fill="none" stroke="black" points="432.5,-769 432.5,-851 "/>
<path fill="none" stroke="black" d="M432.5,-851C432.5,-857 426.5,-863 420.5,-863"/>
<polyline fill="none" stroke="black" points="420.5,-863 279.5,-863 "/>
<path fill="none" stroke="black" d="M279.5,-863C273.5,-863 267.5,-857 267.5,-851"/>
<polyline fill="none" stroke="black" points="267.5,-851 267.5,-769 "/>
<path fill="none" stroke="black" d="M267.5,-769C267.5,-763 273.5,-757 279.5,-757"/>
<text text-anchor="middle" x="350" y="-846.4" font-family="Times Roman,serif" font-size="14.00">Project</text>
<polyline fill="none" stroke="black" points="267.5,-837 432.5,-837 "/>
<text text-anchor="start" x="275.5" y="-820.4" font-family="Times Roman,serif" font-size="14.00">id :integer</text>
<text text-anchor="start" x="275.5" y="-802.4" font-family="Times Roman,serif" font-size="14.00">name :string</text>
<text text-anchor="start" x="275.5" y="-784.4" font-family="Times Roman,serif" font-size="14.00">created_at :datetime</text>
<text text-anchor="start" x="275.5" y="-766.4" font-family="Times Roman,serif" font-size="14.00">updated_at :datetime</text>
</g>
<!-- Note -->
<g id="node6" class="node"><title>Note</title>
<polyline fill="none" stroke="black" points="59.5,-163 200.5,-163 "/>
<path fill="none" stroke="black" d="M200.5,-163C206.5,-163 212.5,-169 212.5,-175"/>
<polyline fill="none" stroke="black" points="212.5,-175 212.5,-311 "/>
<path fill="none" stroke="black" d="M212.5,-311C212.5,-317 206.5,-323 200.5,-323"/>
<polyline fill="none" stroke="black" points="200.5,-323 59.5,-323 "/>
<path fill="none" stroke="black" d="M59.5,-323C53.5,-323 47.5,-317 47.5,-311"/>
<polyline fill="none" stroke="black" points="47.5,-311 47.5,-175 "/>
<path fill="none" stroke="black" d="M47.5,-175C47.5,-169 53.5,-163 59.5,-163"/>
<text text-anchor="middle" x="130" y="-306.4" font-family="Times Roman,serif" font-size="14.00">Note</text>
<polyline fill="none" stroke="black" points="47.5,-297 212.5,-297 "/>
<text text-anchor="start" x="55.5" y="-280.4" font-family="Times Roman,serif" font-size="14.00">id :integer</text>
<text text-anchor="start" x="55.5" y="-262.4" font-family="Times Roman,serif" font-size="14.00">note :string</text>
<text text-anchor="start" x="55.5" y="-244.4" font-family="Times Roman,serif" font-size="14.00">created_at :datetime</text>
<text text-anchor="start" x="55.5" y="-226.4" font-family="Times Roman,serif" font-size="14.00">updated_at :datetime</text>
<text text-anchor="start" x="55.5" y="-208.4" font-family="Times Roman,serif" font-size="14.00">project_id :integer</text>
<text text-anchor="start" x="55.5" y="-190.4" font-family="Times Roman,serif" font-size="14.00">position :integer</text>
<text text-anchor="start" x="55.5" y="-172.4" font-family="Times Roman,serif" font-size="14.00">note_text :text</text>
</g>
<!-- Project&#45;&gt;Note -->
<g id="edge8" class="edge"><title>Project&#45;&gt;Note</title>
<path fill="none" stroke="#c3f448" d="M282.021,-752.15C274.495,-746.993 266.745,-742.159 259,-738 213.681,-713.663 180.047,-743.015 149,-702 68.7574,-595.994 84.9612,-433.418 106.03,-332.894"/>
<ellipse fill="none" stroke="#c3f448" cx="285.593" cy="-754.665" rx="4.00002" ry="4.00002"/>
<polygon fill="#c3f448" stroke="#c3f448" points="106.042,-332.839 112.547,-324.01 107.095,-327.951 108.148,-323.063 108.148,-323.063 108.148,-323.063 107.095,-327.951 103.749,-322.115 106.042,-332.839 106.042,-332.839"/>
</g>
<!-- Blueprint -->
<g id="node7" class="node"><title>Blueprint</title>
<polyline fill="none" stroke="black" points="169.5,-460 310.5,-460 "/>
<path fill="none" stroke="black" d="M310.5,-460C316.5,-460 322.5,-466 322.5,-472"/>
<polyline fill="none" stroke="black" points="322.5,-472 322.5,-590 "/>
<path fill="none" stroke="black" d="M322.5,-590C322.5,-596 316.5,-602 310.5,-602"/>
<polyline fill="none" stroke="black" points="310.5,-602 169.5,-602 "/>
<path fill="none" stroke="black" d="M169.5,-602C163.5,-602 157.5,-596 157.5,-590"/>
<polyline fill="none" stroke="black" points="157.5,-590 157.5,-472 "/>
<path fill="none" stroke="black" d="M157.5,-472C157.5,-466 163.5,-460 169.5,-460"/>
<text text-anchor="middle" x="240" y="-585.4" font-family="Times Roman,serif" font-size="14.00">Blueprint</text>
<polyline fill="none" stroke="black" points="157.5,-576 322.5,-576 "/>
<text text-anchor="start" x="165.5" y="-559.4" font-family="Times Roman,serif" font-size="14.00">id :integer</text>
<text text-anchor="start" x="165.5" y="-541.4" font-family="Times Roman,serif" font-size="14.00">created_at :datetime</text>
<text text-anchor="start" x="165.5" y="-523.4" font-family="Times Roman,serif" font-size="14.00">updated_at :datetime</text>
<text text-anchor="start" x="165.5" y="-505.4" font-family="Times Roman,serif" font-size="14.00">project_id :integer</text>
<text text-anchor="start" x="165.5" y="-487.4" font-family="Times Roman,serif" font-size="14.00">bpu :string</text>
<text text-anchor="start" x="165.5" y="-469.4" font-family="Times Roman,serif" font-size="14.00">title :string</text>
</g>
<!-- Project&#45;&gt;Blueprint -->
<g id="edge6" class="edge"><title>Project&#45;&gt;Blueprint</title>
<path fill="none" stroke="#c3797f" d="M326.043,-749.236C310.139,-708.899 289.087,-655.503 271.788,-611.625"/>
<ellipse fill="none" stroke="#c3797f" cx="327.584" cy="-753.144" rx="4.00001" ry="4.00001"/>
<polygon fill="#c3797f" stroke="#c3797f" points="271.712,-611.432 272.23,-600.478 269.878,-606.78 268.044,-602.129 268.044,-602.129 268.044,-602.129 269.878,-606.78 263.857,-603.779 271.712,-611.432 271.712,-611.432"/>
</g>
<!-- Participant -->
<g id="node8" class="node"><title>Participant</title>
<polyline fill="none" stroke="black" points="447.5,-181 588.5,-181 "/>
<path fill="none" stroke="black" d="M588.5,-181C594.5,-181 600.5,-187 600.5,-193"/>
<polyline fill="none" stroke="black" points="600.5,-193 600.5,-293 "/>
<path fill="none" stroke="black" d="M600.5,-293C600.5,-299 594.5,-305 588.5,-305"/>
<polyline fill="none" stroke="black" points="588.5,-305 447.5,-305 "/>
<path fill="none" stroke="black" d="M447.5,-305C441.5,-305 435.5,-299 435.5,-293"/>
<polyline fill="none" stroke="black" points="435.5,-293 435.5,-193 "/>
<path fill="none" stroke="black" d="M435.5,-193C435.5,-187 441.5,-181 447.5,-181"/>
<text text-anchor="middle" x="518" y="-288.4" font-family="Times Roman,serif" font-size="14.00">Participant</text>
<polyline fill="none" stroke="black" points="435.5,-279 600.5,-279 "/>
<text text-anchor="start" x="443.5" y="-262.4" font-family="Times Roman,serif" font-size="14.00">id :integer</text>
<text text-anchor="start" x="443.5" y="-244.4" font-family="Times Roman,serif" font-size="14.00">project_id :integer</text>
<text text-anchor="start" x="443.5" y="-226.4" font-family="Times Roman,serif" font-size="14.00">user_id :integer</text>
<text text-anchor="start" x="443.5" y="-208.4" font-family="Times Roman,serif" font-size="14.00">created_at :datetime</text>
<text text-anchor="start" x="443.5" y="-190.4" font-family="Times Roman,serif" font-size="14.00">updated_at :datetime</text>
</g>
<!-- Project&#45;&gt;Participant -->
<g id="edge2" class="edge"><title>Project&#45;&gt;Participant</title>
<path fill="none" stroke="#5ab6f8" d="M346.364,-748.544C341.05,-641.523 335.15,-426.039 369,-360 382.286,-334.08 404.211,-312.092 427.207,-294.417"/>
<ellipse fill="none" stroke="#5ab6f8" cx="346.575" cy="-752.688" rx="4" ry="4"/>
<polygon fill="#5ab6f8" stroke="#5ab6f8" points="427.348,-294.312 438.059,-291.957 431.361,-291.329 435.374,-288.346 435.374,-288.346 435.374,-288.346 431.361,-291.329 432.689,-284.734 427.348,-294.312 427.348,-294.312"/>
</g>
<!-- City -->
<g id="node9" class="node"><title>City</title>
<polyline fill="none" stroke="black" points="389.5,-469 530.5,-469 "/>
<path fill="none" stroke="black" d="M530.5,-469C536.5,-469 542.5,-475 542.5,-481"/>
<polyline fill="none" stroke="black" points="542.5,-481 542.5,-581 "/>
<path fill="none" stroke="black" d="M542.5,-581C542.5,-587 536.5,-593 530.5,-593"/>
<polyline fill="none" stroke="black" points="530.5,-593 389.5,-593 "/>
<path fill="none" stroke="black" d="M389.5,-593C383.5,-593 377.5,-587 377.5,-581"/>
<polyline fill="none" stroke="black" points="377.5,-581 377.5,-481 "/>
<path fill="none" stroke="black" d="M377.5,-481C377.5,-475 383.5,-469 389.5,-469"/>
<text text-anchor="middle" x="460" y="-576.4" font-family="Times Roman,serif" font-size="14.00">City</text>
<polyline fill="none" stroke="black" points="377.5,-567 542.5,-567 "/>
<text text-anchor="start" x="385.5" y="-550.4" font-family="Times Roman,serif" font-size="14.00">id :integer</text>
<text text-anchor="start" x="385.5" y="-532.4" font-family="Times Roman,serif" font-size="14.00">user_ckey :string</text>
<text text-anchor="start" x="385.5" y="-514.4" font-family="Times Roman,serif" font-size="14.00">project_id :integer</text>
<text text-anchor="start" x="385.5" y="-496.4" font-family="Times Roman,serif" font-size="14.00">created_at :datetime</text>
<text text-anchor="start" x="385.5" y="-478.4" font-family="Times Roman,serif" font-size="14.00">updated_at :datetime</text>
</g>
<!-- Project&#45;&gt;City -->
<g id="edge10" class="edge"><title>Project&#45;&gt;City</title>
<path fill="none" stroke="#26c6c2" d="M373.926,-749.316C390.93,-706.186 413.833,-648.096 431.739,-602.68"/>
<ellipse fill="none" stroke="#26c6c2" cx="372.416" cy="-753.144" rx="4.00001" ry="4.00001"/>
<polygon fill="#26c6c2" stroke="#26c6c2" points="431.812,-602.494 439.667,-594.842 433.646,-597.843 435.48,-593.191 435.48,-593.191 435.48,-593.191 433.646,-597.843 431.294,-591.541 431.812,-602.494 431.812,-602.494"/>
</g>
<!-- User -->
<g id="node10" class="node"><title>User</title>
<polyline fill="none" stroke="black" points="572,-361 802,-361 "/>
<path fill="none" stroke="black" d="M802,-361C808,-361 814,-367 814,-373"/>
<polyline fill="none" stroke="black" points="814,-373 814,-689 "/>
<path fill="none" stroke="black" d="M814,-689C814,-695 808,-701 802,-701"/>
<polyline fill="none" stroke="black" points="802,-701 572,-701 "/>
<path fill="none" stroke="black" d="M572,-701C566,-701 560,-695 560,-689"/>
<polyline fill="none" stroke="black" points="560,-689 560,-373 "/>
<path fill="none" stroke="black" d="M560,-373C560,-367 566,-361 572,-361"/>
<text text-anchor="middle" x="687" y="-684.4" font-family="Times Roman,serif" font-size="14.00">User</text>
<polyline fill="none" stroke="black" points="560,-675 814,-675 "/>
<text text-anchor="start" x="568" y="-658.4" font-family="Times Roman,serif" font-size="14.00">id :integer</text>
<text text-anchor="start" x="568" y="-640.4" font-family="Times Roman,serif" font-size="14.00">email :string</text>
<text text-anchor="start" x="568" y="-622.4" font-family="Times Roman,serif" font-size="14.00">encrypted_password :string</text>
<text text-anchor="start" x="568" y="-604.4" font-family="Times Roman,serif" font-size="14.00">reset_password_token :string</text>
<text text-anchor="start" x="568" y="-586.4" font-family="Times Roman,serif" font-size="14.00">reset_password_sent_at :datetime</text>
<text text-anchor="start" x="568" y="-568.4" font-family="Times Roman,serif" font-size="14.00">remember_created_at :datetime</text>
<text text-anchor="start" x="568" y="-550.4" font-family="Times Roman,serif" font-size="14.00">sign_in_count :integer</text>
<text text-anchor="start" x="568" y="-532.4" font-family="Times Roman,serif" font-size="14.00">current_sign_in_at :datetime</text>
<text text-anchor="start" x="568" y="-514.4" font-family="Times Roman,serif" font-size="14.00">last_sign_in_at :datetime</text>
<text text-anchor="start" x="568" y="-496.4" font-family="Times Roman,serif" font-size="14.00">current_sign_in_ip :string</text>
<text text-anchor="start" x="568" y="-478.4" font-family="Times Roman,serif" font-size="14.00">last_sign_in_ip :string</text>
<text text-anchor="start" x="568" y="-460.4" font-family="Times Roman,serif" font-size="14.00">created_at :datetime</text>
<text text-anchor="start" x="568" y="-442.4" font-family="Times Roman,serif" font-size="14.00">updated_at :datetime</text>
<text text-anchor="start" x="568" y="-424.4" font-family="Times Roman,serif" font-size="14.00">name :string</text>
<text text-anchor="start" x="568" y="-406.4" font-family="Times Roman,serif" font-size="14.00">customer_id :string</text>
<text text-anchor="start" x="568" y="-388.4" font-family="Times Roman,serif" font-size="14.00">last_4_digits :string</text>
<text text-anchor="start" x="568" y="-370.4" font-family="Times Roman,serif" font-size="14.00">ckey :string</text>
</g>
<!-- Project&#45;&gt;User -->
<g id="edge4" class="edge"><title>Project&#45;&gt;User</title>
<path fill="none" stroke="#0bcba7" d="M442.015,-770.417C478.067,-752.475 518.49,-729.16 551,-702 551.364,-701.696 551.727,-701.391 552.091,-701.085"/>
<polygon fill="#0bcba7" stroke="#0bcba7" points="441.93,-770.459 430.97,-770.822 437.44,-772.661 432.951,-774.862 432.951,-774.862 432.951,-774.862 437.44,-772.661 434.932,-778.903 441.93,-770.459 441.93,-770.459"/>
<polygon fill="#0bcba7" stroke="#0bcba7" points="552.121,-701.058 562.621,-697.898 555.896,-697.78 559.67,-694.501 559.67,-694.501 559.67,-694.501 555.896,-697.78 556.719,-691.103 552.121,-701.058 552.121,-701.058"/>
</g>
<!-- Role -->
<g id="node4" class="node"><title>Role</title>
<polyline fill="none" stroke="black" points="616.5,-739 757.5,-739 "/>
<path fill="none" stroke="black" d="M757.5,-739C763.5,-739 769.5,-745 769.5,-751"/>
<polyline fill="none" stroke="black" points="769.5,-751 769.5,-869 "/>
<path fill="none" stroke="black" d="M769.5,-869C769.5,-875 763.5,-881 757.5,-881"/>
<polyline fill="none" stroke="black" points="757.5,-881 616.5,-881 "/>
<path fill="none" stroke="black" d="M616.5,-881C610.5,-881 604.5,-875 604.5,-869"/>
<polyline fill="none" stroke="black" points="604.5,-869 604.5,-751 "/>
<path fill="none" stroke="black" d="M604.5,-751C604.5,-745 610.5,-739 616.5,-739"/>
<text text-anchor="middle" x="687" y="-864.4" font-family="Times Roman,serif" font-size="14.00">Role</text>
<polyline fill="none" stroke="black" points="604.5,-855 769.5,-855 "/>
<text text-anchor="start" x="612.5" y="-838.4" font-family="Times Roman,serif" font-size="14.00">id :integer</text>
<text text-anchor="start" x="612.5" y="-820.4" font-family="Times Roman,serif" font-size="14.00">name :string</text>
<text text-anchor="start" x="612.5" y="-802.4" font-family="Times Roman,serif" font-size="14.00">resource_id :integer</text>
<text text-anchor="start" x="612.5" y="-784.4" font-family="Times Roman,serif" font-size="14.00">resource_type :string</text>
<text text-anchor="start" x="612.5" y="-766.4" font-family="Times Roman,serif" font-size="14.00">created_at :datetime</text>
<text text-anchor="start" x="612.5" y="-748.4" font-family="Times Roman,serif" font-size="14.00">updated_at :datetime</text>
</g>
<!-- Role&#45;&gt;User -->
<g id="edge12" class="edge"><title>Role&#45;&gt;User</title>
<path fill="none" stroke="#0e6541" d="M687,-728.665C687,-722.992 687,-717.163 687,-711.226"/>
<polygon fill="#0e6541" stroke="#0e6541" points="687,-728.875 682.5,-738.875 687,-733.875 687,-738.875 687,-738.875 687,-738.875 687,-733.875 691.5,-738.875 687,-728.875 687,-728.875"/>
<polygon fill="#0e6541" stroke="#0e6541" points="687,-711.141 691.5,-701.141 687,-706.141 687,-701.141 687,-701.141 687,-701.141 687,-706.141 682.5,-701.141 687,-711.141 687,-711.141"/>
</g>
<!-- Ability -->
<g id="node5" class="node"><title>Ability</title>
<polygon fill="none" stroke="black" points="787,-784 787,-836 847,-836 847,-784 787,-784"/>
<text text-anchor="middle" x="817" y="-819.4" font-family="Times Roman,serif" font-size="14.00">Ability</text>
<polyline fill="none" stroke="black" points="787,-810 847,-810 "/>
<text text-anchor="middle" x="817" y="-793.4" font-family="Times Roman,serif" font-size="14.00"> </text>
</g>
<!-- Note&#45;&gt;Coordinate -->
<g id="edge14" class="edge"><title>Note&#45;&gt;Coordinate</title>
<path fill="none" stroke="#2628d4" d="M156.888,-155.003C158.969,-148.193 161.055,-141.367 163.097,-134.682"/>
<ellipse fill="none" stroke="#2628d4" cx="155.693" cy="-158.913" rx="4.00001" ry="4.00001"/>
<polygon fill="#2628d4" stroke="#2628d4" points="163.131,-134.571 170.357,-126.322 164.592,-129.789 166.053,-125.007 166.053,-125.007 166.053,-125.007 164.592,-129.789 161.75,-123.692 163.131,-134.571 163.131,-134.571"/>
</g>
<!-- Blueprint&#45;&gt;Coordinate -->
<g id="edge16" class="edge"><title>Blueprint&#45;&gt;Coordinate</title>
<path fill="none" stroke="#4fafe4" d="M242.663,-451.757C243.614,-376.452 240.961,-260.416 221,-162 219.185,-153.049 216.708,-143.824 213.896,-134.771"/>
<ellipse fill="none" stroke="#4fafe4" cx="242.604" cy="-455.824" rx="4" ry="4"/>
<polygon fill="#4fafe4" stroke="#4fafe4" points="213.823,-134.546 215.009,-123.644 212.276,-129.791 210.73,-125.036 210.73,-125.036 210.73,-125.036 212.276,-129.791 206.45,-126.428 213.823,-134.546 213.823,-134.546"/>
</g>
<!-- Blueprint&#45;&gt;Note -->
<g id="edge18" class="edge"><title>Blueprint&#45;&gt;Note</title>
<path fill="none" stroke="#0e8df6" d="M209.216,-450.402C195.203,-413.714 178.57,-370.166 164.172,-332.468"/>
<polygon fill="#0e8df6" stroke="#0e8df6" points="209.241,-450.467 208.605,-461.415 211.025,-455.138 212.809,-459.809 212.809,-459.809 212.809,-459.809 211.025,-455.138 217.013,-458.203 209.241,-450.467 209.241,-450.467"/>
<polygon fill="#0e8df6" stroke="#0e8df6" points="164.13,-332.36 164.766,-321.412 162.346,-327.689 160.562,-323.018 160.562,-323.018 160.562,-323.018 162.346,-327.689 156.359,-324.623 164.13,-332.36 164.13,-332.36"/>
</g>
<!-- User&#45;&gt;Participant -->
<g id="edge20" class="edge"><title>User&#45;&gt;Participant</title>
<path fill="none" stroke="#08776b" d="M583.149,-354.023C574.95,-340.051 567.008,-326.516 559.654,-313.984"/>
<ellipse fill="none" stroke="#08776b" cx="585.202" cy="-357.522" rx="4.00002" ry="4.00002"/>
<polygon fill="#08776b" stroke="#08776b" points="559.469,-313.669 558.289,-302.767 556.939,-309.357 554.408,-305.044 554.408,-305.044 554.408,-305.044 556.939,-309.357 550.527,-307.322 559.469,-313.669 559.469,-313.669"/>
</g>
</g>
</svg>
