<?xml version="1.0" encoding="UTF-8" standalone="no"?>
<!DOCTYPE svg PUBLIC "-//W3C//DTD SVG 1.1//EN"
 "http://www.w3.org/Graphics/SVG/1.1/DTD/svg11.dtd">
<!-- Generated by graphviz version 2.26.3 (20100126.1600)
 -->
<!-- Title: models_diagram Pages: 1 -->
<svg width="559pt" height="324pt"
 viewBox="0.00 0.00 559.00 324.00" xmlns="http://www.w3.org/2000/svg" xmlns:xlink="http://www.w3.org/1999/xlink">
<g id="graph1" class="graph" transform="scale(1 1) rotate(0) translate(4 320)">
<title>models_diagram</title>
<polygon fill="white" stroke="white" points="-4,5 -4,-320 556,-320 556,5 -4,5"/>
<!-- _diagram_info -->
<g id="node1" class="node"><title>_diagram_info</title>
<text text-anchor="start" x="8" y="-299.8" font-family="Times Roman,serif" font-size="13.00">Models diagram</text>
<text text-anchor="start" x="8" y="-282.8" font-family="Times Roman,serif" font-size="13.00">Date: Dec 28 2012 &#45; 16:48</text>
<text text-anchor="start" x="8" y="-265.8" font-family="Times Roman,serif" font-size="13.00">Migration version: 20121228204356</text>
<text text-anchor="start" x="8" y="-248.8" font-family="Times Roman,serif" font-size="13.00">Generated by RailRoady 1.1.0</text>
<text text-anchor="start" x="8" y="-231.8" font-family="Times Roman,serif" font-size="13.00">http://railroady.prestonlee.com</text>
</g>
<!-- Coordinate -->
<g id="node2" class="node"><title>Coordinate</title>
<ellipse fill="none" stroke="black" cx="126" cy="-19" rx="65.0538" ry="18.3848"/>
<text text-anchor="middle" x="126" y="-15.4" font-family="Times Roman,serif" font-size="14.00">Coordinate</text>
</g>
<!-- Project -->
<g id="node3" class="node"><title>Project</title>
<ellipse fill="none" stroke="black" cx="314" cy="-269" rx="45.9619" ry="18.3848"/>
<text text-anchor="middle" x="314" y="-265.4" font-family="Times Roman,serif" font-size="14.00">Project</text>
</g>
<!-- Note -->
<g id="node7" class="node"><title>Note</title>
<ellipse fill="none" stroke="black" cx="126" cy="-93" rx="34.8574" ry="18.3848"/>
<text text-anchor="middle" x="126" y="-89.4" font-family="Times Roman,serif" font-size="14.00">Note</text>
</g>
<!-- Project&#45;&gt;Note -->
<g id="edge8" class="edge"><title>Project&#45;&gt;Note</title>
<path fill="none" stroke="#7dc883" d="M291.77,-246.07C282.358,-237.466 270.839,-228.265 259,-222 205.251,-193.559 164.17,-234.126 127,-186 113.048,-167.936 114.199,-141.465 118.028,-121.379"/>
<ellipse fill="none" stroke="#7dc883" cx="294.723" cy="-248.856" rx="4.00002" ry="4.00002"/>
<polygon fill="#7dc883" stroke="#7dc883" points="118.046,-121.299 124.602,-112.509 119.127,-116.417 120.209,-111.536 120.209,-111.536 120.209,-111.536 119.127,-116.417 115.815,-110.562 118.046,-121.299 118.046,-121.299"/>
</g>
<!-- Blueprint -->
<g id="node8" class="node"><title>Blueprint</title>
<ellipse fill="none" stroke="black" cx="192" cy="-167" rx="56.0679" ry="18.3848"/>
<text text-anchor="middle" x="192" y="-163.4" font-family="Times Roman,serif" font-size="14.00">Blueprint</text>
</g>
<!-- Project&#45;&gt;Blueprint -->
<g id="edge6" class="edge"><title>Project&#45;&gt;Blueprint</title>
<path fill="none" stroke="#f7d29e" d="M288.33,-246.882C279.114,-238.99 268.623,-230.06 259,-222 246.627,-211.636 232.861,-200.303 221.042,-190.631"/>
<ellipse fill="none" stroke="#f7d29e" cx="291.443" cy="-249.552" rx="4.00002" ry="4.00002"/>
<polygon fill="#f7d29e" stroke="#f7d29e" points="220.955,-190.56 216.058,-180.749 217.083,-187.397 213.211,-184.233 213.211,-184.233 213.211,-184.233 217.083,-187.397 210.364,-187.718 220.955,-190.56 220.955,-190.56"/>
</g>
<!-- Participant -->
<g id="node9" class="node"><title>Participant</title>
<ellipse fill="none" stroke="black" cx="273" cy="-19" rx="63.8479" ry="18.3848"/>
<text text-anchor="middle" x="273" y="-15.4" font-family="Times Roman,serif" font-size="14.00">Participant</text>
</g>
<!-- Project&#45;&gt;Participant -->
<g id="edge2" class="edge"><title>Project&#45;&gt;Participant</title>
<path fill="none" stroke="#d94f3e" d="M309.617,-242.271C301.834,-194.818 285.673,-96.2759 277.682,-47.5492"/>
<ellipse fill="none" stroke="#d94f3e" cx="310.271" cy="-246.262" rx="4.00001" ry="4.00001"/>
<polygon fill="#d94f3e" stroke="#d94f3e" points="277.68,-47.5358 280.502,-36.9393 276.871,-42.6017 276.061,-37.6677 276.061,-37.6677 276.061,-37.6677 276.871,-42.6017 271.621,-38.396 277.68,-47.5358 277.68,-47.5358"/>
</g>
<!-- City -->
<g id="node10" class="node"><title>City</title>
<ellipse fill="none" stroke="black" cx="455" cy="-167" rx="31.1127" ry="18.3848"/>
<text text-anchor="middle" x="455" y="-163.4" font-family="Times Roman,serif" font-size="14.00">City</text>
</g>
<!-- Project&#45;&gt;City -->
<g id="edge12" class="edge"><title>Project&#45;&gt;City</title>
<path fill="none" stroke="#96905a" d="M331.821,-245.197C340.238,-237.521 350.352,-229.154 360,-222 379.731,-207.369 403.306,-192.459 422.207,-181.86"/>
<ellipse fill="none" stroke="#96905a" cx="328.666" cy="-248.162" rx="4.00002" ry="4.00002"/>
<ellipse fill="#96905a" stroke="#96905a" cx="425.96" cy="-179.802" rx="4.00002" ry="4.00002"/>
</g>
<!-- Seal -->
<g id="node11" class="node"><title>Seal</title>
<ellipse fill="none" stroke="black" cx="519" cy="-19" rx="32.0265" ry="18.3848"/>
<text text-anchor="middle" x="519" y="-15.4" font-family="Times Roman,serif" font-size="14.00">Seal</text>
</g>
<!-- Project&#45;&gt;Seal -->
<g id="edge10" class="edge"><title>Project&#45;&gt;Seal</title>
<path fill="none" stroke="#fc44b4" d="M336.268,-246.142C345.686,-237.549 357.199,-228.336 369,-222 420.313,-194.451 456.701,-229.877 495,-186 529.148,-146.878 527.509,-81.8498 523.273,-45.5597"/>
<ellipse fill="none" stroke="#fc44b4" cx="333.314" cy="-248.923" rx="4.00002" ry="4.00002"/>
<ellipse fill="#fc44b4" stroke="#fc44b4" cx="522.734" cy="-41.381" rx="4.00001" ry="4.00001"/>
</g>
<!-- User -->
<g id="node12" class="node"><title>User</title>
<ellipse fill="none" stroke="black" cx="376" cy="-93" rx="33.9411" ry="18.3848"/>
<text text-anchor="middle" x="376" y="-89.4" font-family="Times Roman,serif" font-size="14.00">User</text>
</g>
<!-- Project&#45;&gt;User -->
<g id="edge4" class="edge"><title>Project&#45;&gt;User</title>
<path fill="none" stroke="#a08864" d="M314.479,-240.12C315.828,-214.868 320.105,-177.696 333,-148 337.805,-136.934 345.373,-126.16 352.83,-117.122"/>
<polygon fill="#a08864" stroke="#a08864" points="314.477,-240.164 309.567,-249.969 314.27,-245.16 314.063,-250.156 314.063,-250.156 314.063,-250.156 314.27,-245.16 318.56,-250.342 314.477,-240.164 314.477,-240.164"/>
<polygon fill="#a08864" stroke="#a08864" points="353.015,-116.909 362.965,-112.299 356.29,-113.13 359.565,-109.352 359.565,-109.352 359.565,-109.352 356.29,-113.13 356.164,-106.405 353.015,-116.909 353.015,-116.909"/>
</g>
<!-- Role -->
<g id="node4" class="node"><title>Role</title>
<ellipse fill="none" stroke="black" cx="374" cy="-167" rx="32.0265" ry="18.3848"/>
<text text-anchor="middle" x="374" y="-163.4" font-family="Times Roman,serif" font-size="14.00">Role</text>
</g>
<!-- Role&#45;&gt;User -->
<g id="edge14" class="edge"><title>Role&#45;&gt;User</title>
<path fill="none" stroke="#309535" d="M374.776,-138.282C374.923,-132.836 375.077,-127.138 375.225,-121.693"/>
<polygon fill="#309535" stroke="#309535" points="374.775,-138.33 370.006,-148.205 374.64,-143.329 374.505,-148.327 374.505,-148.327 374.505,-148.327 374.64,-143.329 379.003,-148.448 374.775,-138.33 374.775,-138.33"/>
<polygon fill="#309535" stroke="#309535" points="375.225,-121.664 379.994,-111.789 375.36,-116.666 375.495,-111.667 375.495,-111.667 375.495,-111.667 375.36,-116.666 370.997,-111.546 375.225,-121.664 375.225,-121.664"/>
</g>
<!-- Ability -->
<g id="node5" class="node"><title>Ability</title>
<polygon fill="none" stroke="black" points="438,-287 378,-287 378,-251 438,-251 438,-287"/>
<text text-anchor="middle" x="408" y="-265.4" font-family="Times Roman,serif" font-size="14.00">Ability</text>
</g>
<!-- Reviewer -->
<g id="node6" class="node"><title>Reviewer</title>
<ellipse fill="none" stroke="black" cx="412" cy="-19" rx="56.7776" ry="18.3848"/>
<text text-anchor="middle" x="412" y="-15.4" font-family="Times Roman,serif" font-size="14.00">Reviewer</text>
</g>
<!-- Note&#45;&gt;Coordinate -->
<g id="edge16" class="edge"><title>Note&#45;&gt;Coordinate</title>
<path fill="none" stroke="#2f4fc9" d="M126,-66.309C126,-60.3769 126,-54.0606 126,-48.0396"/>
<ellipse fill="none" stroke="#2f4fc9" cx="126" cy="-70.3267" rx="4" ry="4"/>
<polygon fill="#2f4fc9" stroke="#2f4fc9" points="126,-47.6674 130.5,-37.6673 126,-42.6674 126,-37.6674 126,-37.6674 126,-37.6674 126,-42.6674 121.5,-37.6674 126,-47.6674 126,-47.6674"/>
</g>
<!-- Blueprint&#45;&gt;Coordinate -->
<g id="edge18" class="edge"><title>Blueprint&#45;&gt;Coordinate</title>
<path fill="none" stroke="#1e668a" d="M188.882,-140.338C185.892,-121.149 180.258,-95.0466 170,-74 164.914,-63.5644 157.549,-53.3048 150.294,-44.5258"/>
<ellipse fill="none" stroke="#1e668a" cx="189.47" cy="-144.405" rx="4.00001" ry="4.00001"/>
<polygon fill="#1e668a" stroke="#1e668a" points="150.263,-44.4897 147.14,-33.9781 146.998,-40.7034 143.732,-36.9171 143.732,-36.9171 143.732,-36.9171 146.998,-40.7034 140.324,-39.8562 150.263,-44.4897 150.263,-44.4897"/>
</g>
<!-- Blueprint&#45;&gt;Note -->
<g id="edge20" class="edge"><title>Blueprint&#45;&gt;Note</title>
<path fill="none" stroke="#23bc18" d="M169.165,-141.397C162.298,-133.698 154.781,-125.27 147.972,-117.635"/>
<polygon fill="#23bc18" stroke="#23bc18" points="169.367,-141.624 172.665,-152.082 172.695,-145.355 176.023,-149.087 176.023,-149.087 176.023,-149.087 172.695,-145.355 179.382,-146.091 169.367,-141.624 169.367,-141.624"/>
<polygon fill="#23bc18" stroke="#23bc18" points="147.581,-117.197 144.283,-106.739 144.253,-113.465 140.925,-109.734 140.925,-109.734 140.925,-109.734 144.253,-113.465 137.567,-112.729 147.581,-117.197 147.581,-117.197"/>
</g>
<!-- City&#45;&gt;Project -->
<g id="edge28" class="edge"><title>City&#45;&gt;Project</title>
<path fill="none" stroke="#9bc506" d="M428.366,-187.75C413.231,-197.631 394.303,-209.911 378,-222 367.675,-229.657 356.815,-238.703 346.923,-246.804"/>
<polygon fill="#9bc506" stroke="#9bc506" points="428.427,-187.71 439.258,-185.993 432.609,-184.97 436.791,-182.229 436.791,-182.229 436.791,-182.229 432.609,-184.97 434.325,-178.466 428.427,-187.71 428.427,-187.71"/>
<polygon fill="#9bc506" stroke="#9bc506" points="346.639,-247.034 336.039,-249.842 342.757,-250.185 338.874,-253.336 338.874,-253.336 338.874,-253.336 342.757,-250.185 341.71,-256.83 346.639,-247.034 346.639,-247.034"/>
</g>
<!-- City&#45;&gt;Reviewer -->
<g id="edge22" class="edge"><title>City&#45;&gt;Reviewer</title>
<path fill="none" stroke="#7eaaeb" d="M447.361,-140.707C439.733,-114.453 428.047,-74.2328 420.221,-47.2947"/>
<ellipse fill="none" stroke="#7eaaeb" cx="448.525" cy="-144.714" rx="4.00001" ry="4.00001"/>
<polygon fill="#7eaaeb" stroke="#7eaaeb" points="420.217,-47.2804 421.748,-36.422 418.822,-42.479 417.427,-37.6775 417.427,-37.6775 417.427,-37.6775 418.822,-42.479 413.105,-38.9331 420.217,-47.2804 420.217,-47.2804"/>
</g>
<!-- City&#45;&gt;Seal -->
<g id="edge26" class="edge"><title>City&#45;&gt;Seal</title>
<path fill="none" stroke="#f29cce" d="M466.087,-141.361C477.527,-114.905 495.312,-73.7777 507.057,-46.6175"/>
<ellipse fill="none" stroke="#f29cce" cx="464.435" cy="-145.181" rx="4.00002" ry="4.00002"/>
<polygon fill="#f29cce" stroke="#f29cce" points="507.119,-46.4747 515.219,-39.0823 509.104,-41.8854 511.088,-37.2961 511.088,-37.2961 511.088,-37.2961 509.104,-41.8854 506.958,-35.51 507.119,-46.4747 507.119,-46.4747"/>
</g>
<!-- City&#45;&gt;User -->
<g id="edge24" class="edge"><title>City&#45;&gt;User</title>
<path fill="none" stroke="#44cfbd" d="M430.676,-144.216C421.128,-135.272 410.185,-125.021 400.609,-116.052"/>
<polygon fill="#44cfbd" stroke="#44cfbd" points="430.948,-144.47 435.17,-154.591 434.597,-147.888 438.246,-151.307 438.246,-151.307 438.246,-151.307 434.597,-147.888 441.322,-148.022 430.948,-144.47 430.948,-144.47"/>
<polygon fill="#44cfbd" stroke="#44cfbd" points="400.574,-116.019 396.352,-105.898 396.925,-112.601 393.276,-109.182 393.276,-109.182 393.276,-109.182 396.925,-112.601 390.199,-112.467 400.574,-116.019 400.574,-116.019"/>
</g>
<!-- User&#45;&gt;Reviewer -->
<g id="edge32" class="edge"><title>User&#45;&gt;Reviewer</title>
<path fill="none" stroke="#72d4e8" d="M388.261,-67.7974C391.581,-60.9732 395.191,-53.551 398.572,-46.6024"/>
<ellipse fill="none" stroke="#72d4e8" cx="386.464" cy="-71.4897" rx="4.00002" ry="4.00002"/>
<polygon fill="#72d4e8" stroke="#72d4e8" points="398.615,-46.5135 407.036,-39.4898 400.802,-42.0173 402.99,-37.5212 402.99,-37.5212 402.99,-37.5212 400.802,-42.0173 398.943,-35.5525 398.615,-46.5135 398.615,-46.5135"/>
</g>
<!-- User&#45;&gt;Participant -->
<g id="edge30" class="edge"><title>User&#45;&gt;Participant</title>
<path fill="none" stroke="#bfc2aa" d="M348.556,-73.2829C335.278,-63.7437 319.25,-52.2279 305.378,-42.2619"/>
<ellipse fill="none" stroke="#bfc2aa" cx="351.908" cy="-75.6911" rx="4.00002" ry="4.00002"/>
<polygon fill="#bfc2aa" stroke="#bfc2aa" points="305.185,-42.1232 299.689,-32.6338 301.124,-39.2058 297.064,-36.2884 297.064,-36.2884 297.064,-36.2884 301.124,-39.2058 294.438,-39.943 305.185,-42.1232 305.185,-42.1232"/>
</g>
<!-- User&#45;&gt;Seal -->
<g id="edge34" class="edge"><title>User&#45;&gt;Seal</title>
<path fill="none" stroke="#234352" d="M410.073,-75.368C433.031,-63.4876 463.158,-47.8972 485.908,-36.1245"/>
<polygon fill="#234352" stroke="#234352" points="409.79,-75.5142 398.841,-76.1136 405.349,-77.8122 400.909,-80.1102 400.909,-80.1102 400.909,-80.1102 405.349,-77.8122 402.977,-84.1068 409.79,-75.5142 409.79,-75.5142"/>
<polygon fill="#234352" stroke="#234352" points="485.972,-36.0915 496.921,-35.4921 490.413,-33.7935 494.853,-31.4955 494.853,-31.4955 494.853,-31.4955 490.413,-33.7935 492.785,-27.4989 485.972,-36.0915 485.972,-36.0915"/>
</g>
</g>
</svg>
