<?xml version="1.0" encoding="UTF-8" standalone="no"?>
<!DOCTYPE svg PUBLIC "-//W3C//DTD SVG 1.1//EN"
 "http://www.w3.org/Graphics/SVG/1.1/DTD/svg11.dtd">
<!-- Generated by graphviz version 2.26.3 (20100126.1600)
 -->
<!-- Title: models_diagram Pages: 1 -->
<svg width="741pt" height="872pt"
 viewBox="0.00 0.00 741.00 872.00" xmlns="http://www.w3.org/2000/svg" xmlns:xlink="http://www.w3.org/1999/xlink">
<g id="graph1" class="graph" transform="scale(1 1) rotate(0) translate(4 868)">
<title>models_diagram</title>
<polygon fill="white" stroke="white" points="-4,5 -4,-868 738,-868 738,5 -4,5"/>
<!-- _diagram_info -->
<g id="node1" class="node"><title>_diagram_info</title>
<text text-anchor="start" x="8" y="-822.8" font-family="Times Roman,serif" font-size="13.00">Models diagram</text>
<text text-anchor="start" x="8" y="-805.8" font-family="Times Roman,serif" font-size="13.00">Date: Dec 28 2012 &#45; 11:54</text>
<text text-anchor="start" x="8" y="-788.8" font-family="Times Roman,serif" font-size="13.00">Migration version: 20121228164205</text>
<text text-anchor="start" x="8" y="-771.8" font-family="Times Roman,serif" font-size="13.00">Generated by RailRoady 1.1.0</text>
<text text-anchor="start" x="8" y="-754.8" font-family="Times Roman,serif" font-size="13.00">http://railroady.prestonlee.com</text>
</g>
<!-- Coordinate -->
<g id="node2" class="node"><title>Coordinate</title>
<polyline fill="none" stroke="black" points="182.5,-1 323.5,-1 "/>
<path fill="none" stroke="black" d="M323.5,-1C329.5,-1 335.5,-7 335.5,-13"/>
<polyline fill="none" stroke="black" points="335.5,-13 335.5,-113 "/>
<path fill="none" stroke="black" d="M335.5,-113C335.5,-119 329.5,-125 323.5,-125"/>
<polyline fill="none" stroke="black" points="323.5,-125 182.5,-125 "/>
<path fill="none" stroke="black" d="M182.5,-125C176.5,-125 170.5,-119 170.5,-113"/>
<polyline fill="none" stroke="black" points="170.5,-113 170.5,-13 "/>
<path fill="none" stroke="black" d="M170.5,-13C170.5,-7 176.5,-1 182.5,-1"/>
<text text-anchor="middle" x="253" y="-108.4" font-family="Times Roman,serif" font-size="14.00">Coordinate</text>
<polyline fill="none" stroke="black" points="170.5,-99 335.5,-99 "/>
<text text-anchor="start" x="178.5" y="-82.4" font-family="Times Roman,serif" font-size="14.00">id :integer</text>
<text text-anchor="start" x="178.5" y="-64.4" font-family="Times Roman,serif" font-size="14.00">note_id :integer</text>
<text text-anchor="start" x="178.5" y="-46.4" font-family="Times Roman,serif" font-size="14.00">blueprint_id :integer</text>
<text text-anchor="start" x="178.5" y="-28.4" font-family="Times Roman,serif" font-size="14.00">created_at :datetime</text>
<text text-anchor="start" x="178.5" y="-10.4" font-family="Times Roman,serif" font-size="14.00">updated_at :datetime</text>
</g>
<!-- Project -->
<g id="node3" class="node"><title>Project</title>
<polyline fill="none" stroke="black" points="279.5,-739 420.5,-739 "/>
<path fill="none" stroke="black" d="M420.5,-739C426.5,-739 432.5,-745 432.5,-751"/>
<polyline fill="none" stroke="black" points="432.5,-751 432.5,-833 "/>
<path fill="none" stroke="black" d="M432.5,-833C432.5,-839 426.5,-845 420.5,-845"/>
<polyline fill="none" stroke="black" points="420.5,-845 279.5,-845 "/>
<path fill="none" stroke="black" d="M279.5,-845C273.5,-845 267.5,-839 267.5,-833"/>
<polyline fill="none" stroke="black" points="267.5,-833 267.5,-751 "/>
<path fill="none" stroke="black" d="M267.5,-751C267.5,-745 273.5,-739 279.5,-739"/>
<text text-anchor="middle" x="350" y="-828.4" font-family="Times Roman,serif" font-size="14.00">Project</text>
<polyline fill="none" stroke="black" points="267.5,-819 432.5,-819 "/>
<text text-anchor="start" x="275.5" y="-802.4" font-family="Times Roman,serif" font-size="14.00">id :integer</text>
<text text-anchor="start" x="275.5" y="-784.4" font-family="Times Roman,serif" font-size="14.00">name :string</text>
<text text-anchor="start" x="275.5" y="-766.4" font-family="Times Roman,serif" font-size="14.00">created_at :datetime</text>
<text text-anchor="start" x="275.5" y="-748.4" font-family="Times Roman,serif" font-size="14.00">updated_at :datetime</text>
</g>
<!-- Note -->
<g id="node6" class="node"><title>Note</title>
<polyline fill="none" stroke="black" points="127.5,-163 268.5,-163 "/>
<path fill="none" stroke="black" d="M268.5,-163C274.5,-163 280.5,-169 280.5,-175"/>
<polyline fill="none" stroke="black" points="280.5,-175 280.5,-311 "/>
<path fill="none" stroke="black" d="M280.5,-311C280.5,-317 274.5,-323 268.5,-323"/>
<polyline fill="none" stroke="black" points="268.5,-323 127.5,-323 "/>
<path fill="none" stroke="black" d="M127.5,-323C121.5,-323 115.5,-317 115.5,-311"/>
<polyline fill="none" stroke="black" points="115.5,-311 115.5,-175 "/>
<path fill="none" stroke="black" d="M115.5,-175C115.5,-169 121.5,-163 127.5,-163"/>
<text text-anchor="middle" x="198" y="-306.4" font-family="Times Roman,serif" font-size="14.00">Note</text>
<polyline fill="none" stroke="black" points="115.5,-297 280.5,-297 "/>
<text text-anchor="start" x="123.5" y="-280.4" font-family="Times Roman,serif" font-size="14.00">id :integer</text>
<text text-anchor="start" x="123.5" y="-262.4" font-family="Times Roman,serif" font-size="14.00">note :string</text>
<text text-anchor="start" x="123.5" y="-244.4" font-family="Times Roman,serif" font-size="14.00">created_at :datetime</text>
<text text-anchor="start" x="123.5" y="-226.4" font-family="Times Roman,serif" font-size="14.00">updated_at :datetime</text>
<text text-anchor="start" x="123.5" y="-208.4" font-family="Times Roman,serif" font-size="14.00">project_id :integer</text>
<text text-anchor="start" x="123.5" y="-190.4" font-family="Times Roman,serif" font-size="14.00">position :integer</text>
<text text-anchor="start" x="123.5" y="-172.4" font-family="Times Roman,serif" font-size="14.00">note_text :text</text>
</g>
<!-- Project&#45;&gt;Note -->
<g id="edge8" class="edge"><title>Project&#45;&gt;Note</title>
<path fill="none" stroke="#0a483c" d="M277.018,-733.744C246.593,-709.281 217.99,-685.969 217,-684 161.28,-573.187 168.422,-426.216 181.211,-333.103"/>
<ellipse fill="none" stroke="#0a483c" cx="280.41" cy="-736.469" rx="4.00002" ry="4.00002"/>
<polygon fill="#0a483c" stroke="#0a483c" points="181.219,-333.043 187.083,-323.777 181.924,-328.093 182.628,-323.143 182.628,-323.143 182.628,-323.143 181.924,-328.093 178.173,-322.509 181.219,-333.043 181.219,-333.043"/>
</g>
<!-- Blueprint -->
<g id="node7" class="node"><title>Blueprint</title>
<polyline fill="none" stroke="black" points="237.5,-451 378.5,-451 "/>
<path fill="none" stroke="black" d="M378.5,-451C384.5,-451 390.5,-457 390.5,-463"/>
<polyline fill="none" stroke="black" points="390.5,-463 390.5,-581 "/>
<path fill="none" stroke="black" d="M390.5,-581C390.5,-587 384.5,-593 378.5,-593"/>
<polyline fill="none" stroke="black" points="378.5,-593 237.5,-593 "/>
<path fill="none" stroke="black" d="M237.5,-593C231.5,-593 225.5,-587 225.5,-581"/>
<polyline fill="none" stroke="black" points="225.5,-581 225.5,-463 "/>
<path fill="none" stroke="black" d="M225.5,-463C225.5,-457 231.5,-451 237.5,-451"/>
<text text-anchor="middle" x="308" y="-576.4" font-family="Times Roman,serif" font-size="14.00">Blueprint</text>
<polyline fill="none" stroke="black" points="225.5,-567 390.5,-567 "/>
<text text-anchor="start" x="233.5" y="-550.4" font-family="Times Roman,serif" font-size="14.00">id :integer</text>
<text text-anchor="start" x="233.5" y="-532.4" font-family="Times Roman,serif" font-size="14.00">created_at :datetime</text>
<text text-anchor="start" x="233.5" y="-514.4" font-family="Times Roman,serif" font-size="14.00">updated_at :datetime</text>
<text text-anchor="start" x="233.5" y="-496.4" font-family="Times Roman,serif" font-size="14.00">project_id :integer</text>
<text text-anchor="start" x="233.5" y="-478.4" font-family="Times Roman,serif" font-size="14.00">bpu :string</text>
<text text-anchor="start" x="233.5" y="-460.4" font-family="Times Roman,serif" font-size="14.00">title :string</text>
</g>
<!-- Project&#45;&gt;Blueprint -->
<g id="edge6" class="edge"><title>Project&#45;&gt;Blueprint</title>
<path fill="none" stroke="#1f7fab" d="M340.507,-730.971C334.622,-693.141 326.993,-644.099 320.605,-603.033"/>
<ellipse fill="none" stroke="#1f7fab" cx="341.137" cy="-735.026" rx="4.00001" ry="4.00001"/>
<polygon fill="#1f7fab" stroke="#1f7fab" points="320.589,-602.93 323.499,-592.357 319.821,-597.989 319.052,-593.049 319.052,-593.049 319.052,-593.049 319.821,-597.989 314.605,-593.74 320.589,-602.93 320.589,-602.93"/>
</g>
<!-- Participant -->
<g id="node8" class="node"><title>Participant</title>
<polyline fill="none" stroke="black" points="424.5,-181 565.5,-181 "/>
<path fill="none" stroke="black" d="M565.5,-181C571.5,-181 577.5,-187 577.5,-193"/>
<polyline fill="none" stroke="black" points="577.5,-193 577.5,-293 "/>
<path fill="none" stroke="black" d="M577.5,-293C577.5,-299 571.5,-305 565.5,-305"/>
<polyline fill="none" stroke="black" points="565.5,-305 424.5,-305 "/>
<path fill="none" stroke="black" d="M424.5,-305C418.5,-305 412.5,-299 412.5,-293"/>
<polyline fill="none" stroke="black" points="412.5,-293 412.5,-193 "/>
<path fill="none" stroke="black" d="M412.5,-193C412.5,-187 418.5,-181 424.5,-181"/>
<text text-anchor="middle" x="495" y="-288.4" font-family="Times Roman,serif" font-size="14.00">Participant</text>
<polyline fill="none" stroke="black" points="412.5,-279 577.5,-279 "/>
<text text-anchor="start" x="420.5" y="-262.4" font-family="Times Roman,serif" font-size="14.00">id :integer</text>
<text text-anchor="start" x="420.5" y="-244.4" font-family="Times Roman,serif" font-size="14.00">project_id :integer</text>
<text text-anchor="start" x="420.5" y="-226.4" font-family="Times Roman,serif" font-size="14.00">user_id :integer</text>
<text text-anchor="start" x="420.5" y="-208.4" font-family="Times Roman,serif" font-size="14.00">created_at :datetime</text>
<text text-anchor="start" x="420.5" y="-190.4" font-family="Times Roman,serif" font-size="14.00">updated_at :datetime</text>
</g>
<!-- Project&#45;&gt;Participant -->
<g id="edge2" class="edge"><title>Project&#45;&gt;Participant</title>
<path fill="none" stroke="#e046ed" d="M381.395,-731.506C388.157,-716.335 394.59,-699.854 399,-684 437.86,-544.318 395.751,-498.995 437,-360 441.54,-344.701 447.969,-328.969 454.904,-314.2"/>
<ellipse fill="none" stroke="#e046ed" cx="379.714" cy="-735.2" rx="4.00002" ry="4.00002"/>
<polygon fill="#e046ed" stroke="#e046ed" points="454.929,-314.147 463.328,-307.096 457.102,-309.644 459.275,-305.141 459.275,-305.141 459.275,-305.141 457.102,-309.644 455.222,-303.185 454.929,-314.147 454.929,-314.147"/>
</g>
<!-- User -->
<g id="node9" class="node"><title>User</title>
<polyline fill="none" stroke="black" points="458,-361 688,-361 "/>
<path fill="none" stroke="black" d="M688,-361C694,-361 700,-367 700,-373"/>
<polyline fill="none" stroke="black" points="700,-373 700,-671 "/>
<path fill="none" stroke="black" d="M700,-671C700,-677 694,-683 688,-683"/>
<polyline fill="none" stroke="black" points="688,-683 458,-683 "/>
<path fill="none" stroke="black" d="M458,-683C452,-683 446,-677 446,-671"/>
<polyline fill="none" stroke="black" points="446,-671 446,-373 "/>
<path fill="none" stroke="black" d="M446,-373C446,-367 452,-361 458,-361"/>
<text text-anchor="middle" x="573" y="-666.4" font-family="Times Roman,serif" font-size="14.00">User</text>
<polyline fill="none" stroke="black" points="446,-657 700,-657 "/>
<text text-anchor="start" x="454" y="-640.4" font-family="Times Roman,serif" font-size="14.00">id :integer</text>
<text text-anchor="start" x="454" y="-622.4" font-family="Times Roman,serif" font-size="14.00">email :string</text>
<text text-anchor="start" x="454" y="-604.4" font-family="Times Roman,serif" font-size="14.00">encrypted_password :string</text>
<text text-anchor="start" x="454" y="-586.4" font-family="Times Roman,serif" font-size="14.00">reset_password_token :string</text>
<text text-anchor="start" x="454" y="-568.4" font-family="Times Roman,serif" font-size="14.00">reset_password_sent_at :datetime</text>
<text text-anchor="start" x="454" y="-550.4" font-family="Times Roman,serif" font-size="14.00">remember_created_at :datetime</text>
<text text-anchor="start" x="454" y="-532.4" font-family="Times Roman,serif" font-size="14.00">sign_in_count :integer</text>
<text text-anchor="start" x="454" y="-514.4" font-family="Times Roman,serif" font-size="14.00">current_sign_in_at :datetime</text>
<text text-anchor="start" x="454" y="-496.4" font-family="Times Roman,serif" font-size="14.00">last_sign_in_at :datetime</text>
<text text-anchor="start" x="454" y="-478.4" font-family="Times Roman,serif" font-size="14.00">current_sign_in_ip :string</text>
<text text-anchor="start" x="454" y="-460.4" font-family="Times Roman,serif" font-size="14.00">last_sign_in_ip :string</text>
<text text-anchor="start" x="454" y="-442.4" font-family="Times Roman,serif" font-size="14.00">created_at :datetime</text>
<text text-anchor="start" x="454" y="-424.4" font-family="Times Roman,serif" font-size="14.00">updated_at :datetime</text>
<text text-anchor="start" x="454" y="-406.4" font-family="Times Roman,serif" font-size="14.00">name :string</text>
<text text-anchor="start" x="454" y="-388.4" font-family="Times Roman,serif" font-size="14.00">customer_id :string</text>
<text text-anchor="start" x="454" y="-370.4" font-family="Times Roman,serif" font-size="14.00">last_4_digits :string</text>
</g>
<!-- Project&#45;&gt;User -->
<g id="edge4" class="edge"><title>Project&#45;&gt;User</title>
<path fill="none" stroke="#05a802" d="M400.424,-730.949C412.407,-716.44 425.752,-700.282 439.564,-683.559"/>
<polygon fill="#05a802" stroke="#05a802" points="400.16,-731.269 390.322,-736.113 396.976,-735.124 393.792,-738.979 393.792,-738.979 393.792,-738.979 396.976,-735.124 397.261,-741.844 400.16,-731.269 400.16,-731.269"/>
<polygon fill="#05a802" stroke="#05a802" points="439.572,-683.549 449.41,-678.705 442.756,-679.694 445.94,-675.839 445.94,-675.839 445.94,-675.839 442.756,-679.694 442.471,-672.974 439.572,-683.549 439.572,-683.549"/>
</g>
<!-- Role -->
<g id="node4" class="node"><title>Role</title>
<polyline fill="none" stroke="black" points="502.5,-721 643.5,-721 "/>
<path fill="none" stroke="black" d="M643.5,-721C649.5,-721 655.5,-727 655.5,-733"/>
<polyline fill="none" stroke="black" points="655.5,-733 655.5,-851 "/>
<path fill="none" stroke="black" d="M655.5,-851C655.5,-857 649.5,-863 643.5,-863"/>
<polyline fill="none" stroke="black" points="643.5,-863 502.5,-863 "/>
<path fill="none" stroke="black" d="M502.5,-863C496.5,-863 490.5,-857 490.5,-851"/>
<polyline fill="none" stroke="black" points="490.5,-851 490.5,-733 "/>
<path fill="none" stroke="black" d="M490.5,-733C490.5,-727 496.5,-721 502.5,-721"/>
<text text-anchor="middle" x="573" y="-846.4" font-family="Times Roman,serif" font-size="14.00">Role</text>
<polyline fill="none" stroke="black" points="490.5,-837 655.5,-837 "/>
<text text-anchor="start" x="498.5" y="-820.4" font-family="Times Roman,serif" font-size="14.00">id :integer</text>
<text text-anchor="start" x="498.5" y="-802.4" font-family="Times Roman,serif" font-size="14.00">name :string</text>
<text text-anchor="start" x="498.5" y="-784.4" font-family="Times Roman,serif" font-size="14.00">resource_id :integer</text>
<text text-anchor="start" x="498.5" y="-766.4" font-family="Times Roman,serif" font-size="14.00">resource_type :string</text>
<text text-anchor="start" x="498.5" y="-748.4" font-family="Times Roman,serif" font-size="14.00">created_at :datetime</text>
<text text-anchor="start" x="498.5" y="-730.4" font-family="Times Roman,serif" font-size="14.00">updated_at :datetime</text>
</g>
<!-- Role&#45;&gt;User -->
<g id="edge10" class="edge"><title>Role&#45;&gt;User</title>
<path fill="none" stroke="#5bfa19" d="M573,-710.498C573,-704.828 573,-699.008 573,-693.089"/>
<polygon fill="#5bfa19" stroke="#5bfa19" points="573,-710.708 568.5,-720.707 573,-715.708 573,-720.708 573,-720.708 573,-720.708 573,-715.708 577.5,-720.708 573,-710.708 573,-710.708"/>
<polygon fill="#5bfa19" stroke="#5bfa19" points="573,-693.041 577.5,-683.041 573,-688.041 573,-683.041 573,-683.041 573,-683.041 573,-688.041 568.5,-683.041 573,-693.041 573,-693.041"/>
</g>
<!-- Ability -->
<g id="node5" class="node"><title>Ability</title>
<polygon fill="none" stroke="black" points="673,-766 673,-818 733,-818 733,-766 673,-766"/>
<text text-anchor="middle" x="703" y="-801.4" font-family="Times Roman,serif" font-size="14.00">Ability</text>
<polyline fill="none" stroke="black" points="673,-792 733,-792 "/>
<text text-anchor="middle" x="703" y="-775.4" font-family="Times Roman,serif" font-size="14.00"> </text>
</g>
<!-- Note&#45;&gt;Coordinate -->
<g id="edge12" class="edge"><title>Note&#45;&gt;Coordinate</title>
<path fill="none" stroke="#915903" d="M224.888,-155.003C226.969,-148.193 229.055,-141.367 231.097,-134.682"/>
<ellipse fill="none" stroke="#915903" cx="223.693" cy="-158.913" rx="4.00001" ry="4.00001"/>
<polygon fill="#915903" stroke="#915903" points="231.131,-134.571 238.357,-126.322 232.592,-129.789 234.053,-125.007 234.053,-125.007 234.053,-125.007 232.592,-129.789 229.75,-123.692 231.131,-134.571 231.131,-134.571"/>
</g>
<!-- Blueprint&#45;&gt;Coordinate -->
<g id="edge14" class="edge"><title>Blueprint&#45;&gt;Coordinate</title>
<path fill="none" stroke="#9c4ad0" d="M310.494,-442.535C311.23,-369.019 308.347,-257.077 289,-162 287.179,-153.051 284.698,-143.825 281.885,-134.773"/>
<ellipse fill="none" stroke="#9c4ad0" cx="310.442" cy="-446.861" rx="4" ry="4"/>
<polygon fill="#9c4ad0" stroke="#9c4ad0" points="281.812,-134.548 282.996,-123.646 280.264,-129.793 278.717,-125.039 278.717,-125.039 278.717,-125.039 280.264,-129.793 274.438,-126.431 281.812,-134.548 281.812,-134.548"/>
</g>
<!-- Blueprint&#45;&gt;Note -->
<g id="edge16" class="edge"><title>Blueprint&#45;&gt;Note</title>
<path fill="none" stroke="#956392" d="M276.29,-441.572C262.881,-407.561 247.206,-367.805 233.42,-332.837"/>
<polygon fill="#956392" stroke="#956392" points="276.29,-441.572 275.771,-452.525 278.124,-446.223 279.958,-450.875 279.958,-450.875 279.958,-450.875 278.124,-446.223 284.144,-449.224 276.29,-441.572 276.29,-441.572"/>
<polygon fill="#956392" stroke="#956392" points="233.253,-332.413 233.771,-321.459 231.419,-327.762 229.585,-323.11 229.585,-323.11 229.585,-323.11 231.419,-327.762 225.398,-324.761 233.253,-332.413 233.253,-332.413"/>
</g>
<!-- User&#45;&gt;Participant -->
<g id="edge18" class="edge"><title>User&#45;&gt;Participant</title>
<path fill="none" stroke="#f454bb" d="M525.782,-353.105C522.087,-339.888 518.495,-327.04 515.147,-315.065"/>
<ellipse fill="none" stroke="#f454bb" cx="526.889" cy="-357.064" rx="4.00001" ry="4.00001"/>
<polygon fill="#f454bb" stroke="#f454bb" points="515.088,-314.852 516.729,-304.01 513.742,-310.037 512.395,-305.222 512.395,-305.222 512.395,-305.222 513.742,-310.037 508.062,-306.433 515.088,-314.852 515.088,-314.852"/>
</g>
</g>
</svg>
