<?xml version="1.0" encoding="UTF-8" standalone="no"?>
<!DOCTYPE svg PUBLIC "-//W3C//DTD SVG 1.1//EN"
 "http://www.w3.org/Graphics/SVG/1.1/DTD/svg11.dtd">
<!-- Generated by graphviz version 2.26.3 (20100126.1600)
 -->
<!-- Title: models_diagram Pages: 1 -->
<svg width="618pt" height="324pt"
 viewBox="0.00 0.00 618.00 324.00" xmlns="http://www.w3.org/2000/svg" xmlns:xlink="http://www.w3.org/1999/xlink">
<g id="graph1" class="graph" transform="scale(1 1) rotate(0) translate(4 320)">
<title>models_diagram</title>
<polygon fill="white" stroke="white" points="-4,5 -4,-320 615,-320 615,5 -4,5"/>
<!-- _diagram_info -->
<g id="node1" class="node"><title>_diagram_info</title>
<text text-anchor="start" x="22" y="-299.8" font-family="Times Roman,serif" font-size="13.00">Models diagram</text>
<text text-anchor="start" x="22" y="-282.8" font-family="Times Roman,serif" font-size="13.00">Date: Jan 03 2013 &#45; 20:36</text>
<text text-anchor="start" x="22" y="-265.8" font-family="Times Roman,serif" font-size="13.00">Migration version: 20121229185224</text>
<text text-anchor="start" x="22" y="-248.8" font-family="Times Roman,serif" font-size="13.00">Generated by RailRoady 1.1.0</text>
<text text-anchor="start" x="22" y="-231.8" font-family="Times Roman,serif" font-size="13.00">http://railroady.prestonlee.com</text>
</g>
<!-- Coordinate -->
<g id="node2" class="node"><title>Coordinate</title>
<ellipse fill="none" stroke="black" cx="545" cy="-19" rx="65.0538" ry="18.3848"/>
<text text-anchor="middle" x="545" y="-15.4" font-family="Times Roman,serif" font-size="14.00">Coordinate</text>
</g>
<!-- Project -->
<g id="node3" class="node"><title>Project</title>
<ellipse fill="none" stroke="black" cx="328" cy="-269" rx="45.9619" ry="18.3848"/>
<text text-anchor="middle" x="328" y="-265.4" font-family="Times Roman,serif" font-size="14.00">Project</text>
</g>
<!-- Note -->
<g id="node8" class="node"><title>Note</title>
<ellipse fill="none" stroke="black" cx="545" cy="-93" rx="34.8574" ry="18.3848"/>
<text text-anchor="middle" x="545" y="-89.4" font-family="Times Roman,serif" font-size="14.00">Note</text>
</g>
<!-- Project&#45;&gt;Note -->
<g id="edge8" class="edge"><title>Project&#45;&gt;Note</title>
<path fill="none" stroke="#deb5a4" d="M350.119,-245.856C359.515,-237.222 371.053,-228.055 383,-222 445.31,-190.418 490.038,-238.607 536,-186 551.178,-168.628 552.27,-141.858 550.242,-121.491"/>
<ellipse fill="none" stroke="#deb5a4" cx="347.17" cy="-248.659" rx="4.00002" ry="4.00002"/>
<polygon fill="#deb5a4" stroke="#deb5a4" points="550.234,-121.427 553.419,-110.933 549.595,-116.468 548.956,-111.509 548.956,-111.509 548.956,-111.509 549.595,-116.468 544.493,-112.084 550.234,-121.427 550.234,-121.427"/>
</g>
<!-- Blueprint -->
<g id="node9" class="node"><title>Blueprint</title>
<ellipse fill="none" stroke="black" cx="471" cy="-167" rx="56.0679" ry="18.3848"/>
<text text-anchor="middle" x="471" y="-163.4" font-family="Times Roman,serif" font-size="14.00">Blueprint</text>
</g>
<!-- Project&#45;&gt;Blueprint -->
<g id="edge6" class="edge"><title>Project&#45;&gt;Blueprint</title>
<path fill="none" stroke="#c37db3" d="M352.891,-246.367C362.105,-238.357 372.796,-229.484 383,-222 399.302,-210.042 418.222,-197.999 434.331,-188.244"/>
<ellipse fill="none" stroke="#c37db3" cx="349.776" cy="-249.105" rx="4.00002" ry="4.00002"/>
<polygon fill="#c37db3" stroke="#c37db3" points="434.38,-188.215 445.271,-186.934 438.669,-185.645 442.958,-183.074 442.958,-183.074 442.958,-183.074 438.669,-185.645 440.645,-179.214 434.38,-188.215 434.38,-188.215"/>
</g>
<!-- Participant -->
<g id="node10" class="node"><title>Participant</title>
<ellipse fill="none" stroke="black" cx="398" cy="-19" rx="63.8479" ry="18.3848"/>
<text text-anchor="middle" x="398" y="-15.4" font-family="Times Roman,serif" font-size="14.00">Participant</text>
</g>
<!-- Project&#45;&gt;Participant -->
<g id="edge2" class="edge"><title>Project&#45;&gt;Participant</title>
<path fill="none" stroke="#6a5d5a" d="M342.581,-243.394C351.14,-227.358 361.516,-206.007 368,-186 383.284,-138.842 391.437,-81.5179 395.231,-47.772"/>
<ellipse fill="none" stroke="#6a5d5a" cx="340.461" cy="-247.296" rx="4.00002" ry="4.00002"/>
<polygon fill="#6a5d5a" stroke="#6a5d5a" points="395.246,-47.6298 400.787,-38.1669 395.779,-42.6583 396.312,-37.6869 396.312,-37.6869 396.312,-37.6869 395.779,-42.6583 391.838,-37.2069 395.246,-47.6298 395.246,-47.6298"/>
</g>
<!-- City -->
<g id="node11" class="node"><title>City</title>
<ellipse fill="none" stroke="black" cx="328" cy="-167" rx="31.1127" ry="18.3848"/>
<text text-anchor="middle" x="328" y="-163.4" font-family="Times Roman,serif" font-size="14.00">City</text>
</g>
<!-- Project&#45;&gt;City -->
<g id="edge12" class="edge"><title>Project&#45;&gt;City</title>
<path fill="none" stroke="#9bce52" d="M321.961,-241.96C321.002,-226.983 321.013,-208.439 321.994,-193.542"/>
<ellipse fill="none" stroke="#9bce52" cx="322.313" cy="-246.305" rx="4" ry="4"/>
<ellipse fill="#9bce52" stroke="#9bce52" cx="322.352" cy="-189.233" rx="4" ry="4"/>
</g>
<!-- Seal -->
<g id="node12" class="node"><title>Seal</title>
<ellipse fill="none" stroke="black" cx="152" cy="-19" rx="32.0265" ry="18.3848"/>
<text text-anchor="middle" x="152" y="-15.4" font-family="Times Roman,serif" font-size="14.00">Seal</text>
</g>
<!-- Project&#45;&gt;Seal -->
<g id="edge10" class="edge"><title>Project&#45;&gt;Seal</title>
<path fill="none" stroke="#3ea34c" d="M306.484,-245.905C297.037,-237.101 285.302,-227.799 273,-222 189.325,-182.558 127.486,-256.843 68,-186 29.3322,-139.95 90.6374,-73.0798 127.459,-39.6487"/>
<ellipse fill="none" stroke="#3ea34c" cx="309.47" cy="-248.795" rx="4.00002" ry="4.00002"/>
<ellipse fill="#3ea34c" stroke="#3ea34c" cx="130.593" cy="-36.8545" rx="4.00002" ry="4.00002"/>
</g>
<!-- User -->
<g id="node14" class="node"><title>User</title>
<ellipse fill="none" stroke="black" cx="192" cy="-93" rx="33.9411" ry="18.3848"/>
<text text-anchor="middle" x="192" y="-89.4" font-family="Times Roman,serif" font-size="14.00">User</text>
</g>
<!-- Project&#45;&gt;User -->
<g id="edge4" class="edge"><title>Project&#45;&gt;User</title>
<path fill="none" stroke="#d6565a" d="M302.467,-245.201C293.483,-237.373 283.102,-228.912 273,-222 245.102,-202.91 225.464,-213.638 206,-186 192.911,-167.415 189.918,-141.54 189.911,-121.8"/>
<polygon fill="#d6565a" stroke="#d6565a" points="302.486,-245.219 306.97,-255.226 306.223,-248.541 309.96,-251.863 309.96,-251.863 309.96,-251.863 306.223,-248.541 312.95,-248.5 302.486,-245.219 302.486,-245.219"/>
<polygon fill="#d6565a" stroke="#d6565a" points="189.917,-121.547 194.668,-111.663 190.043,-116.548 190.169,-111.55 190.169,-111.55 190.169,-111.55 190.043,-116.548 185.67,-111.436 189.917,-121.547 189.917,-121.547"/>
</g>
<!-- Role -->
<g id="node4" class="node"><title>Role</title>
<ellipse fill="none" stroke="black" cx="247" cy="-167" rx="32.0265" ry="18.3848"/>
<text text-anchor="middle" x="247" y="-163.4" font-family="Times Roman,serif" font-size="14.00">Role</text>
</g>
<!-- Role&#45;&gt;User -->
<g id="edge14" class="edge"><title>Role&#45;&gt;User</title>
<path fill="none" stroke="#12684e" d="M228.102,-141.573C222.596,-134.165 216.578,-126.069 211.062,-118.647"/>
<polygon fill="#12684e" stroke="#12684e" points="228.278,-141.811 230.632,-152.521 231.261,-145.824 234.244,-149.837 234.244,-149.837 234.244,-149.837 231.261,-145.824 237.855,-147.153 228.278,-141.811 228.278,-141.811"/>
<polygon fill="#12684e" stroke="#12684e" points="210.843,-118.352 208.489,-107.642 207.86,-114.339 204.878,-110.326 204.878,-110.326 204.878,-110.326 207.86,-114.339 201.266,-113.011 210.843,-118.352 210.843,-118.352"/>
</g>
<!-- Group -->
<g id="node5" class="node"><title>Group</title>
<ellipse fill="none" stroke="black" cx="118" cy="-167" rx="41.2167" ry="18.3848"/>
<text text-anchor="middle" x="118" y="-163.4" font-family="Times Roman,serif" font-size="14.00">Group</text>
</g>
<!-- Member -->
<g id="node13" class="node"><title>Member</title>
<ellipse fill="none" stroke="black" cx="51" cy="-19" rx="50.9117" ry="18.3848"/>
<text text-anchor="middle" x="51" y="-15.4" font-family="Times Roman,serif" font-size="14.00">Member</text>
</g>
<!-- Group&#45;&gt;Member -->
<g id="edge16" class="edge"><title>Group&#45;&gt;Member</title>
<path fill="none" stroke="#45df72" d="M106.393,-141.361C94.4166,-114.905 75.798,-73.7777 63.5025,-46.6175"/>
<ellipse fill="none" stroke="#45df72" cx="108.135" cy="-145.208" rx="4.00002" ry="4.00002"/>
<polygon fill="#45df72" stroke="#45df72" points="63.4069,-46.4061 63.3822,-35.4403 61.3448,-41.8511 59.2827,-37.2961 59.2827,-37.2961 59.2827,-37.2961 61.3448,-41.8511 55.1832,-39.152 63.4069,-46.4061 63.4069,-46.4061"/>
</g>
<!-- Group&#45;&gt;User -->
<g id="edge18" class="edge"><title>Group&#45;&gt;User</title>
<path fill="none" stroke="#526f28" d="M142.408,-142.592C150.776,-134.224 160.119,-124.881 168.419,-116.581"/>
<polygon fill="#526f28" stroke="#526f28" points="142.234,-142.766 131.981,-146.655 138.699,-146.301 135.163,-149.837 135.163,-149.837 135.163,-149.837 138.699,-146.301 138.345,-153.019 142.234,-142.766 142.234,-142.766"/>
<polygon fill="#526f28" stroke="#526f28" points="168.621,-116.379 178.874,-112.49 172.156,-112.844 175.692,-109.308 175.692,-109.308 175.692,-109.308 172.156,-112.844 172.51,-106.126 168.621,-116.379 168.621,-116.379"/>
</g>
<!-- Ability -->
<g id="node6" class="node"><title>Ability</title>
<polygon fill="none" stroke="black" points="452,-287 392,-287 392,-251 452,-251 452,-287"/>
<text text-anchor="middle" x="422" y="-265.4" font-family="Times Roman,serif" font-size="14.00">Ability</text>
</g>
<!-- Reviewer -->
<g id="node7" class="node"><title>Reviewer</title>
<ellipse fill="none" stroke="black" cx="259" cy="-19" rx="56.7776" ry="18.3848"/>
<text text-anchor="middle" x="259" y="-15.4" font-family="Times Roman,serif" font-size="14.00">Reviewer</text>
</g>
<!-- Note&#45;&gt;Coordinate -->
<g id="edge20" class="edge"><title>Note&#45;&gt;Coordinate</title>
<path fill="none" stroke="#c36c64" d="M545,-66.309C545,-60.3769 545,-54.0606 545,-48.0396"/>
<ellipse fill="none" stroke="#c36c64" cx="545" cy="-70.3267" rx="4" ry="4"/>
<polygon fill="#c36c64" stroke="#c36c64" points="545,-47.6674 549.5,-37.6673 545,-42.6674 545,-37.6674 545,-37.6674 545,-37.6674 545,-42.6674 540.5,-37.6674 545,-47.6674 545,-47.6674"/>
</g>
<!-- Blueprint&#45;&gt;Coordinate -->
<g id="edge22" class="edge"><title>Blueprint&#45;&gt;Coordinate</title>
<path fill="none" stroke="#734ffa" d="M476.852,-140.362C481.707,-121.184 489.661,-95.0853 501,-74 506.498,-63.7755 513.97,-53.5703 521.195,-44.7764"/>
<ellipse fill="none" stroke="#734ffa" cx="475.845" cy="-144.496" rx="4.00001" ry="4.00001"/>
<polygon fill="#734ffa" stroke="#734ffa" points="521.215,-44.7521 531.124,-40.0537 524.456,-40.9446 527.697,-37.137 527.697,-37.137 527.697,-37.137 524.456,-40.9446 524.27,-34.2203 521.215,-44.7521 521.215,-44.7521"/>
</g>
<!-- Blueprint&#45;&gt;Note -->
<g id="edge24" class="edge"><title>Blueprint&#45;&gt;Note</title>
<path fill="none" stroke="#f9a76e" d="M496.04,-141.96C504.244,-133.756 513.326,-124.674 521.417,-116.583"/>
<polygon fill="#f9a76e" stroke="#f9a76e" points="495.984,-142.016 485.731,-145.905 492.449,-145.551 488.913,-149.087 488.913,-149.087 488.913,-149.087 492.449,-145.551 492.095,-152.269 495.984,-142.016 495.984,-142.016"/>
<polygon fill="#f9a76e" stroke="#f9a76e" points="521.446,-116.554 531.699,-112.665 524.981,-113.019 528.517,-109.483 528.517,-109.483 528.517,-109.483 524.981,-113.019 525.335,-106.301 521.446,-116.554 521.446,-116.554"/>
</g>
<!-- City&#45;&gt;Project -->
<g id="edge32" class="edge"><title>City&#45;&gt;Project</title>
<path fill="none" stroke="#6038b0" d="M334.114,-195.25C334.947,-209.179 334.962,-225.956 334.158,-239.986"/>
<polygon fill="#6038b0" stroke="#6038b0" points="334.111,-195.215 337.803,-184.889 333.714,-190.231 333.317,-185.247 333.317,-185.247 333.317,-185.247 333.714,-190.231 328.831,-185.604 334.111,-195.215 334.111,-195.215"/>
<polygon fill="#6038b0" stroke="#6038b0" points="334.133,-240.321 328.877,-249.946 333.748,-245.306 333.364,-250.292 333.364,-250.292 333.364,-250.292 333.748,-245.306 337.851,-250.637 334.133,-240.321 334.133,-240.321"/>
</g>
<!-- City&#45;&gt;Reviewer -->
<g id="edge26" class="edge"><title>City&#45;&gt;Reviewer</title>
<path fill="none" stroke="#eec47a" d="M316.194,-141.678C303.885,-115.274 284.647,-74.0102 271.933,-46.7401"/>
<ellipse fill="none" stroke="#eec47a" cx="317.987" cy="-145.522" rx="4.00002" ry="4.00002"/>
<polygon fill="#eec47a" stroke="#eec47a" points="271.795,-46.4433 271.648,-35.4783 269.682,-41.9116 267.569,-37.3798 267.569,-37.3798 267.569,-37.3798 269.682,-41.9116 263.49,-39.2814 271.795,-46.4433 271.795,-46.4433"/>
</g>
<!-- City&#45;&gt;Seal -->
<g id="edge30" class="edge"><title>City&#45;&gt;Seal</title>
<path fill="none" stroke="#40bffe" d="M307.906,-144.493C289.8,-124.821 261.959,-96.0382 235,-74 218.89,-60.8301 199.578,-47.885 183.639,-37.8651"/>
<ellipse fill="none" stroke="#40bffe" cx="310.732" cy="-147.586" rx="4.00002" ry="4.00002"/>
<polygon fill="#40bffe" stroke="#40bffe" points="183.194,-37.5898 177.062,-28.4984 178.943,-34.9569 174.693,-32.324 174.693,-32.324 174.693,-32.324 178.943,-34.9569 172.323,-36.1496 183.194,-37.5898 183.194,-37.5898"/>
</g>
<!-- City&#45;&gt;User -->
<g id="edge28" class="edge"><title>City&#45;&gt;User</title>
<path fill="none" stroke="#4dfa99" d="M296.023,-149.601C274.618,-137.954 246.519,-122.665 224.921,-110.913"/>
<polygon fill="#4dfa99" stroke="#4dfa99" points="296.146,-149.667 302.779,-158.4 300.538,-152.057 304.929,-154.447 304.929,-154.447 304.929,-154.447 300.538,-152.057 307.08,-150.494 296.146,-149.667 296.146,-149.667"/>
<polygon fill="#4dfa99" stroke="#4dfa99" points="224.885,-110.893 218.252,-102.161 220.493,-108.504 216.101,-106.114 216.101,-106.114 216.101,-106.114 220.493,-108.504 213.95,-110.067 224.885,-110.893 224.885,-110.893"/>
</g>
<!-- User&#45;&gt;Reviewer -->
<g id="edge36" class="edge"><title>User&#45;&gt;Reviewer</title>
<path fill="none" stroke="#24b478" d="M212.705,-70.1316C220.078,-61.9885 228.424,-52.7708 235.979,-44.4264"/>
<ellipse fill="none" stroke="#24b478" cx="209.888" cy="-73.243" rx="4.00002" ry="4.00002"/>
<polygon fill="#24b478" stroke="#24b478" points="236.211,-44.1702 246.258,-39.7775 239.567,-40.4637 242.923,-36.7572 242.923,-36.7572 242.923,-36.7572 239.567,-40.4637 239.587,-33.7369 236.211,-44.1702 236.211,-44.1702"/>
</g>
<!-- User&#45;&gt;Participant -->
<g id="edge34" class="edge"><title>User&#45;&gt;Participant</title>
<path fill="none" stroke="#defb5c" d="M228.513,-79.8838C261.744,-67.9463 311.1,-50.2166 347.991,-36.9643"/>
<ellipse fill="none" stroke="#defb5c" cx="224.408" cy="-81.3583" rx="4.00001" ry="4.00001"/>
<polygon fill="#defb5c" stroke="#defb5c" points="348.151,-36.907 359.084,-37.7613 352.857,-35.2166 357.562,-33.5262 357.562,-33.5262 357.562,-33.5262 352.857,-35.2166 356.041,-29.2912 348.151,-36.907 348.151,-36.907"/>
</g>
<!-- User&#45;&gt;Seal -->
<g id="edge38" class="edge"><title>User&#45;&gt;Seal</title>
<path fill="none" stroke="#f9c074" d="M177.471,-66.1222C173.92,-59.5513 170.118,-52.5191 166.565,-45.945"/>
<polygon fill="#f9c074" stroke="#f9c074" points="177.562,-66.2896 178.358,-77.2265 179.94,-70.6881 182.317,-75.0867 182.317,-75.0867 182.317,-75.0867 179.94,-70.6881 186.276,-72.9468 177.562,-66.2896 177.562,-66.2896"/>
<polygon fill="#f9c074" stroke="#f9c074" points="166.349,-45.5454 165.552,-34.6085 163.971,-41.1469 161.594,-36.7484 161.594,-36.7484 161.594,-36.7484 163.971,-41.1469 157.635,-38.8882 166.349,-45.5454 166.349,-45.5454"/>
</g>
<!-- User&#45;&gt;Member -->
<g id="edge40" class="edge"><title>User&#45;&gt;Member</title>
<path fill="none" stroke="#95df33" d="M160.285,-76.3551C139.172,-65.2747 111.322,-50.6584 89.0209,-38.9542"/>
<ellipse fill="none" stroke="#95df33" cx="163.898" cy="-78.2513" rx="4.00002" ry="4.00002"/>
<polygon fill="#95df33" stroke="#95df33" points="89.0058,-38.9463 82.2424,-30.3146 84.5785,-36.6228 80.1511,-34.2992 80.1511,-34.2992 80.1511,-34.2992 84.5785,-36.6228 78.0599,-38.2838 89.0058,-38.9463 89.0058,-38.9463"/>
</g>
</g>
</svg>
