<?xml version="1.0" encoding="UTF-8" standalone="no"?>
<!DOCTYPE svg PUBLIC "-//W3C//DTD SVG 1.1//EN"
 "http://www.w3.org/Graphics/SVG/1.1/DTD/svg11.dtd">
<!-- Generated by graphviz version 2.26.3 (20100126.1600)
 -->
<!-- Title: models_diagram Pages: 1 -->
<svg width="722pt" height="512pt"
 viewBox="0.00 0.00 722.00 512.00" xmlns="http://www.w3.org/2000/svg" xmlns:xlink="http://www.w3.org/1999/xlink">
<g id="graph1" class="graph" transform="scale(1 1) rotate(0) translate(4 508)">
<title>models_diagram</title>
<polygon fill="white" stroke="white" points="-4,5 -4,-508 719,-508 719,5 -4,5"/>
<!-- _diagram_info -->
<g id="node1" class="node"><title>_diagram_info</title>
<text text-anchor="start" x="8" y="-462.8" font-family="Times Roman,serif" font-size="13.00">Models diagram</text>
<text text-anchor="start" x="8" y="-445.8" font-family="Times Roman,serif" font-size="13.00">Date: Dec 22 2012 &#45; 11:41</text>
<text text-anchor="start" x="8" y="-428.8" font-family="Times Roman,serif" font-size="13.00">Migration version: 20121222161208</text>
<text text-anchor="start" x="8" y="-411.8" font-family="Times Roman,serif" font-size="13.00">Generated by RailRoady 1.1.0</text>
<text text-anchor="start" x="8" y="-394.8" font-family="Times Roman,serif" font-size="13.00">http://railroady.prestonlee.com</text>
</g>
<!-- Project -->
<g id="node2" class="node"><title>Project</title>
<polyline fill="none" stroke="black" points="279.5,-379 420.5,-379 "/>
<path fill="none" stroke="black" d="M420.5,-379C426.5,-379 432.5,-385 432.5,-391"/>
<polyline fill="none" stroke="black" points="432.5,-391 432.5,-473 "/>
<path fill="none" stroke="black" d="M432.5,-473C432.5,-479 426.5,-485 420.5,-485"/>
<polyline fill="none" stroke="black" points="420.5,-485 279.5,-485 "/>
<path fill="none" stroke="black" d="M279.5,-485C273.5,-485 267.5,-479 267.5,-473"/>
<polyline fill="none" stroke="black" points="267.5,-473 267.5,-391 "/>
<path fill="none" stroke="black" d="M267.5,-391C267.5,-385 273.5,-379 279.5,-379"/>
<text text-anchor="middle" x="350" y="-468.4" font-family="Times Roman,serif" font-size="14.00">Project</text>
<polyline fill="none" stroke="black" points="267.5,-459 432.5,-459 "/>
<text text-anchor="start" x="275.5" y="-442.4" font-family="Times Roman,serif" font-size="14.00">id :integer</text>
<text text-anchor="start" x="275.5" y="-424.4" font-family="Times Roman,serif" font-size="14.00">name :string</text>
<text text-anchor="start" x="275.5" y="-406.4" font-family="Times Roman,serif" font-size="14.00">created_at :datetime</text>
<text text-anchor="start" x="275.5" y="-388.4" font-family="Times Roman,serif" font-size="14.00">updated_at :datetime</text>
</g>
<!-- Participant -->
<g id="node5" class="node"><title>Participant</title>
<polyline fill="none" stroke="black" points="256.5,-100 397.5,-100 "/>
<path fill="none" stroke="black" d="M397.5,-100C403.5,-100 409.5,-106 409.5,-112"/>
<polyline fill="none" stroke="black" points="409.5,-112 409.5,-212 "/>
<path fill="none" stroke="black" d="M409.5,-212C409.5,-218 403.5,-224 397.5,-224"/>
<polyline fill="none" stroke="black" points="397.5,-224 256.5,-224 "/>
<path fill="none" stroke="black" d="M256.5,-224C250.5,-224 244.5,-218 244.5,-212"/>
<polyline fill="none" stroke="black" points="244.5,-212 244.5,-112 "/>
<path fill="none" stroke="black" d="M244.5,-112C244.5,-106 250.5,-100 256.5,-100"/>
<text text-anchor="middle" x="327" y="-207.4" font-family="Times Roman,serif" font-size="14.00">Participant</text>
<polyline fill="none" stroke="black" points="244.5,-198 409.5,-198 "/>
<text text-anchor="start" x="252.5" y="-181.4" font-family="Times Roman,serif" font-size="14.00">id :integer</text>
<text text-anchor="start" x="252.5" y="-163.4" font-family="Times Roman,serif" font-size="14.00">project_id :integer</text>
<text text-anchor="start" x="252.5" y="-145.4" font-family="Times Roman,serif" font-size="14.00">user_id :integer</text>
<text text-anchor="start" x="252.5" y="-127.4" font-family="Times Roman,serif" font-size="14.00">created_at :datetime</text>
<text text-anchor="start" x="252.5" y="-109.4" font-family="Times Roman,serif" font-size="14.00">updated_at :datetime</text>
</g>
<!-- Project&#45;&gt;Participant -->
<g id="edge2" class="edge"><title>Project&#45;&gt;Participant</title>
<path fill="none" stroke="#7407c8" d="M344.803,-370.988C341.351,-330.47 336.804,-277.085 333.169,-234.413"/>
<ellipse fill="none" stroke="#7407c8" cx="345.144" cy="-374.993" rx="4" ry="4"/>
<polygon fill="#7407c8" stroke="#7407c8" points="333.162,-234.333 336.797,-223.987 332.737,-229.351 332.313,-224.369 332.313,-224.369 332.313,-224.369 332.737,-229.351 327.829,-224.751 333.162,-234.333 333.162,-234.333"/>
</g>
<!-- User -->
<g id="node6" class="node"><title>User</title>
<polyline fill="none" stroke="black" points="439,-1 669,-1 "/>
<path fill="none" stroke="black" d="M669,-1C675,-1 681,-7 681,-13"/>
<polyline fill="none" stroke="black" points="681,-13 681,-311 "/>
<path fill="none" stroke="black" d="M681,-311C681,-317 675,-323 669,-323"/>
<polyline fill="none" stroke="black" points="669,-323 439,-323 "/>
<path fill="none" stroke="black" d="M439,-323C433,-323 427,-317 427,-311"/>
<polyline fill="none" stroke="black" points="427,-311 427,-13 "/>
<path fill="none" stroke="black" d="M427,-13C427,-7 433,-1 439,-1"/>
<text text-anchor="middle" x="554" y="-306.4" font-family="Times Roman,serif" font-size="14.00">User</text>
<polyline fill="none" stroke="black" points="427,-297 681,-297 "/>
<text text-anchor="start" x="435" y="-280.4" font-family="Times Roman,serif" font-size="14.00">id :integer</text>
<text text-anchor="start" x="435" y="-262.4" font-family="Times Roman,serif" font-size="14.00">email :string</text>
<text text-anchor="start" x="435" y="-244.4" font-family="Times Roman,serif" font-size="14.00">encrypted_password :string</text>
<text text-anchor="start" x="435" y="-226.4" font-family="Times Roman,serif" font-size="14.00">reset_password_token :string</text>
<text text-anchor="start" x="435" y="-208.4" font-family="Times Roman,serif" font-size="14.00">reset_password_sent_at :datetime</text>
<text text-anchor="start" x="435" y="-190.4" font-family="Times Roman,serif" font-size="14.00">remember_created_at :datetime</text>
<text text-anchor="start" x="435" y="-172.4" font-family="Times Roman,serif" font-size="14.00">sign_in_count :integer</text>
<text text-anchor="start" x="435" y="-154.4" font-family="Times Roman,serif" font-size="14.00">current_sign_in_at :datetime</text>
<text text-anchor="start" x="435" y="-136.4" font-family="Times Roman,serif" font-size="14.00">last_sign_in_at :datetime</text>
<text text-anchor="start" x="435" y="-118.4" font-family="Times Roman,serif" font-size="14.00">current_sign_in_ip :string</text>
<text text-anchor="start" x="435" y="-100.4" font-family="Times Roman,serif" font-size="14.00">last_sign_in_ip :string</text>
<text text-anchor="start" x="435" y="-82.4" font-family="Times Roman,serif" font-size="14.00">created_at :datetime</text>
<text text-anchor="start" x="435" y="-64.4" font-family="Times Roman,serif" font-size="14.00">updated_at :datetime</text>
<text text-anchor="start" x="435" y="-46.4" font-family="Times Roman,serif" font-size="14.00">name :string</text>
<text text-anchor="start" x="435" y="-28.4" font-family="Times Roman,serif" font-size="14.00">customer_id :string</text>
<text text-anchor="start" x="435" y="-10.4" font-family="Times Roman,serif" font-size="14.00">last_4_digits :string</text>
</g>
<!-- Project&#45;&gt;User -->
<g id="edge4" class="edge"><title>Project&#45;&gt;User</title>
<path fill="none" stroke="#b94283" d="M396.384,-370.609C405.575,-358.444 415.634,-345.131 426.082,-331.304"/>
<polygon fill="#b94283" stroke="#b94283" points="396.089,-371 386.47,-376.266 393.075,-374.989 390.06,-378.979 390.06,-378.979 390.06,-378.979 393.075,-374.989 393.651,-381.692 396.089,-371 396.089,-371"/>
<polygon fill="#b94283" stroke="#b94283" points="426.246,-331.086 435.865,-325.821 429.26,-327.097 432.274,-323.108 432.274,-323.108 432.274,-323.108 429.26,-327.097 428.684,-320.395 426.246,-331.086 426.246,-331.086"/>
</g>
<!-- Role -->
<g id="node3" class="node"><title>Role</title>
<polyline fill="none" stroke="black" points="483.5,-361 624.5,-361 "/>
<path fill="none" stroke="black" d="M624.5,-361C630.5,-361 636.5,-367 636.5,-373"/>
<polyline fill="none" stroke="black" points="636.5,-373 636.5,-491 "/>
<path fill="none" stroke="black" d="M636.5,-491C636.5,-497 630.5,-503 624.5,-503"/>
<polyline fill="none" stroke="black" points="624.5,-503 483.5,-503 "/>
<path fill="none" stroke="black" d="M483.5,-503C477.5,-503 471.5,-497 471.5,-491"/>
<polyline fill="none" stroke="black" points="471.5,-491 471.5,-373 "/>
<path fill="none" stroke="black" d="M471.5,-373C471.5,-367 477.5,-361 483.5,-361"/>
<text text-anchor="middle" x="554" y="-486.4" font-family="Times Roman,serif" font-size="14.00">Role</text>
<polyline fill="none" stroke="black" points="471.5,-477 636.5,-477 "/>
<text text-anchor="start" x="479.5" y="-460.4" font-family="Times Roman,serif" font-size="14.00">id :integer</text>
<text text-anchor="start" x="479.5" y="-442.4" font-family="Times Roman,serif" font-size="14.00">name :string</text>
<text text-anchor="start" x="479.5" y="-424.4" font-family="Times Roman,serif" font-size="14.00">resource_id :integer</text>
<text text-anchor="start" x="479.5" y="-406.4" font-family="Times Roman,serif" font-size="14.00">resource_type :string</text>
<text text-anchor="start" x="479.5" y="-388.4" font-family="Times Roman,serif" font-size="14.00">created_at :datetime</text>
<text text-anchor="start" x="479.5" y="-370.4" font-family="Times Roman,serif" font-size="14.00">updated_at :datetime</text>
</g>
<!-- Role&#45;&gt;User -->
<g id="edge6" class="edge"><title>Role&#45;&gt;User</title>
<path fill="none" stroke="#f45554" d="M554,-350.498C554,-344.828 554,-339.008 554,-333.089"/>
<polygon fill="#f45554" stroke="#f45554" points="554,-350.708 549.5,-360.707 554,-355.708 554,-360.708 554,-360.708 554,-360.708 554,-355.708 558.5,-360.708 554,-350.708 554,-350.708"/>
<polygon fill="#f45554" stroke="#f45554" points="554,-333.041 558.5,-323.041 554,-328.041 554,-323.041 554,-323.041 554,-323.041 554,-328.041 549.5,-323.041 554,-333.041 554,-333.041"/>
</g>
<!-- Ability -->
<g id="node4" class="node"><title>Ability</title>
<polygon fill="none" stroke="black" points="654,-406 654,-458 714,-458 714,-406 654,-406"/>
<text text-anchor="middle" x="684" y="-441.4" font-family="Times Roman,serif" font-size="14.00">Ability</text>
<polyline fill="none" stroke="black" points="654,-432 714,-432 "/>
<text text-anchor="middle" x="684" y="-415.4" font-family="Times Roman,serif" font-size="14.00"> </text>
</g>
</g>
</svg>
