<?xml version="1.0" encoding="UTF-8" standalone="no"?>
<!DOCTYPE svg PUBLIC "-//W3C//DTD SVG 1.1//EN"
 "http://www.w3.org/Graphics/SVG/1.1/DTD/svg11.dtd">
<!-- Generated by graphviz version 2.26.3 (20100126.1600)
 -->
<!-- Title: models_diagram Pages: 1 -->
<svg width="1539pt" height="840pt"
 viewBox="0.00 0.00 1539.03 840.00" xmlns="http://www.w3.org/2000/svg" xmlns:xlink="http://www.w3.org/1999/xlink">
<g id="graph1" class="graph" transform="scale(1 1) rotate(0) translate(4 836)">
<title>models_diagram</title>
<polygon fill="white" stroke="white" points="-4,5 -4,-836 1536.03,-836 1536.03,5 -4,5"/>
<!-- _diagram_info -->
<g id="node1" class="node"><title>_diagram_info</title>
<text text-anchor="start" x="625.374" y="-808.8" font-family="Times Roman,serif" font-size="13.00">Models diagram</text>
<text text-anchor="start" x="625.374" y="-791.8" font-family="Times Roman,serif" font-size="13.00">Date: Jan 07 2013 &#45; 04:23</text>
<text text-anchor="start" x="625.374" y="-774.8" font-family="Times Roman,serif" font-size="13.00">Migration version: 20130104223013</text>
<text text-anchor="start" x="625.374" y="-757.8" font-family="Times Roman,serif" font-size="13.00">Generated by RailRoady 1.1.0</text>
<text text-anchor="start" x="625.374" y="-740.8" font-family="Times Roman,serif" font-size="13.00">http://railroady.prestonlee.com</text>
</g>
<!-- Coordinate -->
<g id="node2" class="node"><title>Coordinate</title>
<polyline fill="none" stroke="black" points="282.874,-1 423.874,-1 "/>
<path fill="none" stroke="black" d="M423.874,-1C429.874,-1 435.874,-7 435.874,-13"/>
<polyline fill="none" stroke="black" points="435.874,-13 435.874,-113 "/>
<path fill="none" stroke="black" d="M435.874,-113C435.874,-119 429.874,-125 423.874,-125"/>
<polyline fill="none" stroke="black" points="423.874,-125 282.874,-125 "/>
<path fill="none" stroke="black" d="M282.874,-125C276.874,-125 270.874,-119 270.874,-113"/>
<polyline fill="none" stroke="black" points="270.874,-113 270.874,-13 "/>
<path fill="none" stroke="black" d="M270.874,-13C270.874,-7 276.874,-1 282.874,-1"/>
<text text-anchor="middle" x="353.374" y="-108.4" font-family="Times Roman,serif" font-size="14.00">Coordinate</text>
<polyline fill="none" stroke="black" points="270.874,-99 435.874,-99 "/>
<text text-anchor="start" x="278.874" y="-82.4" font-family="Times Roman,serif" font-size="14.00">id :integer</text>
<text text-anchor="start" x="278.874" y="-64.4" font-family="Times Roman,serif" font-size="14.00">note_id :integer</text>
<text text-anchor="start" x="278.874" y="-46.4" font-family="Times Roman,serif" font-size="14.00">blueprint_id :integer</text>
<text text-anchor="start" x="278.874" y="-28.4" font-family="Times Roman,serif" font-size="14.00">created_at :datetime</text>
<text text-anchor="start" x="278.874" y="-10.4" font-family="Times Roman,serif" font-size="14.00">updated_at :datetime</text>
</g>
<!-- Project -->
<g id="node3" class="node"><title>Project</title>
<polyline fill="none" stroke="black" points="896.874,-725 1037.87,-725 "/>
<path fill="none" stroke="black" d="M1037.87,-725C1043.87,-725 1049.87,-731 1049.87,-737"/>
<polyline fill="none" stroke="black" points="1049.87,-737 1049.87,-819 "/>
<path fill="none" stroke="black" d="M1049.87,-819C1049.87,-825 1043.87,-831 1037.87,-831"/>
<polyline fill="none" stroke="black" points="1037.87,-831 896.874,-831 "/>
<path fill="none" stroke="black" d="M896.874,-831C890.874,-831 884.874,-825 884.874,-819"/>
<polyline fill="none" stroke="black" points="884.874,-819 884.874,-737 "/>
<path fill="none" stroke="black" d="M884.874,-737C884.874,-731 890.874,-725 896.874,-725"/>
<text text-anchor="middle" x="967.374" y="-814.4" font-family="Times Roman,serif" font-size="14.00">Project</text>
<polyline fill="none" stroke="black" points="884.874,-805 1049.87,-805 "/>
<text text-anchor="start" x="892.874" y="-788.4" font-family="Times Roman,serif" font-size="14.00">id :integer</text>
<text text-anchor="start" x="892.874" y="-770.4" font-family="Times Roman,serif" font-size="14.00">name :string</text>
<text text-anchor="start" x="892.874" y="-752.4" font-family="Times Roman,serif" font-size="14.00">created_at :datetime</text>
<text text-anchor="start" x="892.874" y="-734.4" font-family="Times Roman,serif" font-size="14.00">updated_at :datetime</text>
</g>
<!-- Task -->
<g id="node6" class="node"><title>Task</title>
<polyline fill="none" stroke="black" points="676.874,-543 817.874,-543 "/>
<path fill="none" stroke="black" d="M817.874,-543C823.874,-543 829.874,-549 829.874,-555"/>
<polyline fill="none" stroke="black" points="829.874,-555 829.874,-673 "/>
<path fill="none" stroke="black" d="M829.874,-673C829.874,-679 823.874,-685 817.874,-685"/>
<polyline fill="none" stroke="black" points="817.874,-685 676.874,-685 "/>
<path fill="none" stroke="black" d="M676.874,-685C670.874,-685 664.874,-679 664.874,-673"/>
<polyline fill="none" stroke="black" points="664.874,-673 664.874,-555 "/>
<path fill="none" stroke="black" d="M664.874,-555C664.874,-549 670.874,-543 676.874,-543"/>
<text text-anchor="middle" x="747.374" y="-668.4" font-family="Times Roman,serif" font-size="14.00">Task</text>
<polyline fill="none" stroke="black" points="664.874,-659 829.874,-659 "/>
<text text-anchor="start" x="672.874" y="-642.4" font-family="Times Roman,serif" font-size="14.00">id :integer</text>
<text text-anchor="start" x="672.874" y="-624.4" font-family="Times Roman,serif" font-size="14.00">name :string</text>
<text text-anchor="start" x="672.874" y="-606.4" font-family="Times Roman,serif" font-size="14.00">complete :boolean</text>
<text text-anchor="start" x="672.874" y="-588.4" font-family="Times Roman,serif" font-size="14.00">created_at :datetime</text>
<text text-anchor="start" x="672.874" y="-570.4" font-family="Times Roman,serif" font-size="14.00">updated_at :datetime</text>
<text text-anchor="start" x="672.874" y="-552.4" font-family="Times Roman,serif" font-size="14.00">project_id :integer</text>
</g>
<!-- Project&#45;&gt;Task -->
<g id="edge14" class="edge"><title>Project&#45;&gt;Task</title>
<path fill="none" stroke="#f3b48b" d="M877.649,-724.727C877.223,-724.484 876.798,-724.241 876.374,-724 861.854,-715.736 856.856,-715.866 843.374,-706 837.217,-701.495 831.05,-696.62 824.979,-691.545"/>
<ellipse fill="none" stroke="#f3b48b" cx="881.151" cy="-726.733" rx="4.00002" ry="4.00002"/>
<polygon fill="#f3b48b" stroke="#f3b48b" points="824.949,-691.52 820.27,-681.603 821.148,-688.272 817.347,-685.024 817.347,-685.024 817.347,-685.024 821.148,-688.272 814.423,-688.445 824.949,-691.52 824.949,-691.52"/>
</g>
<!-- Note -->
<g id="node9" class="node"><title>Note</title>
<polyline fill="none" stroke="black" points="313.874,-262 454.874,-262 "/>
<path fill="none" stroke="black" d="M454.874,-262C460.874,-262 466.874,-268 466.874,-274"/>
<polyline fill="none" stroke="black" points="466.874,-274 466.874,-410 "/>
<path fill="none" stroke="black" d="M466.874,-410C466.874,-416 460.874,-422 454.874,-422"/>
<polyline fill="none" stroke="black" points="454.874,-422 313.874,-422 "/>
<path fill="none" stroke="black" d="M313.874,-422C307.874,-422 301.874,-416 301.874,-410"/>
<polyline fill="none" stroke="black" points="301.874,-410 301.874,-274 "/>
<path fill="none" stroke="black" d="M301.874,-274C301.874,-268 307.874,-262 313.874,-262"/>
<text text-anchor="middle" x="384.374" y="-405.4" font-family="Times Roman,serif" font-size="14.00">Note</text>
<polyline fill="none" stroke="black" points="301.874,-396 466.874,-396 "/>
<text text-anchor="start" x="309.874" y="-379.4" font-family="Times Roman,serif" font-size="14.00">id :integer</text>
<text text-anchor="start" x="309.874" y="-361.4" font-family="Times Roman,serif" font-size="14.00">note :string</text>
<text text-anchor="start" x="309.874" y="-343.4" font-family="Times Roman,serif" font-size="14.00">created_at :datetime</text>
<text text-anchor="start" x="309.874" y="-325.4" font-family="Times Roman,serif" font-size="14.00">updated_at :datetime</text>
<text text-anchor="start" x="309.874" y="-307.4" font-family="Times Roman,serif" font-size="14.00">project_id :integer</text>
<text text-anchor="start" x="309.874" y="-289.4" font-family="Times Roman,serif" font-size="14.00">position :integer</text>
<text text-anchor="start" x="309.874" y="-271.4" font-family="Times Roman,serif" font-size="14.00">note_text :text</text>
</g>
<!-- Project&#45;&gt;Note -->
<g id="edge8" class="edge"><title>Project&#45;&gt;Note</title>
<path fill="none" stroke="#9bf343" d="M877.149,-724.288C876.891,-724.191 876.632,-724.095 876.374,-724 783.276,-689.668 744.654,-731.303 656.374,-686 549.517,-631.164 471.069,-513.284 426.594,-430.881"/>
<ellipse fill="none" stroke="#9bf343" cx="880.952" cy="-725.805" rx="4.00001" ry="4.00001"/>
<polygon fill="#9bf343" stroke="#9bf343" points="426.574,-430.843 425.839,-419.902 424.221,-426.431 421.868,-422.019 421.868,-422.019 421.868,-422.019 424.221,-426.431 417.897,-424.137 426.574,-430.843 426.574,-430.843"/>
</g>
<!-- Blueprint -->
<g id="node10" class="node"><title>Blueprint</title>
<polyline fill="none" stroke="black" points="313.874,-543 454.874,-543 "/>
<path fill="none" stroke="black" d="M454.874,-543C460.874,-543 466.874,-549 466.874,-555"/>
<polyline fill="none" stroke="black" points="466.874,-555 466.874,-673 "/>
<path fill="none" stroke="black" d="M466.874,-673C466.874,-679 460.874,-685 454.874,-685"/>
<polyline fill="none" stroke="black" points="454.874,-685 313.874,-685 "/>
<path fill="none" stroke="black" d="M313.874,-685C307.874,-685 301.874,-679 301.874,-673"/>
<polyline fill="none" stroke="black" points="301.874,-673 301.874,-555 "/>
<path fill="none" stroke="black" d="M301.874,-555C301.874,-549 307.874,-543 313.874,-543"/>
<text text-anchor="middle" x="384.374" y="-668.4" font-family="Times Roman,serif" font-size="14.00">Blueprint</text>
<polyline fill="none" stroke="black" points="301.874,-659 466.874,-659 "/>
<text text-anchor="start" x="309.874" y="-642.4" font-family="Times Roman,serif" font-size="14.00">id :integer</text>
<text text-anchor="start" x="309.874" y="-624.4" font-family="Times Roman,serif" font-size="14.00">created_at :datetime</text>
<text text-anchor="start" x="309.874" y="-606.4" font-family="Times Roman,serif" font-size="14.00">updated_at :datetime</text>
<text text-anchor="start" x="309.874" y="-588.4" font-family="Times Roman,serif" font-size="14.00">project_id :integer</text>
<text text-anchor="start" x="309.874" y="-570.4" font-family="Times Roman,serif" font-size="14.00">bpu :string</text>
<text text-anchor="start" x="309.874" y="-552.4" font-family="Times Roman,serif" font-size="14.00">title :string</text>
</g>
<!-- Project&#45;&gt;Blueprint -->
<g id="edge6" class="edge"><title>Project&#45;&gt;Blueprint</title>
<path fill="none" stroke="#ea8613" d="M877.163,-724.25C876.9,-724.165 876.636,-724.082 876.374,-724 768.79,-690.332 733.404,-730.517 623.374,-706 573.442,-694.874 520.116,-675.165 476.532,-656.836"/>
<ellipse fill="none" stroke="#ea8613" cx="881.017" cy="-725.599" rx="4.00001" ry="4.00001"/>
<polygon fill="#ea8613" stroke="#ea8613" points="476.304,-656.739 468.861,-648.686 471.702,-654.783 467.1,-652.827 467.1,-652.827 467.1,-652.827 471.702,-654.783 465.34,-656.969 476.304,-656.739 476.304,-656.739"/>
</g>
<!-- Participant -->
<g id="node11" class="node"><title>Participant</title>
<polyline fill="none" stroke="black" points="786.874,-1 927.874,-1 "/>
<path fill="none" stroke="black" d="M927.874,-1C933.874,-1 939.874,-7 939.874,-13"/>
<polyline fill="none" stroke="black" points="939.874,-13 939.874,-113 "/>
<path fill="none" stroke="black" d="M939.874,-113C939.874,-119 933.874,-125 927.874,-125"/>
<polyline fill="none" stroke="black" points="927.874,-125 786.874,-125 "/>
<path fill="none" stroke="black" d="M786.874,-125C780.874,-125 774.874,-119 774.874,-113"/>
<polyline fill="none" stroke="black" points="774.874,-113 774.874,-13 "/>
<path fill="none" stroke="black" d="M774.874,-13C774.874,-7 780.874,-1 786.874,-1"/>
<text text-anchor="middle" x="857.374" y="-108.4" font-family="Times Roman,serif" font-size="14.00">Participant</text>
<polyline fill="none" stroke="black" points="774.874,-99 939.874,-99 "/>
<text text-anchor="start" x="782.874" y="-82.4" font-family="Times Roman,serif" font-size="14.00">id :integer</text>
<text text-anchor="start" x="782.874" y="-64.4" font-family="Times Roman,serif" font-size="14.00">project_id :integer</text>
<text text-anchor="start" x="782.874" y="-46.4" font-family="Times Roman,serif" font-size="14.00">user_id :integer</text>
<text text-anchor="start" x="782.874" y="-28.4" font-family="Times Roman,serif" font-size="14.00">created_at :datetime</text>
<text text-anchor="start" x="782.874" y="-10.4" font-family="Times Roman,serif" font-size="14.00">updated_at :datetime</text>
</g>
<!-- Project&#45;&gt;Participant -->
<g id="edge2" class="edge"><title>Project&#45;&gt;Participant</title>
<path fill="none" stroke="#58ca6f" d="M896.93,-718.84C888.663,-708.751 881.397,-697.712 876.374,-686 834.757,-588.981 845.541,-277.944 853.025,-135.488"/>
<ellipse fill="none" stroke="#58ca6f" cx="899.596" cy="-721.957" rx="4.00002" ry="4.00002"/>
<polygon fill="#58ca6f" stroke="#58ca6f" points="853.045,-135.102 858.073,-125.356 853.312,-130.109 853.58,-125.116 853.58,-125.116 853.58,-125.116 853.312,-130.109 849.086,-124.876 853.045,-135.102 853.045,-135.102"/>
</g>
<!-- City -->
<g id="node12" class="node"><title>City</title>
<polyline fill="none" stroke="black" points="1298.87,-561 1439.87,-561 "/>
<path fill="none" stroke="black" d="M1439.87,-561C1445.87,-561 1451.87,-567 1451.87,-573"/>
<polyline fill="none" stroke="black" points="1451.87,-573 1451.87,-655 "/>
<path fill="none" stroke="black" d="M1451.87,-655C1451.87,-661 1445.87,-667 1439.87,-667"/>
<polyline fill="none" stroke="black" points="1439.87,-667 1298.87,-667 "/>
<path fill="none" stroke="black" d="M1298.87,-667C1292.87,-667 1286.87,-661 1286.87,-655"/>
<polyline fill="none" stroke="black" points="1286.87,-655 1286.87,-573 "/>
<path fill="none" stroke="black" d="M1286.87,-573C1286.87,-567 1292.87,-561 1298.87,-561"/>
<text text-anchor="middle" x="1369.37" y="-650.4" font-family="Times Roman,serif" font-size="14.00">City</text>
<polyline fill="none" stroke="black" points="1286.87,-641 1451.87,-641 "/>
<text text-anchor="start" x="1294.87" y="-624.4" font-family="Times Roman,serif" font-size="14.00">id :integer</text>
<text text-anchor="start" x="1294.87" y="-606.4" font-family="Times Roman,serif" font-size="14.00">created_at :datetime</text>
<text text-anchor="start" x="1294.87" y="-588.4" font-family="Times Roman,serif" font-size="14.00">updated_at :datetime</text>
<text text-anchor="start" x="1294.87" y="-570.4" font-family="Times Roman,serif" font-size="14.00">name :string</text>
</g>
<!-- Project&#45;&gt;City -->
<g id="edge12" class="edge"><title>Project&#45;&gt;City</title>
<path fill="none" stroke="#9449e3" d="M1054.5,-722.24C1144.5,-691.624 1181.26,-725.371 1269.37,-686 1278.07,-682.116 1286.65,-677.211 1294.93,-671.796"/>
<ellipse fill="none" stroke="#9449e3" cx="1050.56" cy="-723.64" rx="4.00001" ry="4.00001"/>
<ellipse fill="#9449e3" stroke="#9449e3" cx="1298.49" cy="-669.381" rx="4.00002" ry="4.00002"/>
</g>
<!-- Seal -->
<g id="node13" class="node"><title>Seal</title>
<polyline fill="none" stroke="black" points="1332.87,-1 1473.87,-1 "/>
<path fill="none" stroke="black" d="M1473.87,-1C1479.87,-1 1485.87,-7 1485.87,-13"/>
<polyline fill="none" stroke="black" points="1485.87,-13 1485.87,-113 "/>
<path fill="none" stroke="black" d="M1485.87,-113C1485.87,-119 1479.87,-125 1473.87,-125"/>
<polyline fill="none" stroke="black" points="1473.87,-125 1332.87,-125 "/>
<path fill="none" stroke="black" d="M1332.87,-125C1326.87,-125 1320.87,-119 1320.87,-113"/>
<polyline fill="none" stroke="black" points="1320.87,-113 1320.87,-13 "/>
<path fill="none" stroke="black" d="M1320.87,-13C1320.87,-7 1326.87,-1 1332.87,-1"/>
<text text-anchor="middle" x="1403.37" y="-108.4" font-family="Times Roman,serif" font-size="14.00">Seal</text>
<polyline fill="none" stroke="black" points="1320.87,-99 1485.87,-99 "/>
<text text-anchor="start" x="1328.87" y="-82.4" font-family="Times Roman,serif" font-size="14.00">id :integer</text>
<text text-anchor="start" x="1328.87" y="-64.4" font-family="Times Roman,serif" font-size="14.00">project_id :integer</text>
<text text-anchor="start" x="1328.87" y="-46.4" font-family="Times Roman,serif" font-size="14.00">city_id :integer</text>
<text text-anchor="start" x="1328.87" y="-28.4" font-family="Times Roman,serif" font-size="14.00">created_at :datetime</text>
<text text-anchor="start" x="1328.87" y="-10.4" font-family="Times Roman,serif" font-size="14.00">updated_at :datetime</text>
</g>
<!-- Project&#45;&gt;Seal -->
<g id="edge10" class="edge"><title>Project&#45;&gt;Seal</title>
<path fill="none" stroke="#c3a23c" d="M1057.59,-724.259C1057.85,-724.172 1058.11,-724.085 1058.37,-724 1143.69,-696.208 1399.98,-752.368 1460.37,-686 1600.31,-532.214 1499.08,-260.047 1439.12,-132.546"/>
<ellipse fill="none" stroke="#c3a23c" cx="1053.74" cy="-725.647" rx="4.00001" ry="4.00001"/>
<ellipse fill="#c3a23c" stroke="#c3a23c" cx="1437.31" cy="-128.715" rx="4.00002" ry="4.00002"/>
</g>
<!-- User -->
<g id="node15" class="node"><title>User</title>
<polyline fill="none" stroke="black" points="1044.37,-181 1274.37,-181 "/>
<path fill="none" stroke="black" d="M1274.37,-181C1280.37,-181 1286.37,-187 1286.37,-193"/>
<polyline fill="none" stroke="black" points="1286.37,-193 1286.37,-491 "/>
<path fill="none" stroke="black" d="M1286.37,-491C1286.37,-497 1280.37,-503 1274.37,-503"/>
<polyline fill="none" stroke="black" points="1274.37,-503 1044.37,-503 "/>
<path fill="none" stroke="black" d="M1044.37,-503C1038.37,-503 1032.37,-497 1032.37,-491"/>
<polyline fill="none" stroke="black" points="1032.37,-491 1032.37,-193 "/>
<path fill="none" stroke="black" d="M1032.37,-193C1032.37,-187 1038.37,-181 1044.37,-181"/>
<text text-anchor="middle" x="1159.37" y="-486.4" font-family="Times Roman,serif" font-size="14.00">User</text>
<polyline fill="none" stroke="black" points="1032.37,-477 1286.37,-477 "/>
<text text-anchor="start" x="1040.37" y="-460.4" font-family="Times Roman,serif" font-size="14.00">id :integer</text>
<text text-anchor="start" x="1040.37" y="-442.4" font-family="Times Roman,serif" font-size="14.00">email :string</text>
<text text-anchor="start" x="1040.37" y="-424.4" font-family="Times Roman,serif" font-size="14.00">encrypted_password :string</text>
<text text-anchor="start" x="1040.37" y="-406.4" font-family="Times Roman,serif" font-size="14.00">reset_password_token :string</text>
<text text-anchor="start" x="1040.37" y="-388.4" font-family="Times Roman,serif" font-size="14.00">reset_password_sent_at :datetime</text>
<text text-anchor="start" x="1040.37" y="-370.4" font-family="Times Roman,serif" font-size="14.00">remember_created_at :datetime</text>
<text text-anchor="start" x="1040.37" y="-352.4" font-family="Times Roman,serif" font-size="14.00">sign_in_count :integer</text>
<text text-anchor="start" x="1040.37" y="-334.4" font-family="Times Roman,serif" font-size="14.00">current_sign_in_at :datetime</text>
<text text-anchor="start" x="1040.37" y="-316.4" font-family="Times Roman,serif" font-size="14.00">last_sign_in_at :datetime</text>
<text text-anchor="start" x="1040.37" y="-298.4" font-family="Times Roman,serif" font-size="14.00">current_sign_in_ip :string</text>
<text text-anchor="start" x="1040.37" y="-280.4" font-family="Times Roman,serif" font-size="14.00">last_sign_in_ip :string</text>
<text text-anchor="start" x="1040.37" y="-262.4" font-family="Times Roman,serif" font-size="14.00">created_at :datetime</text>
<text text-anchor="start" x="1040.37" y="-244.4" font-family="Times Roman,serif" font-size="14.00">updated_at :datetime</text>
<text text-anchor="start" x="1040.37" y="-226.4" font-family="Times Roman,serif" font-size="14.00">name :string</text>
<text text-anchor="start" x="1040.37" y="-208.4" font-family="Times Roman,serif" font-size="14.00">customer_id :string</text>
<text text-anchor="start" x="1040.37" y="-190.4" font-family="Times Roman,serif" font-size="14.00">last_4_digits :string</text>
</g>
<!-- Project&#45;&gt;User -->
<g id="edge4" class="edge"><title>Project&#45;&gt;User</title>
<path fill="none" stroke="#85f8e3" d="M1035.96,-717.089C1044.37,-707.332 1052.17,-696.852 1058.37,-686 1091.2,-628.524 1077.98,-605.584 1096.37,-542 1099.12,-532.492 1102,-522.749 1104.95,-512.926"/>
<polygon fill="#85f8e3" stroke="#85f8e3" points="1035.77,-717.302 1025.74,-721.75 1032.43,-721.027 1029.1,-724.752 1029.1,-724.752 1029.1,-724.752 1032.43,-721.027 1032.45,-727.754 1035.77,-717.302 1035.77,-717.302"/>
<polygon fill="#85f8e3" stroke="#85f8e3" points="1105.03,-512.657 1112.22,-504.381 1106.47,-507.87 1107.91,-503.083 1107.91,-503.083 1107.91,-503.083 1106.47,-507.87 1103.6,-501.784 1105.03,-512.657 1105.03,-512.657"/>
</g>
<!-- Role -->
<g id="node4" class="node"><title>Role</title>
<polyline fill="none" stroke="black" points="1116.87,-543 1257.87,-543 "/>
<path fill="none" stroke="black" d="M1257.87,-543C1263.87,-543 1269.87,-549 1269.87,-555"/>
<polyline fill="none" stroke="black" points="1269.87,-555 1269.87,-673 "/>
<path fill="none" stroke="black" d="M1269.87,-673C1269.87,-679 1263.87,-685 1257.87,-685"/>
<polyline fill="none" stroke="black" points="1257.87,-685 1116.87,-685 "/>
<path fill="none" stroke="black" d="M1116.87,-685C1110.87,-685 1104.87,-679 1104.87,-673"/>
<polyline fill="none" stroke="black" points="1104.87,-673 1104.87,-555 "/>
<path fill="none" stroke="black" d="M1104.87,-555C1104.87,-549 1110.87,-543 1116.87,-543"/>
<text text-anchor="middle" x="1187.37" y="-668.4" font-family="Times Roman,serif" font-size="14.00">Role</text>
<polyline fill="none" stroke="black" points="1104.87,-659 1269.87,-659 "/>
<text text-anchor="start" x="1112.87" y="-642.4" font-family="Times Roman,serif" font-size="14.00">id :integer</text>
<text text-anchor="start" x="1112.87" y="-624.4" font-family="Times Roman,serif" font-size="14.00">name :string</text>
<text text-anchor="start" x="1112.87" y="-606.4" font-family="Times Roman,serif" font-size="14.00">resource_id :integer</text>
<text text-anchor="start" x="1112.87" y="-588.4" font-family="Times Roman,serif" font-size="14.00">resource_type :string</text>
<text text-anchor="start" x="1112.87" y="-570.4" font-family="Times Roman,serif" font-size="14.00">created_at :datetime</text>
<text text-anchor="start" x="1112.87" y="-552.4" font-family="Times Roman,serif" font-size="14.00">updated_at :datetime</text>
</g>
<!-- Role&#45;&gt;User -->
<g id="edge16" class="edge"><title>Role&#45;&gt;User</title>
<path fill="none" stroke="#0419f3" d="M1179.01,-532.727C1178.36,-526.472 1177.7,-520.031 1177.02,-513.472"/>
<polygon fill="#0419f3" stroke="#0419f3" points="1179.03,-532.943 1175.58,-543.351 1179.54,-537.917 1180.05,-542.89 1180.05,-542.89 1180.05,-542.89 1179.54,-537.917 1184.53,-542.43 1179.03,-532.943 1179.03,-532.943"/>
<polygon fill="#0419f3" stroke="#0419f3" points="1176.98,-513.024 1180.43,-502.616 1176.47,-508.05 1175.95,-503.076 1175.95,-503.076 1175.95,-503.076 1176.47,-508.05 1171.48,-503.537 1176.98,-513.024 1176.98,-513.024"/>
</g>
<!-- Group -->
<g id="node5" class="node"><title>Group</title>
<polyline fill="none" stroke="black" points="896.874,-561 1037.87,-561 "/>
<path fill="none" stroke="black" d="M1037.87,-561C1043.87,-561 1049.87,-567 1049.87,-573"/>
<polyline fill="none" stroke="black" points="1049.87,-573 1049.87,-655 "/>
<path fill="none" stroke="black" d="M1049.87,-655C1049.87,-661 1043.87,-667 1037.87,-667"/>
<polyline fill="none" stroke="black" points="1037.87,-667 896.874,-667 "/>
<path fill="none" stroke="black" d="M896.874,-667C890.874,-667 884.874,-661 884.874,-655"/>
<polyline fill="none" stroke="black" points="884.874,-655 884.874,-573 "/>
<path fill="none" stroke="black" d="M884.874,-573C884.874,-567 890.874,-561 896.874,-561"/>
<text text-anchor="middle" x="967.374" y="-650.4" font-family="Times Roman,serif" font-size="14.00">Group</text>
<polyline fill="none" stroke="black" points="884.874,-641 1049.87,-641 "/>
<text text-anchor="start" x="892.874" y="-624.4" font-family="Times Roman,serif" font-size="14.00">id :integer</text>
<text text-anchor="start" x="892.874" y="-606.4" font-family="Times Roman,serif" font-size="14.00">name :string</text>
<text text-anchor="start" x="892.874" y="-588.4" font-family="Times Roman,serif" font-size="14.00">created_at :datetime</text>
<text text-anchor="start" x="892.874" y="-570.4" font-family="Times Roman,serif" font-size="14.00">updated_at :datetime</text>
</g>
<!-- Member -->
<g id="node14" class="node"><title>Member</title>
<polyline fill="none" stroke="black" points="968.874,-1 1109.87,-1 "/>
<path fill="none" stroke="black" d="M1109.87,-1C1115.87,-1 1121.87,-7 1121.87,-13"/>
<polyline fill="none" stroke="black" points="1121.87,-13 1121.87,-113 "/>
<path fill="none" stroke="black" d="M1121.87,-113C1121.87,-119 1115.87,-125 1109.87,-125"/>
<polyline fill="none" stroke="black" points="1109.87,-125 968.874,-125 "/>
<path fill="none" stroke="black" d="M968.874,-125C962.874,-125 956.874,-119 956.874,-113"/>
<polyline fill="none" stroke="black" points="956.874,-113 956.874,-13 "/>
<path fill="none" stroke="black" d="M956.874,-13C956.874,-7 962.874,-1 968.874,-1"/>
<text text-anchor="middle" x="1039.37" y="-108.4" font-family="Times Roman,serif" font-size="14.00">Member</text>
<polyline fill="none" stroke="black" points="956.874,-99 1121.87,-99 "/>
<text text-anchor="start" x="964.874" y="-82.4" font-family="Times Roman,serif" font-size="14.00">id :integer</text>
<text text-anchor="start" x="964.874" y="-64.4" font-family="Times Roman,serif" font-size="14.00">group_id :integer</text>
<text text-anchor="start" x="964.874" y="-46.4" font-family="Times Roman,serif" font-size="14.00">user_id :integer</text>
<text text-anchor="start" x="964.874" y="-28.4" font-family="Times Roman,serif" font-size="14.00">created_at :datetime</text>
<text text-anchor="start" x="964.874" y="-10.4" font-family="Times Roman,serif" font-size="14.00">updated_at :datetime</text>
</g>
<!-- Group&#45;&gt;Member -->
<g id="edge18" class="edge"><title>Group&#45;&gt;Member</title>
<path fill="none" stroke="#3b6385" d="M975.133,-552.712C985.811,-468.639 1005.72,-312.829 1023.37,-180 1025.29,-165.552 1027.38,-150.105 1029.4,-135.328"/>
<ellipse fill="none" stroke="#3b6385" cx="974.601" cy="-556.901" rx="4.00001" ry="4.00001"/>
<polygon fill="#3b6385" stroke="#3b6385" points="1029.42,-135.134 1035.23,-125.835 1030.1,-130.18 1030.77,-125.226 1030.77,-125.226 1030.77,-125.226 1030.1,-130.18 1026.32,-124.617 1029.42,-135.134 1029.42,-135.134"/>
</g>
<!-- Group&#45;&gt;User -->
<g id="edge20" class="edge"><title>Group&#45;&gt;User</title>
<path fill="none" stroke="#198f48" d="M1010.64,-552.703C1019.56,-540.066 1029.36,-526.182 1039.55,-511.756"/>
<polygon fill="#198f48" stroke="#198f48" points="1010.62,-552.74 1001.17,-558.315 1007.73,-556.825 1004.85,-560.91 1004.85,-560.91 1004.85,-560.91 1007.73,-556.825 1008.53,-563.505 1010.62,-552.74 1010.62,-552.74"/>
<polygon fill="#198f48" stroke="#198f48" points="1039.81,-511.375 1049.26,-505.801 1042.7,-507.29 1045.58,-503.206 1045.58,-503.206 1045.58,-503.206 1042.7,-507.29 1041.9,-500.61 1039.81,-511.375 1039.81,-511.375"/>
</g>
<!-- Ability -->
<g id="node7" class="node"><title>Ability</title>
<polygon fill="none" stroke="black" points="1067.37,-752 1067.37,-804 1127.37,-804 1127.37,-752 1067.37,-752"/>
<text text-anchor="middle" x="1097.37" y="-787.4" font-family="Times Roman,serif" font-size="14.00">Ability</text>
<polyline fill="none" stroke="black" points="1067.37,-778 1127.37,-778 "/>
<text text-anchor="middle" x="1097.37" y="-761.4" font-family="Times Roman,serif" font-size="14.00"> </text>
</g>
<!-- Reviewer -->
<g id="node8" class="node"><title>Reviewer</title>
<polyline fill="none" stroke="black" points="1150.87,-1 1291.87,-1 "/>
<path fill="none" stroke="black" d="M1291.87,-1C1297.87,-1 1303.87,-7 1303.87,-13"/>
<polyline fill="none" stroke="black" points="1303.87,-13 1303.87,-113 "/>
<path fill="none" stroke="black" d="M1303.87,-113C1303.87,-119 1297.87,-125 1291.87,-125"/>
<polyline fill="none" stroke="black" points="1291.87,-125 1150.87,-125 "/>
<path fill="none" stroke="black" d="M1150.87,-125C1144.87,-125 1138.87,-119 1138.87,-113"/>
<polyline fill="none" stroke="black" points="1138.87,-113 1138.87,-13 "/>
<path fill="none" stroke="black" d="M1138.87,-13C1138.87,-7 1144.87,-1 1150.87,-1"/>
<text text-anchor="middle" x="1221.37" y="-108.4" font-family="Times Roman,serif" font-size="14.00">Reviewer</text>
<polyline fill="none" stroke="black" points="1138.87,-99 1303.87,-99 "/>
<text text-anchor="start" x="1146.87" y="-82.4" font-family="Times Roman,serif" font-size="14.00">id :integer</text>
<text text-anchor="start" x="1146.87" y="-64.4" font-family="Times Roman,serif" font-size="14.00">user_id :integer</text>
<text text-anchor="start" x="1146.87" y="-46.4" font-family="Times Roman,serif" font-size="14.00">city_id :integer</text>
<text text-anchor="start" x="1146.87" y="-28.4" font-family="Times Roman,serif" font-size="14.00">created_at :datetime</text>
<text text-anchor="start" x="1146.87" y="-10.4" font-family="Times Roman,serif" font-size="14.00">updated_at :datetime</text>
</g>
<!-- Note&#45;&gt;Coordinate -->
<g id="edge22" class="edge"><title>Note&#45;&gt;Coordinate</title>
<path fill="none" stroke="#0564af" d="M374.56,-253.682C370.312,-215.449 365.403,-171.261 361.38,-135.055"/>
<ellipse fill="none" stroke="#0564af" cx="375.007" cy="-257.7" rx="4.00001" ry="4.00001"/>
<polygon fill="#0564af" stroke="#0564af" points="361.374,-135.005 364.742,-124.57 360.822,-130.036 360.27,-125.067 360.27,-125.067 360.27,-125.067 360.822,-130.036 355.797,-125.564 361.374,-135.005 361.374,-135.005"/>
</g>
<!-- ActsAsTaggableOn::Tagging -->
<g id="node28" class="node"><title>ActsAsTaggableOn::Tagging</title>
<ellipse fill="none" stroke="black" cx="597.374" cy="-63" rx="144.25" ry="18.3848"/>
<text text-anchor="middle" x="597.374" y="-59.4" font-family="Times Roman,serif" font-size="14.00">ActsAsTaggableOn::Tagging</text>
</g>
<!-- Note&#45;&gt;ActsAsTaggableOn::Tagging -->
<g id="edge24" class="edge"><title>Note&#45;&gt;ActsAsTaggableOn::Tagging</title>
<path fill="none" stroke="#3827c6" d="M373.317,-253.665C373.219,-216.614 379.566,-175.027 402.374,-144 402.946,-143.222 487.358,-108.33 544.92,-84.5994"/>
<ellipse fill="none" stroke="#3827c6" cx="373.384" cy="-257.988" rx="4" ry="4"/>
<polygon fill="#3827c6" stroke="#3827c6" points="545.019,-84.5585 555.98,-84.9082 549.642,-82.6531 554.265,-80.7477 554.265,-80.7477 554.265,-80.7477 549.642,-82.6531 552.55,-76.5873 545.019,-84.5585 545.019,-84.5585"/>
<text text-anchor="middle" x="431.874" y="-149.4" font-family="Times Roman,serif" font-size="14.00">taggings</text>
</g>
<!-- Note&#45;&gt;ActsAsTaggableOn::Tagging -->
<g id="edge28" class="edge"><title>Note&#45;&gt;ActsAsTaggableOn::Tagging</title>
<path fill="none" stroke="#189543" d="M417.678,-254.274C434.222,-217.726 456.658,-176.357 484.374,-144 504.284,-120.755 532.194,-100.665 555.293,-86.307"/>
<ellipse fill="none" stroke="#189543" cx="415.865" cy="-258.341" rx="4.00002" ry="4.00002"/>
<polygon fill="#189543" stroke="#189543" points="555.337,-86.2807 566.22,-84.9368 559.611,-83.6855 563.884,-81.0904 563.884,-81.0904 563.884,-81.0904 559.611,-83.6855 561.549,-77.2439 555.337,-86.2807 555.337,-86.2807"/>
<text text-anchor="middle" x="528.874" y="-149.4" font-family="Times Roman,serif" font-size="14.00">tag_taggings</text>
</g>
<!-- ActsAsTaggableOn::Tag -->
<g id="node30" class="node"><title>ActsAsTaggableOn::Tag</title>
<ellipse fill="none" stroke="black" cx="130.374" cy="-63" rx="123.243" ry="18.3848"/>
<text text-anchor="middle" x="130.374" y="-59.4" font-family="Times Roman,serif" font-size="14.00">ActsAsTaggableOn::Tag</text>
</g>
<!-- Note&#45;&gt;ActsAsTaggableOn::Tag -->
<g id="edge26" class="edge"><title>Note&#45;&gt;ActsAsTaggableOn::Tag</title>
<path fill="none" stroke="#1a9808" d="M341.098,-252.575C320.608,-216.125 293.723,-175.292 262.374,-144 238.116,-119.787 205.288,-99.6042 178.439,-85.4411"/>
<polygon fill="#1a9808" stroke="#1a9808" points="341.327,-252.99 342.23,-263.918 343.747,-257.365 346.168,-261.74 346.168,-261.74 346.168,-261.74 343.747,-257.365 350.105,-259.561 341.327,-252.99 341.327,-252.99"/>
<polygon fill="#1a9808" stroke="#1a9808" points="178.104,-85.2683 171.278,-76.6861 173.66,-82.977 169.216,-80.6858 169.216,-80.6858 169.216,-80.6858 173.66,-82.977 167.153,-84.6855 178.104,-85.2683 178.104,-85.2683"/>
<text text-anchor="middle" x="309.874" y="-149.4" font-family="Times Roman,serif" font-size="14.00">base_tags</text>
</g>
<!-- Note&#45;&gt;ActsAsTaggableOn::Tag -->
<g id="edge30" class="edge"><title>Note&#45;&gt;ActsAsTaggableOn::Tag</title>
<path fill="none" stroke="#74af65" d="M304.183,-253.917C252.201,-196.818 188.053,-126.357 154.085,-89.0457"/>
<polygon fill="#74af65" stroke="#74af65" points="304.515,-254.281 307.919,-264.705 307.881,-257.979 311.247,-261.676 311.247,-261.676 311.247,-261.676 307.881,-257.979 314.575,-258.647 304.515,-254.281 304.515,-254.281"/>
<polygon fill="#74af65" stroke="#74af65" points="154.042,-88.9984 150.638,-78.5744 150.676,-85.3011 147.31,-81.6038 147.31,-81.6038 147.31,-81.6038 150.676,-85.3011 143.983,-84.6332 154.042,-88.9984 154.042,-88.9984"/>
<text text-anchor="middle" x="235.374" y="-149.4" font-family="Times Roman,serif" font-size="14.00">tags</text>
</g>
<!-- Blueprint&#45;&gt;Coordinate -->
<g id="edge32" class="edge"><title>Blueprint&#45;&gt;Coordinate</title>
<path fill="none" stroke="#89a1bd" d="M312.811,-536.01C305.519,-525.708 298.809,-514.921 293.374,-504 223.767,-364.161 230.496,-317.15 212.374,-162 211.445,-154.054 207.773,-150.545 212.374,-144 224.469,-126.79 238.024,-134.535 261.674,-125.572"/>
<ellipse fill="none" stroke="#89a1bd" cx="315.328" cy="-539.471" rx="4.00002" ry="4.00002"/>
<polygon fill="#89a1bd" stroke="#89a1bd" points="261.741,-125.542 272.707,-125.541 266.301,-123.49 270.86,-121.437 270.86,-121.437 270.86,-121.437 266.301,-123.49 269.013,-117.334 261.741,-125.542 261.741,-125.542"/>
</g>
<!-- Blueprint&#45;&gt;Note -->
<g id="edge34" class="edge"><title>Blueprint&#45;&gt;Note</title>
<path fill="none" stroke="#6cf704" d="M384.374,-532.729C384.374,-501.218 384.374,-465.003 384.374,-432.653"/>
<polygon fill="#6cf704" stroke="#6cf704" points="384.374,-532.89 379.874,-542.89 384.374,-537.89 384.374,-542.89 384.374,-542.89 384.374,-542.89 384.374,-537.89 388.874,-542.891 384.374,-532.89 384.374,-532.89"/>
<polygon fill="#6cf704" stroke="#6cf704" points="384.374,-432.296 388.874,-422.296 384.374,-427.296 384.374,-422.296 384.374,-422.296 384.374,-422.296 384.374,-427.296 379.874,-422.296 384.374,-432.296 384.374,-432.296"/>
</g>
<!-- Blueprint&#45;&gt;ActsAsTaggableOn::Tagging -->
<g id="edge36" class="edge"><title>Blueprint&#45;&gt;ActsAsTaggableOn::Tagging</title>
<path fill="none" stroke="#c10673" d="M456.776,-536.068C463.882,-525.788 470.318,-514.99 475.374,-504 536.446,-371.238 440.795,-294.677 531.374,-180 543.961,-164.063 560.261,-177.508 573.374,-162 589.882,-142.475 595.399,-113.429 597.074,-91.8424"/>
<ellipse fill="none" stroke="#c10673" cx="454.339" cy="-539.487" rx="4.00002" ry="4.00002"/>
<polygon fill="#c10673" stroke="#c10673" points="597.086,-91.6075 602.121,-81.866 597.357,-86.6148 597.628,-81.6222 597.628,-81.6222 597.628,-81.6222 597.357,-86.6148 593.135,-81.3784 597.086,-91.6075 597.086,-91.6075"/>
<text text-anchor="middle" x="560.874" y="-338.4" font-family="Times Roman,serif" font-size="14.00">taggings</text>
</g>
<!-- Blueprint&#45;&gt;ActsAsTaggableOn::Tagging -->
<g id="edge40" class="edge"><title>Blueprint&#45;&gt;ActsAsTaggableOn::Tagging</title>
<path fill="none" stroke="#09e4ab" d="M474.754,-589.321C517.588,-572.624 564.864,-545.785 590.374,-504 672.516,-369.45 627.068,-166.099 606.121,-91.6251"/>
<ellipse fill="none" stroke="#09e4ab" cx="470.834" cy="-590.805" rx="4.00001" ry="4.00001"/>
<polygon fill="#09e4ab" stroke="#09e4ab" points="605.999,-91.2036 607.55,-80.3479 604.613,-86.3997 603.226,-81.5958 603.226,-81.5958 603.226,-81.5958 604.613,-86.3997 598.903,-82.8437 605.999,-91.2036 605.999,-91.2036"/>
<text text-anchor="middle" x="682.874" y="-338.4" font-family="Times Roman,serif" font-size="14.00">tag_taggings</text>
</g>
<!-- Blueprint&#45;&gt;ActsAsTaggableOn::Tag -->
<g id="edge38" class="edge"><title>Blueprint&#45;&gt;ActsAsTaggableOn::Tag</title>
<path fill="none" stroke="#64ca43" d="M291.699,-596.189C202.898,-577.016 78.227,-543.843 49.3735,-504 -35.0865,-387.37 6.43737,-317.45 49.3735,-180 60.3298,-144.926 85.8968,-111.114 105.399,-88.9366"/>
<polygon fill="#64ca43" stroke="#64ca43" points="291.747,-596.199 300.588,-602.686 296.637,-597.242 301.527,-598.286 301.527,-598.286 301.527,-598.286 296.637,-597.242 302.466,-593.885 291.747,-596.199 291.747,-596.199"/>
<polygon fill="#64ca43" stroke="#64ca43" points="105.576,-88.7399 115.614,-84.3243 108.924,-85.0257 112.271,-81.3116 112.271,-81.3116 112.271,-81.3116 108.924,-85.0257 108.928,-78.2989 105.576,-88.7399 105.576,-88.7399"/>
<text text-anchor="middle" x="83.8735" y="-338.4" font-family="Times Roman,serif" font-size="14.00">base_tags</text>
</g>
<!-- Blueprint&#45;&gt;ActsAsTaggableOn::Tag -->
<g id="edge42" class="edge"><title>Blueprint&#45;&gt;ActsAsTaggableOn::Tag</title>
<path fill="none" stroke="#061b37" d="M292.465,-586.036C251.874,-568.907 207.52,-542.659 181.374,-504 135.617,-436.348 130.668,-178.461 130.319,-91.6863"/>
<polygon fill="#061b37" stroke="#061b37" points="292.613,-586.096 300.171,-594.041 297.242,-587.985 301.872,-589.874 301.872,-589.874 301.872,-589.874 297.242,-587.985 303.572,-585.708 292.613,-586.096 292.613,-586.096"/>
<polygon fill="#061b37" stroke="#061b37" points="130.319,-91.5196 134.797,-81.5097 130.308,-86.5196 130.297,-81.5197 130.297,-81.5197 130.297,-81.5197 130.308,-86.5196 125.797,-81.5296 130.319,-91.5196 130.319,-91.5196"/>
<text text-anchor="middle" x="196.374" y="-338.4" font-family="Times Roman,serif" font-size="14.00">tags</text>
</g>
<!-- City&#45;&gt;Project -->
<g id="edge50" class="edge"><title>City&#45;&gt;Project</title>
<path fill="none" stroke="#5a2d2f" d="M1310.85,-673.085C1303.28,-677.989 1295.37,-682.426 1287.37,-686 1196.78,-726.478 1160.47,-689.668 1067.37,-724 1064.67,-724.998 1061.95,-726.077 1059.23,-727.223"/>
<polygon fill="#5a2d2f" stroke="#5a2d2f" points="1311.31,-672.773 1322.1,-670.855 1315.44,-669.955 1319.57,-667.138 1319.57,-667.138 1319.57,-667.138 1315.44,-669.955 1317.03,-663.42 1311.31,-672.773 1311.31,-672.773"/>
<polygon fill="#5a2d2f" stroke="#5a2d2f" points="1059.13,-727.27 1048.16,-727.251 1054.56,-729.314 1050,-731.358 1050,-731.358 1050,-731.358 1054.56,-729.314 1051.84,-735.464 1059.13,-727.27 1059.13,-727.27"/>
</g>
<!-- City&#45;&gt;Reviewer -->
<g id="edge44" class="edge"><title>City&#45;&gt;Reviewer</title>
<path fill="none" stroke="#07dc7f" d="M1366.5,-552.718C1360.81,-466.804 1344.05,-306.855 1295.37,-180 1289.36,-164.338 1281.13,-148.518 1272.33,-133.791"/>
<ellipse fill="none" stroke="#07dc7f" cx="1366.77" cy="-556.806" rx="4" ry="4"/>
<polygon fill="#07dc7f" stroke="#07dc7f" points="1272.32,-133.781 1270.93,-122.904 1269.71,-129.519 1267.1,-125.256 1267.1,-125.256 1267.1,-125.256 1269.71,-129.519 1263.26,-127.608 1272.32,-133.781 1272.32,-133.781"/>
</g>
<!-- City&#45;&gt;Seal -->
<g id="edge48" class="edge"><title>City&#45;&gt;Seal</title>
<path fill="none" stroke="#a11e1d" d="M1373.14,-552.889C1379.46,-450.551 1392.14,-244.984 1398.9,-135.503"/>
<ellipse fill="none" stroke="#a11e1d" cx="1372.9" cy="-556.925" rx="4" ry="4"/>
<polygon fill="#a11e1d" stroke="#a11e1d" points="1398.92,-135.196 1404.03,-125.492 1399.23,-130.205 1399.53,-125.215 1399.53,-125.215 1399.53,-125.215 1399.23,-130.205 1395.04,-124.937 1398.92,-135.196 1398.92,-135.196"/>
</g>
<!-- City&#45;&gt;User -->
<g id="edge46" class="edge"><title>City&#45;&gt;User</title>
<path fill="none" stroke="#4a3c2c" d="M1322.05,-552.703C1312.2,-539.948 1301.37,-525.922 1290.12,-511.352"/>
<polygon fill="#4a3c2c" stroke="#4a3c2c" points="1322.27,-552.995 1324.82,-563.66 1325.33,-556.952 1328.38,-560.91 1328.38,-560.91 1328.38,-560.91 1325.33,-556.952 1331.95,-558.16 1322.27,-552.995 1322.27,-552.995"/>
<polygon fill="#4a3c2c" stroke="#4a3c2c" points="1289.94,-511.121 1287.4,-500.455 1286.89,-507.163 1283.83,-503.206 1283.83,-503.206 1283.83,-503.206 1286.89,-507.163 1280.27,-505.956 1289.94,-511.121 1289.94,-511.121"/>
</g>
<!-- User&#45;&gt;Reviewer -->
<g id="edge54" class="edge"><title>User&#45;&gt;Reviewer</title>
<path fill="none" stroke="#ce7276" d="M1196.91,-173.105C1199.84,-159.888 1202.7,-147.04 1205.36,-135.065"/>
<ellipse fill="none" stroke="#ce7276" cx="1196.04" cy="-177.012" rx="4.00001" ry="4.00001"/>
<polygon fill="#ce7276" stroke="#ce7276" points="1205.38,-134.984 1211.94,-126.198 1206.46,-130.103 1207.55,-125.222 1207.55,-125.222 1207.55,-125.222 1206.46,-130.103 1203.15,-124.246 1205.38,-134.984 1205.38,-134.984"/>
</g>
<!-- User&#45;&gt;Participant -->
<g id="edge52" class="edge"><title>User&#45;&gt;Participant</title>
<path fill="none" stroke="#1f488a" d="M1026.1,-218.878C993.907,-189.135 960.622,-158.385 932.211,-132.138"/>
<ellipse fill="none" stroke="#1f488a" cx="1029.24" cy="-221.773" rx="4.00002" ry="4.00002"/>
<polygon fill="#1f488a" stroke="#1f488a" points="932.06,-131.999 927.769,-121.908 928.388,-128.606 924.715,-125.213 924.715,-125.213 924.715,-125.213 928.388,-128.606 921.661,-128.518 932.06,-131.999 932.06,-131.999"/>
</g>
<!-- User&#45;&gt;Seal -->
<g id="edge56" class="edge"><title>User&#45;&gt;Seal</title>
<path fill="none" stroke="#c18c0e" d="M1293.07,-189.126C1310.15,-169.591 1326.93,-150.41 1342.04,-133.132"/>
<polygon fill="#c18c0e" stroke="#c18c0e" points="1292.96,-189.252 1282.99,-193.817 1289.67,-193.016 1286.38,-196.78 1286.38,-196.78 1286.38,-196.78 1289.67,-193.016 1289.76,-199.742 1292.96,-189.252 1292.96,-189.252"/>
<polygon fill="#c18c0e" stroke="#c18c0e" points="1342.28,-132.861 1352.25,-128.296 1345.57,-129.097 1348.86,-125.334 1348.86,-125.334 1348.86,-125.334 1345.57,-129.097 1345.47,-122.371 1342.28,-132.861 1342.28,-132.861"/>
</g>
<!-- User&#45;&gt;Member -->
<g id="edge58" class="edge"><title>User&#45;&gt;Member</title>
<path fill="none" stroke="#9ae070" d="M1086.93,-173.562C1081.07,-159.951 1075.38,-146.724 1070.1,-134.431"/>
<ellipse fill="none" stroke="#9ae070" cx="1088.51" cy="-177.242" rx="4.00002" ry="4.00002"/>
<polygon fill="#9ae070" stroke="#9ae070" points="1070.09,-134.408 1070.27,-123.444 1068.11,-129.815 1066.14,-125.222 1066.14,-125.222 1066.14,-125.222 1068.11,-129.815 1062,-127 1070.09,-134.408 1070.09,-134.408"/>
</g>
</g>
</svg>
