<?xml version="1.0" encoding="UTF-8" standalone="no"?>
<!DOCTYPE svg PUBLIC "-//W3C//DTD SVG 1.1//EN"
 "http://www.w3.org/Graphics/SVG/1.1/DTD/svg11.dtd">
<!-- Generated by graphviz version 2.26.3 (20100126.1600)
 -->
<!-- Title: models_diagram Pages: 1 -->
<svg width="574pt" height="324pt"
 viewBox="0.00 0.00 574.00 324.00" xmlns="http://www.w3.org/2000/svg" xmlns:xlink="http://www.w3.org/1999/xlink">
<g id="graph1" class="graph" transform="scale(1 1) rotate(0) translate(4 320)">
<title>models_diagram</title>
<polygon fill="white" stroke="white" points="-4,5 -4,-320 571,-320 571,5 -4,5"/>
<!-- _diagram_info -->
<g id="node1" class="node"><title>_diagram_info</title>
<text text-anchor="start" x="8" y="-299.8" font-family="Times Roman,serif" font-size="13.00">Models diagram</text>
<text text-anchor="start" x="8" y="-282.8" font-family="Times Roman,serif" font-size="13.00">Date: Dec 28 2012 &#45; 12:56</text>
<text text-anchor="start" x="8" y="-265.8" font-family="Times Roman,serif" font-size="13.00">Migration version: 20121228170157</text>
<text text-anchor="start" x="8" y="-248.8" font-family="Times Roman,serif" font-size="13.00">Generated by RailRoady 1.1.0</text>
<text text-anchor="start" x="8" y="-231.8" font-family="Times Roman,serif" font-size="13.00">http://railroady.prestonlee.com</text>
</g>
<!-- Coordinate -->
<g id="node2" class="node"><title>Coordinate</title>
<ellipse fill="none" stroke="black" cx="198" cy="-19" rx="65.0538" ry="18.3848"/>
<text text-anchor="middle" x="198" y="-15.4" font-family="Times Roman,serif" font-size="14.00">Coordinate</text>
</g>
<!-- Project -->
<g id="node3" class="node"><title>Project</title>
<ellipse fill="none" stroke="black" cx="314" cy="-269" rx="45.9619" ry="18.3848"/>
<text text-anchor="middle" x="314" y="-265.4" font-family="Times Roman,serif" font-size="14.00">Project</text>
</g>
<!-- Note -->
<g id="node6" class="node"><title>Note</title>
<ellipse fill="none" stroke="black" cx="167" cy="-93" rx="34.8574" ry="18.3848"/>
<text text-anchor="middle" x="167" y="-89.4" font-family="Times Roman,serif" font-size="14.00">Note</text>
</g>
<!-- Project&#45;&gt;Note -->
<g id="edge8" class="edge"><title>Project&#45;&gt;Note</title>
<path fill="none" stroke="#f601c5" d="M290.731,-246.029C281.41,-237.685 270.228,-228.676 259,-222 220.547,-199.136 190.353,-222.859 165,-186 152.062,-167.191 154.022,-140.798 158.372,-120.931"/>
<ellipse fill="none" stroke="#f601c5" cx="293.918" cy="-248.956" rx="4.00002" ry="4.00002"/>
<polygon fill="#f601c5" stroke="#f601c5" points="158.377,-120.914 165.165,-112.301 159.588,-116.063 160.799,-111.211 160.799,-111.211 160.799,-111.211 159.588,-116.063 156.433,-110.122 158.377,-120.914 158.377,-120.914"/>
</g>
<!-- Blueprint -->
<g id="node7" class="node"><title>Blueprint</title>
<ellipse fill="none" stroke="black" cx="230" cy="-167" rx="56.0679" ry="18.3848"/>
<text text-anchor="middle" x="230" y="-163.4" font-family="Times Roman,serif" font-size="14.00">Blueprint</text>
</g>
<!-- Project&#45;&gt;Blueprint -->
<g id="edge6" class="edge"><title>Project&#45;&gt;Blueprint</title>
<path fill="none" stroke="#462944" d="M294.054,-244.78C281.16,-229.122 264.394,-208.764 251.25,-192.803"/>
<ellipse fill="none" stroke="#462944" cx="296.825" cy="-248.145" rx="4.00002" ry="4.00002"/>
<polygon fill="#462944" stroke="#462944" points="251.103,-192.625 248.22,-182.045 247.924,-188.765 244.746,-184.906 244.746,-184.906 244.746,-184.906 247.924,-188.765 241.272,-187.766 251.103,-192.625 251.103,-192.625"/>
</g>
<!-- Participant -->
<g id="node8" class="node"><title>Participant</title>
<ellipse fill="none" stroke="black" cx="389" cy="-93" rx="63.8479" ry="18.3848"/>
<text text-anchor="middle" x="389" y="-89.4" font-family="Times Roman,serif" font-size="14.00">Participant</text>
</g>
<!-- Project&#45;&gt;Participant -->
<g id="edge2" class="edge"><title>Project&#45;&gt;Participant</title>
<path fill="none" stroke="#3801db" d="M313.473,-242.139C314.032,-216.583 317.707,-177.731 333,-148 338.941,-136.45 348.221,-125.877 357.53,-117.153"/>
<ellipse fill="none" stroke="#3801db" cx="313.431" cy="-246.264" rx="4" ry="4"/>
<polygon fill="#3801db" stroke="#3801db" points="357.8,-116.914 368.268,-113.648 361.542,-113.597 365.283,-110.28 365.283,-110.28 365.283,-110.28 361.542,-113.597 362.298,-106.913 357.8,-116.914 357.8,-116.914"/>
</g>
<!-- City -->
<g id="node9" class="node"><title>City</title>
<ellipse fill="none" stroke="black" cx="373" cy="-167" rx="31.1127" ry="18.3848"/>
<text text-anchor="middle" x="373" y="-163.4" font-family="Times Roman,serif" font-size="14.00">City</text>
</g>
<!-- Project&#45;&gt;City -->
<g id="edge10" class="edge"><title>Project&#45;&gt;City</title>
<path fill="none" stroke="#f6d664" d="M328.57,-243.811C337.359,-228.617 348.548,-209.274 357.498,-193.799"/>
<ellipse fill="none" stroke="#f6d664" cx="326.551" cy="-247.302" rx="4.00002" ry="4.00002"/>
<polygon fill="#f6d664" stroke="#f6d664" points="357.734,-193.392 366.636,-186.989 360.237,-189.064 362.741,-184.736 362.741,-184.736 362.741,-184.736 360.237,-189.064 358.846,-182.483 357.734,-193.392 357.734,-193.392"/>
</g>
<!-- User -->
<g id="node10" class="node"><title>User</title>
<ellipse fill="none" stroke="black" cx="456" cy="-167" rx="33.9411" ry="18.3848"/>
<text text-anchor="middle" x="456" y="-163.4" font-family="Times Roman,serif" font-size="14.00">User</text>
</g>
<!-- Project&#45;&gt;User -->
<g id="edge4" class="edge"><title>Project&#45;&gt;User</title>
<path fill="none" stroke="#8b3273" d="M344.96,-246.761C369.403,-229.203 403.254,-204.888 427.137,-187.733"/>
<polygon fill="#8b3273" stroke="#8b3273" points="344.622,-247.004 333.875,-249.183 340.561,-249.921 336.5,-252.838 336.5,-252.838 336.5,-252.838 340.561,-249.921 339.126,-256.493 344.622,-247.004 344.622,-247.004"/>
<polygon fill="#8b3273" stroke="#8b3273" points="427.327,-187.596 438.075,-185.417 431.388,-184.679 435.449,-181.762 435.449,-181.762 435.449,-181.762 431.388,-184.679 432.824,-178.107 427.327,-187.596 427.327,-187.596"/>
</g>
<!-- Role -->
<g id="node4" class="node"><title>Role</title>
<ellipse fill="none" stroke="black" cx="456" cy="-269" rx="32.0265" ry="18.3848"/>
<text text-anchor="middle" x="456" y="-265.4" font-family="Times Roman,serif" font-size="14.00">Role</text>
</g>
<!-- Role&#45;&gt;User -->
<g id="edge12" class="edge"><title>Role&#45;&gt;User</title>
<path fill="none" stroke="#80747f" d="M456,-240.054C456,-226.256 456,-209.791 456,-195.987"/>
<polygon fill="#80747f" stroke="#80747f" points="456,-240.292 451.5,-250.292 456,-245.292 456,-250.292 456,-250.292 456,-250.292 456,-245.292 460.5,-250.292 456,-240.292 456,-240.292"/>
<polygon fill="#80747f" stroke="#80747f" points="456,-195.59 460.5,-185.59 456,-190.59 456,-185.59 456,-185.59 456,-185.59 456,-190.59 451.5,-185.59 456,-195.59 456,-195.59"/>
</g>
<!-- Ability -->
<g id="node5" class="node"><title>Ability</title>
<polygon fill="none" stroke="black" points="566,-287 506,-287 506,-251 566,-251 566,-287"/>
<text text-anchor="middle" x="536" y="-265.4" font-family="Times Roman,serif" font-size="14.00">Ability</text>
</g>
<!-- Note&#45;&gt;Coordinate -->
<g id="edge14" class="edge"><title>Note&#45;&gt;Coordinate</title>
<path fill="none" stroke="#c91a11" d="M177.81,-67.1947C180.554,-60.6457 183.514,-53.5801 186.299,-46.9309"/>
<ellipse fill="none" stroke="#c91a11" cx="176.208" cy="-71.0185" rx="4.00002" ry="4.00002"/>
<polygon fill="#c91a11" stroke="#c91a11" points="186.346,-46.8191 194.36,-39.3345 188.278,-42.2074 190.21,-37.5957 190.21,-37.5957 190.21,-37.5957 188.278,-42.2074 186.059,-35.8569 186.346,-46.8191 186.346,-46.8191"/>
</g>
<!-- Blueprint&#45;&gt;Coordinate -->
<g id="edge16" class="edge"><title>Blueprint&#45;&gt;Coordinate</title>
<path fill="none" stroke="#19b20d" d="M224.789,-140.397C221.087,-121.774 215.919,-96.3298 211,-74 209.094,-65.3485 206.916,-55.9581 204.894,-47.4262"/>
<ellipse fill="none" stroke="#19b20d" cx="225.604" cy="-144.513" rx="4.00001" ry="4.00001"/>
<polygon fill="#19b20d" stroke="#19b20d" points="204.859,-47.2784 206.911,-36.5063 203.696,-42.4153 202.534,-37.5522 202.534,-37.5522 202.534,-37.5522 203.696,-42.4153 198.157,-38.5982 204.859,-47.2784 204.859,-47.2784"/>
</g>
<!-- Blueprint&#45;&gt;Note -->
<g id="edge18" class="edge"><title>Blueprint&#45;&gt;Note</title>
<path fill="none" stroke="#4d3067" d="M208.252,-141.454C201.747,-133.814 194.627,-125.451 188.161,-117.856"/>
<polygon fill="#4d3067" stroke="#4d3067" points="208.267,-141.472 211.323,-152.004 211.508,-145.279 214.749,-149.087 214.749,-149.087 214.749,-149.087 211.508,-145.279 218.176,-146.17 208.267,-141.472 208.267,-141.472"/>
<polygon fill="#4d3067" stroke="#4d3067" points="187.943,-117.6 184.887,-107.069 184.702,-113.793 181.461,-109.986 181.461,-109.986 181.461,-109.986 184.702,-113.793 178.034,-112.903 187.943,-117.6 187.943,-117.6"/>
</g>
<!-- User&#45;&gt;Participant -->
<g id="edge20" class="edge"><title>User&#45;&gt;Participant</title>
<path fill="none" stroke="#8dc2bc" d="M435.336,-144.177C428.021,-136.097 419.743,-126.955 412.228,-118.655"/>
<ellipse fill="none" stroke="#8dc2bc" cx="438.112" cy="-147.243" rx="4.00002" ry="4.00002"/>
<polygon fill="#8dc2bc" stroke="#8dc2bc" points="412.026,-118.431 408.65,-107.998 408.67,-114.725 405.314,-111.018 405.314,-111.018 405.314,-111.018 408.67,-114.725 401.978,-114.038 412.026,-118.431 412.026,-118.431"/>
</g>
</g>
</svg>
