<?xml version="1.0" encoding="UTF-8" standalone="no"?>
<!DOCTYPE svg PUBLIC "-//W3C//DTD SVG 1.1//EN"
 "http://www.w3.org/Graphics/SVG/1.1/DTD/svg11.dtd">
<!-- Generated by graphviz version 2.26.3 (20100126.1600)
 -->
<!-- Title: models_diagram Pages: 1 -->
<svg width="741pt" height="836pt"
 viewBox="0.00 0.00 741.00 836.00" xmlns="http://www.w3.org/2000/svg" xmlns:xlink="http://www.w3.org/1999/xlink">
<g id="graph1" class="graph" transform="scale(1 1) rotate(0) translate(4 832)">
<title>models_diagram</title>
<polygon fill="white" stroke="white" points="-4,5 -4,-832 738,-832 738,5 -4,5"/>
<!-- _diagram_info -->
<g id="node1" class="node"><title>_diagram_info</title>
<text text-anchor="start" x="8" y="-786.8" font-family="Times Roman,serif" font-size="13.00">Models diagram</text>
<text text-anchor="start" x="8" y="-769.8" font-family="Times Roman,serif" font-size="13.00">Date: Dec 26 2012 &#45; 17:25</text>
<text text-anchor="start" x="8" y="-752.8" font-family="Times Roman,serif" font-size="13.00">Migration version: 20121222234417</text>
<text text-anchor="start" x="8" y="-735.8" font-family="Times Roman,serif" font-size="13.00">Generated by RailRoady 1.1.0</text>
<text text-anchor="start" x="8" y="-718.8" font-family="Times Roman,serif" font-size="13.00">http://railroady.prestonlee.com</text>
</g>
<!-- Coordinate -->
<g id="node2" class="node"><title>Coordinate</title>
<polyline fill="none" stroke="black" points="182.5,-1 323.5,-1 "/>
<path fill="none" stroke="black" d="M323.5,-1C329.5,-1 335.5,-7 335.5,-13"/>
<polyline fill="none" stroke="black" points="335.5,-13 335.5,-113 "/>
<path fill="none" stroke="black" d="M335.5,-113C335.5,-119 329.5,-125 323.5,-125"/>
<polyline fill="none" stroke="black" points="323.5,-125 182.5,-125 "/>
<path fill="none" stroke="black" d="M182.5,-125C176.5,-125 170.5,-119 170.5,-113"/>
<polyline fill="none" stroke="black" points="170.5,-113 170.5,-13 "/>
<path fill="none" stroke="black" d="M170.5,-13C170.5,-7 176.5,-1 182.5,-1"/>
<text text-anchor="middle" x="253" y="-108.4" font-family="Times Roman,serif" font-size="14.00">Coordinate</text>
<polyline fill="none" stroke="black" points="170.5,-99 335.5,-99 "/>
<text text-anchor="start" x="178.5" y="-82.4" font-family="Times Roman,serif" font-size="14.00">id :integer</text>
<text text-anchor="start" x="178.5" y="-64.4" font-family="Times Roman,serif" font-size="14.00">note_id :integer</text>
<text text-anchor="start" x="178.5" y="-46.4" font-family="Times Roman,serif" font-size="14.00">blueprint_id :integer</text>
<text text-anchor="start" x="178.5" y="-28.4" font-family="Times Roman,serif" font-size="14.00">created_at :datetime</text>
<text text-anchor="start" x="178.5" y="-10.4" font-family="Times Roman,serif" font-size="14.00">updated_at :datetime</text>
</g>
<!-- Project -->
<g id="node3" class="node"><title>Project</title>
<polyline fill="none" stroke="black" points="279.5,-703 420.5,-703 "/>
<path fill="none" stroke="black" d="M420.5,-703C426.5,-703 432.5,-709 432.5,-715"/>
<polyline fill="none" stroke="black" points="432.5,-715 432.5,-797 "/>
<path fill="none" stroke="black" d="M432.5,-797C432.5,-803 426.5,-809 420.5,-809"/>
<polyline fill="none" stroke="black" points="420.5,-809 279.5,-809 "/>
<path fill="none" stroke="black" d="M279.5,-809C273.5,-809 267.5,-803 267.5,-797"/>
<polyline fill="none" stroke="black" points="267.5,-797 267.5,-715 "/>
<path fill="none" stroke="black" d="M267.5,-715C267.5,-709 273.5,-703 279.5,-703"/>
<text text-anchor="middle" x="350" y="-792.4" font-family="Times Roman,serif" font-size="14.00">Project</text>
<polyline fill="none" stroke="black" points="267.5,-783 432.5,-783 "/>
<text text-anchor="start" x="275.5" y="-766.4" font-family="Times Roman,serif" font-size="14.00">id :integer</text>
<text text-anchor="start" x="275.5" y="-748.4" font-family="Times Roman,serif" font-size="14.00">name :string</text>
<text text-anchor="start" x="275.5" y="-730.4" font-family="Times Roman,serif" font-size="14.00">created_at :datetime</text>
<text text-anchor="start" x="275.5" y="-712.4" font-family="Times Roman,serif" font-size="14.00">updated_at :datetime</text>
</g>
<!-- Note -->
<g id="node6" class="node"><title>Note</title>
<polyline fill="none" stroke="black" points="127.5,-163 268.5,-163 "/>
<path fill="none" stroke="black" d="M268.5,-163C274.5,-163 280.5,-169 280.5,-175"/>
<polyline fill="none" stroke="black" points="280.5,-175 280.5,-275 "/>
<path fill="none" stroke="black" d="M280.5,-275C280.5,-281 274.5,-287 268.5,-287"/>
<polyline fill="none" stroke="black" points="268.5,-287 127.5,-287 "/>
<path fill="none" stroke="black" d="M127.5,-287C121.5,-287 115.5,-281 115.5,-275"/>
<polyline fill="none" stroke="black" points="115.5,-275 115.5,-175 "/>
<path fill="none" stroke="black" d="M115.5,-175C115.5,-169 121.5,-163 127.5,-163"/>
<text text-anchor="middle" x="198" y="-270.4" font-family="Times Roman,serif" font-size="14.00">Note</text>
<polyline fill="none" stroke="black" points="115.5,-261 280.5,-261 "/>
<text text-anchor="start" x="123.5" y="-244.4" font-family="Times Roman,serif" font-size="14.00">id :integer</text>
<text text-anchor="start" x="123.5" y="-226.4" font-family="Times Roman,serif" font-size="14.00">note :string</text>
<text text-anchor="start" x="123.5" y="-208.4" font-family="Times Roman,serif" font-size="14.00">created_at :datetime</text>
<text text-anchor="start" x="123.5" y="-190.4" font-family="Times Roman,serif" font-size="14.00">updated_at :datetime</text>
<text text-anchor="start" x="123.5" y="-172.4" font-family="Times Roman,serif" font-size="14.00">project_id :integer</text>
</g>
<!-- Project&#45;&gt;Note -->
<g id="edge8" class="edge"><title>Project&#45;&gt;Note</title>
<path fill="none" stroke="#77fae7" d="M277.019,-697.743C246.595,-673.28 217.992,-649.968 217,-648 160.512,-535.916 170.922,-385.18 184.122,-297.208"/>
<ellipse fill="none" stroke="#77fae7" cx="280.412" cy="-700.468" rx="4.00002" ry="4.00002"/>
<polygon fill="#77fae7" stroke="#77fae7" points="184.163,-296.942 190.145,-287.751 184.931,-292.001 185.699,-287.06 185.699,-287.06 185.699,-287.06 184.931,-292.001 181.252,-286.369 184.163,-296.942 184.163,-296.942"/>
</g>
<!-- Blueprint -->
<g id="node7" class="node"><title>Blueprint</title>
<polyline fill="none" stroke="black" points="237.5,-424 378.5,-424 "/>
<path fill="none" stroke="black" d="M378.5,-424C384.5,-424 390.5,-430 390.5,-436"/>
<polyline fill="none" stroke="black" points="390.5,-436 390.5,-536 "/>
<path fill="none" stroke="black" d="M390.5,-536C390.5,-542 384.5,-548 378.5,-548"/>
<polyline fill="none" stroke="black" points="378.5,-548 237.5,-548 "/>
<path fill="none" stroke="black" d="M237.5,-548C231.5,-548 225.5,-542 225.5,-536"/>
<polyline fill="none" stroke="black" points="225.5,-536 225.5,-436 "/>
<path fill="none" stroke="black" d="M225.5,-436C225.5,-430 231.5,-424 237.5,-424"/>
<text text-anchor="middle" x="308" y="-531.4" font-family="Times Roman,serif" font-size="14.00">Blueprint</text>
<polyline fill="none" stroke="black" points="225.5,-522 390.5,-522 "/>
<text text-anchor="start" x="233.5" y="-505.4" font-family="Times Roman,serif" font-size="14.00">id :integer</text>
<text text-anchor="start" x="233.5" y="-487.4" font-family="Times Roman,serif" font-size="14.00">loc :string</text>
<text text-anchor="start" x="233.5" y="-469.4" font-family="Times Roman,serif" font-size="14.00">created_at :datetime</text>
<text text-anchor="start" x="233.5" y="-451.4" font-family="Times Roman,serif" font-size="14.00">updated_at :datetime</text>
<text text-anchor="start" x="233.5" y="-433.4" font-family="Times Roman,serif" font-size="14.00">project_id :integer</text>
</g>
<!-- Project&#45;&gt;Blueprint -->
<g id="edge6" class="edge"><title>Project&#45;&gt;Blueprint</title>
<path fill="none" stroke="#1b430d" d="M340.509,-694.988C334.206,-654.47 325.902,-601.085 319.264,-558.413"/>
<ellipse fill="none" stroke="#1b430d" cx="341.137" cy="-699.026" rx="4.00001" ry="4.00001"/>
<polygon fill="#1b430d" stroke="#1b430d" points="319.239,-558.25 322.148,-547.678 318.47,-553.31 317.702,-548.369 317.702,-548.369 317.702,-548.369 318.47,-553.31 313.255,-549.061 319.239,-558.25 319.239,-558.25"/>
</g>
<!-- Participant -->
<g id="node8" class="node"><title>Participant</title>
<polyline fill="none" stroke="black" points="424.5,-163 565.5,-163 "/>
<path fill="none" stroke="black" d="M565.5,-163C571.5,-163 577.5,-169 577.5,-175"/>
<polyline fill="none" stroke="black" points="577.5,-175 577.5,-275 "/>
<path fill="none" stroke="black" d="M577.5,-275C577.5,-281 571.5,-287 565.5,-287"/>
<polyline fill="none" stroke="black" points="565.5,-287 424.5,-287 "/>
<path fill="none" stroke="black" d="M424.5,-287C418.5,-287 412.5,-281 412.5,-275"/>
<polyline fill="none" stroke="black" points="412.5,-275 412.5,-175 "/>
<path fill="none" stroke="black" d="M412.5,-175C412.5,-169 418.5,-163 424.5,-163"/>
<text text-anchor="middle" x="495" y="-270.4" font-family="Times Roman,serif" font-size="14.00">Participant</text>
<polyline fill="none" stroke="black" points="412.5,-261 577.5,-261 "/>
<text text-anchor="start" x="420.5" y="-244.4" font-family="Times Roman,serif" font-size="14.00">id :integer</text>
<text text-anchor="start" x="420.5" y="-226.4" font-family="Times Roman,serif" font-size="14.00">project_id :integer</text>
<text text-anchor="start" x="420.5" y="-208.4" font-family="Times Roman,serif" font-size="14.00">user_id :integer</text>
<text text-anchor="start" x="420.5" y="-190.4" font-family="Times Roman,serif" font-size="14.00">created_at :datetime</text>
<text text-anchor="start" x="420.5" y="-172.4" font-family="Times Roman,serif" font-size="14.00">updated_at :datetime</text>
</g>
<!-- Project&#45;&gt;Participant -->
<g id="edge2" class="edge"><title>Project&#45;&gt;Participant</title>
<path fill="none" stroke="#09d0d7" d="M381.395,-695.506C388.157,-680.335 394.59,-663.854 399,-648 437.86,-508.318 390.931,-461.473 437,-324 440.133,-314.651 444.223,-305.215 448.783,-296.077"/>
<ellipse fill="none" stroke="#09d0d7" cx="379.714" cy="-699.2" rx="4.00002" ry="4.00002"/>
<polygon fill="#09d0d7" stroke="#09d0d7" points="448.863,-295.922 457.472,-289.13 451.172,-291.487 453.481,-287.052 453.481,-287.052 453.481,-287.052 451.172,-291.487 449.489,-284.974 448.863,-295.922 448.863,-295.922"/>
</g>
<!-- User -->
<g id="node9" class="node"><title>User</title>
<polyline fill="none" stroke="black" points="458,-325 688,-325 "/>
<path fill="none" stroke="black" d="M688,-325C694,-325 700,-331 700,-337"/>
<polyline fill="none" stroke="black" points="700,-337 700,-635 "/>
<path fill="none" stroke="black" d="M700,-635C700,-641 694,-647 688,-647"/>
<polyline fill="none" stroke="black" points="688,-647 458,-647 "/>
<path fill="none" stroke="black" d="M458,-647C452,-647 446,-641 446,-635"/>
<polyline fill="none" stroke="black" points="446,-635 446,-337 "/>
<path fill="none" stroke="black" d="M446,-337C446,-331 452,-325 458,-325"/>
<text text-anchor="middle" x="573" y="-630.4" font-family="Times Roman,serif" font-size="14.00">User</text>
<polyline fill="none" stroke="black" points="446,-621 700,-621 "/>
<text text-anchor="start" x="454" y="-604.4" font-family="Times Roman,serif" font-size="14.00">id :integer</text>
<text text-anchor="start" x="454" y="-586.4" font-family="Times Roman,serif" font-size="14.00">email :string</text>
<text text-anchor="start" x="454" y="-568.4" font-family="Times Roman,serif" font-size="14.00">encrypted_password :string</text>
<text text-anchor="start" x="454" y="-550.4" font-family="Times Roman,serif" font-size="14.00">reset_password_token :string</text>
<text text-anchor="start" x="454" y="-532.4" font-family="Times Roman,serif" font-size="14.00">reset_password_sent_at :datetime</text>
<text text-anchor="start" x="454" y="-514.4" font-family="Times Roman,serif" font-size="14.00">remember_created_at :datetime</text>
<text text-anchor="start" x="454" y="-496.4" font-family="Times Roman,serif" font-size="14.00">sign_in_count :integer</text>
<text text-anchor="start" x="454" y="-478.4" font-family="Times Roman,serif" font-size="14.00">current_sign_in_at :datetime</text>
<text text-anchor="start" x="454" y="-460.4" font-family="Times Roman,serif" font-size="14.00">last_sign_in_at :datetime</text>
<text text-anchor="start" x="454" y="-442.4" font-family="Times Roman,serif" font-size="14.00">current_sign_in_ip :string</text>
<text text-anchor="start" x="454" y="-424.4" font-family="Times Roman,serif" font-size="14.00">last_sign_in_ip :string</text>
<text text-anchor="start" x="454" y="-406.4" font-family="Times Roman,serif" font-size="14.00">created_at :datetime</text>
<text text-anchor="start" x="454" y="-388.4" font-family="Times Roman,serif" font-size="14.00">updated_at :datetime</text>
<text text-anchor="start" x="454" y="-370.4" font-family="Times Roman,serif" font-size="14.00">name :string</text>
<text text-anchor="start" x="454" y="-352.4" font-family="Times Roman,serif" font-size="14.00">customer_id :string</text>
<text text-anchor="start" x="454" y="-334.4" font-family="Times Roman,serif" font-size="14.00">last_4_digits :string</text>
</g>
<!-- Project&#45;&gt;User -->
<g id="edge4" class="edge"><title>Project&#45;&gt;User</title>
<path fill="none" stroke="#cba2a5" d="M400.424,-694.949C412.407,-680.44 425.752,-664.282 439.564,-647.559"/>
<polygon fill="#cba2a5" stroke="#cba2a5" points="400.16,-695.269 390.322,-700.113 396.976,-699.124 393.792,-702.979 393.792,-702.979 393.792,-702.979 396.976,-699.124 397.261,-705.844 400.16,-695.269 400.16,-695.269"/>
<polygon fill="#cba2a5" stroke="#cba2a5" points="439.572,-647.549 449.41,-642.705 442.756,-643.694 445.94,-639.839 445.94,-639.839 445.94,-639.839 442.756,-643.694 442.471,-636.974 439.572,-647.549 439.572,-647.549"/>
</g>
<!-- Role -->
<g id="node4" class="node"><title>Role</title>
<polyline fill="none" stroke="black" points="502.5,-685 643.5,-685 "/>
<path fill="none" stroke="black" d="M643.5,-685C649.5,-685 655.5,-691 655.5,-697"/>
<polyline fill="none" stroke="black" points="655.5,-697 655.5,-815 "/>
<path fill="none" stroke="black" d="M655.5,-815C655.5,-821 649.5,-827 643.5,-827"/>
<polyline fill="none" stroke="black" points="643.5,-827 502.5,-827 "/>
<path fill="none" stroke="black" d="M502.5,-827C496.5,-827 490.5,-821 490.5,-815"/>
<polyline fill="none" stroke="black" points="490.5,-815 490.5,-697 "/>
<path fill="none" stroke="black" d="M490.5,-697C490.5,-691 496.5,-685 502.5,-685"/>
<text text-anchor="middle" x="573" y="-810.4" font-family="Times Roman,serif" font-size="14.00">Role</text>
<polyline fill="none" stroke="black" points="490.5,-801 655.5,-801 "/>
<text text-anchor="start" x="498.5" y="-784.4" font-family="Times Roman,serif" font-size="14.00">id :integer</text>
<text text-anchor="start" x="498.5" y="-766.4" font-family="Times Roman,serif" font-size="14.00">name :string</text>
<text text-anchor="start" x="498.5" y="-748.4" font-family="Times Roman,serif" font-size="14.00">resource_id :integer</text>
<text text-anchor="start" x="498.5" y="-730.4" font-family="Times Roman,serif" font-size="14.00">resource_type :string</text>
<text text-anchor="start" x="498.5" y="-712.4" font-family="Times Roman,serif" font-size="14.00">created_at :datetime</text>
<text text-anchor="start" x="498.5" y="-694.4" font-family="Times Roman,serif" font-size="14.00">updated_at :datetime</text>
</g>
<!-- Role&#45;&gt;User -->
<g id="edge10" class="edge"><title>Role&#45;&gt;User</title>
<path fill="none" stroke="#0430b3" d="M573,-674.498C573,-668.828 573,-663.008 573,-657.089"/>
<polygon fill="#0430b3" stroke="#0430b3" points="573,-674.708 568.5,-684.707 573,-679.708 573,-684.708 573,-684.708 573,-684.708 573,-679.708 577.5,-684.708 573,-674.708 573,-674.708"/>
<polygon fill="#0430b3" stroke="#0430b3" points="573,-657.041 577.5,-647.041 573,-652.041 573,-647.041 573,-647.041 573,-647.041 573,-652.041 568.5,-647.041 573,-657.041 573,-657.041"/>
</g>
<!-- Ability -->
<g id="node5" class="node"><title>Ability</title>
<polygon fill="none" stroke="black" points="673,-730 673,-782 733,-782 733,-730 673,-730"/>
<text text-anchor="middle" x="703" y="-765.4" font-family="Times Roman,serif" font-size="14.00">Ability</text>
<polyline fill="none" stroke="black" points="673,-756 733,-756 "/>
<text text-anchor="middle" x="703" y="-739.4" font-family="Times Roman,serif" font-size="14.00"> </text>
</g>
<!-- Note&#45;&gt;Coordinate -->
<g id="edge12" class="edge"><title>Note&#45;&gt;Coordinate</title>
<path fill="none" stroke="#5724e4" d="M221.696,-155.205C223.987,-148.457 226.314,-141.603 228.612,-134.835"/>
<ellipse fill="none" stroke="#5724e4" cx="220.393" cy="-159.042" rx="4.00001" ry="4.00001"/>
<polygon fill="#5724e4" stroke="#5724e4" points="228.734,-134.473 236.21,-126.45 230.342,-129.738 231.949,-125.004 231.949,-125.004 231.949,-125.004 230.342,-129.738 227.688,-123.557 228.734,-134.473 228.734,-134.473"/>
</g>
<!-- Blueprint&#45;&gt;Coordinate -->
<g id="edge14" class="edge"><title>Blueprint&#45;&gt;Coordinate</title>
<path fill="none" stroke="#bfd037" d="M309.707,-415.504C309.939,-349.352 306.761,-247.993 289,-162 287.153,-153.056 284.656,-143.834 281.834,-134.783"/>
<ellipse fill="none" stroke="#bfd037" cx="309.682" cy="-419.795" rx="4" ry="4"/>
<polygon fill="#bfd037" stroke="#bfd037" points="281.761,-134.558 282.938,-123.655 280.21,-129.804 278.659,-125.051 278.659,-125.051 278.659,-125.051 280.21,-129.804 274.381,-126.446 281.761,-134.558 281.761,-134.558"/>
</g>
<!-- Blueprint&#45;&gt;Note -->
<g id="edge16" class="edge"><title>Blueprint&#45;&gt;Note</title>
<path fill="none" stroke="#9889c4" d="M277.831,-414.417C262.408,-377.822 243.687,-333.403 228.252,-296.78"/>
<polygon fill="#9889c4" stroke="#9889c4" points="277.908,-414.601 277.645,-425.563 279.85,-419.208 281.792,-423.816 281.792,-423.816 281.792,-423.816 279.85,-419.208 285.939,-422.068 277.908,-414.601 277.908,-414.601"/>
<polygon fill="#9889c4" stroke="#9889c4" points="228.081,-296.375 228.344,-285.412 226.14,-291.767 224.198,-287.16 224.198,-287.16 224.198,-287.16 226.14,-291.767 220.051,-288.908 228.081,-296.375 228.081,-296.375"/>
</g>
<!-- User&#45;&gt;Participant -->
<g id="edge18" class="edge"><title>User&#45;&gt;Participant</title>
<path fill="none" stroke="#56f381" d="M522.531,-317.123C520.482,-310.267 518.479,-303.565 516.549,-297.105"/>
<ellipse fill="none" stroke="#56f381" cx="523.677" cy="-320.958" rx="4.00001" ry="4.00001"/>
<polygon fill="#56f381" stroke="#56f381" points="516.441,-296.744 517.889,-285.874 515.009,-291.953 513.577,-287.162 513.577,-287.162 513.577,-287.162 515.009,-291.953 509.266,-288.451 516.441,-296.744 516.441,-296.744"/>
</g>
</g>
</svg>
