<?xml version="1.0" encoding="UTF-8" standalone="no"?>
<!DOCTYPE svg PUBLIC "-//W3C//DTD SVG 1.1//EN"
 "http://www.w3.org/Graphics/SVG/1.1/DTD/svg11.dtd">
<!-- Generated by graphviz version 2.26.3 (20100126.1600)
 -->
<!-- Title: models_diagram Pages: 1 -->
<svg width="1542pt" height="876pt"
 viewBox="0.00 0.00 1542.50 876.00" xmlns="http://www.w3.org/2000/svg" xmlns:xlink="http://www.w3.org/1999/xlink">
<g id="graph1" class="graph" transform="scale(1 1) rotate(0) translate(4 872)">
<title>models_diagram</title>
<polygon fill="white" stroke="white" points="-4,5 -4,-872 1539.5,-872 1539.5,5 -4,5"/>
<!-- _diagram_info -->
<g id="node1" class="node"><title>_diagram_info</title>
<text text-anchor="start" x="624.168" y="-844.8" font-family="Times Roman,serif" font-size="13.00">Models diagram</text>
<text text-anchor="start" x="624.168" y="-827.8" font-family="Times Roman,serif" font-size="13.00">Date: Jan 09 2013 &#45; 19:06</text>
<text text-anchor="start" x="624.168" y="-810.8" font-family="Times Roman,serif" font-size="13.00">Migration version: 20130109025748</text>
<text text-anchor="start" x="624.168" y="-793.8" font-family="Times Roman,serif" font-size="13.00">Generated by RailRoady 1.1.0</text>
<text text-anchor="start" x="624.168" y="-776.8" font-family="Times Roman,serif" font-size="13.00">http://railroady.prestonlee.com</text>
</g>
<!-- Coordinate -->
<g id="node2" class="node"><title>Coordinate</title>
<polyline fill="none" stroke="black" points="281.668,-1 422.668,-1 "/>
<path fill="none" stroke="black" d="M422.668,-1C428.668,-1 434.668,-7 434.668,-13"/>
<polyline fill="none" stroke="black" points="434.668,-13 434.668,-113 "/>
<path fill="none" stroke="black" d="M434.668,-113C434.668,-119 428.668,-125 422.668,-125"/>
<polyline fill="none" stroke="black" points="422.668,-125 281.668,-125 "/>
<path fill="none" stroke="black" d="M281.668,-125C275.668,-125 269.668,-119 269.668,-113"/>
<polyline fill="none" stroke="black" points="269.668,-113 269.668,-13 "/>
<path fill="none" stroke="black" d="M269.668,-13C269.668,-7 275.668,-1 281.668,-1"/>
<text text-anchor="middle" x="352.168" y="-108.4" font-family="Times Roman,serif" font-size="14.00">Coordinate</text>
<polyline fill="none" stroke="black" points="269.668,-99 434.668,-99 "/>
<text text-anchor="start" x="277.668" y="-82.4" font-family="Times Roman,serif" font-size="14.00">id :integer</text>
<text text-anchor="start" x="277.668" y="-64.4" font-family="Times Roman,serif" font-size="14.00">note_id :integer</text>
<text text-anchor="start" x="277.668" y="-46.4" font-family="Times Roman,serif" font-size="14.00">blueprint_id :integer</text>
<text text-anchor="start" x="277.668" y="-28.4" font-family="Times Roman,serif" font-size="14.00">created_at :datetime</text>
<text text-anchor="start" x="277.668" y="-10.4" font-family="Times Roman,serif" font-size="14.00">updated_at :datetime</text>
</g>
<!-- Project -->
<g id="node3" class="node"><title>Project</title>
<polyline fill="none" stroke="black" points="895.668,-761 1036.67,-761 "/>
<path fill="none" stroke="black" d="M1036.67,-761C1042.67,-761 1048.67,-767 1048.67,-773"/>
<polyline fill="none" stroke="black" points="1048.67,-773 1048.67,-855 "/>
<path fill="none" stroke="black" d="M1048.67,-855C1048.67,-861 1042.67,-867 1036.67,-867"/>
<polyline fill="none" stroke="black" points="1036.67,-867 895.668,-867 "/>
<path fill="none" stroke="black" d="M895.668,-867C889.668,-867 883.668,-861 883.668,-855"/>
<polyline fill="none" stroke="black" points="883.668,-855 883.668,-773 "/>
<path fill="none" stroke="black" d="M883.668,-773C883.668,-767 889.668,-761 895.668,-761"/>
<text text-anchor="middle" x="966.168" y="-850.4" font-family="Times Roman,serif" font-size="14.00">Project</text>
<polyline fill="none" stroke="black" points="883.668,-841 1048.67,-841 "/>
<text text-anchor="start" x="891.668" y="-824.4" font-family="Times Roman,serif" font-size="14.00">id :integer</text>
<text text-anchor="start" x="891.668" y="-806.4" font-family="Times Roman,serif" font-size="14.00">name :string</text>
<text text-anchor="start" x="891.668" y="-788.4" font-family="Times Roman,serif" font-size="14.00">created_at :datetime</text>
<text text-anchor="start" x="891.668" y="-770.4" font-family="Times Roman,serif" font-size="14.00">updated_at :datetime</text>
</g>
<!-- Task -->
<g id="node6" class="node"><title>Task</title>
<polyline fill="none" stroke="black" points="675.668,-561 816.668,-561 "/>
<path fill="none" stroke="black" d="M816.668,-561C822.668,-561 828.668,-567 828.668,-573"/>
<polyline fill="none" stroke="black" points="828.668,-573 828.668,-691 "/>
<path fill="none" stroke="black" d="M828.668,-691C828.668,-697 822.668,-703 816.668,-703"/>
<polyline fill="none" stroke="black" points="816.668,-703 675.668,-703 "/>
<path fill="none" stroke="black" d="M675.668,-703C669.668,-703 663.668,-697 663.668,-691"/>
<polyline fill="none" stroke="black" points="663.668,-691 663.668,-573 "/>
<path fill="none" stroke="black" d="M663.668,-573C663.668,-567 669.668,-561 675.668,-561"/>
<text text-anchor="middle" x="746.168" y="-686.4" font-family="Times Roman,serif" font-size="14.00">Task</text>
<polyline fill="none" stroke="black" points="663.668,-677 828.668,-677 "/>
<text text-anchor="start" x="671.668" y="-660.4" font-family="Times Roman,serif" font-size="14.00">id :integer</text>
<text text-anchor="start" x="671.668" y="-642.4" font-family="Times Roman,serif" font-size="14.00">name :string</text>
<text text-anchor="start" x="671.668" y="-624.4" font-family="Times Roman,serif" font-size="14.00">complete :boolean</text>
<text text-anchor="start" x="671.668" y="-606.4" font-family="Times Roman,serif" font-size="14.00">created_at :datetime</text>
<text text-anchor="start" x="671.668" y="-588.4" font-family="Times Roman,serif" font-size="14.00">updated_at :datetime</text>
<text text-anchor="start" x="671.668" y="-570.4" font-family="Times Roman,serif" font-size="14.00">project_id :integer</text>
</g>
<!-- Project&#45;&gt;Task -->
<g id="edge14" class="edge"><title>Project&#45;&gt;Task</title>
<path fill="none" stroke="#dfdcb5" d="M876.443,-760.727C876.017,-760.484 875.592,-760.241 875.168,-760 860.649,-751.736 855.197,-752.457 842.168,-742 830.492,-732.63 819.094,-721.728 808.467,-710.5"/>
<ellipse fill="none" stroke="#dfdcb5" cx="879.945" cy="-762.733" rx="4.00002" ry="4.00002"/>
<polygon fill="#dfdcb5" stroke="#dfdcb5" points="808.396,-710.423 804.901,-700.029 804.998,-706.755 801.6,-703.088 801.6,-703.088 801.6,-703.088 804.998,-706.755 798.299,-706.146 808.396,-710.423 808.396,-710.423"/>
</g>
<!-- Note -->
<g id="node9" class="node"><title>Note</title>
<polyline fill="none" stroke="black" points="312.668,-262 453.668,-262 "/>
<path fill="none" stroke="black" d="M453.668,-262C459.668,-262 465.668,-268 465.668,-274"/>
<polyline fill="none" stroke="black" points="465.668,-274 465.668,-410 "/>
<path fill="none" stroke="black" d="M465.668,-410C465.668,-416 459.668,-422 453.668,-422"/>
<polyline fill="none" stroke="black" points="453.668,-422 312.668,-422 "/>
<path fill="none" stroke="black" d="M312.668,-422C306.668,-422 300.668,-416 300.668,-410"/>
<polyline fill="none" stroke="black" points="300.668,-410 300.668,-274 "/>
<path fill="none" stroke="black" d="M300.668,-274C300.668,-268 306.668,-262 312.668,-262"/>
<text text-anchor="middle" x="383.168" y="-405.4" font-family="Times Roman,serif" font-size="14.00">Note</text>
<polyline fill="none" stroke="black" points="300.668,-396 465.668,-396 "/>
<text text-anchor="start" x="308.668" y="-379.4" font-family="Times Roman,serif" font-size="14.00">id :integer</text>
<text text-anchor="start" x="308.668" y="-361.4" font-family="Times Roman,serif" font-size="14.00">note :string</text>
<text text-anchor="start" x="308.668" y="-343.4" font-family="Times Roman,serif" font-size="14.00">created_at :datetime</text>
<text text-anchor="start" x="308.668" y="-325.4" font-family="Times Roman,serif" font-size="14.00">updated_at :datetime</text>
<text text-anchor="start" x="308.668" y="-307.4" font-family="Times Roman,serif" font-size="14.00">project_id :integer</text>
<text text-anchor="start" x="308.668" y="-289.4" font-family="Times Roman,serif" font-size="14.00">position :integer</text>
<text text-anchor="start" x="308.668" y="-271.4" font-family="Times Roman,serif" font-size="14.00">note_text :text</text>
</g>
<!-- Project&#45;&gt;Note -->
<g id="edge4" class="edge"><title>Project&#45;&gt;Note</title>
<path fill="none" stroke="#2fee18" d="M875.944,-760.288C875.685,-760.191 875.426,-760.095 875.168,-760 782.071,-725.668 741.324,-771.223 655.168,-722 540.921,-656.727 462.263,-521.647 419.954,-431.404"/>
<ellipse fill="none" stroke="#2fee18" cx="879.746" cy="-761.805" rx="4.00001" ry="4.00001"/>
<polygon fill="#2fee18" stroke="#2fee18" points="419.926,-431.344 419.807,-420.379 417.825,-426.807 415.724,-422.27 415.724,-422.27 415.724,-422.27 417.825,-426.807 411.641,-424.161 419.926,-431.344 419.926,-431.344"/>
</g>
<!-- Blueprint -->
<g id="node10" class="node"><title>Blueprint</title>
<polyline fill="none" stroke="black" points="312.668,-543 453.668,-543 "/>
<path fill="none" stroke="black" d="M453.668,-543C459.668,-543 465.668,-549 465.668,-555"/>
<polyline fill="none" stroke="black" points="465.668,-555 465.668,-709 "/>
<path fill="none" stroke="black" d="M465.668,-709C465.668,-715 459.668,-721 453.668,-721"/>
<polyline fill="none" stroke="black" points="453.668,-721 312.668,-721 "/>
<path fill="none" stroke="black" d="M312.668,-721C306.668,-721 300.668,-715 300.668,-709"/>
<polyline fill="none" stroke="black" points="300.668,-709 300.668,-555 "/>
<path fill="none" stroke="black" d="M300.668,-555C300.668,-549 306.668,-543 312.668,-543"/>
<text text-anchor="middle" x="383.168" y="-704.4" font-family="Times Roman,serif" font-size="14.00">Blueprint</text>
<polyline fill="none" stroke="black" points="300.668,-695 465.668,-695 "/>
<text text-anchor="start" x="308.668" y="-678.4" font-family="Times Roman,serif" font-size="14.00">id :integer</text>
<text text-anchor="start" x="308.668" y="-660.4" font-family="Times Roman,serif" font-size="14.00">created_at :datetime</text>
<text text-anchor="start" x="308.668" y="-642.4" font-family="Times Roman,serif" font-size="14.00">updated_at :datetime</text>
<text text-anchor="start" x="308.668" y="-624.4" font-family="Times Roman,serif" font-size="14.00">project_id :integer</text>
<text text-anchor="start" x="308.668" y="-606.4" font-family="Times Roman,serif" font-size="14.00">bpu :string</text>
<text text-anchor="start" x="308.668" y="-588.4" font-family="Times Roman,serif" font-size="14.00">title :string</text>
<text text-anchor="start" x="308.668" y="-570.4" font-family="Times Roman,serif" font-size="14.00">author :string</text>
<text text-anchor="start" x="308.668" y="-552.4" font-family="Times Roman,serif" font-size="14.00">position :integer</text>
</g>
<!-- Project&#45;&gt;Blueprint -->
<g id="edge2" class="edge"><title>Project&#45;&gt;Blueprint</title>
<path fill="none" stroke="#962e7e" d="M875.957,-760.25C875.694,-760.165 875.431,-760.082 875.168,-760 767.584,-726.332 731.359,-770.019 622.168,-742 571.466,-728.989 518.264,-705.584 474.96,-683.698"/>
<ellipse fill="none" stroke="#962e7e" cx="879.811" cy="-761.599" rx="4.00001" ry="4.00001"/>
<polygon fill="#962e7e" stroke="#962e7e" points="474.779,-683.605 467.922,-675.048 470.327,-681.33 465.874,-679.055 465.874,-679.055 465.874,-679.055 470.327,-681.33 463.827,-683.062 474.779,-683.605 474.779,-683.605"/>
</g>
<!-- Participant -->
<g id="node11" class="node"><title>Participant</title>
<polyline fill="none" stroke="black" points="785.668,-1 926.668,-1 "/>
<path fill="none" stroke="black" d="M926.668,-1C932.668,-1 938.668,-7 938.668,-13"/>
<polyline fill="none" stroke="black" points="938.668,-13 938.668,-113 "/>
<path fill="none" stroke="black" d="M938.668,-113C938.668,-119 932.668,-125 926.668,-125"/>
<polyline fill="none" stroke="black" points="926.668,-125 785.668,-125 "/>
<path fill="none" stroke="black" d="M785.668,-125C779.668,-125 773.668,-119 773.668,-113"/>
<polyline fill="none" stroke="black" points="773.668,-113 773.668,-13 "/>
<path fill="none" stroke="black" d="M773.668,-13C773.668,-7 779.668,-1 785.668,-1"/>
<text text-anchor="middle" x="856.168" y="-108.4" font-family="Times Roman,serif" font-size="14.00">Participant</text>
<polyline fill="none" stroke="black" points="773.668,-99 938.668,-99 "/>
<text text-anchor="start" x="781.668" y="-82.4" font-family="Times Roman,serif" font-size="14.00">id :integer</text>
<text text-anchor="start" x="781.668" y="-64.4" font-family="Times Roman,serif" font-size="14.00">project_id :integer</text>
<text text-anchor="start" x="781.668" y="-46.4" font-family="Times Roman,serif" font-size="14.00">user_id :integer</text>
<text text-anchor="start" x="781.668" y="-28.4" font-family="Times Roman,serif" font-size="14.00">created_at :datetime</text>
<text text-anchor="start" x="781.668" y="-10.4" font-family="Times Roman,serif" font-size="14.00">updated_at :datetime</text>
</g>
<!-- Project&#45;&gt;Participant -->
<g id="edge6" class="edge"><title>Project&#45;&gt;Participant</title>
<path fill="none" stroke="#96ec50" d="M895.526,-754.626C887.336,-744.596 880.145,-733.631 875.168,-722 830.833,-618.405 843.458,-284.321 851.65,-135.587"/>
<ellipse fill="none" stroke="#96ec50" cx="898.149" cy="-757.704" rx="4.00002" ry="4.00002"/>
<polygon fill="#96ec50" stroke="#96ec50" points="851.672,-135.189 856.724,-125.456 851.951,-130.197 852.231,-125.205 852.231,-125.205 852.231,-125.205 851.951,-130.197 847.738,-124.953 851.672,-135.189 851.672,-135.189"/>
</g>
<!-- City -->
<g id="node12" class="node"><title>City</title>
<polyline fill="none" stroke="black" points="1297.67,-579 1438.67,-579 "/>
<path fill="none" stroke="black" d="M1438.67,-579C1444.67,-579 1450.67,-585 1450.67,-591"/>
<polyline fill="none" stroke="black" points="1450.67,-591 1450.67,-673 "/>
<path fill="none" stroke="black" d="M1450.67,-673C1450.67,-679 1444.67,-685 1438.67,-685"/>
<polyline fill="none" stroke="black" points="1438.67,-685 1297.67,-685 "/>
<path fill="none" stroke="black" d="M1297.67,-685C1291.67,-685 1285.67,-679 1285.67,-673"/>
<polyline fill="none" stroke="black" points="1285.67,-673 1285.67,-591 "/>
<path fill="none" stroke="black" d="M1285.67,-591C1285.67,-585 1291.67,-579 1297.67,-579"/>
<text text-anchor="middle" x="1368.17" y="-668.4" font-family="Times Roman,serif" font-size="14.00">City</text>
<polyline fill="none" stroke="black" points="1285.67,-659 1450.67,-659 "/>
<text text-anchor="start" x="1293.67" y="-642.4" font-family="Times Roman,serif" font-size="14.00">id :integer</text>
<text text-anchor="start" x="1293.67" y="-624.4" font-family="Times Roman,serif" font-size="14.00">created_at :datetime</text>
<text text-anchor="start" x="1293.67" y="-606.4" font-family="Times Roman,serif" font-size="14.00">updated_at :datetime</text>
<text text-anchor="start" x="1293.67" y="-588.4" font-family="Times Roman,serif" font-size="14.00">name :string</text>
</g>
<!-- Project&#45;&gt;City -->
<g id="edge12" class="edge"><title>Project&#45;&gt;City</title>
<path fill="none" stroke="#8b2bda" d="M1053.3,-758.251C1143.42,-727.887 1182.36,-766.178 1268.17,-722 1283.28,-714.221 1297.48,-703.056 1310.21,-691.224"/>
<ellipse fill="none" stroke="#8b2bda" cx="1049.35" cy="-759.646" rx="4.00001" ry="4.00001"/>
<ellipse fill="#8b2bda" stroke="#8b2bda" cx="1313.45" cy="-688.135" rx="4.00002" ry="4.00002"/>
</g>
<!-- Seal -->
<g id="node13" class="node"><title>Seal</title>
<polyline fill="none" stroke="black" points="1331.67,-1 1472.67,-1 "/>
<path fill="none" stroke="black" d="M1472.67,-1C1478.67,-1 1484.67,-7 1484.67,-13"/>
<polyline fill="none" stroke="black" points="1484.67,-13 1484.67,-113 "/>
<path fill="none" stroke="black" d="M1484.67,-113C1484.67,-119 1478.67,-125 1472.67,-125"/>
<polyline fill="none" stroke="black" points="1472.67,-125 1331.67,-125 "/>
<path fill="none" stroke="black" d="M1331.67,-125C1325.67,-125 1319.67,-119 1319.67,-113"/>
<polyline fill="none" stroke="black" points="1319.67,-113 1319.67,-13 "/>
<path fill="none" stroke="black" d="M1319.67,-13C1319.67,-7 1325.67,-1 1331.67,-1"/>
<text text-anchor="middle" x="1402.17" y="-108.4" font-family="Times Roman,serif" font-size="14.00">Seal</text>
<polyline fill="none" stroke="black" points="1319.67,-99 1484.67,-99 "/>
<text text-anchor="start" x="1327.67" y="-82.4" font-family="Times Roman,serif" font-size="14.00">id :integer</text>
<text text-anchor="start" x="1327.67" y="-64.4" font-family="Times Roman,serif" font-size="14.00">project_id :integer</text>
<text text-anchor="start" x="1327.67" y="-46.4" font-family="Times Roman,serif" font-size="14.00">city_id :integer</text>
<text text-anchor="start" x="1327.67" y="-28.4" font-family="Times Roman,serif" font-size="14.00">created_at :datetime</text>
<text text-anchor="start" x="1327.67" y="-10.4" font-family="Times Roman,serif" font-size="14.00">updated_at :datetime</text>
</g>
<!-- Project&#45;&gt;Seal -->
<g id="edge10" class="edge"><title>Project&#45;&gt;Seal</title>
<path fill="none" stroke="#64efe4" d="M1056.38,-760.259C1056.64,-760.172 1056.91,-760.085 1057.17,-760 1142.49,-732.208 1398.78,-788.368 1459.17,-722 1608.6,-557.779 1499.8,-265.717 1437.59,-132.591"/>
<ellipse fill="none" stroke="#64efe4" cx="1052.54" cy="-761.647" rx="4.00001" ry="4.00001"/>
<ellipse fill="#64efe4" stroke="#64efe4" cx="1435.82" cy="-128.831" rx="4.00002" ry="4.00002"/>
</g>
<!-- User -->
<g id="node15" class="node"><title>User</title>
<polyline fill="none" stroke="black" points="1043.17,-181 1273.17,-181 "/>
<path fill="none" stroke="black" d="M1273.17,-181C1279.17,-181 1285.17,-187 1285.17,-193"/>
<polyline fill="none" stroke="black" points="1285.17,-193 1285.17,-491 "/>
<path fill="none" stroke="black" d="M1285.17,-491C1285.17,-497 1279.17,-503 1273.17,-503"/>
<polyline fill="none" stroke="black" points="1273.17,-503 1043.17,-503 "/>
<path fill="none" stroke="black" d="M1043.17,-503C1037.17,-503 1031.17,-497 1031.17,-491"/>
<polyline fill="none" stroke="black" points="1031.17,-491 1031.17,-193 "/>
<path fill="none" stroke="black" d="M1031.17,-193C1031.17,-187 1037.17,-181 1043.17,-181"/>
<text text-anchor="middle" x="1158.17" y="-486.4" font-family="Times Roman,serif" font-size="14.00">User</text>
<polyline fill="none" stroke="black" points="1031.17,-477 1285.17,-477 "/>
<text text-anchor="start" x="1039.17" y="-460.4" font-family="Times Roman,serif" font-size="14.00">id :integer</text>
<text text-anchor="start" x="1039.17" y="-442.4" font-family="Times Roman,serif" font-size="14.00">email :string</text>
<text text-anchor="start" x="1039.17" y="-424.4" font-family="Times Roman,serif" font-size="14.00">encrypted_password :string</text>
<text text-anchor="start" x="1039.17" y="-406.4" font-family="Times Roman,serif" font-size="14.00">reset_password_token :string</text>
<text text-anchor="start" x="1039.17" y="-388.4" font-family="Times Roman,serif" font-size="14.00">reset_password_sent_at :datetime</text>
<text text-anchor="start" x="1039.17" y="-370.4" font-family="Times Roman,serif" font-size="14.00">remember_created_at :datetime</text>
<text text-anchor="start" x="1039.17" y="-352.4" font-family="Times Roman,serif" font-size="14.00">sign_in_count :integer</text>
<text text-anchor="start" x="1039.17" y="-334.4" font-family="Times Roman,serif" font-size="14.00">current_sign_in_at :datetime</text>
<text text-anchor="start" x="1039.17" y="-316.4" font-family="Times Roman,serif" font-size="14.00">last_sign_in_at :datetime</text>
<text text-anchor="start" x="1039.17" y="-298.4" font-family="Times Roman,serif" font-size="14.00">current_sign_in_ip :string</text>
<text text-anchor="start" x="1039.17" y="-280.4" font-family="Times Roman,serif" font-size="14.00">last_sign_in_ip :string</text>
<text text-anchor="start" x="1039.17" y="-262.4" font-family="Times Roman,serif" font-size="14.00">created_at :datetime</text>
<text text-anchor="start" x="1039.17" y="-244.4" font-family="Times Roman,serif" font-size="14.00">updated_at :datetime</text>
<text text-anchor="start" x="1039.17" y="-226.4" font-family="Times Roman,serif" font-size="14.00">name :string</text>
<text text-anchor="start" x="1039.17" y="-208.4" font-family="Times Roman,serif" font-size="14.00">customer_id :string</text>
<text text-anchor="start" x="1039.17" y="-190.4" font-family="Times Roman,serif" font-size="14.00">last_4_digits :string</text>
</g>
<!-- Project&#45;&gt;User -->
<g id="edge8" class="edge"><title>Project&#45;&gt;User</title>
<path fill="none" stroke="#37d594" d="M1035.43,-753.158C1043.7,-743.419 1051.28,-732.925 1057.17,-722 1095.94,-650.012 1074.42,-621.086 1095.17,-542 1097.66,-532.493 1100.33,-522.766 1103.11,-512.972"/>
<polygon fill="#37d594" stroke="#37d594" points="1035.3,-753.312 1025.3,-757.82 1031.98,-757.057 1028.67,-760.802 1028.67,-760.802 1028.67,-760.802 1031.98,-757.057 1032.04,-763.784 1035.3,-753.312 1035.3,-753.312"/>
<polygon fill="#37d594" stroke="#37d594" points="1103.17,-512.774 1110.25,-504.402 1104.55,-507.968 1105.92,-503.162 1105.92,-503.162 1105.92,-503.162 1104.55,-507.968 1101.6,-501.921 1103.17,-512.774 1103.17,-512.774"/>
</g>
<!-- Role -->
<g id="node4" class="node"><title>Role</title>
<polyline fill="none" stroke="black" points="1115.67,-561 1256.67,-561 "/>
<path fill="none" stroke="black" d="M1256.67,-561C1262.67,-561 1268.67,-567 1268.67,-573"/>
<polyline fill="none" stroke="black" points="1268.67,-573 1268.67,-691 "/>
<path fill="none" stroke="black" d="M1268.67,-691C1268.67,-697 1262.67,-703 1256.67,-703"/>
<polyline fill="none" stroke="black" points="1256.67,-703 1115.67,-703 "/>
<path fill="none" stroke="black" d="M1115.67,-703C1109.67,-703 1103.67,-697 1103.67,-691"/>
<polyline fill="none" stroke="black" points="1103.67,-691 1103.67,-573 "/>
<path fill="none" stroke="black" d="M1103.67,-573C1103.67,-567 1109.67,-561 1115.67,-561"/>
<text text-anchor="middle" x="1186.17" y="-686.4" font-family="Times Roman,serif" font-size="14.00">Role</text>
<polyline fill="none" stroke="black" points="1103.67,-677 1268.67,-677 "/>
<text text-anchor="start" x="1111.67" y="-660.4" font-family="Times Roman,serif" font-size="14.00">id :integer</text>
<text text-anchor="start" x="1111.67" y="-642.4" font-family="Times Roman,serif" font-size="14.00">name :string</text>
<text text-anchor="start" x="1111.67" y="-624.4" font-family="Times Roman,serif" font-size="14.00">resource_id :integer</text>
<text text-anchor="start" x="1111.67" y="-606.4" font-family="Times Roman,serif" font-size="14.00">resource_type :string</text>
<text text-anchor="start" x="1111.67" y="-588.4" font-family="Times Roman,serif" font-size="14.00">created_at :datetime</text>
<text text-anchor="start" x="1111.67" y="-570.4" font-family="Times Roman,serif" font-size="14.00">updated_at :datetime</text>
</g>
<!-- Role&#45;&gt;User -->
<g id="edge16" class="edge"><title>Role&#45;&gt;User</title>
<path fill="none" stroke="#bfca6b" d="M1178.3,-550.534C1177.16,-538.747 1175.96,-526.262 1174.73,-513.493"/>
<polygon fill="#bfca6b" stroke="#bfca6b" points="1178.32,-550.733 1174.8,-561.119 1178.8,-555.71 1179.28,-560.687 1179.28,-560.687 1179.28,-560.687 1178.8,-555.71 1183.76,-560.254 1178.32,-550.733 1178.32,-550.733"/>
<polygon fill="#bfca6b" stroke="#bfca6b" points="1174.69,-513.153 1178.21,-502.767 1174.21,-508.176 1173.73,-503.199 1173.73,-503.199 1173.73,-503.199 1174.21,-508.176 1169.25,-503.632 1174.69,-513.153 1174.69,-513.153"/>
</g>
<!-- Group -->
<g id="node5" class="node"><title>Group</title>
<polyline fill="none" stroke="black" points="895.668,-579 1036.67,-579 "/>
<path fill="none" stroke="black" d="M1036.67,-579C1042.67,-579 1048.67,-585 1048.67,-591"/>
<polyline fill="none" stroke="black" points="1048.67,-591 1048.67,-673 "/>
<path fill="none" stroke="black" d="M1048.67,-673C1048.67,-679 1042.67,-685 1036.67,-685"/>
<polyline fill="none" stroke="black" points="1036.67,-685 895.668,-685 "/>
<path fill="none" stroke="black" d="M895.668,-685C889.668,-685 883.668,-679 883.668,-673"/>
<polyline fill="none" stroke="black" points="883.668,-673 883.668,-591 "/>
<path fill="none" stroke="black" d="M883.668,-591C883.668,-585 889.668,-579 895.668,-579"/>
<text text-anchor="middle" x="966.168" y="-668.4" font-family="Times Roman,serif" font-size="14.00">Group</text>
<polyline fill="none" stroke="black" points="883.668,-659 1048.67,-659 "/>
<text text-anchor="start" x="891.668" y="-642.4" font-family="Times Roman,serif" font-size="14.00">id :integer</text>
<text text-anchor="start" x="891.668" y="-624.4" font-family="Times Roman,serif" font-size="14.00">name :string</text>
<text text-anchor="start" x="891.668" y="-606.4" font-family="Times Roman,serif" font-size="14.00">created_at :datetime</text>
<text text-anchor="start" x="891.668" y="-588.4" font-family="Times Roman,serif" font-size="14.00">updated_at :datetime</text>
</g>
<!-- Member -->
<g id="node14" class="node"><title>Member</title>
<polyline fill="none" stroke="black" points="967.668,-1 1108.67,-1 "/>
<path fill="none" stroke="black" d="M1108.67,-1C1114.67,-1 1120.67,-7 1120.67,-13"/>
<polyline fill="none" stroke="black" points="1120.67,-13 1120.67,-113 "/>
<path fill="none" stroke="black" d="M1120.67,-113C1120.67,-119 1114.67,-125 1108.67,-125"/>
<polyline fill="none" stroke="black" points="1108.67,-125 967.668,-125 "/>
<path fill="none" stroke="black" d="M967.668,-125C961.668,-125 955.668,-119 955.668,-113"/>
<polyline fill="none" stroke="black" points="955.668,-113 955.668,-13 "/>
<path fill="none" stroke="black" d="M955.668,-13C955.668,-7 961.668,-1 967.668,-1"/>
<text text-anchor="middle" x="1038.17" y="-108.4" font-family="Times Roman,serif" font-size="14.00">Member</text>
<polyline fill="none" stroke="black" points="955.668,-99 1120.67,-99 "/>
<text text-anchor="start" x="963.668" y="-82.4" font-family="Times Roman,serif" font-size="14.00">id :integer</text>
<text text-anchor="start" x="963.668" y="-64.4" font-family="Times Roman,serif" font-size="14.00">group_id :integer</text>
<text text-anchor="start" x="963.668" y="-46.4" font-family="Times Roman,serif" font-size="14.00">user_id :integer</text>
<text text-anchor="start" x="963.668" y="-28.4" font-family="Times Roman,serif" font-size="14.00">created_at :datetime</text>
<text text-anchor="start" x="963.668" y="-10.4" font-family="Times Roman,serif" font-size="14.00">updated_at :datetime</text>
</g>
<!-- Group&#45;&gt;Member -->
<g id="edge18" class="edge"><title>Group&#45;&gt;Member</title>
<path fill="none" stroke="#43545a" d="M973.529,-570.568C984.009,-483.588 1003.98,-319.574 1022.17,-180 1024.05,-165.547 1026.12,-150.098 1028.13,-135.321"/>
<ellipse fill="none" stroke="#43545a" cx="973.023" cy="-574.771" rx="4.00001" ry="4.00001"/>
<polygon fill="#43545a" stroke="#43545a" points="1028.16,-135.127 1033.97,-125.827 1028.83,-130.173 1029.51,-125.219 1029.51,-125.219 1029.51,-125.219 1028.83,-130.173 1025.05,-124.61 1028.16,-135.127 1028.16,-135.127"/>
</g>
<!-- Group&#45;&gt;User -->
<g id="edge20" class="edge"><title>Group&#45;&gt;User</title>
<path fill="none" stroke="#585c4d" d="M1006.94,-570.41C1018.68,-552.685 1032.08,-532.439 1045.95,-511.491"/>
<polygon fill="#585c4d" stroke="#585c4d" points="1006.9,-570.471 997.632,-576.325 1004.14,-574.64 1001.38,-578.81 1001.38,-578.81 1001.38,-578.81 1004.14,-574.64 1005.14,-581.294 1006.9,-570.471 1006.9,-570.471"/>
<polygon fill="#585c4d" stroke="#585c4d" points="1045.98,-511.454 1055.25,-505.6 1048.74,-507.285 1051.5,-503.116 1051.5,-503.116 1051.5,-503.116 1048.74,-507.285 1047.75,-500.632 1045.98,-511.454 1045.98,-511.454"/>
</g>
<!-- Ability -->
<g id="node7" class="node"><title>Ability</title>
<polygon fill="none" stroke="black" points="1066.17,-788 1066.17,-840 1126.17,-840 1126.17,-788 1066.17,-788"/>
<text text-anchor="middle" x="1096.17" y="-823.4" font-family="Times Roman,serif" font-size="14.00">Ability</text>
<polyline fill="none" stroke="black" points="1066.17,-814 1126.17,-814 "/>
<text text-anchor="middle" x="1096.17" y="-797.4" font-family="Times Roman,serif" font-size="14.00"> </text>
</g>
<!-- Reviewer -->
<g id="node8" class="node"><title>Reviewer</title>
<polyline fill="none" stroke="black" points="1149.67,-1 1290.67,-1 "/>
<path fill="none" stroke="black" d="M1290.67,-1C1296.67,-1 1302.67,-7 1302.67,-13"/>
<polyline fill="none" stroke="black" points="1302.67,-13 1302.67,-113 "/>
<path fill="none" stroke="black" d="M1302.67,-113C1302.67,-119 1296.67,-125 1290.67,-125"/>
<polyline fill="none" stroke="black" points="1290.67,-125 1149.67,-125 "/>
<path fill="none" stroke="black" d="M1149.67,-125C1143.67,-125 1137.67,-119 1137.67,-113"/>
<polyline fill="none" stroke="black" points="1137.67,-113 1137.67,-13 "/>
<path fill="none" stroke="black" d="M1137.67,-13C1137.67,-7 1143.67,-1 1149.67,-1"/>
<text text-anchor="middle" x="1220.17" y="-108.4" font-family="Times Roman,serif" font-size="14.00">Reviewer</text>
<polyline fill="none" stroke="black" points="1137.67,-99 1302.67,-99 "/>
<text text-anchor="start" x="1145.67" y="-82.4" font-family="Times Roman,serif" font-size="14.00">id :integer</text>
<text text-anchor="start" x="1145.67" y="-64.4" font-family="Times Roman,serif" font-size="14.00">user_id :integer</text>
<text text-anchor="start" x="1145.67" y="-46.4" font-family="Times Roman,serif" font-size="14.00">city_id :integer</text>
<text text-anchor="start" x="1145.67" y="-28.4" font-family="Times Roman,serif" font-size="14.00">created_at :datetime</text>
<text text-anchor="start" x="1145.67" y="-10.4" font-family="Times Roman,serif" font-size="14.00">updated_at :datetime</text>
</g>
<!-- Note&#45;&gt;Coordinate -->
<g id="edge22" class="edge"><title>Note&#45;&gt;Coordinate</title>
<path fill="none" stroke="#ce4503" d="M373.355,-253.682C369.107,-215.449 364.197,-171.261 360.174,-135.055"/>
<ellipse fill="none" stroke="#ce4503" cx="373.801" cy="-257.7" rx="4.00001" ry="4.00001"/>
<polygon fill="#ce4503" stroke="#ce4503" points="360.169,-135.005 363.537,-124.57 359.616,-130.036 359.064,-125.067 359.064,-125.067 359.064,-125.067 359.616,-130.036 354.592,-125.564 360.169,-135.005 360.169,-135.005"/>
</g>
<!-- ActsAsTaggableOn::Tagging -->
<g id="node28" class="node"><title>ActsAsTaggableOn::Tagging</title>
<ellipse fill="none" stroke="black" cx="596.168" cy="-63" rx="144.25" ry="18.3848"/>
<text text-anchor="middle" x="596.168" y="-59.4" font-family="Times Roman,serif" font-size="14.00">ActsAsTaggableOn::Tagging</text>
</g>
<!-- Note&#45;&gt;ActsAsTaggableOn::Tagging -->
<g id="edge24" class="edge"><title>Note&#45;&gt;ActsAsTaggableOn::Tagging</title>
<path fill="none" stroke="#b28f16" d="M372.111,-253.665C372.013,-216.614 378.361,-175.027 401.168,-144 401.74,-143.222 486.152,-108.33 543.715,-84.5994"/>
<ellipse fill="none" stroke="#b28f16" cx="372.178" cy="-257.988" rx="4" ry="4"/>
<polygon fill="#b28f16" stroke="#b28f16" points="543.814,-84.5585 554.774,-84.9082 548.437,-82.6531 553.059,-80.7477 553.059,-80.7477 553.059,-80.7477 548.437,-82.6531 551.344,-76.5873 543.814,-84.5585 543.814,-84.5585"/>
<text text-anchor="middle" x="430.668" y="-149.4" font-family="Times Roman,serif" font-size="14.00">taggings</text>
</g>
<!-- Note&#45;&gt;ActsAsTaggableOn::Tagging -->
<g id="edge28" class="edge"><title>Note&#45;&gt;ActsAsTaggableOn::Tagging</title>
<path fill="none" stroke="#49128a" d="M416.472,-254.274C433.016,-217.726 455.453,-176.357 483.168,-144 503.078,-120.755 530.988,-100.665 554.088,-86.307"/>
<ellipse fill="none" stroke="#49128a" cx="414.66" cy="-258.341" rx="4.00002" ry="4.00002"/>
<polygon fill="#49128a" stroke="#49128a" points="554.131,-86.2807 565.015,-84.9368 558.405,-83.6855 562.679,-81.0904 562.679,-81.0904 562.679,-81.0904 558.405,-83.6855 560.343,-77.2439 554.131,-86.2807 554.131,-86.2807"/>
<text text-anchor="middle" x="527.668" y="-149.4" font-family="Times Roman,serif" font-size="14.00">tag_taggings</text>
</g>
<!-- ActsAsTaggableOn::Tag -->
<g id="node30" class="node"><title>ActsAsTaggableOn::Tag</title>
<ellipse fill="none" stroke="black" cx="129.168" cy="-63" rx="123.243" ry="18.3848"/>
<text text-anchor="middle" x="129.168" y="-59.4" font-family="Times Roman,serif" font-size="14.00">ActsAsTaggableOn::Tag</text>
</g>
<!-- Note&#45;&gt;ActsAsTaggableOn::Tag -->
<g id="edge26" class="edge"><title>Note&#45;&gt;ActsAsTaggableOn::Tag</title>
<path fill="none" stroke="#b54a00" d="M339.892,-252.575C319.402,-216.125 292.517,-175.292 261.168,-144 236.911,-119.787 204.083,-99.6042 177.234,-85.4411"/>
<polygon fill="#b54a00" stroke="#b54a00" points="340.121,-252.99 341.025,-263.918 342.542,-257.365 344.962,-261.74 344.962,-261.74 344.962,-261.74 342.542,-257.365 348.9,-259.561 340.121,-252.99 340.121,-252.99"/>
<polygon fill="#b54a00" stroke="#b54a00" points="176.898,-85.2683 170.072,-76.6861 172.454,-82.977 168.01,-80.6858 168.01,-80.6858 168.01,-80.6858 172.454,-82.977 165.948,-84.6855 176.898,-85.2683 176.898,-85.2683"/>
<text text-anchor="middle" x="308.668" y="-149.4" font-family="Times Roman,serif" font-size="14.00">base_tags</text>
</g>
<!-- Note&#45;&gt;ActsAsTaggableOn::Tag -->
<g id="edge30" class="edge"><title>Note&#45;&gt;ActsAsTaggableOn::Tag</title>
<path fill="none" stroke="#706a59" d="M302.978,-253.917C250.995,-196.818 186.848,-126.357 152.88,-89.0457"/>
<polygon fill="#706a59" stroke="#706a59" points="303.309,-254.281 306.714,-264.705 306.675,-257.979 310.041,-261.676 310.041,-261.676 310.041,-261.676 306.675,-257.979 313.369,-258.647 303.309,-254.281 303.309,-254.281"/>
<polygon fill="#706a59" stroke="#706a59" points="152.837,-88.9984 149.432,-78.5744 149.471,-85.3011 146.105,-81.6038 146.105,-81.6038 146.105,-81.6038 149.471,-85.3011 142.777,-84.6332 152.837,-88.9984 152.837,-88.9984"/>
<text text-anchor="middle" x="234.168" y="-149.4" font-family="Times Roman,serif" font-size="14.00">tags</text>
</g>
<!-- Blueprint&#45;&gt;Coordinate -->
<g id="edge32" class="edge"><title>Blueprint&#45;&gt;Coordinate</title>
<path fill="none" stroke="#eaa0b2" d="M308.904,-535.551C302.693,-525.212 296.967,-514.594 292.168,-504 227.72,-361.71 229.29,-317.15 211.168,-162 210.24,-154.054 206.568,-150.545 211.168,-144 223.263,-126.79 236.819,-134.535 260.469,-125.572"/>
<ellipse fill="none" stroke="#eaa0b2" cx="311.18" cy="-539.253" rx="4.00002" ry="4.00002"/>
<polygon fill="#eaa0b2" stroke="#eaa0b2" points="260.536,-125.542 271.502,-125.541 265.095,-123.49 269.655,-121.437 269.655,-121.437 269.655,-121.437 265.095,-123.49 267.807,-117.334 260.536,-125.542 260.536,-125.542"/>
</g>
<!-- Blueprint&#45;&gt;Note -->
<g id="edge34" class="edge"><title>Blueprint&#45;&gt;Note</title>
<path fill="none" stroke="#a3339c" d="M383.168,-532.585C383.168,-500.086 383.168,-464.187 383.168,-432.39"/>
<polygon fill="#a3339c" stroke="#a3339c" points="383.168,-532.624 378.668,-542.624 383.168,-537.624 383.168,-542.624 383.168,-542.624 383.168,-542.624 383.168,-537.624 387.668,-542.624 383.168,-532.624 383.168,-532.624"/>
<polygon fill="#a3339c" stroke="#a3339c" points="383.168,-432.22 387.668,-422.22 383.168,-427.22 383.168,-422.22 383.168,-422.22 383.168,-422.22 383.168,-427.22 378.668,-422.22 383.168,-432.22 383.168,-432.22"/>
</g>
<!-- Blueprint&#45;&gt;ActsAsTaggableOn::Tagging -->
<g id="edge36" class="edge"><title>Blueprint&#45;&gt;ActsAsTaggableOn::Tagging</title>
<path fill="none" stroke="#b8e3ac" d="M458.115,-535.848C464.189,-525.449 469.697,-514.737 474.168,-504 530.346,-369.095 439.589,-294.677 530.168,-180 542.756,-164.063 559.056,-177.508 572.168,-162 588.676,-142.475 594.193,-113.429 595.868,-91.8424"/>
<ellipse fill="none" stroke="#b8e3ac" cx="455.883" cy="-539.563" rx="4.00002" ry="4.00002"/>
<polygon fill="#b8e3ac" stroke="#b8e3ac" points="595.881,-91.6075 600.916,-81.866 596.152,-86.6148 596.423,-81.6222 596.423,-81.6222 596.423,-81.6222 596.152,-86.6148 591.929,-81.3784 595.881,-91.6075 595.881,-91.6075"/>
<text text-anchor="middle" x="559.668" y="-338.4" font-family="Times Roman,serif" font-size="14.00">taggings</text>
</g>
<!-- Blueprint&#45;&gt;ActsAsTaggableOn::Tagging -->
<g id="edge40" class="edge"><title>Blueprint&#45;&gt;ActsAsTaggableOn::Tagging</title>
<path fill="none" stroke="#5b31b1" d="M473.157,-599.978C516.294,-579.593 563.961,-548.504 589.168,-504 666.68,-367.149 624.317,-166.008 604.541,-91.8382"/>
<ellipse fill="none" stroke="#5b31b1" cx="469.353" cy="-601.733" rx="4.00002" ry="4.00002"/>
<polygon fill="#5b31b1" stroke="#5b31b1" points="604.444,-91.4845 606.144,-80.6512 603.124,-86.6619 601.804,-81.8393 601.804,-81.8393 601.804,-81.8393 603.124,-86.6619 597.464,-83.0273 604.444,-91.4845 604.444,-91.4845"/>
<text text-anchor="middle" x="678.668" y="-338.4" font-family="Times Roman,serif" font-size="14.00">tag_taggings</text>
</g>
<!-- Blueprint&#45;&gt;ActsAsTaggableOn::Tag -->
<g id="edge38" class="edge"><title>Blueprint&#45;&gt;ActsAsTaggableOn::Tag</title>
<path fill="none" stroke="#d0d473" d="M290.693,-609.242C201.708,-585.25 76.582,-545.274 48.1679,-504 -33.4864,-385.389 5.2318,-317.45 48.1679,-180 59.1242,-144.926 84.6913,-111.114 104.193,-88.9366"/>
<polygon fill="#d0d473" stroke="#d0d473" points="290.879,-609.291 299.38,-616.219 295.71,-610.582 300.541,-611.872 300.541,-611.872 300.541,-611.872 295.71,-610.582 301.702,-607.524 290.879,-609.291 290.879,-609.291"/>
<polygon fill="#d0d473" stroke="#d0d473" points="104.371,-88.7399 114.408,-84.3243 107.718,-85.0257 111.065,-81.3116 111.065,-81.3116 111.065,-81.3116 107.718,-85.0257 107.723,-78.2989 104.371,-88.7399 104.371,-88.7399"/>
<text text-anchor="middle" x="82.6679" y="-338.4" font-family="Times Roman,serif" font-size="14.00">base_tags</text>
</g>
<!-- Blueprint&#45;&gt;ActsAsTaggableOn::Tag -->
<g id="edge42" class="edge"><title>Blueprint&#45;&gt;ActsAsTaggableOn::Tag</title>
<path fill="none" stroke="#931642" d="M291.483,-596.212C250.694,-575.492 206.111,-545.225 180.168,-504 136.718,-434.954 130.254,-178.535 129.318,-91.8493"/>
<polygon fill="#931642" stroke="#931642" points="291.698,-596.318 298.669,-604.784 296.18,-598.534 300.663,-600.75 300.663,-600.75 300.663,-600.75 296.18,-598.534 302.657,-596.716 291.698,-596.318 291.698,-596.318"/>
<polygon fill="#931642" stroke="#931642" points="129.316,-91.6857 133.725,-81.6452 129.271,-86.6859 129.225,-81.6861 129.225,-81.6861 129.225,-81.6861 129.271,-86.6859 124.726,-81.727 129.316,-91.6857 129.316,-91.6857"/>
<text text-anchor="middle" x="195.168" y="-338.4" font-family="Times Roman,serif" font-size="14.00">tags</text>
</g>
<!-- City&#45;&gt;Project -->
<g id="edge50" class="edge"><title>City&#45;&gt;Project</title>
<path fill="none" stroke="#5b9376" d="M1326.39,-692.512C1314.45,-703.864 1300.73,-714.504 1286.17,-722 1197.95,-767.42 1159.27,-725.668 1066.17,-760 1063.46,-760.998 1060.74,-762.077 1058.03,-763.223"/>
<polygon fill="#5b9376" stroke="#5b9376" points="1326.49,-692.416 1336.75,-688.568 1330.04,-688.894 1333.59,-685.373 1333.59,-685.373 1333.59,-685.373 1330.04,-688.894 1330.42,-682.178 1326.49,-692.416 1326.49,-692.416"/>
<polygon fill="#5b9376" stroke="#5b9376" points="1057.92,-763.27 1046.96,-763.251 1053.36,-765.314 1048.8,-767.358 1048.8,-767.358 1048.8,-767.358 1053.36,-765.314 1050.63,-771.464 1057.92,-763.27 1057.92,-763.27"/>
</g>
<!-- City&#45;&gt;Reviewer -->
<g id="edge44" class="edge"><title>City&#45;&gt;Reviewer</title>
<path fill="none" stroke="#f00f1c" d="M1365.87,-570.629C1360.83,-481.776 1344.84,-313.351 1294.17,-180 1288.21,-164.318 1280,-148.489 1271.21,-133.76"/>
<ellipse fill="none" stroke="#f00f1c" cx="1366.09" cy="-574.721" rx="4" ry="4"/>
<polygon fill="#f00f1c" stroke="#f00f1c" points="1271.2,-133.75 1269.81,-122.873 1268.59,-129.487 1265.98,-125.224 1265.98,-125.224 1265.98,-125.224 1268.59,-129.487 1262.14,-127.575 1271.2,-133.75 1271.2,-133.75"/>
</g>
<!-- City&#45;&gt;Seal -->
<g id="edge48" class="edge"><title>City&#45;&gt;Seal</title>
<path fill="none" stroke="#fa7ae8" d="M1371.83,-570.695C1378.16,-464.862 1391.09,-248.389 1397.84,-135.354"/>
<ellipse fill="none" stroke="#fa7ae8" cx="1371.57" cy="-574.988" rx="4" ry="4"/>
<polygon fill="#fa7ae8" stroke="#fa7ae8" points="1397.86,-135.059 1402.95,-125.345 1398.16,-130.068 1398.46,-125.076 1398.46,-125.076 1398.46,-125.076 1398.16,-130.068 1393.97,-124.808 1397.86,-135.059 1397.86,-135.059"/>
</g>
<!-- City&#45;&gt;User -->
<g id="edge46" class="edge"><title>City&#45;&gt;User</title>
<path fill="none" stroke="#fcf844" d="M1323.76,-570.679C1310.83,-552.821 1296.04,-532.389 1280.73,-511.249"/>
<polygon fill="#fcf844" stroke="#fcf844" points="1323.79,-570.71 1326.01,-581.449 1326.72,-574.76 1329.65,-578.81 1329.65,-578.81 1329.65,-578.81 1326.72,-574.76 1333.3,-576.17 1323.79,-570.71 1323.79,-570.71"/>
<polygon fill="#fcf844" stroke="#fcf844" points="1280.7,-511.216 1278.48,-500.477 1277.77,-507.166 1274.84,-503.116 1274.84,-503.116 1274.84,-503.116 1277.77,-507.166 1271.19,-505.756 1280.7,-511.216 1280.7,-511.216"/>
</g>
<!-- User&#45;&gt;Reviewer -->
<g id="edge54" class="edge"><title>User&#45;&gt;Reviewer</title>
<path fill="none" stroke="#60b49a" d="M1195.7,-173.105C1198.64,-159.888 1201.49,-147.04 1204.15,-135.065"/>
<ellipse fill="none" stroke="#60b49a" cx="1194.83" cy="-177.012" rx="4.00001" ry="4.00001"/>
<polygon fill="#60b49a" stroke="#60b49a" points="1204.17,-134.984 1210.73,-126.198 1205.26,-130.103 1206.34,-125.222 1206.34,-125.222 1206.34,-125.222 1205.26,-130.103 1201.95,-124.246 1204.17,-134.984 1204.17,-134.984"/>
</g>
<!-- User&#45;&gt;Participant -->
<g id="edge52" class="edge"><title>User&#45;&gt;Participant</title>
<path fill="none" stroke="#a38bf0" d="M1024.9,-218.878C992.701,-189.135 959.417,-158.385 931.005,-132.138"/>
<ellipse fill="none" stroke="#a38bf0" cx="1028.03" cy="-221.773" rx="4.00002" ry="4.00002"/>
<polygon fill="#a38bf0" stroke="#a38bf0" points="930.855,-131.999 926.563,-121.908 927.182,-128.606 923.51,-125.213 923.51,-125.213 923.51,-125.213 927.182,-128.606 920.456,-128.518 930.855,-131.999 930.855,-131.999"/>
</g>
<!-- User&#45;&gt;Seal -->
<g id="edge56" class="edge"><title>User&#45;&gt;Seal</title>
<path fill="none" stroke="#838cfb" d="M1291.86,-189.126C1308.95,-169.591 1325.72,-150.41 1340.83,-133.132"/>
<polygon fill="#838cfb" stroke="#838cfb" points="1291.75,-189.252 1281.78,-193.817 1288.46,-193.016 1285.17,-196.78 1285.17,-196.78 1285.17,-196.78 1288.46,-193.016 1288.56,-199.742 1291.75,-189.252 1291.75,-189.252"/>
<polygon fill="#838cfb" stroke="#838cfb" points="1341.07,-132.861 1351.04,-128.296 1344.36,-129.097 1347.65,-125.334 1347.65,-125.334 1347.65,-125.334 1344.36,-129.097 1344.27,-122.371 1341.07,-132.861 1341.07,-132.861"/>
</g>
<!-- User&#45;&gt;Member -->
<g id="edge58" class="edge"><title>User&#45;&gt;Member</title>
<path fill="none" stroke="#581c5f" d="M1085.72,-173.562C1079.87,-159.951 1074.18,-146.724 1068.89,-134.431"/>
<ellipse fill="none" stroke="#581c5f" cx="1087.3" cy="-177.242" rx="4.00002" ry="4.00002"/>
<polygon fill="#581c5f" stroke="#581c5f" points="1068.88,-134.408 1069.06,-123.444 1066.91,-129.815 1064.93,-125.222 1064.93,-125.222 1064.93,-125.222 1066.91,-129.815 1060.8,-127 1068.88,-134.408 1068.88,-134.408"/>
</g>
</g>
</svg>
