<?xml version="1.0" encoding="UTF-8" standalone="no"?>
<!DOCTYPE svg PUBLIC "-//W3C//DTD SVG 1.1//EN"
 "http://www.w3.org/Graphics/SVG/1.1/DTD/svg11.dtd">
<!-- Generated by graphviz version 2.26.3 (20100126.1600)
 -->
<!-- Title: models_diagram Pages: 1 -->
<svg width="808pt" height="818pt"
 viewBox="0.00 0.00 807.84 818.00" xmlns="http://www.w3.org/2000/svg" xmlns:xlink="http://www.w3.org/1999/xlink">
<g id="graph1" class="graph" transform="scale(1 1) rotate(0) translate(4 814)">
<title>models_diagram</title>
<polygon fill="white" stroke="white" points="-4,5 -4,-814 804.841,-814 804.841,5 -4,5"/>
<!-- _diagram_info -->
<g id="node1" class="node"><title>_diagram_info</title>
<text text-anchor="start" x="8" y="-786.8" font-family="Times Roman,serif" font-size="13.00">Models diagram</text>
<text text-anchor="start" x="8" y="-769.8" font-family="Times Roman,serif" font-size="13.00">Date: Dec 28 2012 &#45; 16:48</text>
<text text-anchor="start" x="8" y="-752.8" font-family="Times Roman,serif" font-size="13.00">Migration version: 20121228204356</text>
<text text-anchor="start" x="8" y="-735.8" font-family="Times Roman,serif" font-size="13.00">Generated by RailRoady 1.1.0</text>
<text text-anchor="start" x="8" y="-718.8" font-family="Times Roman,serif" font-size="13.00">http://railroady.prestonlee.com</text>
</g>
<!-- Coordinate -->
<g id="node2" class="node"><title>Coordinate</title>
<polyline fill="none" stroke="black" points="40.5,-1 181.5,-1 "/>
<path fill="none" stroke="black" d="M181.5,-1C187.5,-1 193.5,-7 193.5,-13"/>
<polyline fill="none" stroke="black" points="193.5,-13 193.5,-113 "/>
<path fill="none" stroke="black" d="M193.5,-113C193.5,-119 187.5,-125 181.5,-125"/>
<polyline fill="none" stroke="black" points="181.5,-125 40.5,-125 "/>
<path fill="none" stroke="black" d="M40.5,-125C34.5,-125 28.5,-119 28.5,-113"/>
<polyline fill="none" stroke="black" points="28.5,-113 28.5,-13 "/>
<path fill="none" stroke="black" d="M28.5,-13C28.5,-7 34.5,-1 40.5,-1"/>
<text text-anchor="middle" x="111" y="-108.4" font-family="Times Roman,serif" font-size="14.00">Coordinate</text>
<polyline fill="none" stroke="black" points="28.5,-99 193.5,-99 "/>
<text text-anchor="start" x="36.5" y="-82.4" font-family="Times Roman,serif" font-size="14.00">id :integer</text>
<text text-anchor="start" x="36.5" y="-64.4" font-family="Times Roman,serif" font-size="14.00">note_id :integer</text>
<text text-anchor="start" x="36.5" y="-46.4" font-family="Times Roman,serif" font-size="14.00">blueprint_id :integer</text>
<text text-anchor="start" x="36.5" y="-28.4" font-family="Times Roman,serif" font-size="14.00">created_at :datetime</text>
<text text-anchor="start" x="36.5" y="-10.4" font-family="Times Roman,serif" font-size="14.00">updated_at :datetime</text>
</g>
<!-- Project -->
<g id="node3" class="node"><title>Project</title>
<polyline fill="none" stroke="black" points="279.5,-703 420.5,-703 "/>
<path fill="none" stroke="black" d="M420.5,-703C426.5,-703 432.5,-709 432.5,-715"/>
<polyline fill="none" stroke="black" points="432.5,-715 432.5,-797 "/>
<path fill="none" stroke="black" d="M432.5,-797C432.5,-803 426.5,-809 420.5,-809"/>
<polyline fill="none" stroke="black" points="420.5,-809 279.5,-809 "/>
<path fill="none" stroke="black" d="M279.5,-809C273.5,-809 267.5,-803 267.5,-797"/>
<polyline fill="none" stroke="black" points="267.5,-797 267.5,-715 "/>
<path fill="none" stroke="black" d="M267.5,-715C267.5,-709 273.5,-703 279.5,-703"/>
<text text-anchor="middle" x="350" y="-792.4" font-family="Times Roman,serif" font-size="14.00">Project</text>
<polyline fill="none" stroke="black" points="267.5,-783 432.5,-783 "/>
<text text-anchor="start" x="275.5" y="-766.4" font-family="Times Roman,serif" font-size="14.00">id :integer</text>
<text text-anchor="start" x="275.5" y="-748.4" font-family="Times Roman,serif" font-size="14.00">name :string</text>
<text text-anchor="start" x="275.5" y="-730.4" font-family="Times Roman,serif" font-size="14.00">created_at :datetime</text>
<text text-anchor="start" x="275.5" y="-712.4" font-family="Times Roman,serif" font-size="14.00">updated_at :datetime</text>
</g>
<!-- Note -->
<g id="node7" class="node"><title>Note</title>
<polyline fill="none" stroke="black" points="21.5,-244 162.5,-244 "/>
<path fill="none" stroke="black" d="M162.5,-244C168.5,-244 174.5,-250 174.5,-256"/>
<polyline fill="none" stroke="black" points="174.5,-256 174.5,-392 "/>
<path fill="none" stroke="black" d="M174.5,-392C174.5,-398 168.5,-404 162.5,-404"/>
<polyline fill="none" stroke="black" points="162.5,-404 21.5,-404 "/>
<path fill="none" stroke="black" d="M21.5,-404C15.5,-404 9.5,-398 9.5,-392"/>
<polyline fill="none" stroke="black" points="9.5,-392 9.5,-256 "/>
<path fill="none" stroke="black" d="M9.5,-256C9.5,-250 15.5,-244 21.5,-244"/>
<text text-anchor="middle" x="92" y="-387.4" font-family="Times Roman,serif" font-size="14.00">Note</text>
<polyline fill="none" stroke="black" points="9.5,-378 174.5,-378 "/>
<text text-anchor="start" x="17.5" y="-361.4" font-family="Times Roman,serif" font-size="14.00">id :integer</text>
<text text-anchor="start" x="17.5" y="-343.4" font-family="Times Roman,serif" font-size="14.00">note :string</text>
<text text-anchor="start" x="17.5" y="-325.4" font-family="Times Roman,serif" font-size="14.00">created_at :datetime</text>
<text text-anchor="start" x="17.5" y="-307.4" font-family="Times Roman,serif" font-size="14.00">updated_at :datetime</text>
<text text-anchor="start" x="17.5" y="-289.4" font-family="Times Roman,serif" font-size="14.00">project_id :integer</text>
<text text-anchor="start" x="17.5" y="-271.4" font-family="Times Roman,serif" font-size="14.00">position :integer</text>
<text text-anchor="start" x="17.5" y="-253.4" font-family="Times Roman,serif" font-size="14.00">note_text :text</text>
</g>
<!-- Project&#45;&gt;Note -->
<g id="edge8" class="edge"><title>Project&#45;&gt;Note</title>
<path fill="none" stroke="#05c6aa" d="M260.053,-702.433C259.702,-702.287 259.351,-702.143 259,-702 196.313,-676.446 154.291,-718.044 111,-666 53.4965,-596.87 57.2951,-490.086 70.0397,-414.249"/>
<ellipse fill="none" stroke="#05c6aa" cx="263.787" cy="-704.055" rx="4.00002" ry="4.00002"/>
<polygon fill="#05c6aa" stroke="#05c6aa" points="70.0701,-414.075 76.2374,-405.008 70.9379,-409.151 71.8057,-404.227 71.8057,-404.227 71.8057,-404.227 70.9379,-409.151 67.3739,-403.446 70.0701,-414.075 70.0701,-414.075"/>
</g>
<!-- Blueprint -->
<g id="node8" class="node"><title>Blueprint</title>
<polyline fill="none" stroke="black" points="131.5,-523 272.5,-523 "/>
<path fill="none" stroke="black" d="M272.5,-523C278.5,-523 284.5,-529 284.5,-535"/>
<polyline fill="none" stroke="black" points="284.5,-535 284.5,-653 "/>
<path fill="none" stroke="black" d="M284.5,-653C284.5,-659 278.5,-665 272.5,-665"/>
<polyline fill="none" stroke="black" points="272.5,-665 131.5,-665 "/>
<path fill="none" stroke="black" d="M131.5,-665C125.5,-665 119.5,-659 119.5,-653"/>
<polyline fill="none" stroke="black" points="119.5,-653 119.5,-535 "/>
<path fill="none" stroke="black" d="M119.5,-535C119.5,-529 125.5,-523 131.5,-523"/>
<text text-anchor="middle" x="202" y="-648.4" font-family="Times Roman,serif" font-size="14.00">Blueprint</text>
<polyline fill="none" stroke="black" points="119.5,-639 284.5,-639 "/>
<text text-anchor="start" x="127.5" y="-622.4" font-family="Times Roman,serif" font-size="14.00">id :integer</text>
<text text-anchor="start" x="127.5" y="-604.4" font-family="Times Roman,serif" font-size="14.00">created_at :datetime</text>
<text text-anchor="start" x="127.5" y="-586.4" font-family="Times Roman,serif" font-size="14.00">updated_at :datetime</text>
<text text-anchor="start" x="127.5" y="-568.4" font-family="Times Roman,serif" font-size="14.00">project_id :integer</text>
<text text-anchor="start" x="127.5" y="-550.4" font-family="Times Roman,serif" font-size="14.00">bpu :string</text>
<text text-anchor="start" x="127.5" y="-532.4" font-family="Times Roman,serif" font-size="14.00">title :string</text>
</g>
<!-- Project&#45;&gt;Blueprint -->
<g id="edge6" class="edge"><title>Project&#45;&gt;Blueprint</title>
<path fill="none" stroke="#da1bd5" d="M296.039,-696.935C288.809,-689.021 281.304,-680.805 273.828,-672.622"/>
<ellipse fill="none" stroke="#da1bd5" cx="298.841" cy="-700.002" rx="4.00002" ry="4.00002"/>
<polygon fill="#da1bd5" stroke="#da1bd5" points="273.724,-672.508 270.301,-662.09 270.351,-668.817 266.979,-665.126 266.979,-665.126 266.979,-665.126 270.351,-668.817 263.657,-668.161 273.724,-672.508 273.724,-672.508"/>
</g>
<!-- Participant -->
<g id="node9" class="node"><title>Participant</title>
<polyline fill="none" stroke="black" points="241.5,-1 382.5,-1 "/>
<path fill="none" stroke="black" d="M382.5,-1C388.5,-1 394.5,-7 394.5,-13"/>
<polyline fill="none" stroke="black" points="394.5,-13 394.5,-113 "/>
<path fill="none" stroke="black" d="M394.5,-113C394.5,-119 388.5,-125 382.5,-125"/>
<polyline fill="none" stroke="black" points="382.5,-125 241.5,-125 "/>
<path fill="none" stroke="black" d="M241.5,-125C235.5,-125 229.5,-119 229.5,-113"/>
<polyline fill="none" stroke="black" points="229.5,-113 229.5,-13 "/>
<path fill="none" stroke="black" d="M229.5,-13C229.5,-7 235.5,-1 241.5,-1"/>
<text text-anchor="middle" x="312" y="-108.4" font-family="Times Roman,serif" font-size="14.00">Participant</text>
<polyline fill="none" stroke="black" points="229.5,-99 394.5,-99 "/>
<text text-anchor="start" x="237.5" y="-82.4" font-family="Times Roman,serif" font-size="14.00">id :integer</text>
<text text-anchor="start" x="237.5" y="-64.4" font-family="Times Roman,serif" font-size="14.00">project_id :integer</text>
<text text-anchor="start" x="237.5" y="-46.4" font-family="Times Roman,serif" font-size="14.00">user_id :integer</text>
<text text-anchor="start" x="237.5" y="-28.4" font-family="Times Roman,serif" font-size="14.00">created_at :datetime</text>
<text text-anchor="start" x="237.5" y="-10.4" font-family="Times Roman,serif" font-size="14.00">updated_at :datetime</text>
</g>
<!-- Project&#45;&gt;Participant -->
<g id="edge2" class="edge"><title>Project&#45;&gt;Participant</title>
<path fill="none" stroke="#a3a16a" d="M345.913,-694.785C342.316,-640.069 337.037,-557.701 333,-486 326.066,-362.85 319.202,-219.461 315.294,-135.238"/>
<ellipse fill="none" stroke="#a3a16a" cx="346.191" cy="-698.996" rx="4" ry="4"/>
<polygon fill="#a3a16a" stroke="#a3a16a" points="315.283,-135.003 319.316,-124.806 315.052,-130.009 314.821,-125.014 314.821,-125.014 314.821,-125.014 315.052,-130.009 310.325,-125.222 315.283,-135.003 315.283,-135.003"/>
</g>
<!-- City -->
<g id="node10" class="node"><title>City</title>
<polyline fill="none" stroke="black" points="571.5,-541 712.5,-541 "/>
<path fill="none" stroke="black" d="M712.5,-541C718.5,-541 724.5,-547 724.5,-553"/>
<polyline fill="none" stroke="black" points="724.5,-553 724.5,-635 "/>
<path fill="none" stroke="black" d="M724.5,-635C724.5,-641 718.5,-647 712.5,-647"/>
<polyline fill="none" stroke="black" points="712.5,-647 571.5,-647 "/>
<path fill="none" stroke="black" d="M571.5,-647C565.5,-647 559.5,-641 559.5,-635"/>
<polyline fill="none" stroke="black" points="559.5,-635 559.5,-553 "/>
<path fill="none" stroke="black" d="M559.5,-553C559.5,-547 565.5,-541 571.5,-541"/>
<text text-anchor="middle" x="642" y="-630.4" font-family="Times Roman,serif" font-size="14.00">City</text>
<polyline fill="none" stroke="black" points="559.5,-621 724.5,-621 "/>
<text text-anchor="start" x="567.5" y="-604.4" font-family="Times Roman,serif" font-size="14.00">id :integer</text>
<text text-anchor="start" x="567.5" y="-586.4" font-family="Times Roman,serif" font-size="14.00">created_at :datetime</text>
<text text-anchor="start" x="567.5" y="-568.4" font-family="Times Roman,serif" font-size="14.00">updated_at :datetime</text>
<text text-anchor="start" x="567.5" y="-550.4" font-family="Times Roman,serif" font-size="14.00">name :string</text>
</g>
<!-- Project&#45;&gt;City -->
<g id="edge12" class="edge"><title>Project&#45;&gt;City</title>
<path fill="none" stroke="#bb22ca" d="M437.468,-699.669C480.802,-681.664 499.071,-689.054 542,-666 549.745,-661.841 557.495,-657.007 565.066,-651.85"/>
<ellipse fill="none" stroke="#bb22ca" cx="433.657" cy="-701.326" rx="4.00002" ry="4.00002"/>
<ellipse fill="#bb22ca" stroke="#bb22ca" cx="568.684" cy="-649.323" rx="4.00002" ry="4.00002"/>
</g>
<!-- Seal -->
<g id="node11" class="node"><title>Seal</title>
<polyline fill="none" stroke="black" points="605.5,-1 746.5,-1 "/>
<path fill="none" stroke="black" d="M746.5,-1C752.5,-1 758.5,-7 758.5,-13"/>
<polyline fill="none" stroke="black" points="758.5,-13 758.5,-113 "/>
<path fill="none" stroke="black" d="M758.5,-113C758.5,-119 752.5,-125 746.5,-125"/>
<polyline fill="none" stroke="black" points="746.5,-125 605.5,-125 "/>
<path fill="none" stroke="black" d="M605.5,-125C599.5,-125 593.5,-119 593.5,-113"/>
<polyline fill="none" stroke="black" points="593.5,-113 593.5,-13 "/>
<path fill="none" stroke="black" d="M593.5,-13C593.5,-7 599.5,-1 605.5,-1"/>
<text text-anchor="middle" x="676" y="-108.4" font-family="Times Roman,serif" font-size="14.00">Seal</text>
<polyline fill="none" stroke="black" points="593.5,-99 758.5,-99 "/>
<text text-anchor="start" x="601.5" y="-82.4" font-family="Times Roman,serif" font-size="14.00">id :integer</text>
<text text-anchor="start" x="601.5" y="-64.4" font-family="Times Roman,serif" font-size="14.00">project_id :integer</text>
<text text-anchor="start" x="601.5" y="-46.4" font-family="Times Roman,serif" font-size="14.00">city_id :integer</text>
<text text-anchor="start" x="601.5" y="-28.4" font-family="Times Roman,serif" font-size="14.00">created_at :datetime</text>
<text text-anchor="start" x="601.5" y="-10.4" font-family="Times Roman,serif" font-size="14.00">updated_at :datetime</text>
</g>
<!-- Project&#45;&gt;Seal -->
<g id="edge10" class="edge"><title>Project&#45;&gt;Seal</title>
<path fill="none" stroke="#3aac71" d="M440.217,-702.27C440.478,-702.179 440.739,-702.089 441,-702 502.871,-680.869 689.69,-714.978 733,-666 865.497,-516.165 769.632,-256.092 711.61,-132.317"/>
<ellipse fill="none" stroke="#3aac71" cx="436.389" cy="-703.706" rx="4.00001" ry="4.00001"/>
<ellipse fill="#3aac71" stroke="#3aac71" cx="709.9" cy="-128.7" rx="4.00002" ry="4.00002"/>
</g>
<!-- User -->
<g id="node12" class="node"><title>User</title>
<polyline fill="none" stroke="black" points="354,-163 584,-163 "/>
<path fill="none" stroke="black" d="M584,-163C590,-163 596,-169 596,-175"/>
<polyline fill="none" stroke="black" points="596,-175 596,-473 "/>
<path fill="none" stroke="black" d="M596,-473C596,-479 590,-485 584,-485"/>
<polyline fill="none" stroke="black" points="584,-485 354,-485 "/>
<path fill="none" stroke="black" d="M354,-485C348,-485 342,-479 342,-473"/>
<polyline fill="none" stroke="black" points="342,-473 342,-175 "/>
<path fill="none" stroke="black" d="M342,-175C342,-169 348,-163 354,-163"/>
<text text-anchor="middle" x="469" y="-468.4" font-family="Times Roman,serif" font-size="14.00">User</text>
<polyline fill="none" stroke="black" points="342,-459 596,-459 "/>
<text text-anchor="start" x="350" y="-442.4" font-family="Times Roman,serif" font-size="14.00">id :integer</text>
<text text-anchor="start" x="350" y="-424.4" font-family="Times Roman,serif" font-size="14.00">email :string</text>
<text text-anchor="start" x="350" y="-406.4" font-family="Times Roman,serif" font-size="14.00">encrypted_password :string</text>
<text text-anchor="start" x="350" y="-388.4" font-family="Times Roman,serif" font-size="14.00">reset_password_token :string</text>
<text text-anchor="start" x="350" y="-370.4" font-family="Times Roman,serif" font-size="14.00">reset_password_sent_at :datetime</text>
<text text-anchor="start" x="350" y="-352.4" font-family="Times Roman,serif" font-size="14.00">remember_created_at :datetime</text>
<text text-anchor="start" x="350" y="-334.4" font-family="Times Roman,serif" font-size="14.00">sign_in_count :integer</text>
<text text-anchor="start" x="350" y="-316.4" font-family="Times Roman,serif" font-size="14.00">current_sign_in_at :datetime</text>
<text text-anchor="start" x="350" y="-298.4" font-family="Times Roman,serif" font-size="14.00">last_sign_in_at :datetime</text>
<text text-anchor="start" x="350" y="-280.4" font-family="Times Roman,serif" font-size="14.00">current_sign_in_ip :string</text>
<text text-anchor="start" x="350" y="-262.4" font-family="Times Roman,serif" font-size="14.00">last_sign_in_ip :string</text>
<text text-anchor="start" x="350" y="-244.4" font-family="Times Roman,serif" font-size="14.00">created_at :datetime</text>
<text text-anchor="start" x="350" y="-226.4" font-family="Times Roman,serif" font-size="14.00">updated_at :datetime</text>
<text text-anchor="start" x="350" y="-208.4" font-family="Times Roman,serif" font-size="14.00">name :string</text>
<text text-anchor="start" x="350" y="-190.4" font-family="Times Roman,serif" font-size="14.00">customer_id :string</text>
<text text-anchor="start" x="350" y="-172.4" font-family="Times Roman,serif" font-size="14.00">last_4_digits :string</text>
</g>
<!-- Project&#45;&gt;User -->
<g id="edge4" class="edge"><title>Project&#45;&gt;User</title>
<path fill="none" stroke="#d8042f" d="M348.603,-692.739C349.105,-644.984 353.157,-578.291 369,-522 371.555,-512.921 374.537,-503.766 377.84,-494.634"/>
<polygon fill="#d8042f" stroke="#d8042f" points="348.602,-692.934 344.046,-702.909 348.574,-697.934 348.546,-702.934 348.546,-702.934 348.546,-702.934 348.574,-697.934 353.046,-702.959 348.602,-692.934 348.602,-692.934"/>
<polygon fill="#d8042f" stroke="#d8042f" points="377.892,-494.497 385.609,-486.706 379.643,-489.813 381.394,-485.13 381.394,-485.13 381.394,-485.13 379.643,-489.813 377.179,-483.554 377.892,-494.497 377.892,-494.497"/>
</g>
<!-- Role -->
<g id="node4" class="node"><title>Role</title>
<polyline fill="none" stroke="black" points="389.5,-523 530.5,-523 "/>
<path fill="none" stroke="black" d="M530.5,-523C536.5,-523 542.5,-529 542.5,-535"/>
<polyline fill="none" stroke="black" points="542.5,-535 542.5,-653 "/>
<path fill="none" stroke="black" d="M542.5,-653C542.5,-659 536.5,-665 530.5,-665"/>
<polyline fill="none" stroke="black" points="530.5,-665 389.5,-665 "/>
<path fill="none" stroke="black" d="M389.5,-665C383.5,-665 377.5,-659 377.5,-653"/>
<polyline fill="none" stroke="black" points="377.5,-653 377.5,-535 "/>
<path fill="none" stroke="black" d="M377.5,-535C377.5,-529 383.5,-523 389.5,-523"/>
<text text-anchor="middle" x="460" y="-648.4" font-family="Times Roman,serif" font-size="14.00">Role</text>
<polyline fill="none" stroke="black" points="377.5,-639 542.5,-639 "/>
<text text-anchor="start" x="385.5" y="-622.4" font-family="Times Roman,serif" font-size="14.00">id :integer</text>
<text text-anchor="start" x="385.5" y="-604.4" font-family="Times Roman,serif" font-size="14.00">name :string</text>
<text text-anchor="start" x="385.5" y="-586.4" font-family="Times Roman,serif" font-size="14.00">resource_id :integer</text>
<text text-anchor="start" x="385.5" y="-568.4" font-family="Times Roman,serif" font-size="14.00">resource_type :string</text>
<text text-anchor="start" x="385.5" y="-550.4" font-family="Times Roman,serif" font-size="14.00">created_at :datetime</text>
<text text-anchor="start" x="385.5" y="-532.4" font-family="Times Roman,serif" font-size="14.00">updated_at :datetime</text>
</g>
<!-- Role&#45;&gt;User -->
<g id="edge14" class="edge"><title>Role&#45;&gt;User</title>
<path fill="none" stroke="#c5673e" d="M462.717,-512.498C462.906,-506.828 463.1,-501.008 463.297,-495.089"/>
<polygon fill="#c5673e" stroke="#c5673e" points="462.71,-512.713 457.879,-522.558 462.543,-517.71 462.376,-522.708 462.376,-522.708 462.376,-522.708 462.543,-517.71 466.874,-522.857 462.71,-512.713 462.71,-512.713"/>
<polygon fill="#c5673e" stroke="#c5673e" points="463.299,-495.035 468.129,-485.191 463.465,-490.038 463.632,-485.041 463.632,-485.041 463.632,-485.041 463.465,-490.038 459.134,-484.891 463.299,-495.035 463.299,-495.035"/>
</g>
<!-- Ability -->
<g id="node5" class="node"><title>Ability</title>
<polygon fill="none" stroke="black" points="450,-730 450,-782 510,-782 510,-730 450,-730"/>
<text text-anchor="middle" x="480" y="-765.4" font-family="Times Roman,serif" font-size="14.00">Ability</text>
<polyline fill="none" stroke="black" points="450,-756 510,-756 "/>
<text text-anchor="middle" x="480" y="-739.4" font-family="Times Roman,serif" font-size="14.00"> </text>
</g>
<!-- Reviewer -->
<g id="node6" class="node"><title>Reviewer</title>
<polyline fill="none" stroke="black" points="423.5,-1 564.5,-1 "/>
<path fill="none" stroke="black" d="M564.5,-1C570.5,-1 576.5,-7 576.5,-13"/>
<polyline fill="none" stroke="black" points="576.5,-13 576.5,-113 "/>
<path fill="none" stroke="black" d="M576.5,-113C576.5,-119 570.5,-125 564.5,-125"/>
<polyline fill="none" stroke="black" points="564.5,-125 423.5,-125 "/>
<path fill="none" stroke="black" d="M423.5,-125C417.5,-125 411.5,-119 411.5,-113"/>
<polyline fill="none" stroke="black" points="411.5,-113 411.5,-13 "/>
<path fill="none" stroke="black" d="M411.5,-13C411.5,-7 417.5,-1 423.5,-1"/>
<text text-anchor="middle" x="494" y="-108.4" font-family="Times Roman,serif" font-size="14.00">Reviewer</text>
<polyline fill="none" stroke="black" points="411.5,-99 576.5,-99 "/>
<text text-anchor="start" x="419.5" y="-82.4" font-family="Times Roman,serif" font-size="14.00">id :integer</text>
<text text-anchor="start" x="419.5" y="-64.4" font-family="Times Roman,serif" font-size="14.00">user_id :integer</text>
<text text-anchor="start" x="419.5" y="-46.4" font-family="Times Roman,serif" font-size="14.00">city_id :integer</text>
<text text-anchor="start" x="419.5" y="-28.4" font-family="Times Roman,serif" font-size="14.00">created_at :datetime</text>
<text text-anchor="start" x="419.5" y="-10.4" font-family="Times Roman,serif" font-size="14.00">updated_at :datetime</text>
</g>
<!-- Note&#45;&gt;Coordinate -->
<g id="edge16" class="edge"><title>Note&#45;&gt;Coordinate</title>
<path fill="none" stroke="#8bc063" d="M98.4235,-235.762C100.8,-203.112 103.465,-166.506 105.728,-135.422"/>
<ellipse fill="none" stroke="#8bc063" cx="98.1202" cy="-239.928" rx="4" ry="4"/>
<polygon fill="#8bc063" stroke="#8bc063" points="105.753,-135.08 110.967,-125.433 106.116,-130.093 106.479,-125.106 106.479,-125.106 106.479,-125.106 106.116,-130.093 101.991,-124.779 105.753,-135.08 105.753,-135.08"/>
</g>
<!-- Blueprint&#45;&gt;Coordinate -->
<g id="edge18" class="edge"><title>Blueprint&#45;&gt;Coordinate</title>
<path fill="none" stroke="#9c7cb7" d="M211.884,-514.697C219.92,-426.044 224.089,-279.511 183,-162 179.624,-152.346 174.974,-142.824 169.647,-133.724"/>
<ellipse fill="none" stroke="#9c7cb7" cx="211.495" cy="-518.845" rx="4" ry="4"/>
<polygon fill="#9c7cb7" stroke="#9c7cb7" points="169.601,-133.651 168.182,-122.777 166.977,-129.395 164.352,-125.139 164.352,-125.139 164.352,-125.139 166.977,-129.395 160.522,-127.502 169.601,-133.651 169.601,-133.651"/>
</g>
<!-- Blueprint&#45;&gt;Note -->
<g id="edge20" class="edge"><title>Blueprint&#45;&gt;Note</title>
<path fill="none" stroke="#733604" d="M169.063,-513.154C156.294,-481.813 141.624,-445.805 128.533,-413.673"/>
<polygon fill="#733604" stroke="#733604" points="169.182,-513.447 168.787,-524.405 171.068,-518.077 172.955,-522.708 172.955,-522.708 172.955,-522.708 171.068,-518.077 177.122,-521.01 169.182,-513.447 169.182,-513.447"/>
<polygon fill="#733604" stroke="#733604" points="128.479,-413.54 128.874,-402.581 126.593,-408.909 124.706,-404.279 124.706,-404.279 124.706,-404.279 126.593,-408.909 120.539,-405.976 128.479,-413.54 128.479,-413.54"/>
</g>
<!-- City&#45;&gt;Project -->
<g id="edge28" class="edge"><title>City&#45;&gt;Project</title>
<path fill="none" stroke="#f3ccf2" d="M581.139,-653.106C574.23,-657.792 567.113,-662.18 560,-666 514.681,-690.337 496.845,-680.747 450,-702 447.204,-703.268 444.386,-704.601 441.557,-705.985"/>
<polygon fill="#f3ccf2" stroke="#f3ccf2" points="581.588,-652.79 592.356,-650.712 585.677,-649.911 589.765,-647.033 589.765,-647.033 589.765,-647.033 585.677,-649.911 587.174,-643.353 581.588,-652.79 581.588,-652.79"/>
<polygon fill="#f3ccf2" stroke="#f3ccf2" points="441.428,-706.05 430.474,-706.542 436.966,-708.304 432.503,-710.559 432.503,-710.559 432.503,-710.559 436.966,-708.304 434.532,-714.575 441.428,-706.05 441.428,-706.05"/>
</g>
<!-- City&#45;&gt;Reviewer -->
<g id="edge22" class="edge"><title>City&#45;&gt;Reviewer</title>
<path fill="none" stroke="#eb87b9" d="M642.26,-532.802C641.797,-429.458 636.731,-225.412 605,-162 599.393,-150.794 591.923,-140.279 583.497,-130.596"/>
<ellipse fill="none" stroke="#eb87b9" cx="642.275" cy="-536.971" rx="4" ry="4"/>
<polygon fill="#eb87b9" stroke="#eb87b9" points="583.306,-130.387 579.872,-119.972 579.93,-126.699 576.553,-123.011 576.553,-123.011 576.553,-123.011 579.93,-126.699 573.234,-126.05 583.306,-130.387 583.306,-130.387"/>
</g>
<!-- City&#45;&gt;Seal -->
<g id="edge26" class="edge"><title>City&#45;&gt;Seal</title>
<path fill="none" stroke="#40e048" d="M645.931,-532.602C652.246,-433.985 664.621,-240.72 671.359,-135.483"/>
<ellipse fill="none" stroke="#40e048" cx="645.671" cy="-536.663" rx="4" ry="4"/>
<polygon fill="#40e048" stroke="#40e048" points="671.374,-135.249 676.504,-125.557 671.693,-130.259 672.013,-125.27 672.013,-125.27 672.013,-125.27 671.693,-130.259 667.522,-124.982 671.374,-135.249 671.374,-135.249"/>
</g>
<!-- City&#45;&gt;User -->
<g id="edge24" class="edge"><title>City&#45;&gt;User</title>
<path fill="none" stroke="#94a4d7" d="M602.403,-532.201C594.737,-520.237 586.367,-507.174 577.677,-493.612"/>
<polygon fill="#94a4d7" stroke="#94a4d7" points="602.632,-532.559 604.238,-543.407 605.33,-536.769 608.027,-540.979 608.027,-540.979 608.027,-540.979 605.33,-536.769 611.816,-538.551 602.632,-532.559 602.632,-532.559"/>
<polygon fill="#94a4d7" stroke="#94a4d7" points="577.623,-493.528 576.017,-482.68 574.926,-489.318 572.228,-485.108 572.228,-485.108 572.228,-485.108 574.926,-489.318 568.439,-487.536 577.623,-493.528 577.623,-493.528"/>
</g>
<!-- User&#45;&gt;Reviewer -->
<g id="edge32" class="edge"><title>User&#45;&gt;Reviewer</title>
<path fill="none" stroke="#8e7496" d="M485.205,-154.819C485.84,-148.195 486.46,-141.718 487.059,-135.463"/>
<ellipse fill="none" stroke="#8e7496" cx="484.823" cy="-158.808" rx="4" ry="4"/>
<polygon fill="#8e7496" stroke="#8e7496" points="487.092,-135.117 492.525,-125.592 487.569,-130.14 488.046,-125.162 488.046,-125.162 488.046,-125.162 487.569,-130.14 483.566,-124.733 487.092,-135.117 487.092,-135.117"/>
</g>
<!-- User&#45;&gt;Participant -->
<g id="edge30" class="edge"><title>User&#45;&gt;Participant</title>
<path fill="none" stroke="#eb02dc" d="M367.781,-155.732C363.271,-148.233 358.869,-140.917 354.645,-133.893"/>
<ellipse fill="none" stroke="#eb02dc" cx="369.965" cy="-159.362" rx="4.00002" ry="4.00002"/>
<polygon fill="#eb02dc" stroke="#eb02dc" points="354.547,-133.732 353.249,-122.843 351.97,-129.447 349.393,-125.162 349.393,-125.162 349.393,-125.162 351.97,-129.447 345.537,-127.482 354.547,-133.732 354.547,-133.732"/>
</g>
<!-- User&#45;&gt;Seal -->
<g id="edge34" class="edge"><title>User&#45;&gt;Seal</title>
<path fill="none" stroke="#68cfeb" d="M602.725,-155.39C608.748,-147.796 614.621,-140.391 620.252,-133.29"/>
<polygon fill="#68cfeb" stroke="#68cfeb" points="602.478,-155.701 592.739,-160.74 599.371,-159.619 596.264,-163.536 596.264,-163.536 596.264,-163.536 599.371,-159.619 599.79,-166.332 602.478,-155.701 602.478,-155.701"/>
<polygon fill="#68cfeb" stroke="#68cfeb" points="620.533,-132.937 630.273,-127.898 623.64,-129.019 626.747,-125.102 626.747,-125.102 626.747,-125.102 623.64,-129.019 623.221,-122.305 620.533,-132.937 620.533,-132.937"/>
</g>
</g>
</svg>
