<?xml version="1.0" encoding="UTF-8" standalone="no"?>
<!DOCTYPE svg PUBLIC "-//W3C//DTD SVG 1.1//EN"
 "http://www.w3.org/Graphics/SVG/1.1/DTD/svg11.dtd">
<!-- Generated by graphviz version 2.26.3 (20100126.1600)
 -->
<!-- Title: models_diagram Pages: 1 -->
<svg width="950pt" height="818pt"
 viewBox="0.00 0.00 949.99 818.00" xmlns="http://www.w3.org/2000/svg" xmlns:xlink="http://www.w3.org/1999/xlink">
<g id="graph1" class="graph" transform="scale(1 1) rotate(0) translate(4 814)">
<title>models_diagram</title>
<polygon fill="white" stroke="white" points="-4,5 -4,-814 946.992,-814 946.992,5 -4,5"/>
<!-- _diagram_info -->
<g id="node1" class="node"><title>_diagram_info</title>
<text text-anchor="start" x="187.992" y="-786.8" font-family="Times Roman,serif" font-size="13.00">Models diagram</text>
<text text-anchor="start" x="187.992" y="-769.8" font-family="Times Roman,serif" font-size="13.00">Date: Jan 03 2013 &#45; 20:35</text>
<text text-anchor="start" x="187.992" y="-752.8" font-family="Times Roman,serif" font-size="13.00">Migration version: 20121229185224</text>
<text text-anchor="start" x="187.992" y="-735.8" font-family="Times Roman,serif" font-size="13.00">Generated by RailRoady 1.1.0</text>
<text text-anchor="start" x="187.992" y="-718.8" font-family="Times Roman,serif" font-size="13.00">http://railroady.prestonlee.com</text>
</g>
<!-- Coordinate -->
<g id="node2" class="node"><title>Coordinate</title>
<polyline fill="none" stroke="black" points="787.492,-1 928.492,-1 "/>
<path fill="none" stroke="black" d="M928.492,-1C934.492,-1 940.492,-7 940.492,-13"/>
<polyline fill="none" stroke="black" points="940.492,-13 940.492,-113 "/>
<path fill="none" stroke="black" d="M940.492,-113C940.492,-119 934.492,-125 928.492,-125"/>
<polyline fill="none" stroke="black" points="928.492,-125 787.492,-125 "/>
<path fill="none" stroke="black" d="M787.492,-125C781.492,-125 775.492,-119 775.492,-113"/>
<polyline fill="none" stroke="black" points="775.492,-113 775.492,-13 "/>
<path fill="none" stroke="black" d="M775.492,-13C775.492,-7 781.492,-1 787.492,-1"/>
<text text-anchor="middle" x="857.992" y="-108.4" font-family="Times Roman,serif" font-size="14.00">Coordinate</text>
<polyline fill="none" stroke="black" points="775.492,-99 940.492,-99 "/>
<text text-anchor="start" x="783.492" y="-82.4" font-family="Times Roman,serif" font-size="14.00">id :integer</text>
<text text-anchor="start" x="783.492" y="-64.4" font-family="Times Roman,serif" font-size="14.00">note_id :integer</text>
<text text-anchor="start" x="783.492" y="-46.4" font-family="Times Roman,serif" font-size="14.00">blueprint_id :integer</text>
<text text-anchor="start" x="783.492" y="-28.4" font-family="Times Roman,serif" font-size="14.00">created_at :datetime</text>
<text text-anchor="start" x="783.492" y="-10.4" font-family="Times Roman,serif" font-size="14.00">updated_at :datetime</text>
</g>
<!-- Project -->
<g id="node3" class="node"><title>Project</title>
<polyline fill="none" stroke="black" points="459.492,-703 600.492,-703 "/>
<path fill="none" stroke="black" d="M600.492,-703C606.492,-703 612.492,-709 612.492,-715"/>
<polyline fill="none" stroke="black" points="612.492,-715 612.492,-797 "/>
<path fill="none" stroke="black" d="M612.492,-797C612.492,-803 606.492,-809 600.492,-809"/>
<polyline fill="none" stroke="black" points="600.492,-809 459.492,-809 "/>
<path fill="none" stroke="black" d="M459.492,-809C453.492,-809 447.492,-803 447.492,-797"/>
<polyline fill="none" stroke="black" points="447.492,-797 447.492,-715 "/>
<path fill="none" stroke="black" d="M447.492,-715C447.492,-709 453.492,-703 459.492,-703"/>
<text text-anchor="middle" x="529.992" y="-792.4" font-family="Times Roman,serif" font-size="14.00">Project</text>
<polyline fill="none" stroke="black" points="447.492,-783 612.492,-783 "/>
<text text-anchor="start" x="455.492" y="-766.4" font-family="Times Roman,serif" font-size="14.00">id :integer</text>
<text text-anchor="start" x="455.492" y="-748.4" font-family="Times Roman,serif" font-size="14.00">name :string</text>
<text text-anchor="start" x="455.492" y="-730.4" font-family="Times Roman,serif" font-size="14.00">created_at :datetime</text>
<text text-anchor="start" x="455.492" y="-712.4" font-family="Times Roman,serif" font-size="14.00">updated_at :datetime</text>
</g>
<!-- Note -->
<g id="node8" class="node"><title>Note</title>
<polyline fill="none" stroke="black" points="789.492,-244 930.492,-244 "/>
<path fill="none" stroke="black" d="M930.492,-244C936.492,-244 942.492,-250 942.492,-256"/>
<polyline fill="none" stroke="black" points="942.492,-256 942.492,-392 "/>
<path fill="none" stroke="black" d="M942.492,-392C942.492,-398 936.492,-404 930.492,-404"/>
<polyline fill="none" stroke="black" points="930.492,-404 789.492,-404 "/>
<path fill="none" stroke="black" d="M789.492,-404C783.492,-404 777.492,-398 777.492,-392"/>
<polyline fill="none" stroke="black" points="777.492,-392 777.492,-256 "/>
<path fill="none" stroke="black" d="M777.492,-256C777.492,-250 783.492,-244 789.492,-244"/>
<text text-anchor="middle" x="859.992" y="-387.4" font-family="Times Roman,serif" font-size="14.00">Note</text>
<polyline fill="none" stroke="black" points="777.492,-378 942.492,-378 "/>
<text text-anchor="start" x="785.492" y="-361.4" font-family="Times Roman,serif" font-size="14.00">id :integer</text>
<text text-anchor="start" x="785.492" y="-343.4" font-family="Times Roman,serif" font-size="14.00">note :string</text>
<text text-anchor="start" x="785.492" y="-325.4" font-family="Times Roman,serif" font-size="14.00">created_at :datetime</text>
<text text-anchor="start" x="785.492" y="-307.4" font-family="Times Roman,serif" font-size="14.00">updated_at :datetime</text>
<text text-anchor="start" x="785.492" y="-289.4" font-family="Times Roman,serif" font-size="14.00">project_id :integer</text>
<text text-anchor="start" x="785.492" y="-271.4" font-family="Times Roman,serif" font-size="14.00">position :integer</text>
<text text-anchor="start" x="785.492" y="-253.4" font-family="Times Roman,serif" font-size="14.00">note_text :text</text>
</g>
<!-- Project&#45;&gt;Note -->
<g id="edge8" class="edge"><title>Project&#45;&gt;Note</title>
<path fill="none" stroke="#08d7e3" d="M620.215,-702.285C620.474,-702.189 620.733,-702.094 620.992,-702 714.102,-668.131 774.769,-739.695 840.992,-666 901.38,-598.799 896.783,-490.907 883.065,-414.29"/>
<ellipse fill="none" stroke="#08d7e3" cx="616.408" cy="-703.787" rx="4.00001" ry="4.00001"/>
<polygon fill="#08d7e3" stroke="#08d7e3" points="883.01,-413.995 885.59,-403.337 882.088,-409.08 881.167,-404.166 881.167,-404.166 881.167,-404.166 882.088,-409.08 876.744,-404.995 883.01,-413.995 883.01,-413.995"/>
</g>
<!-- Blueprint -->
<g id="node9" class="node"><title>Blueprint</title>
<polyline fill="none" stroke="black" points="679.492,-523 820.492,-523 "/>
<path fill="none" stroke="black" d="M820.492,-523C826.492,-523 832.492,-529 832.492,-535"/>
<polyline fill="none" stroke="black" points="832.492,-535 832.492,-653 "/>
<path fill="none" stroke="black" d="M832.492,-653C832.492,-659 826.492,-665 820.492,-665"/>
<polyline fill="none" stroke="black" points="820.492,-665 679.492,-665 "/>
<path fill="none" stroke="black" d="M679.492,-665C673.492,-665 667.492,-659 667.492,-653"/>
<polyline fill="none" stroke="black" points="667.492,-653 667.492,-535 "/>
<path fill="none" stroke="black" d="M667.492,-535C667.492,-529 673.492,-523 679.492,-523"/>
<text text-anchor="middle" x="749.992" y="-648.4" font-family="Times Roman,serif" font-size="14.00">Blueprint</text>
<polyline fill="none" stroke="black" points="667.492,-639 832.492,-639 "/>
<text text-anchor="start" x="675.492" y="-622.4" font-family="Times Roman,serif" font-size="14.00">id :integer</text>
<text text-anchor="start" x="675.492" y="-604.4" font-family="Times Roman,serif" font-size="14.00">created_at :datetime</text>
<text text-anchor="start" x="675.492" y="-586.4" font-family="Times Roman,serif" font-size="14.00">updated_at :datetime</text>
<text text-anchor="start" x="675.492" y="-568.4" font-family="Times Roman,serif" font-size="14.00">project_id :integer</text>
<text text-anchor="start" x="675.492" y="-550.4" font-family="Times Roman,serif" font-size="14.00">bpu :string</text>
<text text-anchor="start" x="675.492" y="-532.4" font-family="Times Roman,serif" font-size="14.00">title :string</text>
</g>
<!-- Project&#45;&gt;Blueprint -->
<g id="edge6" class="edge"><title>Project&#45;&gt;Blueprint</title>
<path fill="none" stroke="#29351b" d="M610.233,-698.041C624.823,-687.423 639.885,-676.409 653.992,-666 655.627,-664.794 657.276,-663.575 658.937,-662.347"/>
<ellipse fill="none" stroke="#29351b" cx="606.803" cy="-700.536" rx="4.00002" ry="4.00002"/>
<polygon fill="#29351b" stroke="#29351b" points="659.283,-662.09 669.996,-659.75 663.3,-659.113 667.317,-656.135 667.317,-656.135 667.317,-656.135 663.3,-659.113 664.637,-652.52 659.283,-662.09 659.283,-662.09"/>
</g>
<!-- Participant -->
<g id="node10" class="node"><title>Participant</title>
<polyline fill="none" stroke="black" points="603.492,-1 744.492,-1 "/>
<path fill="none" stroke="black" d="M744.492,-1C750.492,-1 756.492,-7 756.492,-13"/>
<polyline fill="none" stroke="black" points="756.492,-13 756.492,-113 "/>
<path fill="none" stroke="black" d="M756.492,-113C756.492,-119 750.492,-125 744.492,-125"/>
<polyline fill="none" stroke="black" points="744.492,-125 603.492,-125 "/>
<path fill="none" stroke="black" d="M603.492,-125C597.492,-125 591.492,-119 591.492,-113"/>
<polyline fill="none" stroke="black" points="591.492,-113 591.492,-13 "/>
<path fill="none" stroke="black" d="M591.492,-13C591.492,-7 597.492,-1 603.492,-1"/>
<text text-anchor="middle" x="673.992" y="-108.4" font-family="Times Roman,serif" font-size="14.00">Participant</text>
<polyline fill="none" stroke="black" points="591.492,-99 756.492,-99 "/>
<text text-anchor="start" x="599.492" y="-82.4" font-family="Times Roman,serif" font-size="14.00">id :integer</text>
<text text-anchor="start" x="599.492" y="-64.4" font-family="Times Roman,serif" font-size="14.00">project_id :integer</text>
<text text-anchor="start" x="599.492" y="-46.4" font-family="Times Roman,serif" font-size="14.00">user_id :integer</text>
<text text-anchor="start" x="599.492" y="-28.4" font-family="Times Roman,serif" font-size="14.00">created_at :datetime</text>
<text text-anchor="start" x="599.492" y="-10.4" font-family="Times Roman,serif" font-size="14.00">updated_at :datetime</text>
</g>
<!-- Project&#45;&gt;Participant -->
<g id="edge2" class="edge"><title>Project&#45;&gt;Participant</title>
<path fill="none" stroke="#43a813" d="M600.96,-696.682C608.853,-687.196 615.876,-676.888 620.992,-666 664.406,-573.615 672.451,-274.209 673.806,-135.174"/>
<ellipse fill="none" stroke="#43a813" cx="598.279" cy="-699.774" rx="4.00002" ry="4.00002"/>
<polygon fill="#43a813" stroke="#43a813" points="673.807,-135.042 678.396,-125.082 673.852,-130.042 673.896,-125.043 673.896,-125.043 673.896,-125.043 673.852,-130.042 669.396,-125.003 673.807,-135.042 673.807,-135.042"/>
</g>
<!-- City -->
<g id="node11" class="node"><title>City</title>
<polyline fill="none" stroke="black" points="459.492,-541 600.492,-541 "/>
<path fill="none" stroke="black" d="M600.492,-541C606.492,-541 612.492,-547 612.492,-553"/>
<polyline fill="none" stroke="black" points="612.492,-553 612.492,-635 "/>
<path fill="none" stroke="black" d="M612.492,-635C612.492,-641 606.492,-647 600.492,-647"/>
<polyline fill="none" stroke="black" points="600.492,-647 459.492,-647 "/>
<path fill="none" stroke="black" d="M459.492,-647C453.492,-647 447.492,-641 447.492,-635"/>
<polyline fill="none" stroke="black" points="447.492,-635 447.492,-553 "/>
<path fill="none" stroke="black" d="M447.492,-553C447.492,-547 453.492,-541 459.492,-541"/>
<text text-anchor="middle" x="529.992" y="-630.4" font-family="Times Roman,serif" font-size="14.00">City</text>
<polyline fill="none" stroke="black" points="447.492,-621 612.492,-621 "/>
<text text-anchor="start" x="455.492" y="-604.4" font-family="Times Roman,serif" font-size="14.00">id :integer</text>
<text text-anchor="start" x="455.492" y="-586.4" font-family="Times Roman,serif" font-size="14.00">created_at :datetime</text>
<text text-anchor="start" x="455.492" y="-568.4" font-family="Times Roman,serif" font-size="14.00">updated_at :datetime</text>
<text text-anchor="start" x="455.492" y="-550.4" font-family="Times Roman,serif" font-size="14.00">name :string</text>
</g>
<!-- Project&#45;&gt;City -->
<g id="edge12" class="edge"><title>Project&#45;&gt;City</title>
<path fill="none" stroke="#1ea51f" d="M523.426,-694.86C523.183,-681.987 523.181,-668.402 523.419,-655.516"/>
<ellipse fill="none" stroke="#1ea51f" cx="523.521" cy="-698.956" rx="4" ry="4"/>
<ellipse fill="#1ea51f" stroke="#1ea51f" cx="523.518" cy="-651.163" rx="4" ry="4"/>
</g>
<!-- Seal -->
<g id="node12" class="node"><title>Seal</title>
<polyline fill="none" stroke="black" points="239.492,-1 380.492,-1 "/>
<path fill="none" stroke="black" d="M380.492,-1C386.492,-1 392.492,-7 392.492,-13"/>
<polyline fill="none" stroke="black" points="392.492,-13 392.492,-113 "/>
<path fill="none" stroke="black" d="M392.492,-113C392.492,-119 386.492,-125 380.492,-125"/>
<polyline fill="none" stroke="black" points="380.492,-125 239.492,-125 "/>
<path fill="none" stroke="black" d="M239.492,-125C233.492,-125 227.492,-119 227.492,-113"/>
<polyline fill="none" stroke="black" points="227.492,-113 227.492,-13 "/>
<path fill="none" stroke="black" d="M227.492,-13C227.492,-7 233.492,-1 239.492,-1"/>
<text text-anchor="middle" x="309.992" y="-108.4" font-family="Times Roman,serif" font-size="14.00">Seal</text>
<polyline fill="none" stroke="black" points="227.492,-99 392.492,-99 "/>
<text text-anchor="start" x="235.492" y="-82.4" font-family="Times Roman,serif" font-size="14.00">id :integer</text>
<text text-anchor="start" x="235.492" y="-64.4" font-family="Times Roman,serif" font-size="14.00">project_id :integer</text>
<text text-anchor="start" x="235.492" y="-46.4" font-family="Times Roman,serif" font-size="14.00">city_id :integer</text>
<text text-anchor="start" x="235.492" y="-28.4" font-family="Times Roman,serif" font-size="14.00">created_at :datetime</text>
<text text-anchor="start" x="235.492" y="-10.4" font-family="Times Roman,serif" font-size="14.00">updated_at :datetime</text>
</g>
<!-- Project&#45;&gt;Seal -->
<g id="edge10" class="edge"><title>Project&#45;&gt;Seal</title>
<path fill="none" stroke="#8af98c" d="M439.779,-702.257C439.517,-702.17 439.254,-702.085 438.992,-702 353.644,-674.431 97.5188,-732.189 36.9923,-666 -73.2141,-545.483 91.239,-274.592 176.992,-162 180.981,-156.763 199.099,-142.63 220.74,-126.626"/>
<ellipse fill="none" stroke="#8af98c" cx="443.624" cy="-703.637" rx="4.00001" ry="4.00001"/>
<ellipse fill="#8af98c" stroke="#8af98c" cx="224.021" cy="-124.21" rx="4.00002" ry="4.00002"/>
</g>
<!-- User -->
<g id="node14" class="node"><title>User</title>
<polyline fill="none" stroke="black" points="197.992,-163 427.992,-163 "/>
<path fill="none" stroke="black" d="M427.992,-163C433.992,-163 439.992,-169 439.992,-175"/>
<polyline fill="none" stroke="black" points="439.992,-175 439.992,-473 "/>
<path fill="none" stroke="black" d="M439.992,-473C439.992,-479 433.992,-485 427.992,-485"/>
<polyline fill="none" stroke="black" points="427.992,-485 197.992,-485 "/>
<path fill="none" stroke="black" d="M197.992,-485C191.992,-485 185.992,-479 185.992,-473"/>
<polyline fill="none" stroke="black" points="185.992,-473 185.992,-175 "/>
<path fill="none" stroke="black" d="M185.992,-175C185.992,-169 191.992,-163 197.992,-163"/>
<text text-anchor="middle" x="312.992" y="-468.4" font-family="Times Roman,serif" font-size="14.00">User</text>
<polyline fill="none" stroke="black" points="185.992,-459 439.992,-459 "/>
<text text-anchor="start" x="193.992" y="-442.4" font-family="Times Roman,serif" font-size="14.00">id :integer</text>
<text text-anchor="start" x="193.992" y="-424.4" font-family="Times Roman,serif" font-size="14.00">email :string</text>
<text text-anchor="start" x="193.992" y="-406.4" font-family="Times Roman,serif" font-size="14.00">encrypted_password :string</text>
<text text-anchor="start" x="193.992" y="-388.4" font-family="Times Roman,serif" font-size="14.00">reset_password_token :string</text>
<text text-anchor="start" x="193.992" y="-370.4" font-family="Times Roman,serif" font-size="14.00">reset_password_sent_at :datetime</text>
<text text-anchor="start" x="193.992" y="-352.4" font-family="Times Roman,serif" font-size="14.00">remember_created_at :datetime</text>
<text text-anchor="start" x="193.992" y="-334.4" font-family="Times Roman,serif" font-size="14.00">sign_in_count :integer</text>
<text text-anchor="start" x="193.992" y="-316.4" font-family="Times Roman,serif" font-size="14.00">current_sign_in_at :datetime</text>
<text text-anchor="start" x="193.992" y="-298.4" font-family="Times Roman,serif" font-size="14.00">last_sign_in_at :datetime</text>
<text text-anchor="start" x="193.992" y="-280.4" font-family="Times Roman,serif" font-size="14.00">current_sign_in_ip :string</text>
<text text-anchor="start" x="193.992" y="-262.4" font-family="Times Roman,serif" font-size="14.00">last_sign_in_ip :string</text>
<text text-anchor="start" x="193.992" y="-244.4" font-family="Times Roman,serif" font-size="14.00">created_at :datetime</text>
<text text-anchor="start" x="193.992" y="-226.4" font-family="Times Roman,serif" font-size="14.00">updated_at :datetime</text>
<text text-anchor="start" x="193.992" y="-208.4" font-family="Times Roman,serif" font-size="14.00">name :string</text>
<text text-anchor="start" x="193.992" y="-190.4" font-family="Times Roman,serif" font-size="14.00">customer_id :string</text>
<text text-anchor="start" x="193.992" y="-172.4" font-family="Times Roman,serif" font-size="14.00">last_4_digits :string</text>
</g>
<!-- Project&#45;&gt;User -->
<g id="edge4" class="edge"><title>Project&#45;&gt;User</title>
<path fill="none" stroke="#3708dd" d="M437.407,-701.927C357.868,-676.817 307.291,-727.223 256.992,-666 218.099,-618.66 219.009,-554.868 234.209,-495.203"/>
<polygon fill="#3708dd" stroke="#3708dd" points="437.815,-702.07 445.765,-709.623 442.534,-703.723 447.253,-705.376 447.253,-705.376 447.253,-705.376 442.534,-703.723 448.741,-701.129 437.815,-702.07 437.815,-702.07"/>
<polygon fill="#3708dd" stroke="#3708dd" points="234.28,-494.938 241.222,-486.449 235.578,-490.109 236.876,-485.281 236.876,-485.281 236.876,-485.281 235.578,-490.109 232.53,-484.112 234.28,-494.938 234.28,-494.938"/>
</g>
<!-- Role -->
<g id="node4" class="node"><title>Role</title>
<polyline fill="none" stroke="black" points="277.492,-523 418.492,-523 "/>
<path fill="none" stroke="black" d="M418.492,-523C424.492,-523 430.492,-529 430.492,-535"/>
<polyline fill="none" stroke="black" points="430.492,-535 430.492,-653 "/>
<path fill="none" stroke="black" d="M430.492,-653C430.492,-659 424.492,-665 418.492,-665"/>
<polyline fill="none" stroke="black" points="418.492,-665 277.492,-665 "/>
<path fill="none" stroke="black" d="M277.492,-665C271.492,-665 265.492,-659 265.492,-653"/>
<polyline fill="none" stroke="black" points="265.492,-653 265.492,-535 "/>
<path fill="none" stroke="black" d="M265.492,-535C265.492,-529 271.492,-523 277.492,-523"/>
<text text-anchor="middle" x="347.992" y="-648.4" font-family="Times Roman,serif" font-size="14.00">Role</text>
<polyline fill="none" stroke="black" points="265.492,-639 430.492,-639 "/>
<text text-anchor="start" x="273.492" y="-622.4" font-family="Times Roman,serif" font-size="14.00">id :integer</text>
<text text-anchor="start" x="273.492" y="-604.4" font-family="Times Roman,serif" font-size="14.00">name :string</text>
<text text-anchor="start" x="273.492" y="-586.4" font-family="Times Roman,serif" font-size="14.00">resource_id :integer</text>
<text text-anchor="start" x="273.492" y="-568.4" font-family="Times Roman,serif" font-size="14.00">resource_type :string</text>
<text text-anchor="start" x="273.492" y="-550.4" font-family="Times Roman,serif" font-size="14.00">created_at :datetime</text>
<text text-anchor="start" x="273.492" y="-532.4" font-family="Times Roman,serif" font-size="14.00">updated_at :datetime</text>
</g>
<!-- Role&#45;&gt;User -->
<g id="edge14" class="edge"><title>Role&#45;&gt;User</title>
<path fill="none" stroke="#951a97" d="M337.465,-512.786C336.722,-507.06 335.96,-501.18 335.184,-495.197"/>
<polygon fill="#951a97" stroke="#951a97" points="337.465,-512.79 334.288,-523.286 338.108,-517.749 338.751,-522.708 338.751,-522.708 338.751,-522.708 338.108,-517.749 343.213,-522.129 337.465,-512.79 337.465,-512.79"/>
<polygon fill="#951a97" stroke="#951a97" points="335.154,-494.958 338.331,-484.462 334.511,-489.999 333.868,-485.041 333.868,-485.041 333.868,-485.041 334.511,-489.999 329.405,-485.619 335.154,-494.958 335.154,-494.958"/>
</g>
<!-- Group -->
<g id="node5" class="node"><title>Group</title>
<polyline fill="none" stroke="black" points="57.4923,-541 198.492,-541 "/>
<path fill="none" stroke="black" d="M198.492,-541C204.492,-541 210.492,-547 210.492,-553"/>
<polyline fill="none" stroke="black" points="210.492,-553 210.492,-635 "/>
<path fill="none" stroke="black" d="M210.492,-635C210.492,-641 204.492,-647 198.492,-647"/>
<polyline fill="none" stroke="black" points="198.492,-647 57.4923,-647 "/>
<path fill="none" stroke="black" d="M57.4923,-647C51.4923,-647 45.4923,-641 45.4923,-635"/>
<polyline fill="none" stroke="black" points="45.4923,-635 45.4923,-553 "/>
<path fill="none" stroke="black" d="M45.4923,-553C45.4923,-547 51.4923,-541 57.4923,-541"/>
<text text-anchor="middle" x="127.992" y="-630.4" font-family="Times Roman,serif" font-size="14.00">Group</text>
<polyline fill="none" stroke="black" points="45.4923,-621 210.492,-621 "/>
<text text-anchor="start" x="53.4923" y="-604.4" font-family="Times Roman,serif" font-size="14.00">id :integer</text>
<text text-anchor="start" x="53.4923" y="-586.4" font-family="Times Roman,serif" font-size="14.00">name :string</text>
<text text-anchor="start" x="53.4923" y="-568.4" font-family="Times Roman,serif" font-size="14.00">created_at :datetime</text>
<text text-anchor="start" x="53.4923" y="-550.4" font-family="Times Roman,serif" font-size="14.00">updated_at :datetime</text>
</g>
<!-- Member -->
<g id="node13" class="node"><title>Member</title>
<polyline fill="none" stroke="black" points="57.4923,-1 198.492,-1 "/>
<path fill="none" stroke="black" d="M198.492,-1C204.492,-1 210.492,-7 210.492,-13"/>
<polyline fill="none" stroke="black" points="210.492,-13 210.492,-113 "/>
<path fill="none" stroke="black" d="M210.492,-113C210.492,-119 204.492,-125 198.492,-125"/>
<polyline fill="none" stroke="black" points="198.492,-125 57.4923,-125 "/>
<path fill="none" stroke="black" d="M57.4923,-125C51.4923,-125 45.4923,-119 45.4923,-113"/>
<polyline fill="none" stroke="black" points="45.4923,-113 45.4923,-13 "/>
<path fill="none" stroke="black" d="M45.4923,-13C45.4923,-7 51.4923,-1 57.4923,-1"/>
<text text-anchor="middle" x="127.992" y="-108.4" font-family="Times Roman,serif" font-size="14.00">Member</text>
<polyline fill="none" stroke="black" points="45.4923,-99 210.492,-99 "/>
<text text-anchor="start" x="53.4923" y="-82.4" font-family="Times Roman,serif" font-size="14.00">id :integer</text>
<text text-anchor="start" x="53.4923" y="-64.4" font-family="Times Roman,serif" font-size="14.00">group_id :integer</text>
<text text-anchor="start" x="53.4923" y="-46.4" font-family="Times Roman,serif" font-size="14.00">user_id :integer</text>
<text text-anchor="start" x="53.4923" y="-28.4" font-family="Times Roman,serif" font-size="14.00">created_at :datetime</text>
<text text-anchor="start" x="53.4923" y="-10.4" font-family="Times Roman,serif" font-size="14.00">updated_at :datetime</text>
</g>
<!-- Group&#45;&gt;Member -->
<g id="edge16" class="edge"><title>Group&#45;&gt;Member</title>
<path fill="none" stroke="#3007bb" d="M127.992,-532.602C127.992,-433.985 127.992,-240.72 127.992,-135.483"/>
<ellipse fill="none" stroke="#3007bb" cx="127.992" cy="-536.654" rx="4" ry="4"/>
<polygon fill="#3007bb" stroke="#3007bb" points="127.992,-135.27 132.492,-125.27 127.992,-130.27 127.992,-125.27 127.992,-125.27 127.992,-125.27 127.992,-130.27 123.492,-125.27 127.992,-135.27 127.992,-135.27"/>
</g>
<!-- Group&#45;&gt;User -->
<g id="edge18" class="edge"><title>Group&#45;&gt;User</title>
<path fill="none" stroke="#cc05c0" d="M170.057,-532.609C178.314,-520.558 187.343,-507.38 196.722,-493.691"/>
<polygon fill="#cc05c0" stroke="#cc05c0" points="169.974,-532.729 160.609,-538.435 167.148,-536.854 164.322,-540.979 164.322,-540.979 164.322,-540.979 167.148,-536.854 168.034,-543.522 169.974,-532.729 169.974,-532.729"/>
<polygon fill="#cc05c0" stroke="#cc05c0" points="196.951,-493.357 206.316,-487.651 199.777,-489.232 202.604,-485.108 202.604,-485.108 202.604,-485.108 199.777,-489.232 198.891,-482.564 196.951,-493.357 196.951,-493.357"/>
</g>
<!-- Ability -->
<g id="node6" class="node"><title>Ability</title>
<polygon fill="none" stroke="black" points="629.992,-730 629.992,-782 689.992,-782 689.992,-730 629.992,-730"/>
<text text-anchor="middle" x="659.992" y="-765.4" font-family="Times Roman,serif" font-size="14.00">Ability</text>
<polyline fill="none" stroke="black" points="629.992,-756 689.992,-756 "/>
<text text-anchor="middle" x="659.992" y="-739.4" font-family="Times Roman,serif" font-size="14.00"> </text>
</g>
<!-- Reviewer -->
<g id="node7" class="node"><title>Reviewer</title>
<polyline fill="none" stroke="black" points="421.492,-1 562.492,-1 "/>
<path fill="none" stroke="black" d="M562.492,-1C568.492,-1 574.492,-7 574.492,-13"/>
<polyline fill="none" stroke="black" points="574.492,-13 574.492,-113 "/>
<path fill="none" stroke="black" d="M574.492,-113C574.492,-119 568.492,-125 562.492,-125"/>
<polyline fill="none" stroke="black" points="562.492,-125 421.492,-125 "/>
<path fill="none" stroke="black" d="M421.492,-125C415.492,-125 409.492,-119 409.492,-113"/>
<polyline fill="none" stroke="black" points="409.492,-113 409.492,-13 "/>
<path fill="none" stroke="black" d="M409.492,-13C409.492,-7 415.492,-1 421.492,-1"/>
<text text-anchor="middle" x="491.992" y="-108.4" font-family="Times Roman,serif" font-size="14.00">Reviewer</text>
<polyline fill="none" stroke="black" points="409.492,-99 574.492,-99 "/>
<text text-anchor="start" x="417.492" y="-82.4" font-family="Times Roman,serif" font-size="14.00">id :integer</text>
<text text-anchor="start" x="417.492" y="-64.4" font-family="Times Roman,serif" font-size="14.00">user_id :integer</text>
<text text-anchor="start" x="417.492" y="-46.4" font-family="Times Roman,serif" font-size="14.00">city_id :integer</text>
<text text-anchor="start" x="417.492" y="-28.4" font-family="Times Roman,serif" font-size="14.00">created_at :datetime</text>
<text text-anchor="start" x="417.492" y="-10.4" font-family="Times Roman,serif" font-size="14.00">updated_at :datetime</text>
</g>
<!-- Note&#45;&gt;Coordinate -->
<g id="edge20" class="edge"><title>Note&#45;&gt;Coordinate</title>
<path fill="none" stroke="#fab064" d="M859.316,-235.762C859.066,-203.112 858.785,-166.506 858.547,-135.422"/>
<ellipse fill="none" stroke="#fab064" cx="859.348" cy="-239.918" rx="4" ry="4"/>
<polygon fill="#fab064" stroke="#fab064" points="858.545,-135.106 862.968,-125.072 858.507,-130.106 858.468,-125.106 858.468,-125.106 858.468,-125.106 858.507,-130.106 853.968,-125.141 858.545,-135.106 858.545,-135.106"/>
</g>
<!-- Blueprint&#45;&gt;Coordinate -->
<g id="edge22" class="edge"><title>Blueprint&#45;&gt;Coordinate</title>
<path fill="none" stroke="#85c743" d="M737.955,-514.63C727.866,-425.298 721.744,-277.566 768.992,-162 773.077,-152.009 778.634,-142.368 784.989,-133.283"/>
<ellipse fill="none" stroke="#85c743" cx="738.447" cy="-518.85" rx="4.00001" ry="4.00001"/>
<polygon fill="#85c743" stroke="#85c743" points="785.09,-133.145 794.651,-127.774 788.06,-129.123 791.031,-125.101 791.031,-125.101 791.031,-125.101 788.06,-129.123 787.411,-122.428 785.09,-133.145 785.09,-133.145"/>
</g>
<!-- Blueprint&#45;&gt;Note -->
<g id="edge24" class="edge"><title>Blueprint&#45;&gt;Note</title>
<path fill="none" stroke="#a193a9" d="M782.929,-513.154C795.698,-481.813 810.368,-445.805 823.459,-413.673"/>
<polygon fill="#a193a9" stroke="#a193a9" points="782.81,-513.447 774.87,-521.01 780.924,-518.077 779.037,-522.708 779.037,-522.708 779.037,-522.708 780.924,-518.077 783.205,-524.405 782.81,-513.447 782.81,-513.447"/>
<polygon fill="#a193a9" stroke="#a193a9" points="823.513,-413.54 831.454,-405.976 825.4,-408.909 827.286,-404.279 827.286,-404.279 827.286,-404.279 825.4,-408.909 823.119,-402.581 823.513,-413.54 823.513,-413.54"/>
</g>
<!-- City&#45;&gt;Project -->
<g id="edge32" class="edge"><title>City&#45;&gt;Project</title>
<path fill="none" stroke="#4b07bd" d="M536.596,-657.24C536.791,-668.885 536.791,-681.046 536.597,-692.694"/>
<polygon fill="#4b07bd" stroke="#4b07bd" points="536.594,-657.162 540.874,-647.065 536.485,-652.163 536.375,-647.164 536.375,-647.164 536.375,-647.164 536.485,-652.163 531.876,-647.263 536.594,-657.162 536.594,-657.162"/>
<polygon fill="#4b07bd" stroke="#4b07bd" points="536.591,-692.958 531.873,-702.856 536.481,-697.956 536.371,-702.955 536.371,-702.955 536.371,-702.955 536.481,-697.956 540.87,-703.054 536.591,-692.958 536.591,-692.958"/>
</g>
<!-- City&#45;&gt;Reviewer -->
<g id="edge26" class="edge"><title>City&#45;&gt;Reviewer</title>
<path fill="none" stroke="#9ad66f" d="M525.598,-532.602C518.541,-433.985 504.71,-240.72 497.179,-135.483"/>
<ellipse fill="none" stroke="#9ad66f" cx="525.889" cy="-536.665" rx="4" ry="4"/>
<polygon fill="#9ad66f" stroke="#9ad66f" points="497.162,-135.244 500.937,-124.948 496.805,-130.257 496.448,-125.27 496.448,-125.27 496.448,-125.27 496.805,-130.257 491.96,-125.591 497.162,-135.244 497.162,-135.244"/>
</g>
<!-- City&#45;&gt;Seal -->
<g id="edge30" class="edge"><title>City&#45;&gt;Seal</title>
<path fill="none" stroke="#24e224" d="M508.233,-533.101C503.35,-517.863 498.565,-501.454 494.992,-486 462.229,-344.294 524.576,-286.262 448.992,-162 448.033,-160.423 426.734,-145.056 401.086,-126.88"/>
<ellipse fill="none" stroke="#24e224" cx="509.55" cy="-537.148" rx="4.00001" ry="4.00001"/>
<polygon fill="#24e224" stroke="#24e224" points="400.789,-126.67 395.225,-117.221 396.708,-123.782 392.626,-120.894 392.626,-120.894 392.626,-120.894 396.708,-123.782 390.027,-124.567 400.789,-126.67 400.789,-126.67"/>
</g>
<!-- City&#45;&gt;User -->
<g id="edge28" class="edge"><title>City&#45;&gt;User</title>
<path fill="none" stroke="#7b5a59" d="M480.99,-533.03C470.351,-519.792 458.607,-505.18 446.42,-490.016"/>
<polygon fill="#7b5a59" stroke="#7b5a59" points="481.114,-533.184 483.871,-543.798 484.247,-537.082 487.379,-540.979 487.379,-540.979 487.379,-540.979 484.247,-537.082 490.887,-538.16 481.114,-533.184 481.114,-533.184"/>
<polygon fill="#7b5a59" stroke="#7b5a59" points="446.274,-489.835 443.517,-479.221 443.142,-485.937 440.01,-482.04 440.01,-482.04 440.01,-482.04 443.142,-485.937 436.502,-484.859 446.274,-489.835 446.274,-489.835"/>
</g>
<!-- User&#45;&gt;Reviewer -->
<g id="edge36" class="edge"><title>User&#45;&gt;Reviewer</title>
<path fill="none" stroke="#f67244" d="M428.185,-156.037C433.496,-148.293 438.675,-140.742 443.638,-133.506"/>
<ellipse fill="none" stroke="#f67244" cx="425.816" cy="-159.491" rx="4.00002" ry="4.00002"/>
<polygon fill="#f67244" stroke="#f67244" points="443.704,-133.409 453.071,-127.708 446.532,-129.286 449.36,-125.162 449.36,-125.162 449.36,-125.162 446.532,-129.286 445.649,-122.617 443.704,-133.409 443.704,-133.409"/>
</g>
<!-- User&#45;&gt;Participant -->
<g id="edge34" class="edge"><title>User&#45;&gt;Participant</title>
<path fill="none" stroke="#44d346" d="M446.525,-227.457C492.061,-194.535 541.882,-158.514 583.261,-128.598"/>
<ellipse fill="none" stroke="#44d346" cx="443.255" cy="-229.821" rx="4.00002" ry="4.00002"/>
<polygon fill="#44d346" stroke="#44d346" points="583.316,-128.558 594.056,-126.346 587.368,-125.629 591.42,-122.699 591.42,-122.699 591.42,-122.699 587.368,-125.629 588.783,-119.052 583.316,-128.558 583.316,-128.558"/>
</g>
<!-- User&#45;&gt;Seal -->
<g id="edge38" class="edge"><title>User&#45;&gt;Seal</title>
<path fill="none" stroke="#677fe4" d="M311.023,-152.695C310.954,-146.706 310.887,-140.844 310.822,-135.167"/>
<polygon fill="#677fe4" stroke="#677fe4" points="311.024,-152.791 306.64,-162.842 311.082,-157.79 311.139,-162.79 311.139,-162.79 311.139,-162.79 311.082,-157.79 315.639,-162.738 311.024,-152.791 311.024,-152.791"/>
<polygon fill="#677fe4" stroke="#677fe4" points="310.822,-135.162 315.206,-125.111 310.764,-130.162 310.707,-125.162 310.707,-125.162 310.707,-125.162 310.764,-130.162 306.207,-125.214 310.822,-135.162 310.822,-135.162"/>
</g>
<!-- User&#45;&gt;Member -->
<g id="edge40" class="edge"><title>User&#45;&gt;Member</title>
<path fill="none" stroke="#5d050b" d="M193.938,-156.037C188.449,-148.293 183.097,-140.742 177.968,-133.506"/>
<ellipse fill="none" stroke="#5d050b" cx="196.412" cy="-159.527" rx="4.00002" ry="4.00002"/>
<polygon fill="#5d050b" stroke="#5d050b" points="177.837,-133.321 175.725,-122.56 174.945,-129.242 172.054,-125.162 172.054,-125.162 172.054,-125.162 174.945,-129.242 168.382,-127.765 177.837,-133.321 177.837,-133.321"/>
</g>
</g>
</svg>
