<?xml version="1.0" encoding="UTF-8" standalone="no"?>
<!DOCTYPE svg PUBLIC "-//W3C//DTD SVG 1.1//EN"
 "http://www.w3.org/Graphics/SVG/1.1/DTD/svg11.dtd">
<!-- Generated by graphviz version 2.26.3 (20100126.1600)
 -->
<!-- Title: models_diagram Pages: 1 -->
<svg width="553pt" height="324pt"
 viewBox="0.00 0.00 553.00 324.00" xmlns="http://www.w3.org/2000/svg" xmlns:xlink="http://www.w3.org/1999/xlink">
<g id="graph1" class="graph" transform="scale(1 1) rotate(0) translate(4 320)">
<title>models_diagram</title>
<polygon fill="white" stroke="white" points="-4,5 -4,-320 550,-320 550,5 -4,5"/>
<!-- _diagram_info -->
<g id="node1" class="node"><title>_diagram_info</title>
<text text-anchor="start" x="8" y="-299.8" font-family="Times Roman,serif" font-size="13.00">Models diagram</text>
<text text-anchor="start" x="8" y="-282.8" font-family="Times Roman,serif" font-size="13.00">Date: Dec 28 2012 &#45; 11:54</text>
<text text-anchor="start" x="8" y="-265.8" font-family="Times Roman,serif" font-size="13.00">Migration version: 20121228164205</text>
<text text-anchor="start" x="8" y="-248.8" font-family="Times Roman,serif" font-size="13.00">Generated by RailRoady 1.1.0</text>
<text text-anchor="start" x="8" y="-231.8" font-family="Times Roman,serif" font-size="13.00">http://railroady.prestonlee.com</text>
</g>
<!-- Coordinate -->
<g id="node2" class="node"><title>Coordinate</title>
<ellipse fill="none" stroke="black" cx="257" cy="-19" rx="65.0538" ry="18.3848"/>
<text text-anchor="middle" x="257" y="-15.4" font-family="Times Roman,serif" font-size="14.00">Coordinate</text>
</g>
<!-- Project -->
<g id="node3" class="node"><title>Project</title>
<ellipse fill="none" stroke="black" cx="314" cy="-269" rx="45.9619" ry="18.3848"/>
<text text-anchor="middle" x="314" y="-265.4" font-family="Times Roman,serif" font-size="14.00">Project</text>
</g>
<!-- Note -->
<g id="node6" class="node"><title>Note</title>
<ellipse fill="none" stroke="black" cx="226" cy="-93" rx="34.8574" ry="18.3848"/>
<text text-anchor="middle" x="226" y="-89.4" font-family="Times Roman,serif" font-size="14.00">Note</text>
</g>
<!-- Project&#45;&gt;Note -->
<g id="edge8" class="edge"><title>Project&#45;&gt;Note</title>
<path fill="none" stroke="#9d4ee9" d="M288.022,-246.936C262.686,-225.124 227.46,-193.897 224,-186 215.087,-165.656 216.328,-140.329 219.385,-121.246"/>
<ellipse fill="none" stroke="#9d4ee9" cx="291.19" cy="-249.654" rx="4.00002" ry="4.00002"/>
<polygon fill="#9d4ee9" stroke="#9d4ee9" points="219.396,-121.19 225.642,-112.177 220.307,-116.273 221.218,-111.357 221.218,-111.357 221.218,-111.357 220.307,-116.273 216.793,-110.537 219.396,-121.19 219.396,-121.19"/>
</g>
<!-- Blueprint -->
<g id="node7" class="node"><title>Blueprint</title>
<ellipse fill="none" stroke="black" cx="289" cy="-167" rx="56.0679" ry="18.3848"/>
<text text-anchor="middle" x="289" y="-163.4" font-family="Times Roman,serif" font-size="14.00">Blueprint</text>
</g>
<!-- Project&#45;&gt;Blueprint -->
<g id="edge6" class="edge"><title>Project&#45;&gt;Blueprint</title>
<path fill="none" stroke="#6a589e" d="M307.505,-242.499C303.982,-228.125 299.624,-210.345 296.022,-195.651"/>
<ellipse fill="none" stroke="#6a589e" cx="308.462" cy="-246.407" rx="4.00001" ry="4.00001"/>
<polygon fill="#6a589e" stroke="#6a589e" points="295.937,-195.302 297.927,-184.519 294.747,-190.446 293.556,-185.59 293.556,-185.59 293.556,-185.59 294.747,-190.446 289.186,-186.661 295.937,-195.302 295.937,-195.302"/>
</g>
<!-- Participant -->
<g id="node8" class="node"><title>Participant</title>
<ellipse fill="none" stroke="black" cx="408" cy="-93" rx="63.8479" ry="18.3848"/>
<text text-anchor="middle" x="408" y="-89.4" font-family="Times Roman,serif" font-size="14.00">Participant</text>
</g>
<!-- Project&#45;&gt;Participant -->
<g id="edge2" class="edge"><title>Project&#45;&gt;Participant</title>
<path fill="none" stroke="#bff53b" d="M327.552,-243.626C345.082,-210.804 375.495,-153.86 393.483,-120.18"/>
<ellipse fill="none" stroke="#bff53b" cx="325.59" cy="-247.299" rx="4.00002" ry="4.00002"/>
<polygon fill="#bff53b" stroke="#bff53b" points="393.495,-120.158 402.176,-113.457 395.851,-115.747 398.206,-111.337 398.206,-111.337 398.206,-111.337 395.851,-115.747 394.237,-109.217 393.495,-120.158 393.495,-120.158"/>
</g>
<!-- User -->
<g id="node9" class="node"><title>User</title>
<ellipse fill="none" stroke="black" cx="435" cy="-167" rx="33.9411" ry="18.3848"/>
<text text-anchor="middle" x="435" y="-163.4" font-family="Times Roman,serif" font-size="14.00">User</text>
</g>
<!-- Project&#45;&gt;User -->
<g id="edge4" class="edge"><title>Project&#45;&gt;User</title>
<path fill="none" stroke="#b218f9" d="M341.643,-245.698C361.693,-228.796 388.655,-206.067 408.449,-189.382"/>
<polygon fill="#b218f9" stroke="#b218f9" points="341.627,-245.711 331.08,-248.716 337.804,-248.934 333.981,-252.157 333.981,-252.157 333.981,-252.157 337.804,-248.934 336.881,-255.597 341.627,-245.711 341.627,-245.711"/>
<polygon fill="#b218f9" stroke="#b218f9" points="408.539,-189.306 419.085,-186.301 412.362,-186.083 416.185,-182.861 416.185,-182.861 416.185,-182.861 412.362,-186.083 413.285,-179.42 408.539,-189.306 408.539,-189.306"/>
</g>
<!-- Role -->
<g id="node4" class="node"><title>Role</title>
<ellipse fill="none" stroke="black" cx="435" cy="-269" rx="32.0265" ry="18.3848"/>
<text text-anchor="middle" x="435" y="-265.4" font-family="Times Roman,serif" font-size="14.00">Role</text>
</g>
<!-- Role&#45;&gt;User -->
<g id="edge10" class="edge"><title>Role&#45;&gt;User</title>
<path fill="none" stroke="#39ca03" d="M435,-240.054C435,-226.256 435,-209.791 435,-195.987"/>
<polygon fill="#39ca03" stroke="#39ca03" points="435,-240.292 430.5,-250.292 435,-245.292 435,-250.292 435,-250.292 435,-250.292 435,-245.292 439.5,-250.292 435,-240.292 435,-240.292"/>
<polygon fill="#39ca03" stroke="#39ca03" points="435,-195.59 439.5,-185.59 435,-190.59 435,-185.59 435,-185.59 435,-185.59 435,-190.59 430.5,-185.59 435,-195.59 435,-195.59"/>
</g>
<!-- Ability -->
<g id="node5" class="node"><title>Ability</title>
<polygon fill="none" stroke="black" points="545,-287 485,-287 485,-251 545,-251 545,-287"/>
<text text-anchor="middle" x="515" y="-265.4" font-family="Times Roman,serif" font-size="14.00">Ability</text>
</g>
<!-- Note&#45;&gt;Coordinate -->
<g id="edge12" class="edge"><title>Note&#45;&gt;Coordinate</title>
<path fill="none" stroke="#be2604" d="M236.81,-67.1947C239.554,-60.6457 242.514,-53.5801 245.299,-46.9309"/>
<ellipse fill="none" stroke="#be2604" cx="235.208" cy="-71.0185" rx="4.00002" ry="4.00002"/>
<polygon fill="#be2604" stroke="#be2604" points="245.346,-46.8191 253.36,-39.3345 247.278,-42.2074 249.21,-37.5957 249.21,-37.5957 249.21,-37.5957 247.278,-42.2074 245.059,-35.8569 245.346,-46.8191 245.346,-46.8191"/>
</g>
<!-- Blueprint&#45;&gt;Coordinate -->
<g id="edge14" class="edge"><title>Blueprint&#45;&gt;Coordinate</title>
<path fill="none" stroke="#59571e" d="M283.789,-140.397C280.087,-121.774 274.919,-96.3298 270,-74 268.094,-65.3485 265.916,-55.9581 263.894,-47.4262"/>
<ellipse fill="none" stroke="#59571e" cx="284.604" cy="-144.513" rx="4.00001" ry="4.00001"/>
<polygon fill="#59571e" stroke="#59571e" points="263.859,-47.2784 265.911,-36.5063 262.696,-42.4153 261.534,-37.5522 261.534,-37.5522 261.534,-37.5522 262.696,-42.4153 257.157,-38.5982 263.859,-47.2784 263.859,-47.2784"/>
</g>
<!-- Blueprint&#45;&gt;Note -->
<g id="edge16" class="edge"><title>Blueprint&#45;&gt;Note</title>
<path fill="none" stroke="#56afc6" d="M267.252,-141.454C260.747,-133.814 253.627,-125.451 247.161,-117.856"/>
<polygon fill="#56afc6" stroke="#56afc6" points="267.267,-141.472 270.323,-152.004 270.508,-145.279 273.749,-149.087 273.749,-149.087 273.749,-149.087 270.508,-145.279 277.176,-146.17 267.267,-141.472 267.267,-141.472"/>
<polygon fill="#56afc6" stroke="#56afc6" points="246.943,-117.6 243.887,-107.069 243.702,-113.793 240.461,-109.986 240.461,-109.986 240.461,-109.986 243.702,-113.793 237.034,-112.903 246.943,-117.6 246.943,-117.6"/>
</g>
<!-- User&#45;&gt;Participant -->
<g id="edge18" class="edge"><title>User&#45;&gt;Participant</title>
<path fill="none" stroke="#211d0d" d="M425.479,-140.905C423.163,-134.557 420.675,-127.739 418.324,-121.294"/>
<ellipse fill="none" stroke="#211d0d" cx="426.955" cy="-144.95" rx="4.00001" ry="4.00001"/>
<polygon fill="#211d0d" stroke="#211d0d" points="418.213,-120.99 419.012,-110.053 416.499,-116.293 414.785,-111.596 414.785,-111.596 414.785,-111.596 416.499,-116.293 410.558,-113.138 418.213,-120.99 418.213,-120.99"/>
</g>
</g>
</svg>
