<?xml version="1.0" encoding="UTF-8" standalone="no"?>
<!DOCTYPE svg PUBLIC "-//W3C//DTD SVG 1.1//EN"
 "http://www.w3.org/Graphics/SVG/1.1/DTD/svg11.dtd">
<!-- Generated by graphviz version 2.26.3 (20100126.1600)
 -->
<!-- Title: models_diagram Pages: 1 -->
<svg width="538pt" height="176pt"
 viewBox="0.00 0.00 538.00 176.00" xmlns="http://www.w3.org/2000/svg" xmlns:xlink="http://www.w3.org/1999/xlink">
<g id="graph1" class="graph" transform="scale(1 1) rotate(0) translate(4 172)">
<title>models_diagram</title>
<polygon fill="white" stroke="white" points="-4,5 -4,-172 535,-172 535,5 -4,5"/>
<!-- _diagram_info -->
<g id="node1" class="node"><title>_diagram_info</title>
<text text-anchor="start" x="8" y="-151.8" font-family="Times Roman,serif" font-size="13.00">Models diagram</text>
<text text-anchor="start" x="8" y="-134.8" font-family="Times Roman,serif" font-size="13.00">Date: Dec 22 2012 &#45; 11:42</text>
<text text-anchor="start" x="8" y="-117.8" font-family="Times Roman,serif" font-size="13.00">Migration version: 20121222161208</text>
<text text-anchor="start" x="8" y="-100.8" font-family="Times Roman,serif" font-size="13.00">Generated by RailRoady 1.1.0</text>
<text text-anchor="start" x="8" y="-83.8" font-family="Times Roman,serif" font-size="13.00">http://railroady.prestonlee.com</text>
</g>
<!-- Project -->
<g id="node2" class="node"><title>Project</title>
<ellipse fill="none" stroke="black" cx="314" cy="-121" rx="45.9619" ry="18.3848"/>
<text text-anchor="middle" x="314" y="-117.4" font-family="Times Roman,serif" font-size="14.00">Project</text>
</g>
<!-- Participant -->
<g id="node5" class="node"><title>Participant</title>
<ellipse fill="none" stroke="black" cx="304" cy="-19" rx="63.8479" ry="18.3848"/>
<text text-anchor="middle" x="304" y="-15.4" font-family="Times Roman,serif" font-size="14.00">Participant</text>
</g>
<!-- Project&#45;&gt;Participant -->
<g id="edge2" class="edge"><title>Project&#45;&gt;Participant</title>
<path fill="none" stroke="#34162b" d="M311.354,-94.0151C309.951,-79.6957 308.226,-62.1033 306.8,-47.5549"/>
<ellipse fill="none" stroke="#34162b" cx="311.776" cy="-98.3107" rx="4" ry="4"/>
<polygon fill="#34162b" stroke="#34162b" points="306.798,-47.5421 310.301,-37.1507 306.31,-42.5659 305.823,-37.5898 305.823,-37.5898 305.823,-37.5898 306.31,-42.5659 301.344,-38.0289 306.798,-47.5421 306.798,-47.5421"/>
</g>
<!-- User -->
<g id="node6" class="node"><title>User</title>
<ellipse fill="none" stroke="black" cx="420" cy="-19" rx="33.9411" ry="18.3848"/>
<text text-anchor="middle" x="420" y="-15.4" font-family="Times Roman,serif" font-size="14.00">User</text>
</g>
<!-- Project&#45;&gt;User -->
<g id="edge4" class="edge"><title>Project&#45;&gt;User</title>
<path fill="none" stroke="#f1306c" d="M339.408,-96.5503C356.476,-80.1265 378.838,-58.6086 395.675,-42.4066"/>
<polygon fill="#f1306c" stroke="#f1306c" points="339.187,-96.7633 328.861,-100.455 335.584,-100.23 331.981,-103.697 331.981,-103.697 331.981,-103.697 335.584,-100.23 335.102,-106.94 339.187,-96.7633 339.187,-96.7633"/>
<polygon fill="#f1306c" stroke="#f1306c" points="395.778,-42.3077 406.104,-38.6165 399.381,-38.8408 402.984,-35.3739 402.984,-35.3739 402.984,-35.3739 399.381,-38.8408 399.864,-32.1313 395.778,-42.3077 395.778,-42.3077"/>
</g>
<!-- Role -->
<g id="node3" class="node"><title>Role</title>
<ellipse fill="none" stroke="black" cx="420" cy="-121" rx="32.0265" ry="18.3848"/>
<text text-anchor="middle" x="420" y="-117.4" font-family="Times Roman,serif" font-size="14.00">Role</text>
</g>
<!-- Role&#45;&gt;User -->
<g id="edge6" class="edge"><title>Role&#45;&gt;User</title>
<path fill="none" stroke="#06a766" d="M420,-92.0544C420,-78.2563 420,-61.7907 420,-47.9873"/>
<polygon fill="#06a766" stroke="#06a766" points="420,-92.2916 415.5,-102.292 420,-97.2916 420,-102.292 420,-102.292 420,-102.292 420,-97.2916 424.5,-102.292 420,-92.2916 420,-92.2916"/>
<polygon fill="#06a766" stroke="#06a766" points="420,-47.5898 424.5,-37.5897 420,-42.5898 420,-37.5898 420,-37.5898 420,-37.5898 420,-42.5898 415.5,-37.5898 420,-47.5898 420,-47.5898"/>
</g>
<!-- Ability -->
<g id="node4" class="node"><title>Ability</title>
<polygon fill="none" stroke="black" points="530,-139 470,-139 470,-103 530,-103 530,-139"/>
<text text-anchor="middle" x="500" y="-117.4" font-family="Times Roman,serif" font-size="14.00">Ability</text>
</g>
</g>
</svg>
