<?xml version="1.0" encoding="UTF-8" standalone="no"?>
<!DOCTYPE svg PUBLIC "-//W3C//DTD SVG 1.1//EN"
 "http://www.w3.org/Graphics/SVG/1.1/DTD/svg11.dtd">
<!-- Generated by graphviz version 2.26.3 (20100126.1600)
 -->
<!-- Title: models_diagram Pages: 1 -->
<svg width="1188pt" height="346pt"
 viewBox="0.00 0.00 1188.00 346.00" xmlns="http://www.w3.org/2000/svg" xmlns:xlink="http://www.w3.org/1999/xlink">
<g id="graph1" class="graph" transform="scale(1 1) rotate(0) translate(4 342)">
<title>models_diagram</title>
<polygon fill="white" stroke="white" points="-4,5 -4,-342 1185,-342 1185,5 -4,5"/>
<!-- _diagram_info -->
<g id="node1" class="node"><title>_diagram_info</title>
<text text-anchor="start" x="548" y="-321.8" font-family="Times Roman,serif" font-size="13.00">Models diagram</text>
<text text-anchor="start" x="548" y="-304.8" font-family="Times Roman,serif" font-size="13.00">Date: Jan 10 2013 &#45; 22:32</text>
<text text-anchor="start" x="548" y="-287.8" font-family="Times Roman,serif" font-size="13.00">Migration version: 20130111015224</text>
<text text-anchor="start" x="548" y="-270.8" font-family="Times Roman,serif" font-size="13.00">Generated by RailRoady 1.1.0</text>
<text text-anchor="start" x="548" y="-253.8" font-family="Times Roman,serif" font-size="13.00">http://railroady.prestonlee.com</text>
</g>
<!-- Coordinate -->
<g id="node2" class="node"><title>Coordinate</title>
<ellipse fill="none" stroke="black" cx="329" cy="-19" rx="65.0538" ry="18.3848"/>
<text text-anchor="middle" x="329" y="-15.4" font-family="Times Roman,serif" font-size="14.00">Coordinate</text>
</g>
<!-- Project -->
<g id="node3" class="node"><title>Project</title>
<ellipse fill="none" stroke="black" cx="854" cy="-291" rx="45.9619" ry="18.3848"/>
<text text-anchor="middle" x="854" y="-287.4" font-family="Times Roman,serif" font-size="14.00">Project</text>
</g>
<!-- Task -->
<g id="node6" class="node"><title>Task</title>
<ellipse fill="none" stroke="black" cx="724" cy="-187" rx="33.234" ry="18.3848"/>
<text text-anchor="middle" x="724" y="-183.4" font-family="Times Roman,serif" font-size="14.00">Task</text>
</g>
<!-- Project&#45;&gt;Task -->
<g id="edge14" class="edge"><title>Project&#45;&gt;Task</title>
<path fill="none" stroke="#556ebc" d="M829.279,-268.632C820.009,-260.58 809.238,-251.61 799,-244 787.127,-235.174 782.937,-234.74 771,-226 763.867,-220.778 756.395,-214.82 749.561,-209.16"/>
<ellipse fill="none" stroke="#556ebc" cx="832.425" cy="-271.393" rx="4.00002" ry="4.00002"/>
<polygon fill="#556ebc" stroke="#556ebc" points="749.547,-209.148 744.786,-199.27 745.719,-205.932 741.891,-202.715 741.891,-202.715 741.891,-202.715 745.719,-205.932 738.996,-206.16 749.547,-209.148 749.547,-209.148"/>
</g>
<!-- Note -->
<g id="node9" class="node"><title>Note</title>
<ellipse fill="none" stroke="black" cx="360" cy="-111" rx="34.8574" ry="18.3848"/>
<text text-anchor="middle" x="360" y="-107.4" font-family="Times Roman,serif" font-size="14.00">Note</text>
</g>
<!-- Project&#45;&gt;Note -->
<g id="edge4" class="edge"><title>Project&#45;&gt;Note</title>
<path fill="none" stroke="#6fd8f4" d="M830.976,-267.599C821.685,-259.202 810.459,-250.27 799,-244 780.938,-234.117 505.509,-153.389 400.368,-122.742"/>
<ellipse fill="none" stroke="#6fd8f4" cx="834.152" cy="-270.56" rx="4.00002" ry="4.00002"/>
<polygon fill="#6fd8f4" stroke="#6fd8f4" points="400.34,-122.734 391.998,-115.616 395.54,-121.335 390.739,-119.936 390.739,-119.936 390.739,-119.936 395.54,-121.335 389.48,-124.257 400.34,-122.734 400.34,-122.734"/>
</g>
<!-- Blueprint -->
<g id="node10" class="node"><title>Blueprint</title>
<ellipse fill="none" stroke="black" cx="360" cy="-187" rx="56.0679" ry="18.3848"/>
<text text-anchor="middle" x="360" y="-183.4" font-family="Times Roman,serif" font-size="14.00">Blueprint</text>
</g>
<!-- Project&#45;&gt;Blueprint -->
<g id="edge2" class="edge"><title>Project&#45;&gt;Blueprint</title>
<path fill="none" stroke="#c9eabc" d="M832.637,-267.569C823.214,-258.712 811.455,-249.462 799,-244 737.508,-217.034 715.606,-234.49 649,-226 570.59,-216.005 480.33,-203.696 421.836,-195.613"/>
<ellipse fill="none" stroke="#c9eabc" cx="835.618" cy="-270.489" rx="4.00002" ry="4.00002"/>
<polygon fill="#c9eabc" stroke="#c9eabc" points="421.559,-195.574 412.27,-189.746 416.606,-194.889 411.653,-194.204 411.653,-194.204 411.653,-194.204 416.606,-194.889 411.037,-198.661 421.559,-195.574 421.559,-195.574"/>
</g>
<!-- Participant -->
<g id="node11" class="node"><title>Participant</title>
<ellipse fill="none" stroke="black" cx="782" cy="-19" rx="63.8479" ry="18.3848"/>
<text text-anchor="middle" x="782" y="-15.4" font-family="Times Roman,serif" font-size="14.00">Participant</text>
</g>
<!-- Project&#45;&gt;Participant -->
<g id="edge6" class="edge"><title>Project&#45;&gt;Participant</title>
<path fill="none" stroke="#ea323a" d="M835.925,-266.575C824.819,-250.264 811.354,-227.867 804,-206 785.886,-152.137 782.228,-85.1965 781.746,-47.7766"/>
<ellipse fill="none" stroke="#ea323a" cx="838.231" cy="-269.889" rx="4.00002" ry="4.00002"/>
<polygon fill="#ea323a" stroke="#ea323a" points="781.745,-47.599 786.185,-37.5723 781.715,-42.5991 781.686,-37.5992 781.686,-37.5992 781.686,-37.5992 781.715,-42.5991 777.186,-37.6261 781.745,-47.599 781.745,-47.599"/>
</g>
<!-- City -->
<g id="node12" class="node"><title>City</title>
<ellipse fill="none" stroke="black" cx="1064" cy="-187" rx="31.1127" ry="18.3848"/>
<text text-anchor="middle" x="1064" y="-183.4" font-family="Times Roman,serif" font-size="14.00">City</text>
</g>
<!-- Project&#45;&gt;City -->
<g id="edge12" class="edge"><title>Project&#45;&gt;City</title>
<path fill="none" stroke="#9c0cc3" d="M869.782,-266.728C878.319,-258.649 889.081,-250.152 900,-244 946.897,-217.575 965.037,-226.031 1015,-206 1019.68,-204.123 1024.59,-201.959 1029.46,-199.78"/>
<ellipse fill="none" stroke="#9c0cc3" cx="866.823" cy="-269.674" rx="4.00002" ry="4.00002"/>
<ellipse fill="#9c0cc3" stroke="#9c0cc3" cx="1033.38" cy="-198.019" rx="4.00002" ry="4.00002"/>
</g>
<!-- Seal -->
<g id="node13" class="node"><title>Seal</title>
<ellipse fill="none" stroke="black" cx="1148" cy="-19" rx="32.0265" ry="18.3848"/>
<text text-anchor="middle" x="1148" y="-15.4" font-family="Times Roman,serif" font-size="14.00">Seal</text>
</g>
<!-- Project&#45;&gt;Seal -->
<g id="edge10" class="edge"><title>Project&#45;&gt;Seal</title>
<path fill="none" stroke="#f7ac02" d="M876.002,-267.619C885.381,-258.951 896.938,-249.824 909,-244 988.515,-205.61 1040.37,-267.218 1104,-206 1147.98,-163.688 1151.57,-86.3226 1150.04,-45.633"/>
<ellipse fill="none" stroke="#f7ac02" cx="873.057" cy="-270.442" rx="4.00002" ry="4.00002"/>
<ellipse fill="#f7ac02" stroke="#f7ac02" cx="1149.84" cy="-41.5281" rx="4" ry="4"/>
</g>
<!-- User -->
<g id="node15" class="node"><title>User</title>
<ellipse fill="none" stroke="black" cx="952" cy="-111" rx="33.9411" ry="18.3848"/>
<text text-anchor="middle" x="952" y="-107.4" font-family="Times Roman,serif" font-size="14.00">User</text>
</g>
<!-- Project&#45;&gt;User -->
<g id="edge8" class="edge"><title>Project&#45;&gt;User</title>
<path fill="none" stroke="#654ced" d="M870.291,-264.311C880.288,-247.689 893.2,-225.779 904,-206 916.349,-183.385 929.486,-157.221 938.889,-138.083"/>
<polygon fill="#654ced" stroke="#654ced" points="870.24,-264.395 861.217,-270.626 867.654,-268.674 865.068,-272.954 865.068,-272.954 865.068,-272.954 867.654,-268.674 868.92,-275.281 870.24,-264.395 870.24,-264.395"/>
<polygon fill="#654ced" stroke="#654ced" points="938.92,-138.02 947.356,-131.014 941.117,-133.528 943.313,-129.037 943.313,-129.037 943.313,-129.037 941.117,-133.528 939.271,-127.06 938.92,-138.02 938.92,-138.02"/>
</g>
<!-- Role -->
<g id="node4" class="node"><title>Role</title>
<ellipse fill="none" stroke="black" cx="983" cy="-187" rx="32.0265" ry="18.3848"/>
<text text-anchor="middle" x="983" y="-183.4" font-family="Times Roman,serif" font-size="14.00">Role</text>
</g>
<!-- Role&#45;&gt;User -->
<g id="edge16" class="edge"><title>Role&#45;&gt;User</title>
<path fill="none" stroke="#32c9e2" d="M971.864,-159.699C969.081,-152.877 966.094,-145.553 963.303,-138.711"/>
<polygon fill="#32c9e2" stroke="#32c9e2" points="971.877,-159.73 971.487,-170.689 973.765,-164.359 975.653,-168.989 975.653,-168.989 975.653,-168.989 973.765,-164.359 979.82,-167.289 971.877,-159.73 971.877,-159.73"/>
<polygon fill="#32c9e2" stroke="#32c9e2" points="963.178,-138.404 963.568,-127.445 961.29,-133.775 959.401,-129.145 959.401,-129.145 959.401,-129.145 961.29,-133.775 955.235,-130.845 963.178,-138.404 963.178,-138.404"/>
</g>
<!-- Group -->
<g id="node5" class="node"><title>Group</title>
<ellipse fill="none" stroke="black" cx="854" cy="-187" rx="41.2167" ry="18.3848"/>
<text text-anchor="middle" x="854" y="-183.4" font-family="Times Roman,serif" font-size="14.00">Group</text>
</g>
<!-- Member -->
<g id="node14" class="node"><title>Member</title>
<ellipse fill="none" stroke="black" cx="915" cy="-19" rx="50.9117" ry="18.3848"/>
<text text-anchor="middle" x="915" y="-15.4" font-family="Times Roman,serif" font-size="14.00">Member</text>
</g>
<!-- Group&#45;&gt;Member -->
<g id="edge18" class="edge"><title>Group&#45;&gt;Member</title>
<path fill="none" stroke="#ebf1a8" d="M863.446,-160.986C874.652,-130.121 893.266,-78.8582 904.795,-47.1052"/>
<ellipse fill="none" stroke="#ebf1a8" cx="862.009" cy="-164.941" rx="4.00001" ry="4.00001"/>
<polygon fill="#ebf1a8" stroke="#ebf1a8" points="904.858,-46.9315 912.501,-39.0678 906.565,-42.2317 908.271,-37.5319 908.271,-37.5319 908.271,-37.5319 906.565,-42.2317 904.041,-35.9961 904.858,-46.9315 904.858,-46.9315"/>
</g>
<!-- Group&#45;&gt;User -->
<g id="edge20" class="edge"><title>Group&#45;&gt;User</title>
<path fill="none" stroke="#31f18b" d="M882.746,-164.707C895.804,-154.58 911.191,-142.648 924.141,-132.605"/>
<polygon fill="#31f18b" stroke="#31f18b" points="882.685,-164.754 872.026,-167.326 878.734,-167.818 874.783,-170.882 874.783,-170.882 874.783,-170.882 878.734,-167.818 877.541,-174.438 882.685,-164.754 882.685,-164.754"/>
<polygon fill="#31f18b" stroke="#31f18b" points="924.347,-132.445 935.007,-129.873 928.298,-129.381 932.249,-126.317 932.249,-126.317 932.249,-126.317 928.298,-129.381 929.492,-122.761 924.347,-132.445 924.347,-132.445"/>
</g>
<!-- Ability -->
<g id="node7" class="node"><title>Ability</title>
<polygon fill="none" stroke="black" points="978,-309 918,-309 918,-273 978,-273 978,-309"/>
<text text-anchor="middle" x="948" y="-287.4" font-family="Times Roman,serif" font-size="14.00">Ability</text>
</g>
<!-- Reviewer -->
<g id="node8" class="node"><title>Reviewer</title>
<ellipse fill="none" stroke="black" cx="1041" cy="-19" rx="56.7776" ry="18.3848"/>
<text text-anchor="middle" x="1041" y="-15.4" font-family="Times Roman,serif" font-size="14.00">Reviewer</text>
</g>
<!-- Note&#45;&gt;Coordinate -->
<g id="edge22" class="edge"><title>Note&#45;&gt;Coordinate</title>
<path fill="none" stroke="#624ca0" d="M351.053,-84.4467C347.142,-72.8405 342.549,-59.21 338.57,-47.4014"/>
<ellipse fill="none" stroke="#624ca0" cx="352.449" cy="-88.5918" rx="4.00001" ry="4.00001"/>
<polygon fill="#624ca0" stroke="#624ca0" points="338.457,-47.0664 339.528,-36.1529 336.861,-42.3281 335.264,-37.5899 335.264,-37.5899 335.264,-37.5899 336.861,-42.3281 331,-39.0268 338.457,-47.0664 338.457,-47.0664"/>
</g>
<!-- ActsAsTaggableOn::Tagging -->
<g id="node28" class="node"><title>ActsAsTaggableOn::Tagging</title>
<ellipse fill="none" stroke="black" cx="556" cy="-19" rx="144.25" ry="18.3848"/>
<text text-anchor="middle" x="556" y="-15.4" font-family="Times Roman,serif" font-size="14.00">ActsAsTaggableOn::Tagging</text>
</g>
<!-- Note&#45;&gt;ActsAsTaggableOn::Tagging -->
<g id="edge24" class="edge"><title>Note&#45;&gt;ActsAsTaggableOn::Tagging</title>
<path fill="none" stroke="#eaec98" d="M362.976,-84.3892C365.437,-74.1735 369.905,-63.2406 378,-56 388.522,-46.5885 413.425,-39.2366 441.373,-33.6541"/>
<ellipse fill="none" stroke="#eaec98" cx="362.178" cy="-88.4201" rx="4.00001" ry="4.00001"/>
<polygon fill="#eaec98" stroke="#eaec98" points="441.543,-33.6218 452.208,-36.1735 446.455,-32.6873 451.367,-31.7528 451.367,-31.7528 451.367,-31.7528 446.455,-32.6873 450.526,-27.3321 441.543,-33.6218 441.543,-33.6218"/>
<text text-anchor="middle" x="407.5" y="-61.4" font-family="Times Roman,serif" font-size="14.00">taggings</text>
</g>
<!-- Note&#45;&gt;ActsAsTaggableOn::Tagging -->
<g id="edge28" class="edge"><title>Note&#45;&gt;ActsAsTaggableOn::Tagging</title>
<path fill="none" stroke="#f3762d" d="M394.779,-96.2294C408.306,-89.9893 423.714,-82.2559 437,-74 448.025,-67.149 448.709,-62.4042 460,-56 470.439,-50.0792 482.01,-44.7176 493.402,-40.0296"/>
<ellipse fill="none" stroke="#f3762d" cx="391.126" cy="-97.8849" rx="4.00002" ry="4.00002"/>
<polygon fill="#f3762d" stroke="#f3762d" points="493.607,-39.948 504.562,-40.434 498.253,-38.1003 502.899,-36.2526 502.899,-36.2526 502.899,-36.2526 498.253,-38.1003 501.236,-32.0711 493.607,-39.948 493.607,-39.948"/>
<text text-anchor="middle" x="504.5" y="-61.4" font-family="Times Roman,serif" font-size="14.00">tag_taggings</text>
</g>
<!-- ActsAsTaggableOn::Tag -->
<g id="node30" class="node"><title>ActsAsTaggableOn::Tag</title>
<ellipse fill="none" stroke="black" cx="123" cy="-19" rx="123.243" ry="18.3848"/>
<text text-anchor="middle" x="123" y="-15.4" font-family="Times Roman,serif" font-size="14.00">ActsAsTaggableOn::Tag</text>
</g>
<!-- Note&#45;&gt;ActsAsTaggableOn::Tag -->
<g id="edge26" class="edge"><title>Note&#45;&gt;ActsAsTaggableOn::Tag</title>
<path fill="none" stroke="#af10ec" d="M321.092,-96.5656C304.773,-90.1567 285.737,-82.2116 269,-74 254.697,-66.9825 252.556,-62.4771 238,-56 223.242,-49.4332 206.956,-43.4688 191.396,-38.3387"/>
<polygon fill="#af10ec" stroke="#af10ec" points="321.532,-96.7359 329.233,-104.543 326.195,-98.5411 330.857,-100.346 330.857,-100.346 330.857,-100.346 326.195,-98.5411 332.482,-96.1498 321.532,-96.7359 321.532,-96.7359"/>
<polygon fill="#af10ec" stroke="#af10ec" points="191.341,-38.3208 183.202,-30.9711 186.582,-36.7876 181.822,-35.2544 181.822,-35.2544 181.822,-35.2544 186.582,-36.7876 180.443,-39.5376 191.341,-38.3208 191.341,-38.3208"/>
<text text-anchor="middle" x="303.5" y="-61.4" font-family="Times Roman,serif" font-size="14.00">base_tags</text>
</g>
<!-- Note&#45;&gt;ActsAsTaggableOn::Tag -->
<g id="edge30" class="edge"><title>Note&#45;&gt;ActsAsTaggableOn::Tag</title>
<path fill="none" stroke="#b41c01" d="M316.042,-104.959C284.01,-99.5221 240.091,-89.8877 204,-74 186.053,-66.0996 167.833,-54.151 153.23,-43.407"/>
<polygon fill="#b41c01" stroke="#b41c01" points="316.129,-104.973 325.276,-111.021 321.064,-105.776 325.999,-106.579 325.999,-106.579 325.999,-106.579 321.064,-105.776 326.722,-102.137 316.129,-104.973 316.129,-104.973"/>
<polygon fill="#b41c01" stroke="#b41c01" points="153.063,-43.2813 147.789,-33.6671 149.071,-40.2706 145.079,-37.2599 145.079,-37.2599 145.079,-37.2599 149.071,-40.2706 142.37,-40.8527 153.063,-43.2813 153.063,-43.2813"/>
<text text-anchor="middle" x="219" y="-61.4" font-family="Times Roman,serif" font-size="14.00">tags</text>
</g>
<!-- Blueprint&#45;&gt;Coordinate -->
<g id="edge32" class="edge"><title>Blueprint&#45;&gt;Coordinate</title>
<path fill="none" stroke="#9a09b4" d="M312.976,-170.825C271.7,-153.827 214.272,-122.695 188,-74 184.201,-66.9594 183.114,-62.3342 188,-56 188.345,-55.5526 232.234,-44.0773 270.949,-34.0243"/>
<ellipse fill="none" stroke="#9a09b4" cx="316.771" cy="-172.347" rx="4.00001" ry="4.00001"/>
<polygon fill="#9a09b4" stroke="#9a09b4" points="270.971,-34.0186 281.781,-35.8624 275.811,-32.7626 280.651,-31.5067 280.651,-31.5067 280.651,-31.5067 275.811,-32.7626 279.52,-27.151 270.971,-34.0186 270.971,-34.0186"/>
</g>
<!-- Blueprint&#45;&gt;Note -->
<g id="edge34" class="edge"><title>Blueprint&#45;&gt;Note</title>
<path fill="none" stroke="#027309" d="M360,-157.938C360,-151.986 360,-145.725 360,-139.783"/>
<polygon fill="#027309" stroke="#027309" points="360,-158.213 355.5,-168.213 360,-163.213 360,-168.213 360,-168.213 360,-168.213 360,-163.213 364.5,-168.214 360,-158.213 360,-158.213"/>
<polygon fill="#027309" stroke="#027309" points="360,-139.57 364.5,-129.57 360,-134.57 360,-129.57 360,-129.57 360,-129.57 360,-134.57 355.5,-129.57 360,-139.57 360,-139.57"/>
</g>
<!-- Blueprint&#45;&gt;ActsAsTaggableOn::Tagging -->
<g id="edge36" class="edge"><title>Blueprint&#45;&gt;ActsAsTaggableOn::Tagging</title>
<path fill="none" stroke="#27266c" d="M409.337,-171.479C453.591,-154.815 516.426,-123.799 549,-74 553.999,-66.3575 556.254,-56.8255 557.113,-47.8543"/>
<ellipse fill="none" stroke="#27266c" cx="405.332" cy="-172.949" rx="4.00001" ry="4.00001"/>
<polygon fill="#27266c" stroke="#27266c" points="557.119,-47.7175 562.055,-37.9256 557.339,-42.7223 557.56,-37.7272 557.56,-37.7272 557.56,-37.7272 557.339,-42.7223 553.064,-37.5288 557.119,-47.7175 557.119,-47.7175"/>
<text text-anchor="middle" x="565.5" y="-107.4" font-family="Times Roman,serif" font-size="14.00">taggings</text>
</g>
<!-- Blueprint&#45;&gt;ActsAsTaggableOn::Tagging -->
<g id="edge40" class="edge"><title>Blueprint&#45;&gt;ActsAsTaggableOn::Tagging</title>
<path fill="none" stroke="#df21be" d="M421.755,-180.875C485.081,-173.168 577.295,-157.491 599,-130 618.819,-104.899 598.963,-69.5828 580.157,-45.5744"/>
<ellipse fill="none" stroke="#df21be" cx="417.768" cy="-181.349" rx="4.00001" ry="4.00001"/>
<polygon fill="#df21be" stroke="#df21be" points="579.953,-45.3251 577.097,-34.7376 576.784,-41.4571 573.616,-37.5892 573.616,-37.5892 573.616,-37.5892 576.784,-41.4571 570.135,-40.4409 579.953,-45.3251 579.953,-45.3251"/>
<text text-anchor="middle" x="652.5" y="-107.4" font-family="Times Roman,serif" font-size="14.00">tag_taggings</text>
</g>
<!-- Blueprint&#45;&gt;ActsAsTaggableOn::Tag -->
<g id="edge38" class="edge"><title>Blueprint&#45;&gt;ActsAsTaggableOn::Tag</title>
<path fill="none" stroke="#7a99f8" d="M296.194,-180.52C205.381,-170.621 48.0028,-150.69 32,-130 8.17766,-99.1996 47.3403,-64.6443 81.4735,-42.3932"/>
<polygon fill="#7a99f8" stroke="#7a99f8" points="296.442,-180.547 305.902,-186.094 301.413,-181.083 306.385,-181.62 306.385,-181.62 306.385,-181.62 301.413,-181.083 306.867,-177.146 296.442,-180.547 296.442,-180.547"/>
<polygon fill="#7a99f8" stroke="#7a99f8" points="81.545,-42.3482 92.4034,-40.8166 85.7734,-39.6796 90.0017,-37.0111 90.0017,-37.0111 90.0017,-37.0111 85.7734,-39.6796 87.6,-33.2055 81.545,-42.3482 81.545,-42.3482"/>
<text text-anchor="middle" x="66.5" y="-107.4" font-family="Times Roman,serif" font-size="14.00">base_tags</text>
</g>
<!-- Blueprint&#45;&gt;ActsAsTaggableOn::Tag -->
<g id="edge42" class="edge"><title>Blueprint&#45;&gt;ActsAsTaggableOn::Tag</title>
<path fill="none" stroke="#0b719f" d="M301.744,-175.516C252.793,-164.842 187.75,-147.929 168,-130 144.29,-108.476 132.821,-72.6793 127.447,-47.5712"/>
<polygon fill="#0b719f" stroke="#0b719f" points="301.834,-175.535 310.668,-182.032 306.723,-176.584 311.612,-177.632 311.612,-177.632 311.612,-177.632 306.723,-176.584 312.555,-173.232 301.834,-175.535 301.834,-175.535"/>
<polygon fill="#0b719f" stroke="#0b719f" points="127.405,-47.3544 129.916,-36.68 126.451,-42.4461 125.498,-37.5378 125.498,-37.5378 125.498,-37.5378 126.451,-42.4461 121.081,-38.3956 127.405,-47.3544 127.405,-47.3544"/>
<text text-anchor="middle" x="183" y="-107.4" font-family="Times Roman,serif" font-size="14.00">tags</text>
</g>
<!-- City&#45;&gt;Project -->
<g id="edge50" class="edge"><title>City&#45;&gt;Project</title>
<path fill="none" stroke="#12f1d1" d="M1034.34,-205.456C1033.89,-205.64 1033.45,-205.821 1033,-206 983.037,-226.031 964.897,-217.575 918,-244 906.43,-250.519 895.035,-259.671 885.01,-268.169"/>
<polygon fill="#12f1d1" stroke="#12f1d1" points="1034.67,-205.313 1045.64,-205.458 1039.26,-203.322 1043.85,-201.33 1043.85,-201.33 1043.85,-201.33 1039.26,-203.322 1042.05,-197.202 1034.67,-205.313 1034.67,-205.313"/>
<polygon fill="#12f1d1" stroke="#12f1d1" points="884.883,-268.277 874.36,-271.362 881.085,-271.529 877.287,-274.781 877.287,-274.781 877.287,-274.781 881.085,-271.529 880.213,-278.199 884.883,-268.277 884.883,-268.277"/>
</g>
<!-- City&#45;&gt;Reviewer -->
<g id="edge44" class="edge"><title>City&#45;&gt;Reviewer</title>
<path fill="none" stroke="#6c663e" d="M1060.33,-160.225C1056.12,-129.453 1049.23,-79.1502 1044.92,-47.6215"/>
<ellipse fill="none" stroke="#6c663e" cx="1060.91" cy="-164.416" rx="4.00001" ry="4.00001"/>
<polygon fill="#6c663e" stroke="#6c663e" points="1044.92,-47.6118 1048.02,-37.0938 1044.24,-42.658 1043.56,-37.7042 1043.56,-37.7042 1043.56,-37.7042 1044.24,-42.658 1039.1,-38.3147 1044.92,-47.6118 1044.92,-47.6118"/>
</g>
<!-- City&#45;&gt;Seal -->
<g id="edge48" class="edge"><title>City&#45;&gt;Seal</title>
<path fill="none" stroke="#665059" d="M1076.65,-161.702C1092.21,-130.575 1118.53,-77.9432 1134.48,-46.0388"/>
<ellipse fill="none" stroke="#665059" cx="1074.78" cy="-165.443" rx="4.00002" ry="4.00002"/>
<polygon fill="#665059" stroke="#665059" points="1134.6,-45.794 1143.1,-38.8622 1136.84,-41.3218 1139.08,-36.8497 1139.08,-36.8497 1139.08,-36.8497 1136.84,-41.3218 1135.05,-34.8372 1134.6,-45.794 1134.6,-45.794"/>
</g>
<!-- City&#45;&gt;User -->
<g id="edge46" class="edge"><title>City&#45;&gt;User</title>
<path fill="none" stroke="#6dcea5" d="M1035.07,-167.369C1018.86,-156.368 998.661,-142.663 982.242,-131.521"/>
<polygon fill="#6dcea5" stroke="#6dcea5" points="1035.18,-167.445 1040.93,-176.784 1039.32,-170.253 1043.46,-173.06 1043.46,-173.06 1043.46,-173.06 1039.32,-170.253 1045.98,-169.337 1035.18,-167.445 1035.18,-167.445"/>
<polygon fill="#6dcea5" stroke="#6dcea5" points="981.832,-131.243 976.084,-121.905 977.695,-128.436 973.557,-125.628 973.557,-125.628 973.557,-125.628 977.695,-128.436 971.031,-129.352 981.832,-131.243 981.832,-131.243"/>
</g>
<!-- User&#45;&gt;Reviewer -->
<g id="edge54" class="edge"><title>User&#45;&gt;Reviewer</title>
<path fill="none" stroke="#c0781a" d="M973.744,-88.5228C986.712,-75.1177 1003.21,-58.0664 1016.62,-44.2055"/>
<ellipse fill="none" stroke="#c0781a" cx="970.693" cy="-91.6773" rx="4.00002" ry="4.00002"/>
<polygon fill="#c0781a" stroke="#c0781a" points="1016.75,-44.0639 1026.94,-40.0054 1020.23,-40.4703 1023.71,-36.8766 1023.71,-36.8766 1023.71,-36.8766 1020.23,-40.4703 1020.47,-33.7478 1016.75,-44.0639 1016.75,-44.0639"/>
</g>
<!-- User&#45;&gt;Participant -->
<g id="edge52" class="edge"><title>User&#45;&gt;Participant</title>
<path fill="none" stroke="#9057d5" d="M920.537,-93.9729C892.541,-78.8223 851.477,-56.5996 821.323,-40.2809"/>
<ellipse fill="none" stroke="#9057d5" cx="924.125" cy="-95.9148" rx="4.00002" ry="4.00002"/>
<polygon fill="#9057d5" stroke="#9057d5" points="821.137,-40.18 814.484,-31.4628 816.739,-37.8002 812.342,-35.4204 812.342,-35.4204 812.342,-35.4204 816.739,-37.8002 810.2,-39.378 821.137,-40.18 821.137,-40.18"/>
</g>
<!-- User&#45;&gt;Seal -->
<g id="edge56" class="edge"><title>User&#45;&gt;Seal</title>
<path fill="none" stroke="#1ffcb4" d="M987.466,-94.3525C1023.29,-77.5378 1078.26,-51.737 1113.67,-35.1151"/>
<polygon fill="#1ffcb4" stroke="#1ffcb4" points="987.08,-94.534 976.115,-94.7095 982.553,-96.6585 978.027,-98.7831 978.027,-98.7831 978.027,-98.7831 982.553,-96.6585 979.939,-102.857 987.08,-94.534 987.08,-94.534"/>
<polygon fill="#1ffcb4" stroke="#1ffcb4" points="1114.05,-34.9345 1125.02,-34.759 1118.58,-32.81 1123.1,-30.6854 1123.1,-30.6854 1123.1,-30.6854 1118.58,-32.81 1121.19,-26.6118 1114.05,-34.9345 1114.05,-34.9345"/>
</g>
<!-- User&#45;&gt;Member -->
<g id="edge58" class="edge"><title>User&#45;&gt;Member</title>
<path fill="none" stroke="#310101" d="M941.647,-85.258C936.824,-73.2639 931.076,-58.9736 926.156,-46.7402"/>
<ellipse fill="none" stroke="#310101" cx="943.197" cy="-89.1126" rx="4.00001" ry="4.00001"/>
<polygon fill="#310101" stroke="#310101" points="926.153,-46.7312 926.596,-35.7743 924.287,-42.0923 922.421,-37.4534 922.421,-37.4534 922.421,-37.4534 924.287,-42.0923 918.246,-39.1325 926.153,-46.7312 926.153,-46.7312"/>
</g>
</g>
</svg>
